<svg xmlns="http://www.w3.org/2000/svg" viewBox="0 0 500 500"><g id="freepik--background-complete--inject-212"><rect y="382.4" width="500" height="0.25" style="fill:#ebebeb"></rect><rect x="416.78" y="398.49" width="33.12" height="0.25" style="fill:#ebebeb"></rect><rect x="322.53" y="401.21" width="8.69" height="0.25" style="fill:#ebebeb"></rect><rect x="396.59" y="389.21" width="19.19" height="0.25" style="fill:#ebebeb"></rect><rect x="52.46" y="390.89" width="43.19" height="0.25" style="fill:#ebebeb"></rect><rect x="104.56" y="390.89" width="6.33" height="0.25" style="fill:#ebebeb"></rect><rect x="131.47" y="395.11" width="93.68" height="0.25" style="fill:#ebebeb"></rect><path d="M237,337.8H43.91a5.71,5.71,0,0,1-5.7-5.71V60.66A5.71,5.71,0,0,1,43.91,55H237a5.71,5.71,0,0,1,5.71,5.71V332.09A5.71,5.71,0,0,1,237,337.8ZM43.91,55.2a5.46,5.46,0,0,0-5.45,5.46V332.09a5.46,5.46,0,0,0,5.45,5.46H237a5.47,5.47,0,0,0,5.46-5.46V60.66A5.47,5.47,0,0,0,237,55.2Z" style="fill:#ebebeb"></path><path d="M453.31,337.8H260.21a5.72,5.72,0,0,1-5.71-5.71V60.66A5.72,5.72,0,0,1,260.21,55h193.1A5.71,5.71,0,0,1,459,60.66V332.09A5.71,5.71,0,0,1,453.31,337.8ZM260.21,55.2a5.47,5.47,0,0,0-5.46,5.46V332.09a5.47,5.47,0,0,0,5.46,5.46h193.1a5.47,5.47,0,0,0,5.46-5.46V60.66a5.47,5.47,0,0,0-5.46-5.46Z" style="fill:#ebebeb"></path><path d="M295,203.45c38.72,0,44,25.36,44,25.36s15.36-5.64,36.16,2,26.69,31.54,27.18,43.07c0,0,10.44-9.35,31,3.2s7.75,45.72,7.75,45.72,17.93.3,20.77,22.65c0,0,21.62,4.73,16.88,37H22.47s-4.37-10,4.94-18.94,18.24-6.32,18.24-6.32-5.24-29.81,20.6-44.45,41.47-6.22,41.47-6.22-6.5-27,23.75-52.5,58.64-9.25,58.64-9.25.18-17,30.47-23c0,0,1.51-27.27,36.33-30.47C284.73,188.75,295,203.45,295,203.45Z" style="fill:#f0f0f0"></path><path d="M445.73,288.4c0-14.49-15.44-11.81-15.44-11.81a17.35,17.35,0,0,0-17.35-17.35l-.31,0a18.81,18.81,0,0,0-34.89-9.51,21.48,21.48,0,0,0-25.5,21.16,21.42,21.42,0,0,0,.23,3.12,10.16,10.16,0,0,0-13.09,9.74,10.55,10.55,0,0,0,.07,1.13c-41.2,3-82,9.65-82,9.65h210C463.37,292,445.73,288.4,445.73,288.4Z" style="fill:#e6e6e6"></path><path d="M56,302.08c0-14.5,15.44-11.82,15.44-11.82a17.34,17.34,0,0,1,17.34-17.34h.31a18.82,18.82,0,0,1,34.9-9.51,21.53,21.53,0,0,1,25.5,21.16,21.42,21.42,0,0,1-.23,3.12,10.41,10.41,0,0,1,2.92-.43,10.17,10.17,0,0,1,10.17,10.17,10.57,10.57,0,0,1-.07,1.14c41.2,2.95,82,9.65,82,9.65H34.31C38.33,305.68,56,302.08,56,302.08Z" style="fill:#e6e6e6"></path><path d="M168.42,220.55c0-11.88,12.65-9.68,12.65-9.68a14.22,14.22,0,0,1,14.22-14.22h.26a15.43,15.43,0,0,1,28.61-7.8,17.39,17.39,0,0,1,3.25-.3,17.65,17.65,0,0,1,17.65,17.65,18,18,0,0,1-.19,2.56,8.25,8.25,0,0,1,2.4-.36,8.34,8.34,0,0,1,8.33,8.34c0,.32,0,.63,0,.93,33.77,2.42,67.22,7.91,67.22,7.91H150.66C154,223.51,168.42,220.55,168.42,220.55Z" style="fill:#e6e6e6"></path><circle cx="230.42" cy="121.64" r="25.56" style="fill:#f0f0f0"></circle></g><g id="freepik--Shadow--inject-212"><ellipse id="freepik--path--inject-212" cx="250" cy="416.24" rx="193.89" ry="11.32" style="fill:#f5f5f5"></ellipse></g><g id="freepik--Clouds--inject-212"><path d="M149.81,126.09a4.57,4.57,0,0,0-4.58-4.57,4.42,4.42,0,0,0-1.31.19,9.32,9.32,0,0,0,.1-1.4,9.68,9.68,0,0,0-9.68-9.69,9.43,9.43,0,0,0-1.78.17,8.47,8.47,0,0,0-15.7,4.28h-.14a7.8,7.8,0,1,0,0,15.6h28.64A4.56,4.56,0,0,0,149.81,126.09Z" style="fill:#407BFF"></path><path d="M426,216.71a4.58,4.58,0,0,0-4.57-4.57,4.79,4.79,0,0,0-1.32.19,9.13,9.13,0,0,0,.11-1.4,9.68,9.68,0,0,0-9.69-9.68,10.43,10.43,0,0,0-1.78.16,8.46,8.46,0,0,0-15.69,4.28h-.14a7.8,7.8,0,0,0,0,15.6h28.64A4.57,4.57,0,0,0,426,216.71Z" style="fill:#407BFF"></path><path d="M274.27,167.82a7.24,7.24,0,0,1,7.24-7.23,7.4,7.4,0,0,1,2.07.3,16.11,16.11,0,0,1-.16-2.22,15.32,15.32,0,0,1,15.32-15.32,15.52,15.52,0,0,1,2.83.26,13.39,13.39,0,0,1,24.83,6.77h.22a12.35,12.35,0,0,1,0,24.69H281.3A7.23,7.23,0,0,1,274.27,167.82Z" style="fill:#407BFF"></path><path d="M71.2,225.73a8.7,8.7,0,0,1,11.21-8.34,18.14,18.14,0,0,1-.2-2.67,18.43,18.43,0,0,1,18.44-18.44,18,18,0,0,1,3.39.32,16.12,16.12,0,0,1,29.89,8.14h.26a14.85,14.85,0,1,1,0,29.7H79.66A8.7,8.7,0,0,1,71.2,225.73Z" style="fill:#407BFF"></path><path d="M205.45,153.27a2.84,2.84,0,0,0-2.84-2.84,2.81,2.81,0,0,0-.82.12,4.94,4.94,0,0,0,.07-.87,6,6,0,0,0-6-6,6.74,6.74,0,0,0-1.11.1,5.26,5.26,0,0,0-9.76,2.66h-.09a4.85,4.85,0,0,0,0,9.7h17.81A2.84,2.84,0,0,0,205.45,153.27Z" style="fill:#407BFF"></path><path d="M362.41,121.76a2.86,2.86,0,0,1,2.85-2.85,2.75,2.75,0,0,1,.81.13,6.4,6.4,0,0,1-.06-.88,6,6,0,0,1,6-6,5.8,5.8,0,0,1,1.11.11,5.26,5.26,0,0,1,9.76,2.66H383a4.85,4.85,0,0,1,0,9.7h-17.8A2.85,2.85,0,0,1,362.41,121.76Z" style="fill:#407BFF"></path><g style="opacity:0.8;isolation:isolate"><path d="M149.81,126.09a4.57,4.57,0,0,0-4.58-4.57,4.42,4.42,0,0,0-1.31.19,9.32,9.32,0,0,0,.1-1.4,9.68,9.68,0,0,0-9.68-9.69,9.43,9.43,0,0,0-1.78.17,8.47,8.47,0,0,0-15.7,4.28h-.14a7.8,7.8,0,1,0,0,15.6h28.64A4.56,4.56,0,0,0,149.81,126.09Z" style="fill:#fff"></path><path d="M426,216.71a4.58,4.58,0,0,0-4.57-4.57,4.79,4.79,0,0,0-1.32.19,9.13,9.13,0,0,0,.11-1.4,9.68,9.68,0,0,0-9.69-9.68,10.43,10.43,0,0,0-1.78.16,8.46,8.46,0,0,0-15.69,4.28h-.14a7.8,7.8,0,0,0,0,15.6h28.64A4.57,4.57,0,0,0,426,216.71Z" style="fill:#fff"></path><path d="M274.27,167.82a7.24,7.24,0,0,1,7.24-7.23,7.4,7.4,0,0,1,2.07.3,16.11,16.11,0,0,1-.16-2.22,15.32,15.32,0,0,1,15.32-15.32,15.52,15.52,0,0,1,2.83.26,13.39,13.39,0,0,1,24.83,6.77h.22a12.35,12.35,0,0,1,0,24.69H281.3A7.23,7.23,0,0,1,274.27,167.82Z" style="fill:#fff"></path><path d="M71.2,225.73a8.7,8.7,0,0,1,11.21-8.34,18.14,18.14,0,0,1-.2-2.67,18.43,18.43,0,0,1,18.44-18.44,18,18,0,0,1,3.39.32,16.12,16.12,0,0,1,29.89,8.14h.26a14.85,14.85,0,1,1,0,29.7H79.66A8.7,8.7,0,0,1,71.2,225.73Z" style="fill:#fff"></path><path d="M205.45,153.27a2.84,2.84,0,0,0-2.84-2.84,2.81,2.81,0,0,0-.82.12,4.94,4.94,0,0,0,.07-.87,6,6,0,0,0-6-6,6.74,6.74,0,0,0-1.11.1,5.26,5.26,0,0,0-9.76,2.66h-.09a4.85,4.85,0,0,0,0,9.7h17.81A2.84,2.84,0,0,0,205.45,153.27Z" style="fill:#fff"></path><path d="M362.41,121.76a2.86,2.86,0,0,1,2.85-2.85,2.75,2.75,0,0,1,.81.13,6.4,6.4,0,0,1-.06-.88,6,6,0,0,1,6-6,5.8,5.8,0,0,1,1.11.11,5.26,5.26,0,0,1,9.76,2.66H383a4.85,4.85,0,0,1,0,9.7h-17.8A2.85,2.85,0,0,1,362.41,121.76Z" style="fill:#fff"></path></g></g><g id="freepik--Island--inject-212"><path d="M256.91,230.39c1.19-1.78,9.14-15.73,12.92-14.35s8.31,14.94,9.89,14.74,5.15-5.54,7.92-3,7.46,10,8.9,11.48,10.27,22.55,10.27,22.55,6.54,37.78,11.29,41.93,3.95,21.56,6.33,25.91,8.31,24.53,8.31,24.53H137.31s16.09-42.48,19.32-49,8.51-7.21,13.48-13.41,4.78-7.73,9.33-15.57,4.55-11.79,12.06-17.73,8.51-2.77,13.06-11.27,8.74-13.45,13.45-16.62,8.35-15.82,12-16.42,13.53,16.22,15.11,17.21S256.91,230.39,256.91,230.39Z" style="fill:#407BFF"></path><path d="M332.74,354.21H137.31s16.09-42.48,19.32-49c1.94-3.93,4.61-5.74,7.51-7.89a30.76,30.76,0,0,0,6-5.52c.39-.48.74-.93,1.07-1.36a40.5,40.5,0,0,0,4.15-6.54c1-2,2.09-4.19,4.11-7.67.95-1.64,1.71-3.11,2.37-4.46,2.51-5.12,3.75-8.57,9.69-13.27a33.82,33.82,0,0,1,6.79-4.21c2.2-1.13,3.64-2.15,6.27-7.06,4.55-8.51,8.74-13.45,13.45-16.62s8.35-15.82,12-16.42a3.64,3.64,0,0,1,2.52,1.2c4.44,3.8,11.3,15.2,12.59,16,1.58,1,11.8-1,11.8-1,1.19-1.78,9.14-15.73,12.92-14.35,2.09.77,4.4,5.23,6.31,9,1.57,3.11,2.87,5.79,3.58,5.7,1.51-.19,4.79-5,7.49-3.3a2.6,2.6,0,0,1,.43.33c2.77,2.57,7.46,10,8.9,11.48a24.18,24.18,0,0,1,2.06,3.84c3.07,6.49,8.21,18.71,8.21,18.71s6.54,37.78,11.29,41.93,3.95,21.56,6.33,25.91S332.74,354.21,332.74,354.21Z" style="fill:#fff;opacity:0.6000000000000001;isolation:isolate"></path><path d="M269.83,216c-1.23,0-9.94,12.47-10.1,15.52s-2.82,7.26-2.82,7.26a10.49,10.49,0,0,0-2.41-1c-1.26-.32-2.57,12-2.84,15.19a74.86,74.86,0,0,0,0,10.87c.26,1.57-1.89,8.71-1.89,8.71l4.73,2.89s-9.35.58-12,1.48-7.45,2.4-7.45,2.4l-.62,4.81-26.83,1.33s-2.07-9-4.57-10-8.36-.62-10.31-2-7.05-2.08-7.05-2.08l-3.27,2.08s-.23-.67-.56-1.72c2.51-5.12,3.75-8.57,9.69-13.27a33.82,33.82,0,0,1,6.79-4.21c2.9,1.11,5.32,2.23,5.32,2.23s-.37-1.84,2.08,1.06,5.62,5.3,6.15,6.34.26-4.23-1.06-5.81-2.72-1.59-3.21-3.7a16.07,16.07,0,0,1-.44-3.61l2.6-5.62s2.37-2.9,3.69-4.74,5.54-6.33,5.54-6.33,2.71,1.32,3.59,1.84,1.75,4.75,1.75,4.75l-1.83,7.06,4.7-9.9s-1-4.84,0-6.27,4.71-6.71,4.71-6.71-2.2-5.81-.79-7.65l1.43-1.84c4.44,3.8,11.3,15.2,12.59,16,1.58,1,11.8-1,11.8-1C258.1,228.61,266.05,214.66,269.83,216Z" style="opacity:0.1;isolation:isolate"></path><path d="M171.18,290.41a40.5,40.5,0,0,0,4.15-6.54c.94,2.58,3,4.8,3.8,7.9s.53,9.58.53,9.58l-3-5.15a9.39,9.39,0,0,0-3.83-4.43A4.39,4.39,0,0,1,171.18,290.41Z" style="opacity:0.1;isolation:isolate"></path><path d="M332.74,354.21H137.31s16.09-42.48,19.32-49c1.94-3.93,4.61-5.74,7.51-7.89,0,1.42,0,3.4,0,4.06.06,1.07-.59,2.35,0,3.83s1.57,18.31,1.57,18.31l5.26-8.62s3.92-1.41,5.17-1.95,3,3.71,4.55,5.77,2.11,6.38,2.91,10.86,3.69,5.54,4.22,8.12,7.91,6.38,9.49,6.78,5.8-.66,8.36-.8.87-4.34,1.88-7,3-31.51,3-31.51h29.16S244,323,244.09,323.49,252.36,338,252.36,338l4.55,2.33s18.22-7.33,18.75-8.13,6.33-8.43,6.6-10.35,6.85-13.38,7.64-12.81,5-2.94,11.08-6.84,6.06-4.28,6.33-4.41.79-16.22,1.31-17-4.21-9.76-6-11.87-5.32-9.76-7.65-12.66-2.95,0-5.06.53-1.32-4.22-3.43-1.85-4.74,10.82-4.94,12.62-6.66,5.84-9.33,11.84-3.4,3.23-5.54,4.49-3.4.33-5,1.65-1.84,3.16-4.22,8.7a39.16,39.16,0,0,0-3,15.76,30.73,30.73,0,0,1-2.14,10.18l-2.59-9.87.88-8.93,1.71-12.15,5.89-9.82a54.8,54.8,0,0,1,5.8,0c1.85.2,6.07-8.37,6.58-9.41s12.68-15.31,12.68-15.31.53-2.9,0-4.22-4.22,0-4.22,0l-1.58-4.75s-4.75-1.58-6.88-1.32-8.16,6.07-8.16,6.07l2.64-8.18,2.64-1.32s1.84-2.63,2.88-3.1,1.07-4.54,1.57-6.27.82-4.08,1.09-4.87c.16-.48,1.68-1.15,2.85-1.61,1.57,3.11,2.87,5.79,3.58,5.7,1.51-.19,4.79-5,7.49-3.3l-1.26.33L283,231.56l-2.9,4.36-1.58,5.54a10.23,10.23,0,0,0,3,.79c1.12,0,5.73,5.67,5.73,5.67v-.19c0,.19,7.12-4.16,9.76-4.16a3.37,3.37,0,0,0,1.58-.44c3.07,6.49,8.21,18.71,8.21,18.71s6.54,37.78,11.29,41.93,3.95,21.56,6.33,25.91S332.74,354.21,332.74,354.21Z" style="opacity:0.1;isolation:isolate"></path><path d="M256.91,230.39c-1.77-1.94-7.65,2-14.77.59s-12.83,5-15,10.68c-3.16,8.34-4.7,34.54-4.7,34.54l25-3.6s-2.37-20.65,3.15-34.77A17.66,17.66,0,0,1,256.91,230.39Z" style="fill:#407BFF"></path><path d="M256.91,230.39c-1.77-1.94-7.65,2-14.77.59s-12.83,5-15,10.68c-3.16,8.34-4.7,34.54-4.7,34.54l25-3.6s-2.37-20.65,3.15-34.77A17.66,17.66,0,0,1,256.91,230.39Z" style="fill:#fff;opacity:0.8;isolation:isolate"></path><path d="M252.36,232s-3.16,2.62-4.09,5.86-1.58.59-2,0-3.56,8-4.88,20.38,0,.66,0,.66,1.37-16.88,3.69-22.29c0,0-1.72,4.49-3.17,3.56s-.55-2-2.25-1.18-2.76,3.69-3.28,2.37-3.57,20.18-3.57,20.18-.92-18.2,3.83-24.8a16.84,16.84,0,0,1-3.17,3.17c-1.31.79-1.58.26-2.63-.13s-3.7,4.74-3.7,4.74,2.24-6.54,4.49-9.09,4.22-3,4.48-2.51-1.19,1.32,0,1.32,2.38-.79,2.9-.79-.79,3-.79,3,1.85-2.77,3.17-3.16,1.45.52,1.45.52l2.24-.92-.92,2.77s2.11-2.9,2.9-3,.52.66,1.45.26S251,230.79,252.36,232Z" style="fill:#fff;opacity:0.9;isolation:isolate"></path><path d="M203.61,275c3-2.56,1-2.46,4.87-1.11s5.87-.23,9.26-1.84,3.52-3.45,6.59-.63,5.89,1.71,8.61.62,1.51-1.78,5.06-.92,5.6-.67,7.83.33,4.46,2.46-.23,3.16-17.56,3.14-22,1.83-17.13,1-17.88.43S203.61,275,203.61,275Z" style="fill:#407BFF"></path><path d="M203.61,275c3-2.56,1-2.46,4.87-1.11s5.87-.23,9.26-1.84,3.52-3.45,6.59-.63,5.89,1.71,8.61.62,1.51-1.78,5.06-.92,5.6-.67,7.83.33,4.46,2.46-.23,3.16-17.56,3.14-22,1.83-17.13,1-17.88.43S203.61,275,203.61,275Z" style="fill:#fff;opacity:0.9;isolation:isolate"></path><path d="M230,276.2s-19.05-2-24.31.67c4.21,4.75,8.09,67.58,8.09,67.58h33.7S239.42,285.82,230,276.2Z" style="fill:#407BFF"></path><path d="M230,276.2s-19.05-2-24.31.67c4.21,4.75,8.09,67.58,8.09,67.58h33.7S239.42,285.82,230,276.2Z" style="fill:#fff;opacity:0.8;isolation:isolate"></path><path d="M207.13,277.73a59.75,59.75,0,0,1,2,6.45c.39,2.12,0-2,.92-2.63s2.51.53,2.51.53l4.09,15.69s-1.4-13.32-2.85-18.4c0,0,2.45,6,2.85,7.85s1.45.13,2.11-1.06,2.75.14,2.69.53-.06-.26,1-.39.39-5.28.39-5.28a125.17,125.17,0,0,1,3.77,16s-.56-6.89-1.79-13.72c0,0,1.07,2.77,1.79,2.9s.85-1.58,1.51-1.18,0,.39.66.39.52-4.22-.79-7.64c0,0,1.71,2.11,2.9,7.25,0,0,.27.66.79-.27a1.15,1.15,0,0,1,1.45-.53l.92,1.33s-3.42-7.72-4-8.54-3.61.11-3.41-.16.58,3.29.58,3.29-1.31-2.77-2.11-3.3.13,1.85-1.05,1.32L221.43,277s-.45-.77-.85,0-1.45.62-1.45.62l1.45,4.88-2.5-5.5a22.53,22.53,0,0,0-2.77,0c-.66.1-.29-.54-1.53-.35a13.57,13.57,0,0,0-3.35,1.37l-.79-1,.52,2.4-1.71-2.4Z" style="fill:#fff;opacity:0.9;isolation:isolate"></path><path d="M130.8,354.21s8.24-10.42,14.84-11.47,9.38,3.11,15.24,2.74,7.44,1.08,12.71-3.34,11.34-3.48,14.51-.91,1.58,5.72,9.23,3.22,7.91-5.24,12.4-4.14,5.8,4.14,8.7,4.14,3.15-2.11,6.72-2.31,4.88-1.94,7,.18,6.66-.49,7.55-1.09,6.69,1,8.67,1.91,3.72-1.59,6.14-1,7.18,1.38,9.55,2.31,3.43,2.76,11.87,0,15.3-4.6,20.31-1.31,2.37,5.29,10,3.24,8.14-5.51,13.17-2.73,3.45,7.66,9.78,5.62,13.49,2.17,14.79,4.94,5,4,6.83,6.42a10.19,10.19,0,0,1,2.11,4H118.05s3.84-5.57,6.74-6.35S130.8,354.21,130.8,354.21Z" style="fill:#fff"></path><path d="M222.55,322.9l-20.61-38.41s-9.44-6.29-13-9.7a58.88,58.88,0,0,1-6.33-7.21c-1-1.22-4-.12-6.47-5.89s-3.73-10.22-5.75-14-2.48-6.1-4.75-9.89.12-5.26-3.7-6.86-10.52-3.45-11.6-3.11-11.73,23.44-11.73,23.44-1.39,13.64-6.53,17.56-5.16-1-9,7S112,330.93,112,330.93l86.63-2Z" style="fill:#407BFF"></path><path d="M222.55,322.89l-23.89,6-86.61,2s.85-5.73,2.13-13.54c2.4-14.57,6.27-36.36,8.81-41.55,3.89-8,3.91-3.09,9-7s6.54-17.55,6.54-17.55,10.65-23.1,11.73-23.44,7.79,1.5,11.61,3.11,1.42,3.08,3.69,6.86,2.73,6.12,4.75,9.89,3.32,8.21,5.75,14,5.43,4.67,6.47,5.89a59.14,59.14,0,0,0,6.34,7.21c3.59,3.41,13,9.7,13,9.7L207.57,295Z" style="fill:#fff;opacity:0.2;isolation:isolate"></path><path d="M207.57,295l-6.08-7.57s-4.51-2.21-4.63-2.81-7.7-4-9.21-4-3.71,1.08-7,1.43-1,1.82-1.73,2.57-3.43,20.33-3.43,20.33-.36-11.08-1.07-11.87,0-4.08,0-4.19,1.07-6.84,1.07-6.84l5.16-8s-3.62-2.05-3.65-2.59-7.56-4.37-7.56-4.37l-5.16-1.31a50.91,50.91,0,0,0-3,6.22c-.61,1.88.11,5.94,0,7.52s.59,6.8.61,9.94a61.41,61.41,0,0,0,.46,6.51l-1.07,11.22v-8.22l-2-16.9-3.35-15,1.22-7.25,3.27-3.52a27.63,27.63,0,0,0,5.31,1.68c2.1.33,6.09,3.26,6.35,3.44-.21-.44-5.69-11.64-6.35-13s-4.43-8.38-4.43-8.38l-6.52-3.78s-3.8,5.41-5.69,7-3.32,5.67-3.32,5.67l-5,15.41,1.16,2.66a40.22,40.22,0,0,1,4.05,3.23,2.29,2.29,0,0,1,0,3.3l.24,2c.24,2,2.61,7.74,3.08,9s2.82,8.73,2.82,8.73v18.38s-2.34-12.73-2.66-13.47S143.23,282,143.23,282l-2.94-6.39-10.41-3.33-3.32,3.33s-3.55,14-4.92,16.77a12.56,12.56,0,0,0-1.09,5.91l-6.37,19.16c2.4-14.57,6.27-36.36,8.81-41.55,3.89-8,3.91-3.09,9-7s6.54-17.55,6.54-17.55,10.65-23.1,11.73-23.44,7.79,1.5,11.61,3.11,1.42,3.08,3.69,6.86,2.73,6.12,4.75,9.89,3.32,8.21,5.75,14,5.43,4.67,6.47,5.89a59.14,59.14,0,0,0,6.34,7.21c3.59,3.41,13,9.7,13,9.7Z" style="fill:#fff;opacity:0.2;isolation:isolate"></path><path d="M265.11,318s13.11-60.32,21.38-62.12,22.34-15.52,25.45-18,5.57-8.25,8.48-13,8.43-11.52,13.13-7.68,20.84,11.71,22.08,20.73S365,265,365.89,266.3s2.57,4.75,6.3,13.56,8.08,9.94,10,18.73,6.29,37.76,6.29,37.76h-40.7Z" style="fill:#407BFF"></path><path d="M388.52,336.36h-40.7l-82.08-18.19-.63-.13s13.11-60.32,21.38-62.12,22.34-15.51,25.45-18,5.57-8.25,8.48-13,8.43-11.52,13.12-7.68,20.84,11.71,22.08,20.72S365,265,365.89,266.29s2.57,4.76,6.3,13.58,8.08,9.93,10,18.73S388.52,336.36,388.52,336.36Z" style="fill:#fff;opacity:0.2;isolation:isolate"></path><path d="M388.52,336.36h-2.46L382.73,326,381,320.12l-2.5-10.73s-1-12-2-12-2.79-1.38-4-1.5-2.77,6.22-2.77,6.22l-5,6.31.09-16.28,4.94-7.91v-4.78l-3.84-7.63-3-3.29-3.67-12.6-4.72-3.44-4.76.87s-1.56,4-1.66,4.25c.1-.25,0,7.45,0,7.45l1.94,6.76-2.19,8.91v-8.17L344,263.09s.51-7,.51-8.28,1.55-4,1.55-4l2-10.22-4.14,2.6s-11.49-7.28-12.73-7.61-9.8-1.17-9.8-1.17l-5.73,10.73-1.24,8.23,2.73,3.4,3.26,4.56,1,3.74s2.65,7.91,1.46,8.67,3.41,3.52,3.41,3.52l2.78,7-2.23,17s-.59-11.34-.55-13.45-.66-1.84-2.89-3.54-3.67-9.1-3.5-10.5-4.83-8-5.14-10.39-2.8,0-2.8,0l-10.72-1.71-8-4s-3.91,7.08-4.58,8.91-5.54,4.29-6.49,4.05-13.4,38.42-16.38,47.61l-.63-.13s13.11-60.32,21.38-62.12,22.34-15.51,25.45-18,5.57-8.25,8.48-13,8.43-11.52,13.12-7.68,20.84,11.71,22.08,20.72S365,265,365.89,266.29s2.57,4.76,6.3,13.58,8.08,9.93,10,18.73S388.52,336.36,388.52,336.36Z" style="fill:#fff;opacity:0.2;isolation:isolate"></path><path d="M107.72,336.43s3.32-12.81,10.33-12.94,17.65-.8,19.26-1.66,8.56-1.13,10.42-.6-2.29,3.74,7.1,2.93a71.83,71.83,0,0,0,21.8-5.47,12.18,12.18,0,0,1,10.94.5c3.17,1.79,8.84,3.09,11.15,2s15.73-3.54,18.92-2.54,1.33,3.19,9.53,4.8,11.22,2.13,16.92,0,6.52-3.2,12.82-4.3,6.56-6.3,12.92-5.81,7.15,3.8,11.7.95,1.45-3.87,3.2-4.15,6.84-6.8,10.23-3.93,10.09,13.28,13.66,15.58,15.42,7.44,18.2,5.87,7.13-4,11.08-1.79-5,4.94,9.39,2.77S362.43,325.5,366,326s1.35.88,5.42,2.67,6.86,3.66,9.61,2.14,3.83-3.22,6.66,0,6.46,7,8.56,10.83S405,356.58,405,356.58l1.18,4.81H97.37s1.44-11.59,4.09-15.91S107.72,336.43,107.72,336.43Z" style="fill:#407BFF"></path><path d="M410,342.88l0,0c3.49-2.41,3.84.5,4.45,3.48q1,5.18,2.12,10.34c.24,1.2.77,2.66,2,2.78.59.05,1.18-.27,1.77-.18,1.27.18,1.58,1.86,1.55,3.14q-.1,5-.42,10c0,.22-6.09-.46-6.88-.31a19.58,19.58,0,0,1-8.37-.47c-14.71-3.39-29.93-3.58-45-3.76-75.87-.91-151.94-1.81-227.38,6.21-11,1.16-21.88,2.52-32.85,3.4-2.81.23-5.86.45-8.57-.47-2.39-.81-5.35-4-8-2.29-.36.22-.65.53-1,.75a4.83,4.83,0,0,1-1.44.5,13.7,13.7,0,0,1-5.68.47c-1.87-.38-3.68-1.8-3.87-3.71a8.61,8.61,0,0,1,.37-2.65c1.11-5.13-.17-11,2.79-15.32,1.23.29,1.83,1.64,2.34,2.79s1.42,2.43,2.67,2.32a109.4,109.4,0,0,1,2.54-13.56,11.4,11.4,0,0,1,2,5.47,8.93,8.93,0,0,0,2.12-6.49,8.82,8.82,0,0,1,0-3.47,11.8,11.8,0,0,1,1-1.81c1.25-2.28.86-4.94,1-7.42,0-.59.59-3.71,1.44-4.62.36-.39.77-.39,1.22.33.25.4-.52,1.13-.22,1.78.22.47,1.07.42,1.19,1.07a1.7,1.7,0,0,1-.13.76,4.16,4.16,0,0,0,0,1.79,7.93,7.93,0,0,0,1.29,3.89,5.62,5.62,0,0,1,.56.75,6.9,6.9,0,0,1,.3.75c1.78,4.57,6.2,2.55,6.44-1.61a18.15,18.15,0,0,1,.08-3.69c.17-.6.49-1.15.7-1.74.6-1.65.32-3.47.46-5.22.27-3.54,2.22-6.82,2.2-10.37,0-1.3,0-3.07,1.31-3.33.91-.18,1.7.69,2,1.56a26.21,26.21,0,0,0,.66,2.68c.52,1.14,1.77,2.06,1.63,3.31a8.75,8.75,0,0,1-.47,1.39c-.62,2.07,1.32,4,1.6,6.16a8.43,8.43,0,0,0,2.5,4.05c2.46,2.38,2.24-.5,2.62-2.63.44-2.45,2.52-4.56,2.26-7a1.35,1.35,0,0,1,.07-.87c.64-1,3.4,5.83,3.94,6.05a8.5,8.5,0,0,0,.11-3,11.36,11.36,0,0,1,1.31-5.8,4.89,4.89,0,0,0,.5-1.09,5.31,5.31,0,0,0,0-1.78,2.61,2.61,0,0,1,.36-1.72,1.08,1.08,0,0,1,1.56-.23c.42.44.22,1.14.28,1.74.22,2.31,1.68,5,2.56,7.1q2.84-9.22,4.76-18.68c.18-.88.53-1.94,1.41-2.07a1.54,1.54,0,0,1,1.54,1.14,5.46,5.46,0,0,1,.13,2.06,28.06,28.06,0,0,0,1.37,8.24l3.33,12.31a2.42,2.42,0,0,0,2-2,22.6,22.6,0,0,0,.26-3c.36-3,2.62-5.48,2.77-8.47,0-.66,0-1.46.6-1.78s1.47.29,1.63,1a7.56,7.56,0,0,1-.12,2.22,5.6,5.6,0,0,0,1.49,3.94A8.05,8.05,0,0,0,153,313.5a14.86,14.86,0,0,1,.26-2.59,8.81,8.81,0,0,1,.9-1.82c2.34-4.25,1.83-9.54,3.74-14a23,23,0,0,1,1.09,3.52c.32,1.84.87,3.66,1.3,5.48.85,3.55,1.3,7.75,2.76,11.06,2.84-1.47,4-7.63,4.32-10.53a29.65,29.65,0,0,1,.34-3.13,17.92,17.92,0,0,1,.8-2.55l2-5.39a1.35,1.35,0,0,1,.17-.34c.32-.4,1-.22,1.3.2a2.65,2.65,0,0,1,.29,1.48A45.94,45.94,0,0,0,174,305.08a84.48,84.48,0,0,0,3.09,10.51c.77-.46.72-1.56.68-2.46s.27-2.05,1.15-2.11a12.41,12.41,0,0,0,.61-1.46c1.74,2.11.54,4.53,1.36,6.77,2.09-1.1.94-4.37,2.07-6.14a5.75,5.75,0,0,0,.77-1.21c.21-.63-.11-2.14.64-2.5,1.21-.58,1.67,1.2,1.86,2a10.65,10.65,0,0,0,3.26,5.45c1.66-.91,1.69-3.21,2-5.07.26-1.43.84-2.78,1.17-4.2.5-2.12,1.44-3.89,2-5.93.27-1,.08-2,.32-3a.82.82,0,0,1,.45-.62c.15-.05.32,0,.46-.1a.58.58,0,0,0,.2-.46,23.17,23.17,0,0,1,.66-4.27,1.59,1.59,0,0,1,.94,1.42A142.72,142.72,0,0,0,202,308.38l.81-6.49a4.62,4.62,0,0,1,.47-1.8,2.18,2.18,0,0,1,3.46-.5c1,1.22.82,3.47,1,4.93.35,2.39,1.21,3.16,2.44,5.08a10.07,10.07,0,0,1,.72,2.51,4,4,0,0,0,3.29,2.72,1,1,0,0,0,.52,0,.92.92,0,0,0,.41-.44c.51-1,.24-2.23.3-3.36.13-2.32,1.7-4.3,2.3-6.55.39-1.42-.23-3.51.87-4.54a.94.94,0,0,1,.63,1c.49.28,1-.33,1.24-.84,2.23-4.95,2.84-10.45,4.81-15.32,1.62.9,2,4.07,2.35,5.66.59,2.66,1.26,5.13,2,7.75l.39,1.4c.32,1.11.63,2.22.87,3.34a6.37,6.37,0,0,1,.18,2.53c1.23-2.5,1.3-5.92,2.63-8.15a2.11,2.11,0,0,1,1.65,2.12,4.17,4.17,0,0,0-.06,1.53,6.32,6.32,0,0,0,.47.79,3.32,3.32,0,0,1,.3,1.24,13.34,13.34,0,0,1,0,3.34c-.16,1-.49,2.13.18,2.86.2.21.46.36.65.57a3,3,0,0,1,.52,1.35,10.85,10.85,0,0,0,1.88,4.08l2.79-7.49a2.85,2.85,0,0,1,1-1.57c2.35-1.31,4.38,11.18,6.93,3.3a13.19,13.19,0,0,0,.36-4.07c0-7.17,1.92-14.17,3.8-21.08.39-.7,1.57-.37,1.9.36a4.49,4.49,0,0,1,0,2.36c-.46,3.95,1.9,7.66,2.41,11.6.16,1.3.13,2.61.26,3.9a31.48,31.48,0,0,0,2,7.47c.48,1.34,1.13,2.85,2.48,3.29l2.25-9.4c.1-.43,3.43,2.78,3.57,3,1.7,3,.34,6.77,2.65,9.13,1.86,1.9,1,5.47,2.92,7.28a4.12,4.12,0,0,0,1-2.69c.69-4.7,2.93-9,4.05-13.65.21-.85.72-2.56,1.81-1.9.2.13.51,3.28.8,3.83a83.66,83.66,0,0,0,2.52-14.26c.17-1.39,1.25-8.31,4-6.5,1.69,1.12,1.32,5.68,1.45,7.39.2,2.75,1,5.21,1.1,8a39.22,39.22,0,0,0,1.24,7.81,19.86,19.86,0,0,0,2.07,6,2.38,2.38,0,0,0,1.41-1.69,9.58,9.58,0,0,0,.17-2.28,18.81,18.81,0,0,1,.63-4.71c.58-2.22,1.57-4.35,1.84-6.64.14-1.16.93-6.3,3.25-3.8.72.77.07,2.63.1,3.55.08,2.07.78,4.06.84,6.14,0,1.29-.07,2.57.07,3.85a5.58,5.58,0,0,0,1.5,3.45c-.6-.61,2.38-5.28,2.92-5.82a7.38,7.38,0,0,1,.47,2.21c.32-1.42,0-3,.36-4.35a13.55,13.55,0,0,1,.61-1.48,11.84,11.84,0,0,0,.59-2.65c.32-2.16.32-6.86,2-8.44,3.17-3,2.89,6.43,2.87,8.06A70.27,70.27,0,0,0,318.1,326c.22.67.65,1.47,1.36,1.4.48,0,.81-.49,1.06-.9,3.68-6.24,2.64-14.16,4.92-21,.49-1.47,1.13-2.89,1.49-4.4.45-1.86.47-3.8.85-5.68s3.72-7.51,4.2-2.68c.09.91-.09,1.82-.09,2.73,0,2.2,1.07,4.23,1.53,6.38.94,4.36-.54,9.41,2,13a51.59,51.59,0,0,1,1.91-5.26c.66-1.55,2-2.5,3-.71.67,1.22,0,4.23,0,5.6A16.74,16.74,0,0,0,341,318q1.5,6.24,3,12.47c.8.17,1.16-1,1.23-1.77a13.54,13.54,0,0,1,3-7.38c1-1.17,4.15,8,6.3,2,.45-1.26.91-2.53,1.37-3.8a21.34,21.34,0,0,0,1-3.31c.3-1.63.24-3.4,1.1-4.81,2.29-3.8,4,4.75,4.32,6.24.35,2,1.4,16.71,5.06,12.28,1-1.27.86-3.44,1.16-5,.53-2.68.52-5.64,1.37-8.24.35-1.06.89-2,1.19-3.11a19.71,19.71,0,0,0,.47-3.91,27.94,27.94,0,0,1,1-5.44c.23-.83.71-1.81,1.57-1.81,1.05,0,1.41,1.38,1.48,2.43a105.44,105.44,0,0,0,1.29,11.49c.19,1.11.05,3,.89,3.86,1.39,1.43,2.38.38,2.61-1.28a18.78,18.78,0,0,1,2.43-7c1.47,1.18,1.87,3.21,2.17,5.08.62,3.81,1.37,7.63,1.86,11.46.31,2.49.94,4.39,2.68,1.94a27.84,27.84,0,0,0,3.66-7.92,2,2,0,0,1,2.34,1,5.7,5.7,0,0,1,.43,2.75c0,2.82-.05,5.63-.08,8.44,0,1.56.3,3.57,1.83,3.89a2.71,2.71,0,0,0,2.68-1.62,30,30,0,0,1,1.48-3,4.22,4.22,0,0,1,4.62-1.45,2,2,0,0,1,.87.52,2.77,2.77,0,0,1,.5,1.15C408.49,337,408.9,340.31,410,342.88Z" style="fill:#407BFF"></path><path d="M410,342.88l0,0c3.49-2.41,3.84.5,4.45,3.48q1,5.18,2.12,10.34c.24,1.2.77,2.66,2,2.78.59.05,1.18-.27,1.77-.18,1.27.18,1.58,1.86,1.55,3.14q-.1,5-.42,10c0,.22-6.09-.46-6.88-.31a19.58,19.58,0,0,1-8.37-.47c-14.71-3.39-29.93-3.58-45-3.76-75.87-.91-151.94-1.81-227.38,6.21-11,1.16-21.88,2.52-32.85,3.4-2.81.23-5.86.45-8.57-.47-2.39-.81-5.35-4-8-2.29-.36.22-.65.53-1,.75a4.83,4.83,0,0,1-1.44.5,13.7,13.7,0,0,1-5.68.47c-1.87-.38-3.68-1.8-3.87-3.71a8.61,8.61,0,0,1,.37-2.65c1.11-5.13-.17-11,2.79-15.32,1.23.29,1.83,1.64,2.34,2.79s1.42,2.43,2.67,2.32a109.4,109.4,0,0,1,2.54-13.56,11.4,11.4,0,0,1,2,5.47,8.93,8.93,0,0,0,2.12-6.49,8.82,8.82,0,0,1,0-3.47,11.8,11.8,0,0,1,1-1.81c1.25-2.28.86-4.94,1-7.42,0-.59.59-3.71,1.44-4.62.36-.39.77-.39,1.22.33.25.4-.52,1.13-.22,1.78.22.47,1.07.42,1.19,1.07a1.7,1.7,0,0,1-.13.76,4.16,4.16,0,0,0,0,1.79,7.93,7.93,0,0,0,1.29,3.89,5.62,5.62,0,0,1,.56.75,6.9,6.9,0,0,1,.3.75c1.78,4.57,6.2,2.55,6.44-1.61a18.15,18.15,0,0,1,.08-3.69c.17-.6.49-1.15.7-1.74.6-1.65.32-3.47.46-5.22.27-3.54,2.22-6.82,2.2-10.37,0-1.3,0-3.07,1.31-3.33.91-.18,1.7.69,2,1.56a26.21,26.21,0,0,0,.66,2.68c.52,1.14,1.77,2.06,1.63,3.31a8.75,8.75,0,0,1-.47,1.39c-.62,2.07,1.32,4,1.6,6.16a8.43,8.43,0,0,0,2.5,4.05c2.46,2.38,2.24-.5,2.62-2.63.44-2.45,2.52-4.56,2.26-7a1.35,1.35,0,0,1,.07-.87c.64-1,3.4,5.83,3.94,6.05a8.5,8.5,0,0,0,.11-3,11.36,11.36,0,0,1,1.31-5.8,4.89,4.89,0,0,0,.5-1.09,5.31,5.31,0,0,0,0-1.78,2.61,2.61,0,0,1,.36-1.72,1.08,1.08,0,0,1,1.56-.23c.42.44.22,1.14.28,1.74.22,2.31,1.68,5,2.56,7.1q2.84-9.22,4.76-18.68c.18-.88.53-1.94,1.41-2.07a1.54,1.54,0,0,1,1.54,1.14,5.46,5.46,0,0,1,.13,2.06,28.06,28.06,0,0,0,1.37,8.24l3.33,12.31a2.42,2.42,0,0,0,2-2,22.6,22.6,0,0,0,.26-3c.36-3,2.62-5.48,2.77-8.47,0-.66,0-1.46.6-1.78s1.47.29,1.63,1a7.56,7.56,0,0,1-.12,2.22,5.6,5.6,0,0,0,1.49,3.94A8.05,8.05,0,0,0,153,313.5a14.86,14.86,0,0,1,.26-2.59,8.81,8.81,0,0,1,.9-1.82c2.34-4.25,1.83-9.54,3.74-14a23,23,0,0,1,1.09,3.52c.32,1.84.87,3.66,1.3,5.48.85,3.55,1.3,7.75,2.76,11.06,2.84-1.47,4-7.63,4.32-10.53a29.65,29.65,0,0,1,.34-3.13,17.92,17.92,0,0,1,.8-2.55l2-5.39a1.35,1.35,0,0,1,.17-.34c.32-.4,1-.22,1.3.2a2.65,2.65,0,0,1,.29,1.48A45.94,45.94,0,0,0,174,305.08a84.48,84.48,0,0,0,3.09,10.51c.77-.46.72-1.56.68-2.46s.27-2.05,1.15-2.11a12.41,12.41,0,0,0,.61-1.46c1.74,2.11.54,4.53,1.36,6.77,2.09-1.1.94-4.37,2.07-6.14a5.75,5.75,0,0,0,.77-1.21c.21-.63-.11-2.14.64-2.5,1.21-.58,1.67,1.2,1.86,2a10.65,10.65,0,0,0,3.26,5.45c1.66-.91,1.69-3.21,2-5.07.26-1.43.84-2.78,1.17-4.2.5-2.12,1.44-3.89,2-5.93.27-1,.08-2,.32-3a.82.82,0,0,1,.45-.62c.15-.05.32,0,.46-.1a.58.58,0,0,0,.2-.46,23.17,23.17,0,0,1,.66-4.27,1.59,1.59,0,0,1,.94,1.42A142.72,142.72,0,0,0,202,308.38l.81-6.49a4.62,4.62,0,0,1,.47-1.8,2.18,2.18,0,0,1,3.46-.5c1,1.22.82,3.47,1,4.93.35,2.39,1.21,3.16,2.44,5.08a10.07,10.07,0,0,1,.72,2.51,4,4,0,0,0,3.29,2.72,1,1,0,0,0,.52,0,.92.92,0,0,0,.41-.44c.51-1,.24-2.23.3-3.36.13-2.32,1.7-4.3,2.3-6.55.39-1.42-.23-3.51.87-4.54a.94.94,0,0,1,.63,1c.49.28,1-.33,1.24-.84,2.23-4.95,2.84-10.45,4.81-15.32,1.62.9,2,4.07,2.35,5.66.59,2.66,1.26,5.13,2,7.75l.39,1.4c.32,1.11.63,2.22.87,3.34a6.37,6.37,0,0,1,.18,2.53c1.23-2.5,1.3-5.92,2.63-8.15a2.11,2.11,0,0,1,1.65,2.12,4.17,4.17,0,0,0-.06,1.53,6.32,6.32,0,0,0,.47.79,3.32,3.32,0,0,1,.3,1.24,13.34,13.34,0,0,1,0,3.34c-.16,1-.49,2.13.18,2.86.2.21.46.36.65.57a3,3,0,0,1,.52,1.35,10.85,10.85,0,0,0,1.88,4.08l2.79-7.49a2.85,2.85,0,0,1,1-1.57c2.35-1.31,4.38,11.18,6.93,3.3a13.19,13.19,0,0,0,.36-4.07c0-7.17,1.92-14.17,3.8-21.08.39-.7,1.57-.37,1.9.36a4.49,4.49,0,0,1,0,2.36c-.46,3.95,1.9,7.66,2.41,11.6.16,1.3.13,2.61.26,3.9a31.48,31.48,0,0,0,2,7.47c.48,1.34,1.13,2.85,2.48,3.29l2.25-9.4c.1-.43,3.43,2.78,3.57,3,1.7,3,.34,6.77,2.65,9.13,1.86,1.9,1,5.47,2.92,7.28a4.12,4.12,0,0,0,1-2.69c.69-4.7,2.93-9,4.05-13.65.21-.85.72-2.56,1.81-1.9.2.13.51,3.28.8,3.83a83.66,83.66,0,0,0,2.52-14.26c.17-1.39,1.25-8.31,4-6.5,1.69,1.12,1.32,5.68,1.45,7.39.2,2.75,1,5.21,1.1,8a39.22,39.22,0,0,0,1.24,7.81,19.86,19.86,0,0,0,2.07,6,2.38,2.38,0,0,0,1.41-1.69,9.58,9.58,0,0,0,.17-2.28,18.81,18.81,0,0,1,.63-4.71c.58-2.22,1.57-4.35,1.84-6.64.14-1.16.93-6.3,3.25-3.8.72.77.07,2.63.1,3.55.08,2.07.78,4.06.84,6.14,0,1.29-.07,2.57.07,3.85a5.58,5.58,0,0,0,1.5,3.45c-.6-.61,2.38-5.28,2.92-5.82a7.38,7.38,0,0,1,.47,2.21c.32-1.42,0-3,.36-4.35a13.55,13.55,0,0,1,.61-1.48,11.84,11.84,0,0,0,.59-2.65c.32-2.16.32-6.86,2-8.44,3.17-3,2.89,6.43,2.87,8.06A70.27,70.27,0,0,0,318.1,326c.22.67.65,1.47,1.36,1.4.48,0,.81-.49,1.06-.9,3.68-6.24,2.64-14.16,4.92-21,.49-1.47,1.13-2.89,1.49-4.4.45-1.86.47-3.8.85-5.68s3.72-7.51,4.2-2.68c.09.91-.09,1.82-.09,2.73,0,2.2,1.07,4.23,1.53,6.38.94,4.36-.54,9.41,2,13a51.59,51.59,0,0,1,1.91-5.26c.66-1.55,2-2.5,3-.71.67,1.22,0,4.23,0,5.6A16.74,16.74,0,0,0,341,318q1.5,6.24,3,12.47c.8.17,1.16-1,1.23-1.77a13.54,13.54,0,0,1,3-7.38c1-1.17,4.15,8,6.3,2,.45-1.26.91-2.53,1.37-3.8a21.34,21.34,0,0,0,1-3.31c.3-1.63.24-3.4,1.1-4.81,2.29-3.8,4,4.75,4.32,6.24.35,2,1.4,16.71,5.06,12.28,1-1.27.86-3.44,1.16-5,.53-2.68.52-5.64,1.37-8.24.35-1.06.89-2,1.19-3.11a19.71,19.71,0,0,0,.47-3.91,27.94,27.94,0,0,1,1-5.44c.23-.83.71-1.81,1.57-1.81,1.05,0,1.41,1.38,1.48,2.43a105.44,105.44,0,0,0,1.29,11.49c.19,1.11.05,3,.89,3.86,1.39,1.43,2.38.38,2.61-1.28a18.78,18.78,0,0,1,2.43-7c1.47,1.18,1.87,3.21,2.17,5.08.62,3.81,1.37,7.63,1.86,11.46.31,2.49.94,4.39,2.68,1.94a27.84,27.84,0,0,0,3.66-7.92,2,2,0,0,1,2.34,1,5.7,5.7,0,0,1,.43,2.75c0,2.82-.05,5.63-.08,8.44,0,1.56.3,3.57,1.83,3.89a2.71,2.71,0,0,0,2.68-1.62,30,30,0,0,1,1.48-3,4.22,4.22,0,0,1,4.62-1.45,2,2,0,0,1,.87.52,2.77,2.77,0,0,1,.5,1.15C408.49,337,408.9,340.31,410,342.88Z" style="fill:#fff;opacity:0.1;isolation:isolate"></path><rect x="317.85" y="318.74" width="3.14" height="35.48" transform="matrix(0.99, 0.1, -0.1, 0.99, 36.05, -30.88)" style="fill:#263238;isolation:isolate"></rect><path d="M330.3,337.26s-13.91,1.81-21.68-2.22c.65-1.8,1.18-3.65,2-5.41a38.9,38.9,0,0,0,2.66-9.24,163.65,163.65,0,0,1,5.62-23.33,1.08,1.08,0,0,1,.95-.86,12.09,12.09,0,0,1,3.5,8.17c.17,2.82-.32,5.6-.33,8.41a9.62,9.62,0,0,0,.75,4.15c.88,1.89,2.72,3.6,3.28,5.53a12.57,12.57,0,0,1,.29,2.86C327.32,325.54,331.16,337.15,330.3,337.26Z" style="fill:#407BFF;isolation:isolate"></path><rect x="292.38" y="321.23" width="2.58" height="29.11" style="fill:#263238;isolation:isolate"></rect><path d="M302.61,335.52s-11.2,2.63-17.88,0a59.54,59.54,0,0,0,1.63-6.44c.4-3.1-.45-6.48-.72-9.6a6.91,6.91,0,0,1,.16-2.79,31.39,31.39,0,0,1,1.52-2.77,13.83,13.83,0,0,0,.76-3.62c.56-3.49,2.49-6.82,4.4-10.1A3.18,3.18,0,0,1,295,301a4.07,4.07,0,0,1,1,1.84c.59,1.67,1.17,3.34,1.76,5s1.15,3.27,1.63,4.92a43.51,43.51,0,0,1,1.71,13.17c0,1.88-.57,3.75.16,5.56A12.39,12.39,0,0,1,302.61,335.52Z" style="fill:#407BFF;isolation:isolate"></path><rect x="342.83" y="327.26" width="2.31" height="26.11" transform="translate(66.83 -56.33) rotate(10.36)" style="fill:#263238;isolation:isolate"></rect><path d="M352,341.6a29.36,29.36,0,0,1-4.5-.15c-3.81-.25-8.16-.87-11.31-2.82.44-1,.83-1.95,1.32-2.89.64-1.24,1.91-2.09,2.52-3.37,1.5-3.13,1.35-6.67,3-9.77.56-1.06,1.33-2,1.88-3.1,1.59-3,1.49-6.74,4.58-9.06a1.16,1.16,0,0,1,.56-.26,1.73,1.73,0,0,1,.71.14,3.85,3.85,0,0,1,2.43,2.71,9,9,0,0,1-.16,3.06,14,14,0,0,0,.74,6.45,13.75,13.75,0,0,1,.86,2.74,11.9,11.9,0,0,1-.27,3.09,12.89,12.89,0,0,0,.12,4c.19,1,.48,2.17-.26,3-.28.31-.69.55-.93.87-.51.71-.1,1.63.3,2.46C354.53,340.74,353.6,341.43,352,341.6Z" style="fill:#407BFF;isolation:isolate"></path><rect x="116.9" y="330.59" width="2.31" height="26.11" transform="translate(8.65 -2.85) rotate(1.44)" style="fill:#263238;isolation:isolate"></rect><path d="M126.12,343.69a30.66,30.66,0,0,1-4.47.55c-3.81.34-8.2.41-11.61-1,.29-1,.51-2.06.86-3.07.44-1.32,1.56-2.36,2-3.71,1-3.33.3-6.81,1.45-10.12.39-1.13,1-2.23,1.38-3.36,1.09-3.24.42-6.89,3.12-9.66a1,1,0,0,1,.51-.34,1.6,1.6,0,0,1,.72,0,3.85,3.85,0,0,1,2.82,2.29,9,9,0,0,1,.32,3.05,14,14,0,0,0,1.73,6.26,13.41,13.41,0,0,1,1.27,2.58,11.84,11.84,0,0,1,.22,3.09,13,13,0,0,0,.73,3.95c.35,1,.82,2.06.21,3a11.89,11.89,0,0,0-.78,1c-.39.78.15,1.63.68,2.39C128.53,342.44,127.72,343.26,126.12,343.69Z" style="fill:#407BFF;isolation:isolate"></path><rect x="241.43" y="317.62" width="2.58" height="29.11" style="fill:#263238;isolation:isolate"></rect><path d="M251.66,331.91s-11.2,2.63-17.88,0c0,0,1.35-5.34,1.36-5.4.59-2.34.11-4.72.15-7.09a48.23,48.23,0,0,1,1-9.09,85.47,85.47,0,0,1,4.35-13.59,1.39,1.39,0,0,1,.72-.89,2,2,0,0,1,1.77.18,2.53,2.53,0,0,1,.9,1.12c2.86,5.89,1.14,12.41,3.66,18.37.47,1.11,1.08,2.18,1.48,3.3,1.1,3,.46,6.06,1.31,9.06Z" style="fill:#407BFF;isolation:isolate"></path><rect x="368.84" y="330.92" width="2.58" height="29.11" style="fill:#263238;isolation:isolate"></rect><path d="M379.07,345.2s-11.2,2.64-17.89,0c0,0,1.35-5.34,1.36-5.39.6-2.35.12-4.72.16-7.1a48.31,48.31,0,0,1,1-9.09A86.88,86.88,0,0,1,368.08,310a1.44,1.44,0,0,1,.72-.89,2,2,0,0,1,1.76.19,2.46,2.46,0,0,1,.9,1.12c2.87,5.89,1.15,12.41,3.67,18.37.46,1.1,1.07,2.18,1.48,3.29,1.09,3,.45,6.06,1.31,9.06Z" style="fill:#407BFF;isolation:isolate"></path><rect x="213.27" y="318.89" width="3.14" height="35.48" transform="translate(-26 18.08) rotate(-4.54)" style="fill:#263238;isolation:isolate"></rect><path d="M225.67,335.44s-13.35,4.28-21.73,1.72c.48-2.81,1.1-5.64,1.43-8.46.51-4.25-.63-8.83-1-13.08a9.67,9.67,0,0,1,.2-3.67c.34-1.07,1-2.09,1.5-3.15,1-2.32.82-4.73,1-7.11a27,27,0,0,1,2.62-9.92,2.24,2.24,0,0,1,2,1.88c1,3.53,1.7,7.13,3.32,10.53.8,1.69,1.83,3.31,2.68,5,2.7,5.33,3,10.85,4.25,16.4C222.15,326.45,226.14,335.29,225.67,335.44Z" style="fill:#407BFF;isolation:isolate"></path><rect x="99.84" y="338.98" width="1.99" height="22.47" transform="translate(-27.43 9.09) rotate(-4.54)" style="fill:#263238;isolation:isolate"></rect><path d="M107.7,349.46s-8.46,2.71-13.76,1.09c.3-1.78.69-3.57.9-5.36.32-2.69-.4-5.59-.61-8.29a5.87,5.87,0,0,1,.13-2.32,21.2,21.2,0,0,1,1-2,12.87,12.87,0,0,0,.61-4.51,17,17,0,0,1,1.66-6.28A1.42,1.42,0,0,1,98.85,323a40.92,40.92,0,0,0,2.1,6.67c.51,1.07,1.16,2.1,1.7,3.16,1.71,3.37,1.9,6.87,2.69,10.39C105.47,343.77,108,349.36,107.7,349.46Z" style="fill:#407BFF;isolation:isolate"></path><rect x="269.06" y="316.78" width="3.14" height="35.48" style="fill:#263238;isolation:isolate"></rect><path d="M281.53,334.2s-13.65,3.2-21.8,0c.51-2,1.55-4.25,1.59-6.3,0-1.42-.68-2.63-.35-4.11.43-2,1.66-3.78,2.25-5.7.94-3.08.27-6.26.47-9.4a35.58,35.58,0,0,1,2.51-9.63c.73-2,1.45-4,2.18-6a4.08,4.08,0,0,1,3.14,2c3.67,5.43,1.58,11.71,2.05,17.65a9.11,9.11,0,0,0,.79,3.32c.76,1.59,2.21,3,3.28,4.49,1.74,2.43,1.55,5.48,2.3,8.15Z" style="fill:#407BFF;isolation:isolate"></path><rect x="164.16" y="323.49" width="3.14" height="35.48" style="fill:#263238;isolation:isolate"></rect><path d="M176.63,340.89s-13.65,3.21-21.8,0l1.66-6.58c.82-3.23.83-6.19,2.06-9.4,1.74-4.56,3.18-9.2,3.35-13.91.12-3.42-.13-7.35,3.67-9.65,2.64,1.34,3.25,3.8,3.29,6s-.25,4.54,1.26,6.52c.56.74,1.37,1.4,1.84,2.18.91,1.52.38,3.24.61,4.87.28,2,1.74,3.9,2,5.91.18,1.64-.47,3.26-.73,4.9-.35,2.1.76,3.35,1.71,5.21A22,22,0,0,1,176.63,340.89Z" style="fill:#407BFF;isolation:isolate"></path><rect x="139.28" y="326.01" width="2.85" height="32.27" style="fill:#263238;isolation:isolate"></rect><path d="M150.62,341.84s-12.41,2.92-19.82,0c1.44-5.72,3.67-11.63,3.07-17.46-.16-1.64-.44-3.48,1.13-4.75,1.12-.9,3-1.33,3.94-2.32a3.65,3.65,0,0,0,.64-3.07,31.27,31.27,0,0,1,.18-7,2.16,2.16,0,0,1,2-2.09,2.81,2.81,0,0,1,1.71.6,4.86,4.86,0,0,1,1.93,4.19,19.18,19.18,0,0,0,0,4.48c.38,1.59,1.52,3.06,2,4.64a14.39,14.39,0,0,1,.19,4.49c-.1,3.48,1.11,6.86,1,10.31C148.6,336.52,149.89,339.26,150.62,341.84Z" style="fill:#407BFF;isolation:isolate"></path><rect x="190.11" y="320.15" width="2.58" height="29.12" style="fill:#263238;isolation:isolate"></rect><path d="M200.34,334.44s-11.18,2.63-17.87,0c-.57-.22,1.45-5.56,1.57-6.28,1.08-6.18,1.73-12.42,2.62-18.61a13.43,13.43,0,0,1,.72-3.15,15.47,15.47,0,0,1,1.34-2.45q1.29-2.06,2.57-4.11a2.29,2.29,0,0,1,1.75,1.81c.68,2.48.28,5,.78,7.53,1,4.93,5.45,9.49,5.08,14.46a20.46,20.46,0,0,0,.11,6.1C199.08,330.08,200.52,334.4,200.34,334.44Z" style="fill:#407BFF;isolation:isolate"></path><rect x="395.03" y="337.47" width="2.43" height="27.45" transform="translate(57.55 -55.79) rotate(8.68)" style="fill:#263238;isolation:isolate"></rect><path d="M404.62,352.22s-10.8.86-16.66-2.54c-.5-.29,2.14-5,2.36-5.64,1.89-5.6,3.38-11.32,5.09-17a12.24,12.24,0,0,1,1.11-2.83,15,15,0,0,1,1.61-2.1l3-3.46a2.16,2.16,0,0,1,1.38,1.94c.28,2.4-.46,4.73-.35,7.12.22,4.74,3.73,9.62,2.67,14.2a19.59,19.59,0,0,0-.76,5.7C404.06,348,404.79,352.21,404.62,352.22Z" style="fill:#407BFF;isolation:isolate"></path><path d="M330.3,337.26s-13.91,1.81-21.68-2.22c.65-1.8,1.18-3.65,2-5.41a38.9,38.9,0,0,0,2.66-9.24,163.65,163.65,0,0,1,5.62-23.33,1.08,1.08,0,0,1,.95-.86,12.09,12.09,0,0,1,3.5,8.17c.17,2.82-.32,5.6-.33,8.41a9.62,9.62,0,0,0,.75,4.15c.88,1.89,2.72,3.6,3.28,5.53a12.57,12.57,0,0,1,.29,2.86C327.32,325.54,331.16,337.15,330.3,337.26Z" style="opacity:0.2"></path><path d="M302.61,335.52s-11.2,2.63-17.88,0a59.54,59.54,0,0,0,1.63-6.44c.4-3.1-.45-6.48-.72-9.6a6.91,6.91,0,0,1,.16-2.79,31.39,31.39,0,0,1,1.52-2.77,13.83,13.83,0,0,0,.76-3.62c.56-3.49,2.49-6.82,4.4-10.1A3.18,3.18,0,0,1,295,301a4.07,4.07,0,0,1,1,1.84c.59,1.67,1.17,3.34,1.76,5s1.15,3.27,1.63,4.92a43.51,43.51,0,0,1,1.71,13.17c0,1.88-.57,3.75.16,5.56A12.39,12.39,0,0,1,302.61,335.52Z" style="opacity:0.1"></path><path d="M352,341.6a29.36,29.36,0,0,1-4.5-.15c-3.81-.25-8.16-.87-11.31-2.82.44-1,.83-1.95,1.32-2.89.64-1.24,1.91-2.09,2.52-3.37,1.5-3.13,1.35-6.67,3-9.77.56-1.06,1.33-2,1.88-3.1,1.59-3,1.49-6.74,4.58-9.06a1.16,1.16,0,0,1,.56-.26,1.73,1.73,0,0,1,.71.14,3.85,3.85,0,0,1,2.43,2.71,9,9,0,0,1-.16,3.06,14,14,0,0,0,.74,6.45,13.75,13.75,0,0,1,.86,2.74,11.9,11.9,0,0,1-.27,3.09,12.89,12.89,0,0,0,.12,4c.19,1,.48,2.17-.26,3-.28.31-.69.55-.93.87-.51.71-.1,1.63.3,2.46C354.53,340.74,353.6,341.43,352,341.6Z" style="opacity:0.1"></path><path d="M126.12,343.69a30.66,30.66,0,0,1-4.47.55c-3.81.34-8.2.41-11.61-1,.29-1,.51-2.06.86-3.07.44-1.32,1.56-2.36,2-3.71,1-3.33.3-6.81,1.45-10.12.39-1.13,1-2.23,1.38-3.36,1.09-3.24.42-6.89,3.12-9.66a1,1,0,0,1,.51-.34,1.6,1.6,0,0,1,.72,0,3.85,3.85,0,0,1,2.82,2.29,9,9,0,0,1,.32,3.05,14,14,0,0,0,1.73,6.26,13.41,13.41,0,0,1,1.27,2.58,11.84,11.84,0,0,1,.22,3.09,13,13,0,0,0,.73,3.95c.35,1,.82,2.06.21,3a11.89,11.89,0,0,0-.78,1c-.39.78.15,1.63.68,2.39C128.53,342.44,127.72,343.26,126.12,343.69Z" style="opacity:0.1"></path><path d="M251.66,331.91s-11.2,2.63-17.88,0c0,0,1.35-5.34,1.36-5.4.59-2.34.11-4.72.15-7.09a48.23,48.23,0,0,1,1-9.09,85.47,85.47,0,0,1,4.35-13.59,1.39,1.39,0,0,1,.72-.89,2,2,0,0,1,1.77.18,2.53,2.53,0,0,1,.9,1.12c2.86,5.89,1.14,12.41,3.66,18.37.47,1.11,1.08,2.18,1.48,3.3,1.1,3,.46,6.06,1.31,9.06Z" style="opacity:0.1"></path><path d="M379.07,345.2s-11.2,2.64-17.89,0c0,0,1.35-5.34,1.36-5.39.6-2.35.12-4.72.16-7.1a48.31,48.31,0,0,1,1-9.09A86.88,86.88,0,0,1,368.08,310a1.44,1.44,0,0,1,.72-.89,2,2,0,0,1,1.76.19,2.46,2.46,0,0,1,.9,1.12c2.87,5.89,1.15,12.41,3.67,18.37.46,1.1,1.07,2.18,1.48,3.29,1.09,3,.45,6.06,1.31,9.06Z" style="opacity:0.2"></path><path d="M225.67,335.44s-13.35,4.28-21.73,1.72c.48-2.81,1.1-5.64,1.43-8.46.51-4.25-.63-8.83-1-13.08a9.67,9.67,0,0,1,.2-3.67c.34-1.07,1-2.09,1.5-3.15,1-2.32.82-4.73,1-7.11a27,27,0,0,1,2.62-9.92,2.24,2.24,0,0,1,2,1.88c1,3.53,1.7,7.13,3.32,10.53.8,1.69,1.83,3.31,2.68,5,2.7,5.33,3,10.85,4.25,16.4C222.15,326.45,226.14,335.29,225.67,335.44Z" style="opacity:0.2"></path><path d="M107.7,349.46s-8.46,2.71-13.76,1.09c.3-1.78.69-3.57.9-5.36.32-2.69-.4-5.59-.61-8.29a5.87,5.87,0,0,1,.13-2.32,21.2,21.2,0,0,1,1-2,12.87,12.87,0,0,0,.61-4.51,17,17,0,0,1,1.66-6.28A1.42,1.42,0,0,1,98.85,323a40.92,40.92,0,0,0,2.1,6.67c.51,1.07,1.16,2.1,1.7,3.16,1.71,3.37,1.9,6.87,2.69,10.39C105.47,343.77,108,349.36,107.7,349.46Z" style="opacity:0.2"></path><path d="M281.53,334.2s-13.65,3.2-21.8,0c.51-2,1.55-4.25,1.59-6.3,0-1.42-.68-2.63-.35-4.11.43-2,1.66-3.78,2.25-5.7.94-3.08.27-6.26.47-9.4a35.58,35.58,0,0,1,2.51-9.63c.73-2,1.45-4,2.18-6a4.08,4.08,0,0,1,3.14,2c3.67,5.43,1.58,11.71,2.05,17.65a9.11,9.11,0,0,0,.79,3.32c.76,1.59,2.21,3,3.28,4.49,1.74,2.43,1.55,5.48,2.3,8.15Z" style="opacity:0.2"></path><path d="M176.63,340.89s-13.65,3.21-21.8,0l1.66-6.58c.82-3.23.83-6.19,2.06-9.4,1.74-4.56,3.18-9.2,3.35-13.91.12-3.42-.13-7.35,3.67-9.65,2.64,1.34,3.25,3.8,3.29,6s-.25,4.54,1.26,6.52c.56.74,1.37,1.4,1.84,2.18.91,1.52.38,3.24.61,4.87.28,2,1.74,3.9,2,5.91.18,1.64-.47,3.26-.73,4.9-.35,2.1.76,3.35,1.71,5.21A22,22,0,0,1,176.63,340.89Z" style="opacity:0.2"></path><path d="M150.62,341.84s-12.41,2.92-19.82,0c1.44-5.72,3.67-11.63,3.07-17.46-.16-1.64-.44-3.48,1.13-4.75,1.12-.9,3-1.33,3.94-2.32a3.65,3.65,0,0,0,.64-3.07,31.27,31.27,0,0,1,.18-7,2.16,2.16,0,0,1,2-2.09,2.81,2.81,0,0,1,1.71.6,4.86,4.86,0,0,1,1.93,4.19,19.18,19.18,0,0,0,0,4.48c.38,1.59,1.52,3.06,2,4.64a14.39,14.39,0,0,1,.19,4.49c-.1,3.48,1.11,6.86,1,10.31C148.6,336.52,149.89,339.26,150.62,341.84Z" style="opacity:0.2"></path><path d="M200.34,334.44s-11.18,2.63-17.87,0c-.57-.22,1.45-5.56,1.57-6.28,1.08-6.18,1.73-12.42,2.62-18.61a13.43,13.43,0,0,1,.72-3.15,15.47,15.47,0,0,1,1.34-2.45q1.29-2.06,2.57-4.11a2.29,2.29,0,0,1,1.75,1.81c.68,2.48.28,5,.78,7.53,1,4.93,5.45,9.49,5.08,14.46a20.46,20.46,0,0,0,.11,6.1C199.08,330.08,200.52,334.4,200.34,334.44Z" style="opacity:0.1"></path><path d="M404.62,352.22s-10.8.86-16.66-2.54c-.5-.29,2.14-5,2.36-5.64,1.89-5.6,3.38-11.32,5.09-17a12.24,12.24,0,0,1,1.11-2.83,15,15,0,0,1,1.61-2.1l3-3.46a2.16,2.16,0,0,1,1.38,1.94c.28,2.4-.46,4.73-.35,7.12.22,4.74,3.73,9.62,2.67,14.2a19.59,19.59,0,0,0-.76,5.7C404.06,348,404.79,352.21,404.62,352.22Z" style="opacity:0.1"></path><path d="M52.46,383.46s44-26.13,55.26-30.69,41.23-3.52,52.1-5.62,34.61-5.8,56.23-5.8,30.07-3.87,62.77-3.52,38.51,12.55,55.39,13.05,21.08-.1,48.52,2.83,36.4,21.17,43.79,21,19,2.83,20.57,8.73Z" style="fill:#407BFF"></path><path d="M426.52,374.73a35.56,35.56,0,0,1,14.57,3c-6.79-3-16.68-1.73-19.16-1.73s-4.12-2.38-6.15-1.68-5.73-5.06-12.93-3.3a20.84,20.84,0,0,1-13.26-1.34l9.76-.44s-7.38-3-10.83-4.58-5.78-.79-9.45-1.21-2.66.42-7.66,1.21-11.88,2.63-14.65,3.27,13.37,2.56,13.37,2.56-9.28,1.81-13.37,1.81H345.39c-2.26,0-5.64-1.58-9.25-1.81s-9.84.5-16.72,0-23.19-.81-23.19-.81S310,366,311.79,366s7.63-1.39,7.63-1.39S302,358.82,296.49,359s-9-.94-13.18-.69-6.86-.25-12.68.69a84.67,84.67,0,0,0-8.42,1.66,77.25,77.25,0,0,1-9.85,1.88c-3.26.25-13.08,3.44-15.23,3.54,2.24.52,12.87,3.6,12.87,3.6s-9.42,1-11.53,1.18-11.07.65-15.92-.42a32.22,32.22,0,0,0-11.51,0c-1.58.24-10-2.62-14.69-2.8s4.14-1.93,4-3,7.26-1.59,10.95-2.64,0,0-2.38-.53-6.59-.79-16.24-.83-20.94,2.94-17.25,4,4.48,2.9,4.26,3-14.81,2.55-19.9,1-8.62,2.59-12.05,2.2-16.28-1.18-16.28-1.18l5.84-2s-1.17-1.14-5.84-1.59-8.51.72-15.9,1.59-11,3.22-11,3.22l9.63,2s-2.84,1.85-4.15,1.25-16.62.86-21.37.86-26.11,5.27-26.11,5.27a14.67,14.67,0,0,0-6.85,3.28H52.46s44-26.13,55.26-30.69,41.23-3.52,52.1-5.62,34.61-5.8,56.23-5.8,30.07-3.87,62.77-3.52,38.51,12.55,55.39,13.05,21.08-.1,48.52,2.83S419.13,374.88,426.52,374.73Z" style="opacity:0.2"></path><path d="M442.09,383.46c1-2.93.57-5.06-1-5.76,3,1.42,5.35,3.35,6,5.76Z" style="opacity:0.2"></path><path d="M113.18,365.46s9.68-1.38,16.62-1.78l-4.75-.79s2.67-5.12,1.83-5.92-3.09,5.66-3.09,5.66,1.71-7.65,0-8.64-1.11,7.32-1.11,7.32S121.1,357,120.11,357s.47,6,.47,6S117.05,364.07,113.18,365.46Z" style="fill:#263238;isolation:isolate"></path><path d="M402.3,369s6.21.65,10.56,1.48l-2.81-1.23s2.45-2.75,2.05-3.38-2.79,3-2.79,3,2.25-4.47,1.35-5.35-1.84,4.36-1.84,4.36-.3-2.93-.91-3.09-.64,3.77-.64,3.77S404.91,368.71,402.3,369Z" style="fill:#263238;isolation:isolate"></path><path d="M264.87,357.09s9.77-.37,16.7,0l-4.63-1.28s3.18-4.81,2.44-5.7-3.66,5.31-3.66,5.31,2.49-7.43.9-8.59-1.87,7.16-1.87,7.16-1.12-4.47-2.11-4.59-.15,6-.15,6S268.86,356.1,264.87,357.09Z" style="fill:#263238;isolation:isolate"></path><path d="M151,367.54s-1.9-2.87-1.35-5.54,2.83,1.29,2.83,2.77c0,0-.5-3.09,1.38-3.67s1.09,4.36,1.09,4.36a3.37,3.37,0,0,1,2.48-1.17c1.58,0-.4,3.25-.4,3.25a8.31,8.31,0,0,1,2.8,1.09s-11.7-.1-14.87.79l2.38-1.49s-.79-1.88.29-2.47S151,367.54,151,367.54Z" style="fill:#263238"></path><path d="M221,367.77s1.9-2.87,1.34-5.54-2.82,1.28-2.82,2.77c0,0,.49-3.1-1.39-3.68s-1.09,4.37-1.09,4.37a3.36,3.36,0,0,0-2.47-1.17c-1.58,0,.4,3.25.4,3.25a8.46,8.46,0,0,0-2.8,1.08s11.7-.09,14.86.8l-2.37-1.49s.79-1.88-.3-2.47S221,367.77,221,367.77Z" style="fill:#263238"></path><path d="M330.49,367.8a6.8,6.8,0,0,1-.61-4.49c.66-2.07,2.13,1.25,2,2.42,0,0-.14-2.49,1.4-2.79s.5,3.54.5,3.54a2.7,2.7,0,0,1,2-.72c1.25.12-.58,2.54-.58,2.54a6.6,6.6,0,0,1,2.12,1.09s-9.24-1.05-11.82-.61l2-1s-.47-1.56.44-1.93S330.49,367.8,330.49,367.8Z" style="fill:#263238"></path><path d="M81,374.05s7.61-.87,9.33-.87l-3.43-.4s1.71-2.9,1.05-3.36-1.71,2.32-1.71,2.32,0-4.5-1.32-4.1-.39,4.65-.39,4.65-.8-1.82-2-1.46-.11,2.73-.11,2.73Z" style="fill:#263238"></path><path d="M187,359.5s7.61-.88,9.32-.88l-3.43-.39s1.72-2.9,1.06-3.37-1.72,2.32-1.72,2.32,0-4.49-1.31-4.1-.4,4.65-.4,4.65-.79-1.81-2-1.45-.11,2.73-.11,2.73Z" style="fill:#263238"></path><path d="M372.45,361.92s7.65.32,9.35.59l-3.33-.93s2.15-2.59,1.57-3.15-2.05,2-2.05,2,.7-4.44-.66-4.25-1.12,4.53-1.12,4.53-.5-1.92-1.73-1.75-.54,2.68-.54,2.68Z" style="fill:#263238"></path><g style="opacity:0.1;isolation:isolate"><path d="M113.18,365.46s9.68-1.38,16.62-1.78l-4.75-.79s2.67-5.12,1.83-5.92-3.09,5.66-3.09,5.66,1.71-7.65,0-8.64-1.11,7.32-1.11,7.32S121.1,357,120.11,357s.47,6,.47,6S117.05,364.07,113.18,365.46Z" style="fill:#fff;isolation:isolate"></path><path d="M402.3,369s6.21.65,10.56,1.48l-2.81-1.23s2.45-2.75,2.05-3.38-2.79,3-2.79,3,2.25-4.47,1.35-5.35-1.84,4.36-1.84,4.36-.3-2.93-.91-3.09-.64,3.77-.64,3.77S404.91,368.71,402.3,369Z" style="fill:#fff;isolation:isolate"></path><path d="M264.87,357.09s9.77-.37,16.7,0l-4.63-1.28s3.18-4.81,2.44-5.7-3.66,5.31-3.66,5.31,2.49-7.43.9-8.59-1.87,7.16-1.87,7.16-1.12-4.47-2.11-4.59-.15,6-.15,6S268.86,356.1,264.87,357.09Z" style="fill:#fff;isolation:isolate"></path><path d="M151,367.54s-1.9-2.87-1.35-5.54,2.83,1.29,2.83,2.77c0,0-.5-3.09,1.38-3.67s1.09,4.36,1.09,4.36a3.37,3.37,0,0,1,2.48-1.17c1.58,0-.4,3.25-.4,3.25a8.31,8.31,0,0,1,2.8,1.09s-11.7-.1-14.87.79l2.38-1.49s-.79-1.88.29-2.47S151,367.54,151,367.54Z" style="fill:#fff"></path><path d="M221,367.77s1.9-2.87,1.34-5.54-2.82,1.28-2.82,2.77c0,0,.49-3.1-1.39-3.68s-1.09,4.37-1.09,4.37a3.36,3.36,0,0,0-2.47-1.17c-1.58,0,.4,3.25.4,3.25a8.46,8.46,0,0,0-2.8,1.08s11.7-.09,14.86.8l-2.37-1.49s.79-1.88-.3-2.47S221,367.77,221,367.77Z" style="fill:#fff"></path><path d="M330.49,367.8a6.8,6.8,0,0,1-.61-4.49c.66-2.07,2.13,1.25,2,2.42,0,0-.14-2.49,1.4-2.79s.5,3.54.5,3.54a2.7,2.7,0,0,1,2-.72c1.25.12-.58,2.54-.58,2.54a6.6,6.6,0,0,1,2.12,1.09s-9.24-1.05-11.82-.61l2-1s-.47-1.56.44-1.93S330.49,367.8,330.49,367.8Z" style="fill:#fff"></path><path d="M81,374.05s7.61-.87,9.33-.87l-3.43-.4s1.71-2.9,1.05-3.36-1.71,2.32-1.71,2.32,0-4.5-1.32-4.1-.39,4.65-.39,4.65-.8-1.82-2-1.46-.11,2.73-.11,2.73Z" style="fill:#fff"></path><path d="M187,359.5s7.61-.88,9.32-.88l-3.43-.39s1.72-2.9,1.06-3.37-1.72,2.32-1.72,2.32,0-4.49-1.31-4.1-.4,4.65-.4,4.65-.79-1.81-2-1.45-.11,2.73-.11,2.73Z" style="fill:#fff"></path><path d="M372.45,361.92s7.65.32,9.35.59l-3.33-.93s2.15-2.59,1.57-3.15-2.05,2-2.05,2,.7-4.44-.66-4.25-1.12,4.53-1.12,4.53-.5-1.92-1.73-1.75-.54,2.68-.54,2.68Z" style="fill:#fff"></path></g><path d="M237.13,366.05a.91.91,0,0,1-.37,0C236.64,366,236.78,366,237.13,366.05Z" style="fill:#fff"></path></g><g id="freepik--Water--inject-212"><path d="M48.19,377.55s15.73-1.19,20,0,4,2.69,14,2.69S123,374.51,128.56,377s14.52,3.22,25.26,3.22,41.25-4.23,47.75-3.85,17.43,1.08,25.82,1.91,23.73-1.93,26.34-2.53S264.25,379,271,380.24,292.72,382,302.62,378s21.67-4.77,35.37-2.2,12.9,4.46,29.12,1.93,23.42,1.31,33.07,2.54,19.94-3.18,25.08-2.54,13.85.55,15.83,0,15,1.66,18.59,2.54,14.64.87,14.64.87-16.49,2.77-21.3,3.56-10.75,6.26-16.68,6.89-16.22.62-23.34,2.6-17.44,10.68-30.48,10.68,11.18,6.73,16.48,5.94-35.06,4-54,6.72-28.49,9.89-34.82,11.08-81.89,6.73-87.82,2.77-28.54-5.93-38.21-6.33,9.64-2.77,24.72-4.75,17-3.56,21.4-4.35-28.14-1.19-43.54-1.19-9.87.4-39.93-1.58-37.34-5.54-47.55-7.12,5.43-5.93,12.84-6.33,10.4-3.95,3.37-4.35-43.66,1.19-53.24-1.19S36,383.88,28.87,383.88,42.73,377.87,48.19,377.55Z" style="fill:#407BFF"></path><path d="M48.19,377.55s15.73-1.19,20,0,4,2.69,14,2.69S123,374.51,128.56,377s14.52,3.22,25.26,3.22,41.25-4.23,47.75-3.85,17.43,1.08,25.82,1.91,23.73-1.93,26.34-2.53S264.25,379,271,380.24,292.72,382,302.62,378s21.67-4.77,35.37-2.2,12.9,4.46,29.12,1.93,23.42,1.31,33.07,2.54,19.94-3.18,25.08-2.54,13.85.55,15.83,0,15,1.66,18.59,2.54,14.64.87,14.64.87-16.49,2.77-21.3,3.56-10.75,6.26-16.68,6.89-16.22.62-23.34,2.6-17.44,10.68-30.48,10.68,11.18,6.73,16.48,5.94-35.06,4-54,6.72-28.49,9.89-34.82,11.08-81.89,6.73-87.82,2.77-28.54-5.93-38.21-6.33,9.64-2.77,24.72-4.75,17-3.56,21.4-4.35-28.14-1.19-43.54-1.19-9.87.4-39.93-1.58-37.34-5.54-47.55-7.12,5.43-5.93,12.84-6.33,10.4-3.95,3.37-4.35-43.66,1.19-53.24-1.19S36,383.88,28.87,383.88,42.73,377.87,48.19,377.55Z" style="fill:#fff;opacity:0.6000000000000001;isolation:isolate"></path><path d="M124.79,403.52c11.15-2.1,15.79,2.12,30.09,2.12s14,.52,24.32,0,14-1.86,23.47-2.12,33,2.58,34.05,2.35-16.64-2.08-25.35-5.51-11.91-.79-24.68,0-13.82,1.85-22.79.79-22.3-2.11-27.76-1.58S124.79,403.52,124.79,403.52Z" style="fill:#fff;opacity:0.6000000000000001;isolation:isolate"></path><path d="M180.78,384.27c7.36-.65,12.84-2.73,20.79-2.81s12.44,1.58,23.78,1.4,20.31,0,20.31,0-26.94,1.08-34.29-2.62-11.86-.08-21.62,0-22.68,1.92-25.06,1.66S175,384.79,180.78,384.27Z" style="fill:#fff;opacity:0.6000000000000001;isolation:isolate"></path><path d="M50.11,381.46c9.71-.26,14.94-.35,18,1.76s14.85,1.69,19.88,1.11,16.1,2.58,16.1,2.58H89.65c-3,0-11.46,5.54-19.9,1.58s-18.2-2.52-21.63-4.16A18.74,18.74,0,0,0,40.21,383,76.91,76.91,0,0,1,50.11,381.46Z" style="fill:#fff;opacity:0.6000000000000001;isolation:isolate"></path><path d="M253.73,422.51c9.34,1.32,24.32,3.7,32.65,1.85s13.61,2,19.41-.58a120.35,120.35,0,0,1,15-5s-12.15,1.58-18.2,0-13.44-3.95-17.4-2.64-11.61,6.36-16.09,4.24S253.73,422.51,253.73,422.51Z" style="fill:#fff;opacity:0.6000000000000001;isolation:isolate"></path><path d="M377.26,402.26c-12.65-.69-25.58-2.17-29.54-3.61s-23.3,0-23.3,0,12-2.25,18.29-3.56,6.86-3.17,16.09-1.32,13.72,3.69,18.46,2.37,7.13-.79,13.33-.79,12.26-.53,12.26-.53-8.71,4.22-16.09,3.83S381.18,402.48,377.26,402.26Z" style="fill:#fff;opacity:0.6000000000000001;isolation:isolate"></path><path d="M255.15,395.35c6.07,0,10-3.89,16.36-3.79s1.05-1.2,11.34,1.43,16.61,2.36,16.61,2.36-14,2.19-18.2,2.28-15.57,1-18.2,0S255.15,395.35,255.15,395.35Z" style="fill:#fff;opacity:0.6000000000000001;isolation:isolate"></path><path d="M441.09,381.46c-8.18-1.67-10.55-.78-16.62-1.22s-17.67,2.19-18.72,1.66-9.76-1.72-9.76-1.72L383.59,382a174.69,174.69,0,0,0,17.94,1.25c7.91,0,8.23-.79,14.4,0s11.48-.27,15.16,0S441.09,381.46,441.09,381.46Z" style="fill:#fff;opacity:0.6000000000000001;isolation:isolate"></path></g></svg>