<svg xmlns="http://www.w3.org/2000/svg" viewBox="0 0 750 500"><g id="freepik--background-simple--inject-218"><path d="M592.51,92.05c-9.58-7.71-19.49-15-29.62-21.86-35.55-24.11-76.35-43.19-120-44-43.36-.79-81.54,19.56-112.6,48.51-3.1,2.88-6.12,5.84-9.08,8.85-53.89,54.7-125.75,103.7-204.13,148.6-37.28,21.36-60.42,60.38-62.83,103.1C48.41,438.35,174.85,482.7,259.13,465.69c89-18,85.74-20.41,179.64-2.45s205.76-14.7,243.33-84.92c22.4-41.89,21.78-92.11,11.45-137.36C679.57,179.65,640.33,130.55,592.51,92.05Z" style="fill:#407BFF"></path><path d="M592.51,92.05c-9.58-7.71-19.49-15-29.62-21.86-35.55-24.11-76.35-43.19-120-44-43.36-.79-81.54,19.56-112.6,48.51-3.1,2.88-6.12,5.84-9.08,8.85-53.89,54.7-125.75,103.7-204.13,148.6-37.28,21.36-60.42,60.38-62.83,103.1C48.41,438.35,174.85,482.7,259.13,465.69c89-18,85.74-20.41,179.64-2.45s205.76-14.7,243.33-84.92c22.4-41.89,21.78-92.11,11.45-137.36C679.57,179.65,640.33,130.55,592.51,92.05Z" style="fill:#fff;opacity:0.7000000000000001"></path></g><g id="freepik--clouds-2--inject-218"><path d="M633.05,148c-2.82-2.69-4.59.29-7.55.33s-3.9-1.77-5.32-4.86c-2.12-4.64-3.2-10.11-8.49-8.89a17.51,17.51,0,0,0-4,1.84,6,6,0,0,1-4.13.87c-3.44-.84-3.53-7.45-3.85-10.75-.69-7.16-8.24-16-18.54-17.26-5.46-.67-11.54,3.3-15.26,8.06a29.63,29.63,0,0,0-3.28,5.85l-1,2.09c-5.56-2.84-12.18-1.68-17.9-4.34-6-2.79-8.93-8.13-12-13.46a43.81,43.81,0,0,0-6.15-8.94c-7-7.26-18.34-13.32-28.55-12.3-19.27,1.93-33.4,15.42-34.69,26.35-.59,5-.76,15.12-7.21,16.41-2.6.52-5.27-.29-7.71-1.33s-4.81-2.32-7.42-2.81c-9.9-1.87-11.92,6.49-15.89,13.57-2.65,4.71-4.24,7.47-9.95,7.41-5.53-.05-8.85-4.6-14.12-.5-5.79,4.5-7.07,7.71-7.07,7.71H636.83S636.14,151,633.05,148Z" style="fill:#fff;stroke:#263238;stroke-miterlimit:10"></path><path d="M177.68,192.73c-1.2-1.15-2,.13-3.22.14s-1.67-.75-2.27-2.07c-.91-2-1.37-4.32-3.63-3.8a7.42,7.42,0,0,0-1.69.79,2.62,2.62,0,0,1-1.77.37c-1.47-.36-1.51-3.19-1.64-4.6-.3-3.05-3.52-6.83-7.92-7.37-2.33-.28-4.93,1.41-6.52,3.44a12.67,12.67,0,0,0-1.4,2.5c-.14.3-.28.6-.43.9-2.37-1.22-5.2-.72-7.64-1.86s-3.82-3.47-5.12-5.75a18.61,18.61,0,0,0-2.62-3.82c-3-3.1-7.84-5.69-12.2-5.25-8.23.82-14.27,6.59-14.82,11.25-.25,2.15-.32,6.46-3.08,7a5.65,5.65,0,0,1-3.29-.56,15.41,15.41,0,0,0-3.17-1.2c-4.23-.8-5.09,2.77-6.79,5.79-1.13,2-1.81,3.19-4.25,3.17s-3.78-2-6-.21a9.37,9.37,0,0,0-3,3.29H179.3A6.17,6.17,0,0,0,177.68,192.73Z" style="fill:#fff;stroke:#263238;stroke-miterlimit:10"></path><path d="M672.31,361.39c-15.83-11.21-33.2-26.63-53.78-25.35-4.35.27-8.69,1.18-13,.7-12.72-1.42-11-13.67-12.58-23.13-2.39-14-8.28-25.63-19.73-34.47-29.82-23.05-56.48-1-71.35,6.93s-29.36-36.1-71.76-48.53-92.57-21.43-118.51,4.93-35.11,35.1-54.22,34.4-37.5-12.19-58.3-3.33S188.69,300,180.77,305.89s-20.82-4.95-35.68,2-9.91,22.79-20.81,29.73-29.73-1-37.66,7.92-9.91,22.8-9.91,22.8H681.22l-8.91-6.94" style="fill:#fff;stroke:#263238;stroke-miterlimit:10"></path></g><g id="freepik--Island--inject-218"><path d="M272.61,215.06l-1.49-1.77c-1.49-1.77-17.38-14.39-23.07-13.29a35.36,35.36,0,0,0-10.45,4.34l-.54.14,2.36-2-.74-1.54,3.06.7,1.31-1.07-1-4.72,2.32,4,2.84-1.81-.83-2.6,1.75,1.44,1.63,1.34,9.58,4.38s-10.55-14.88-18.71-11.45c-7.17,3-5.06,11.55-4.45,13.57h0c-.86-2-4.84-10.21-11.31-11.31-7.36-1.26-15.32,19.56-15.32,19.56l7-7.21.91-1.54,1.61-2.71,2.86,4.2,3.8-2.1,1.91-3.12,1,3.2,6.81,1.28.09.11c-2.59-.16-10.51-.56-13.58.63-3.69,1.44-9.14,4.37-11.8,10.25A126.75,126.75,0,0,0,204,234.63c0,1,7.52-4.51,7.52-4.51l.56-3,.78-4.11,1.79,4.85,4.81-4,.31-11.51,2.65,8.71,3.83-3.06.55-6.52,2.17,5,4.79-3,.18-6.71,2.55,5.25-.17-5.81c.16.23.35.49.54.78l.22.73.35.12c2.88,4.39,8.31,13.85,13.7,29.72,6.37,18.76,7.11,40,7.11,40s2.62,1.7,7-.75c0,0-5-26.18-9.95-38.38-3.52-8.62-10.68-22.2-14.56-29.41l5.92,2.11-.34-5.29,3.77,6.15,3.73.78-.25-5,3.86,6.44,6.89.76-.45-4.62,3.24,4.41Z" style="fill:#407BFF"></path><path d="M272.61,215.06l-1.49-1.77c-1.49-1.77-17.38-14.39-23.07-13.29a35.36,35.36,0,0,0-10.45,4.34l-.54.14,2.36-2-.74-1.54,3.06.7,1.31-1.07-1-4.72,2.32,4,2.84-1.81-.83-2.6,1.75,1.44,1.63,1.34,9.58,4.38s-10.55-14.88-18.71-11.45c-7.17,3-5.06,11.55-4.45,13.57h0c-.86-2-4.84-10.21-11.31-11.31-7.36-1.26-15.32,19.56-15.32,19.56l7-7.21.91-1.54,1.61-2.71,2.86,4.2,3.8-2.1,1.91-3.12,1,3.2,6.81,1.28.09.11c-2.59-.16-10.51-.56-13.58.63-3.69,1.44-9.14,4.37-11.8,10.25A126.75,126.75,0,0,0,204,234.63c0,1,7.52-4.51,7.52-4.51l.56-3,.78-4.11,1.79,4.85,4.81-4,.31-11.51,2.65,8.71,3.83-3.06.55-6.52,2.17,5,4.79-3,.18-6.71,2.55,5.25-.17-5.81c.16.23.35.49.54.78l.22.73.35.12c2.88,4.39,8.31,13.85,13.7,29.72,6.37,18.76,7.11,40,7.11,40s2.62,1.7,7-.75c0,0-5-26.18-9.95-38.38-3.52-8.62-10.68-22.2-14.56-29.41l5.92,2.11-.34-5.29,3.77,6.15,3.73.78-.25-5,3.86,6.44,6.89.76-.45-4.62,3.24,4.41Z" style="opacity:0.26"></path><path d="M219.67,278.37l-1-1.18c-1-1.18-11.6-9.61-15.4-8.88a23.85,23.85,0,0,0-7,2.9l-.36.1,1.57-1.37-.49-1,2,.47.87-.72-.68-3.14,1.55,2.7L202.7,267l-.55-1.74,1.17,1,1.08.9,6.39,2.92s-7-9.93-12.48-7.64c-4.78,2-3.38,7.71-3,9h0c-.58-1.31-3.23-6.81-7.56-7.55-4.91-.83-10.21,13.05-10.21,13.05l4.67-4.8.61-1,1.07-1.81,1.91,2.81,2.54-1.41,1.27-2.08.65,2.13,4.54.86.07.07c-1.73-.11-7-.37-9.07.43-2.46.95-6.1,2.91-7.87,6.83a84.61,84.61,0,0,0-4.05,12.45c0,.64,5-3,5-3l.38-2,.52-2.74,1.19,3.24,3.22-2.67.2-7.69,1.77,5.82,2.55-2,.38-4.35,1.44,3.38,3.2-2,.12-4.49,1.7,3.51-.11-3.88c.1.16.23.33.36.52l.14.49.24.08c1.92,2.93,5.54,9.24,9.14,19.83,4.25,12.52,4.74,26.7,4.74,26.7s1.75,1.13,4.7-.5c0,0-3.32-17.47-6.64-25.61-2.35-5.75-7.13-14.82-9.72-19.62l4,1.41-.22-3.53,2.52,4.1,2.48.52-.17-3.34,2.58,4.3,4.6.51-.3-3.09L216,278.2Z" style="fill:#407BFF"></path><path d="M219.67,278.37l-1-1.18c-1-1.18-11.6-9.61-15.4-8.88a23.85,23.85,0,0,0-7,2.9l-.36.1,1.57-1.37-.49-1,2,.47.87-.72-.68-3.14,1.55,2.7L202.7,267l-.55-1.74,1.17,1,1.08.9,6.39,2.92s-7-9.93-12.48-7.64c-4.78,2-3.38,7.71-3,9h0c-.58-1.31-3.23-6.81-7.56-7.55-4.91-.83-10.21,13.05-10.21,13.05l4.67-4.8.61-1,1.07-1.81,1.91,2.81,2.54-1.41,1.27-2.08.65,2.13,4.54.86.07.07c-1.73-.11-7-.37-9.07.43-2.46.95-6.1,2.91-7.87,6.83a84.61,84.61,0,0,0-4.05,12.45c0,.64,5-3,5-3l.38-2,.52-2.74,1.19,3.24,3.22-2.67.2-7.69,1.77,5.82,2.55-2,.38-4.35,1.44,3.38,3.2-2,.12-4.49,1.7,3.51-.11-3.88c.1.16.23.33.36.52l.14.49.24.08c1.92,2.93,5.54,9.24,9.14,19.83,4.25,12.52,4.74,26.7,4.74,26.7s1.75,1.13,4.7-.5c0,0-3.32-17.47-6.64-25.61-2.35-5.75-7.13-14.82-9.72-19.62l4,1.41-.22-3.53,2.52,4.1,2.48.52-.17-3.34,2.58,4.3,4.6.51-.3-3.09L216,278.2Z" style="opacity:0.26"></path><path d="M537.21,302l.62-1.41c.62-1.42,3.48-14.65,1.14-17.74a23.9,23.9,0,0,0-5.69-5l-.24-.27,1.92.8.71-.9.48,2,1,.46,2.52-2L538,280.61l1.93,1.17,1.31-1.27-.35,1.48-.32,1.36.21,7s5.78-10.7,1.32-14.57c-3.92-3.4-8.41.38-9.43,1.34l0,0c.92-1.1,4.68-5.91,3.43-10.11-1.42-4.78-16.23-3.39-16.23-3.39l6.38,2.07,1.19.09,2.1.16-1.67,2.95,2.38,1.65,2.43.23L531,272.3l1.24,4.45,0,.09c-.67-1.6-2.77-6.46-4.39-7.94-1.95-1.78-5.31-4.18-9.61-4a83.64,83.64,0,0,0-13,1.88c-.58.26,4.91,3.16,4.91,3.16l2-.54,2.68-.74-2.37,2.5,3.81,1.7,7-3.22-4.43,4.16,3,1.39,4.07-1.59-2.38,2.79,3.23,2,4.07-1.87-2.39,3.07,3.43-1.81c-.09.16-.19.35-.31.55l-.37.35,0,.24c-1.77,3-5.83,9.06-13.74,17-9.34,9.35-21.84,16.07-21.84,16.07s-.23,2.07,2.54,4c0,0,14.19-10.71,20-17.29,4.12-4.66,10.13-13,13.29-17.4l.49,4.17,3.06-1.77-2.56,4.08.64,2.45,2.91-1.62-2.71,4.21,1.58,4.35,2.63-1.64-1.68,3.25Z" style="fill:#407BFF"></path><path d="M537.21,302l.62-1.41c.62-1.42,3.48-14.65,1.14-17.74a23.9,23.9,0,0,0-5.69-5l-.24-.27,1.92.8.71-.9.48,2,1,.46,2.52-2L538,280.61l1.93,1.17,1.31-1.27-.35,1.48-.32,1.36.21,7s5.78-10.7,1.32-14.57c-3.92-3.4-8.41.38-9.43,1.34l0,0c.92-1.1,4.68-5.91,3.43-10.11-1.42-4.78-16.23-3.39-16.23-3.39l6.38,2.07,1.19.09,2.1.16-1.67,2.95,2.38,1.65,2.43.23L531,272.3l1.24,4.45,0,.09c-.67-1.6-2.77-6.46-4.39-7.94-1.95-1.78-5.31-4.18-9.61-4a83.64,83.64,0,0,0-13,1.88c-.58.26,4.91,3.16,4.91,3.16l2-.54,2.68-.74-2.37,2.5,3.81,1.7,7-3.22-4.43,4.16,3,1.39,4.07-1.59-2.38,2.79,3.23,2,4.07-1.87-2.39,3.07,3.43-1.81c-.09.16-.19.35-.31.55l-.37.35,0,.24c-1.77,3-5.83,9.06-13.74,17-9.34,9.35-21.84,16.07-21.84,16.07s-.23,2.07,2.54,4c0,0,14.19-10.71,20-17.29,4.12-4.66,10.13-13,13.29-17.4l.49,4.17,3.06-1.77-2.56,4.08.64,2.45,2.91-1.62-2.71,4.21,1.58,4.35,2.63-1.64-1.68,3.25Z" style="opacity:0.26"></path><path d="M500.17,274.42l-.31-1.51c-.32-1.51-5.67-13.94-9.37-15.1a23.8,23.8,0,0,0-7.51-.75l-.36-.08,2-.46.05-1.14,1.58,1.38,1.11-.22.89-3.1.08,3.12,2.24-.17.33-1.8.58,1.41.53,1.3,4.25,5.6s-1.5-12.08-7.38-12.64c-5.17-.49-6.62,5.19-6.9,6.57h0c.12-1.42.38-7.53-3.08-10.22-3.93-3.06-15.18,6.66-15.18,6.66l6.4-2,1-.62,1.8-1.09.36,3.38,2.9,0,2.1-1.23-.43,2.19,3.59,2.9a.87.87,0,0,1,0,.1c-1.47-.92-6-3.65-8.18-3.92-2.62-.32-6.75-.32-10.17,2.3a82.7,82.7,0,0,0-9.46,9c-.32.55,5.84-.28,5.84-.28l1.26-1.56,1.76-2.17-.48,3.42,4.09-.83,3.82-6.67-1.2,5.95,3.22-.59,2.39-3.65-.32,3.65,3.77-.27,2.23-3.89-.16,3.89,1.73-3.47c0,.19.05.4.08.63l-.1.5.16.18c.31,3.49.51,10.76-1.33,21.79-2.18,13-8.46,25.77-8.46,25.77s1,1.82,4.38,1.78c0,0,5.34-17,6.27-25.7.65-6.18.73-16.42.73-21.89l2.81,3.11,1.47-3.21.28,4.8,1.94,1.64,1.43-3,.24,5,3.81,2.63,1.19-2.86.52,3.61Z" style="fill:#407BFF"></path><path d="M500.17,274.42l-.31-1.51c-.32-1.51-5.67-13.94-9.37-15.1a23.8,23.8,0,0,0-7.51-.75l-.36-.08,2-.46.05-1.14,1.58,1.38,1.11-.22.89-3.1.08,3.12,2.24-.17.33-1.8.58,1.41.53,1.3,4.25,5.6s-1.5-12.08-7.38-12.64c-5.17-.49-6.62,5.19-6.9,6.57h0c.12-1.42.38-7.53-3.08-10.22-3.93-3.06-15.18,6.66-15.18,6.66l6.4-2,1-.62,1.8-1.09.36,3.38,2.9,0,2.1-1.23-.43,2.19,3.59,2.9a.87.87,0,0,1,0,.1c-1.47-.92-6-3.65-8.18-3.92-2.62-.32-6.75-.32-10.17,2.3a82.7,82.7,0,0,0-9.46,9c-.32.55,5.84-.28,5.84-.28l1.26-1.56,1.76-2.17-.48,3.42,4.09-.83,3.82-6.67-1.2,5.95,3.22-.59,2.39-3.65-.32,3.65,3.77-.27,2.23-3.89-.16,3.89,1.73-3.47c0,.19.05.4.08.63l-.1.5.16.18c.31,3.49.51,10.76-1.33,21.79-2.18,13-8.46,25.77-8.46,25.77s1,1.82,4.38,1.78c0,0,5.34-17,6.27-25.7.65-6.18.73-16.42.73-21.89l2.81,3.11,1.47-3.21.28,4.8,1.94,1.64,1.43-3,.24,5,3.81,2.63,1.19-2.86.52,3.61Z" style="opacity:0.26"></path><path d="M530.42,329.92a9.77,9.77,0,0,0-6.35-9.19,11.33,11.33,0,0,0-5.73-21,11.09,11.09,0,0,0-2.53.3,19.4,19.4,0,0,0,1.49-7.49,19,19,0,0,0-18.8-19.15,18.78,18.78,0,0,0-17.35,11.85l-1.33.12a19.16,19.16,0,0,0-6-8.35,24.93,24.93,0,0,0,1.55-8.68,24.44,24.44,0,0,0-24.21-24.65,24.08,24.08,0,0,0-20.44,11.46c-30.84-12.33-75.93-29-101.91-32.77a128.51,128.51,0,0,0-32.29-.92,24.19,24.19,0,0,0-22.11-14.63,24.44,24.44,0,0,0-24.21,24.65A24.82,24.82,0,0,0,255,246.13a19,19,0,0,0-6.28-1.08,19.5,19.5,0,0,0-19.32,19.67,20.54,20.54,0,0,0,.27,3.17,10.8,10.8,0,0,0-6.62-2.28,11.18,11.18,0,0,0-9.86,16,11.09,11.09,0,0,0-10,11.12,11.86,11.86,0,0,0,.29,2.55,18.91,18.91,0,0,0-11.17-3.64A19.5,19.5,0,0,0,173,311.36a19.72,19.72,0,0,0,8.77,16.47l-1.22.71L165.58,349s89.1-24.41,161.49-29.74c59.33-4.36,155,12.15,187.65,18.25a9.49,9.49,0,0,0,6.11,2.23,9.28,9.28,0,0,0,3-.49l2.22.44s0-.55,0-1.52A9.81,9.81,0,0,0,530.42,329.92Z" style="fill:#407BFF"></path><path d="M530.42,329.92a9.77,9.77,0,0,0-6.35-9.19,11.33,11.33,0,0,0-5.73-21,11.09,11.09,0,0,0-2.53.3,19.4,19.4,0,0,0,1.49-7.49,19,19,0,0,0-18.8-19.15,18.78,18.78,0,0,0-17.35,11.85l-1.33.12a19.16,19.16,0,0,0-6-8.35,24.93,24.93,0,0,0,1.55-8.68,24.44,24.44,0,0,0-24.21-24.65,24.08,24.08,0,0,0-20.44,11.46c-30.84-12.33-75.93-29-101.91-32.77a128.51,128.51,0,0,0-32.29-.92,24.19,24.19,0,0,0-22.11-14.63,24.44,24.44,0,0,0-24.21,24.65A24.82,24.82,0,0,0,255,246.13a19,19,0,0,0-6.28-1.08,19.5,19.5,0,0,0-19.32,19.67,20.54,20.54,0,0,0,.27,3.17,10.8,10.8,0,0,0-6.62-2.28,11.18,11.18,0,0,0-9.86,16,11.09,11.09,0,0,0-10,11.12,11.86,11.86,0,0,0,.29,2.55,18.91,18.91,0,0,0-11.17-3.64A19.5,19.5,0,0,0,173,311.36a19.72,19.72,0,0,0,8.77,16.47l-1.22.71L165.58,349s89.1-24.41,161.49-29.74c59.33-4.36,155,12.15,187.65,18.25a9.49,9.49,0,0,0,6.11,2.23,9.28,9.28,0,0,0,3-.49l2.22.44s0-.55,0-1.52A9.81,9.81,0,0,0,530.42,329.92Z" style="opacity:0.26"></path><path d="M249.88,267a20.65,20.65,0,0,0-2.75-.39,3.06,3.06,0,0,0,.42,1l-.27.08a5.38,5.38,0,0,0,1.69,1.53l-2.57.94h55.69c-2.26-.47-3.07-1.1-5.49-1.88.55-.44,0-1.33-.73-1.46a3.8,3.8,0,0,0-2.14.48c-.21.09-.53.15-.63,0a.38.38,0,0,1,0-.31c.2-.45.47-.93.63-1.41a.46.46,0,0,0,.19-.2.38.38,0,0,0-.24-.56,1.1,1.1,0,0,0-.89.3l-.22,0,.07-.18.07-.23a1.55,1.55,0,0,0,.07-.23,5.78,5.78,0,0,0,.12-.57,3.32,3.32,0,0,0,.88.18,1,1,0,0,0,.71-.3.39.39,0,0,0-.15-.59c-.34-.16-.94.13-1.18.35l-.25.28.06-.35c.05-.34.08-.69.12-1,0-.11,0-.21,0-.32a3,3,0,0,0,.9.2,1,1,0,0,0,.71-.31.37.37,0,0,0-.15-.58c-.33-.16-.93.13-1.17.34,0,0-.24.27-.29.34q0-.36.09-.69a8.07,8.07,0,0,1,.22-.91,3.28,3.28,0,0,0,.91.19,1,1,0,0,0,.71-.3.38.38,0,0,0-.15-.59c-.33-.15-.93.14-1.17.35l-.26.3h0a4.5,4.5,0,0,1,.39-.86c.09-.15.18-.3.27-.43a3.2,3.2,0,0,0,.87.27,1,1,0,0,0,.74-.23.38.38,0,0,0-.08-.6c-.31-.19-.95,0-1.21.23l-.24.22.13-.18a5.69,5.69,0,0,1,.46-.57,3,3,0,0,1,.23-.26,3.17,3.17,0,0,0,.9-.11.87.87,0,0,0,.54-.52.41.41,0,0,0-.37-.5c-.38,0-.82.43-1,.71,0,0-.15.42-.14.42h0l-.22.24-.48.57c-.16.21-.33.45-.49.71a4.9,4.9,0,0,0-.42.86h0c0-.1,0-.38,0-.4,0-.3-.33-.87-.7-.93a.44.44,0,0,0-.51.38.85.85,0,0,0,.36.64,3.26,3.26,0,0,0,.84.35,7,7,0,0,0-.24.93c0,.18-.07.37-.1.56v-.18c-.05-.3-.33-.87-.7-.93a.44.44,0,0,0-.51.38.82.82,0,0,0,.35.64,3.39,3.39,0,0,0,.83.34l0,.22c-.05.34-.09.69-.15,1,0,.12,0,.24-.06.35a.46.46,0,0,0,0-.15c0-.3-.32-.87-.69-.93a.44.44,0,0,0-.52.38.85.85,0,0,0,.36.64,3,3,0,0,0,.8.33,3.58,3.58,0,0,1-.09.35,1.55,1.55,0,0,1-.07.23l-.08.23c0,.08-.07.17-.1.26l-.14,0a1.42,1.42,0,0,0-.23-.71.28.28,0,0,0,0-.09.44.44,0,0,0-.54-.35c-.37.09-.6.67-.62,1,0,0,0,.21,0,.34l-.06-.22-.12-.43a6.32,6.32,0,0,0,.22-1.2.82.82,0,0,0,.21-.1.85.85,0,0,0,.41-.61.42.42,0,0,0-.48-.41.55.55,0,0,0-.34.17l0,0c-.25-.31-.71-.28-1.15-.16l-.14-.25a3.3,3.3,0,0,0,.87-.3.83.83,0,0,0,.41-.61.43.43,0,0,0-.48-.41c-.38,0-.71.58-.77.88a3.75,3.75,0,0,0,0,.42c-.12-.21-.24-.41-.34-.62a6.48,6.48,0,0,1-.37-.87,3.2,3.2,0,0,0,.88-.29.85.85,0,0,0,.41-.61.45.45,0,0,0-.49-.42c-.37,0-.7.58-.77.88,0,0,0,.27,0,.38h0a5.28,5.28,0,0,1-.19-.91,4.32,4.32,0,0,1,0-.5,3.25,3.25,0,0,0,.88-.2.83.83,0,0,0,.48-.56.42.42,0,0,0-.43-.47c-.37,0-.76.51-.87.8,0,0,0,.19-.07.31v-.22c0-.26,0-.5,0-.71l0-.32a2.88,2.88,0,0,0,.68-.55.78.78,0,0,0,.14-.7.44.44,0,0,0-.61-.23c-.34.15-.43.77-.37,1.07a3,3,0,0,0,.14.42h0c0,.09,0,.2,0,.31s-.05.45-.05.71a6,6,0,0,0,0,.84,5.38,5.38,0,0,0,.17.93h0l-.25-.33c-.22-.23-.8-.56-1.15-.43a.4.4,0,0,0-.2.58,1,1,0,0,0,.69.35,3.89,3.89,0,0,0,.92-.13,6.75,6.75,0,0,0,.36.9c.08.17.17.34.26.51a.79.79,0,0,1-.11-.15c-.22-.23-.8-.56-1.15-.42a.39.39,0,0,0-.2.57.93.93,0,0,0,.69.35,3.14,3.14,0,0,0,.89-.12l.09.15-.31.12-2.3,1a1.66,1.66,0,0,1-.85.19,1.22,1.22,0,0,1-.82-.76c-.72-1.49-.61-3.18-1.39-4.66a3.92,3.92,0,0,0-2.48-2,4.26,4.26,0,0,0-3.36.75,7,7,0,0,0-2.06,2.56c-.27.52-.63,1.13-1.28,1.19-1.72.13-2.64-2.44-4.52-2.49a2.43,2.43,0,0,0-1.88.93,2.36,2.36,0,0,0-1.53.57l-.37.42.09-.51c.06-.51.12-1,.17-1.53,0-.16,0-.32.05-.47a5.23,5.23,0,0,0,1.35.28,1.46,1.46,0,0,0,1.06-.45.57.57,0,0,0-.23-.87c-.49-.23-1.39.2-1.74.52,0,0-.35.39-.43.49,0-.35.08-.69.14-1a9.5,9.5,0,0,1,.32-1.35,5.06,5.06,0,0,0,1.36.29,1.42,1.42,0,0,0,1.05-.45.57.57,0,0,0-.22-.87c-.5-.24-1.39.19-1.75.51l-.38.44h0a6.51,6.51,0,0,1,.59-1.28c.12-.22.26-.43.4-.64a4.37,4.37,0,0,0,1.28.41,1.43,1.43,0,0,0,1.1-.34.57.57,0,0,0-.11-.89c-.47-.28-1.41.06-1.8.34,0,0-.22.19-.36.33a2.61,2.61,0,0,1,.19-.27c.23-.32.47-.6.68-.85s.23-.27.34-.38a5,5,0,0,0,1.34-.17,1.37,1.37,0,0,0,.81-.77A.61.61,0,0,0,271,250c-.56-.06-1.22.64-1.42,1.05,0,0-.22.63-.21.63h0L269,252c-.22.24-.46.52-.7.84a10.13,10.13,0,0,0-.74,1.05,8,8,0,0,0-.62,1.28v0c0-.15,0-.57,0-.6-.07-.45-.48-1.29-1-1.38a.64.64,0,0,0-.76.56,1.24,1.24,0,0,0,.53.95,5.14,5.14,0,0,0,1.26.52,9,9,0,0,0-.37,1.38c-.05.27-.1.55-.14.83a1.37,1.37,0,0,0,0-.26c-.06-.45-.48-1.29-1-1.38a.64.64,0,0,0-.76.56,1.21,1.21,0,0,0,.53.95,4.62,4.62,0,0,0,1.22.51c0,.1,0,.21,0,.32-.07.51-.14,1-.22,1.52,0,.17-.06.34-.09.52,0-.12,0-.21,0-.23-.07-.45-.48-1.29-1-1.38a.65.65,0,0,0-.77.57,1.25,1.25,0,0,0,.53.94,4.53,4.53,0,0,0,1.19.5c0,.18-.08.35-.13.52s-.06.23-.11.34-.07.22-.11.33-.16.41-.25.6l-.13.08,0-.18a2.14,2.14,0,0,0-.35-1.14.57.57,0,0,0,0-.13.67.67,0,0,0-.82-.51c-.54.13-.88,1-.91,1.45,0,0,0,.32,0,.5l-.09-.32c0-.22-.12-.43-.18-.67l-.12-.33a2.48,2.48,0,0,0-.13-.35c-.11-.26-.23-.53-.36-.79a4.77,4.77,0,0,0,1.25-.43,1.23,1.23,0,0,0,.61-.9.64.64,0,0,0-.72-.62c-.55.06-1,.86-1.14,1.31,0,0,0,.35-.05.53l-.25-.47c-.25-.46-.52-.91-.78-1.37l-.24-.41a5.44,5.44,0,0,0,1.3-.44,1.23,1.23,0,0,0,.6-.9.63.63,0,0,0-.71-.62c-.56,0-1,.86-1.15,1.31,0,0,0,.5-.06.62-.17-.31-.34-.61-.5-.92a10.19,10.19,0,0,1-.55-1.29,4.56,4.56,0,0,0,1.31-.43,1.29,1.29,0,0,0,.61-.91.64.64,0,0,0-.72-.61c-.56.05-1,.86-1.14,1.3,0,0-.05.39-.06.56h0a7.7,7.7,0,0,1-.29-1.36c0-.25,0-.49,0-.73a5,5,0,0,0,1.32-.3,1.28,1.28,0,0,0,.71-.84.62.62,0,0,0-.64-.68c-.56,0-1.14.75-1.29,1.18,0,0-.07.27-.1.46,0-.11,0-.22,0-.32,0-.39,0-.74.05-1.05s0-.34.06-.49a4.33,4.33,0,0,0,1-.82,1.19,1.19,0,0,0,.21-1,.69.69,0,0,0-.92-.34c-.49.23-.63,1.15-.54,1.59a5.9,5.9,0,0,0,.2.63h0c0,.14,0,.29-.06.46a10.47,10.47,0,0,0-.08,1.05,10.68,10.68,0,0,0,0,1.25,7.77,7.77,0,0,0,.26,1.38v0l-.37-.5c-.33-.34-1.18-.83-1.7-.63a.57.57,0,0,0-.29.85,1.42,1.42,0,0,0,1,.52,4.85,4.85,0,0,0,1.36-.19,11.28,11.28,0,0,0,.53,1.34l.39.75-.16-.21c-.33-.34-1.19-.83-1.7-.63a.57.57,0,0,0-.3.85,1.42,1.42,0,0,0,1,.52,4.85,4.85,0,0,0,1.33-.18l.15.29c.26.46.52.91.75,1.37.09.16.16.32.24.48l-.15-.18c-.32-.35-1.18-.84-1.7-.64a.58.58,0,0,0-.29.86,1.45,1.45,0,0,0,1,.52,4.51,4.51,0,0,0,1.29-.18c.07.17.15.34.21.5l.12.34c0,.11.07.22.1.34s.12.44.17.65.07.29.1.43l-.26-.49c-.27-.39-1-1-1.58-.86a.59.59,0,0,0-.4.29,6.23,6.23,0,0,0-.56-.41,4,4,0,0,0-2.73-.52,3.14,3.14,0,0,0-2,1.4c-.63,1-.54,2.18-1.12,3.21a.93.93,0,0,1-.67.52,1.45,1.45,0,0,1-.68-.13L251,265c-.42-.16-1-.29-1.29,0-.47.49.07,1.61.18,2.12Zm41.53-1.79a.73.73,0,0,0,.09.08l-.49.1Zm-.82-.14s0,.06,0,.09.05.2.07.29l-.13-.24A.74.74,0,0,1,290.59,265.1Zm-.12.47h0s0,0,0,0Zm-24.62-3.7c0-.11.07-.22.11-.34a3.57,3.57,0,0,0,.1-.35c.07-.27.13-.56.18-.84a5.9,5.9,0,0,0,1.19.27,5,5,0,0,0-.17,1,1.87,1.87,0,0,0-1.17.46,1.65,1.65,0,0,0-.36.11Zm-1.87.41a3.64,3.64,0,0,0,.8.5,4.86,4.86,0,0,1-1.33.86l-.06-.28c-.05-.24-.11-.49-.18-.76A7.31,7.31,0,0,0,264,262.28Zm-1.06.45c.05.24.1.47.14.69l.06.31a1.69,1.69,0,0,1-.32,0,1.38,1.38,0,0,1-1-.82l-.1-.16A5.82,5.82,0,0,0,262.92,262.73Z" style="fill:#263238"></path><path d="M487.91,301.79l-40.08-19.24-47.15-12.31L397,271.53l-38.7,13.33L330.48,261.7l-57.1-47.62,36.15-94.64S330,103.28,330.75,101,344.1,67.4,344.1,67.4L389.69,54l38.49,40.78L440,139.45l34.57,46.15Z" style="fill:#adadad"></path><polygon points="474.54 185.61 439.97 139.44 428.18 94.82 389.68 54.04 398.32 104.33 384.96 120.83 353.53 110.62 353.53 154.83 352.46 152.85 334.2 149.28 346.91 166.74 360.6 167.98 368.22 168.84 367.94 169.12 369.53 202.07 371.91 171.11 376.28 171.11 377.47 183.81 383.16 170.54 390.82 171.41 400.49 199.69 404.29 173.89 413.25 175.84 415.6 274.06 447.83 282.55 487.9 301.79 474.54 185.61" style="fill:#878787"></polygon><polygon points="332.62 113.95 330.63 136.97 337.78 112.36 332.62 113.95" style="fill:#878787"></polygon><polygon points="311.58 164.53 283.4 221.52 297.29 231.84 305.75 192.02 308.98 189.48 324.87 188.35 329.1 191.55 328.65 177.46 311.58 164.53" style="fill:#878787"></polygon><polygon points="376.28 58.38 375.49 88.55 384.62 54.8 376.28 58.38" style="fill:#878787"></polygon><polygon points="381.84 207.63 377.02 258.39 365.25 243.24 357.39 210.33 329.1 191.55 327.43 207.06 330.48 261.7 358.25 284.86 396.95 271.53 383.37 265.08 381.84 207.63" style="fill:#878787"></polygon><path d="M487.91,301.79l-40.08-19.24-47.15-12.31L397,271.53l-38.7,13.33L330.48,261.7l-57.1-47.62,36.15-94.64S330,103.28,330.75,101,344.1,67.4,344.1,67.4L389.69,54l38.49,40.78L440,139.45l34.57,46.15Z" style="fill:none;stroke:#263238;stroke-linecap:round;stroke-linejoin:round"></path><polygon points="365.51 65.77 365.51 106.64 375.15 61.79 365.51 65.77" style="fill:#fff;opacity:0.36"></polygon><polygon points="324.07 116.85 308.18 146.94 313.85 117.99 324.07 116.85" style="fill:#fff;opacity:0.36"></polygon><polygon points="311.58 164.53 287.18 216.18 295.89 166.48 311.58 164.53" style="fill:#fff;opacity:0.36"></polygon><polygon points="308.98 189.48 324.87 188.35 329.1 191.55 324.28 209.22 326.91 254.21 298.53 226.4 305.91 191.78 308.98 189.48" style="fill:#fff;opacity:0.36"></polygon><path d="M601.44,365.41c8.83-1,12.82-1.52,12.82-1.52l-17.91-5.43s-89.56-28.65-109.8-31.75S355.32,299,246.7,328.26c-28,7.54-59.18,14.71-67.75,16.26S147,354.59,138.46,357.69s-19.07,6.15-19.07,6.15,6.13.65,15.48,1.57Z" style="fill:#fff"></path><path d="M601.21,365.41c9-1,13-1.56,13-1.56l-17.85-5.43S507.18,329.71,487,326.61s-130.75-27.8-239,1.55c-27.87,7.56-59,14.74-67.51,16.29s-31.81,10.09-40.35,13.2-19,6.16-19,6.16,6.22.67,15.7,1.6Z" style="fill:#adadad;stroke:#263238;stroke-miterlimit:10"></path><path d="M361.11,300.66a2.84,2.84,0,0,0,1.45.07s-.24-.61-.26-.66a2,2,0,0,0-1.56-1.11c-.55.06-.64.48-.54.88A1.3,1.3,0,0,0,361.11,300.66Z" style="fill:#263238"></path><path d="M329.89,292.6c.31,0,.25-.92.26-1a2.75,2.75,0,0,0-1.06-2.6c-.72-.36-1.15.11-1.37.67a2,2,0,0,0,.47,1.72A4.76,4.76,0,0,0,329.89,292.6Z" style="fill:#263238"></path><path d="M371.67,300.53a5.25,5.25,0,0,0,.16-.68,1.94,1.94,0,0,0-.65-1.79c-.49-.26-.8,0-.95.41a1.31,1.31,0,0,0,.29,1.19A2.93,2.93,0,0,0,371.67,300.53Z" style="fill:#263238"></path><path d="M314.32,293.4a4.74,4.74,0,0,0,2.07.06c.28-.13-.31-.89-.34-1a2.75,2.75,0,0,0-2.31-1.58c-.81.1-.9.73-.77,1.32S313.8,293.21,314.32,293.4Z" style="fill:#263238"></path><path d="M297.58,310a2.92,2.92,0,0,0,1.14,0,4.5,4.5,0,0,0-.24-.49,1.51,1.51,0,0,0-1.27-.75c-.42.07-.48.39-.38.69A1,1,0,0,0,297.58,310Z" style="fill:#263238"></path><path d="M273.27,305.72s.09-.72.09-.78a2.16,2.16,0,0,0-1-1.88c-.57-.22-.89.14-1,.59a1.41,1.41,0,0,0,.48,1.27A3.26,3.26,0,0,0,273.27,305.72Z" style="fill:#263238"></path><path d="M305.79,309.3a2.94,2.94,0,0,0,.08-.54,1.43,1.43,0,0,0-.61-1.31.49.49,0,0,0-.71.37.94.94,0,0,0,.29.87A2.77,2.77,0,0,0,305.79,309.3Z" style="fill:#263238"></path><path d="M374.09,303c-.41,0-.49.35-.42.66a1,1,0,0,0,.69.64,2.89,2.89,0,0,0,1.1.1,3.84,3.84,0,0,0-.19-.52A1.49,1.49,0,0,0,374.09,303Z" style="fill:#263238"></path><path d="M484.54,311.87a2.62,2.62,0,0,0,1.2.32,5.44,5.44,0,0,0-.11-.7c-.14-.58-.62-1.31-1.12-1.34s-.6.4-.59.77A1.27,1.27,0,0,0,484.54,311.87Z" style="fill:#263238"></path><path d="M460.3,298.4s.33-.9.35-1a3.14,3.14,0,0,0-.42-2.74c-.58-.5-1-.08-1.27.42a2.27,2.27,0,0,0,.09,1.78A3.91,3.91,0,0,0,460.3,298.4Z" style="fill:#263238"></path><path d="M493.34,313.28a3.84,3.84,0,0,0,.24-.66,2.12,2.12,0,0,0-.29-1.86c-.39-.34-.68-.05-.85.28a1.56,1.56,0,0,0,.07,1.21A3.28,3.28,0,0,0,493.34,313.28Z" style="fill:#263238"></path><path d="M447.23,296.35a3.16,3.16,0,0,0,1.78.43s-.14-.94-.16-1c-.2-.82-.9-1.94-1.65-2s-.9.6-.89,1.15A1.88,1.88,0,0,0,447.23,296.35Z" style="fill:#263238"></path><path d="M431,309.06a2,2,0,0,0,.9.25,3.51,3.51,0,0,0-.08-.53c-.1-.43-.45-1-.83-1s-.46.3-.45.58A.92.92,0,0,0,431,309.06Z" style="fill:#263238"></path><path d="M412.78,298.9s.26-.68.28-.73a2.36,2.36,0,0,0-.3-2.07c-.43-.38-.76-.06-1,.32a1.7,1.7,0,0,0,.06,1.34A2.93,2.93,0,0,0,412.78,298.9Z" style="fill:#263238"></path><path d="M437.61,310.18a3.56,3.56,0,0,0,.19-.5,1.58,1.58,0,0,0-.2-1.4c-.29-.26-.52,0-.65.2a1.2,1.2,0,0,0,0,.91A2.5,2.5,0,0,0,437.61,310.18Z" style="fill:#263238"></path><path d="M402.92,297.3a2.42,2.42,0,0,0,1.34.34s-.1-.71-.11-.76c-.15-.61-.68-1.45-1.24-1.48s-.68.44-.67.86A1.32,1.32,0,0,0,402.92,297.3Z" style="fill:#263238"></path><path d="M386,301.6a3.88,3.88,0,0,0,.17-.52,1.66,1.66,0,0,0-.26-1.44c-.31-.26-.52,0-.65.23a1.18,1.18,0,0,0,.08.93A2.64,2.64,0,0,0,386,301.6Z" style="fill:#263238"></path><path d="M379.14,300.57a2.14,2.14,0,0,0,.94.23,4.6,4.6,0,0,0-.1-.53c-.12-.45-.51-1-.9-1s-.46.32-.44.6A1,1,0,0,0,379.14,300.57Z" style="fill:#263238"></path><path d="M514.34,325.18a1.07,1.07,0,0,0,.59.15c.1-.11,0-.2,0-.38s-.31-.67-.56-.66-.3.21-.31.4A.73.73,0,0,0,514.34,325.18Z" style="fill:#263238"></path><path d="M501.79,318.38a4,4,0,0,0,.18-.51,1.62,1.62,0,0,0-.22-1.42c-.3-.26-.53,0-.66.22a1.12,1.12,0,0,0,.06.91A2.46,2.46,0,0,0,501.79,318.38Z" style="fill:#263238"></path><path d="M518.86,325.85c.13,0,.08-.17.15-.35a1.08,1.08,0,0,0-.15-.92c-.21-.15-.35,0-.44.15a.8.8,0,0,0,0,.61C518.51,325.49,518.8,325.87,518.86,325.85Z" style="fill:#263238"></path><path d="M495,316c-.38,0-.46.31-.45.59a1,1,0,0,0,.48.72,2,2,0,0,0,.92.24,3.42,3.42,0,0,0-.09-.53C495.78,316.59,495.41,316,495,316Z" style="fill:#263238"></path><path d="M519.6,334.14a.86.86,0,0,0-.35-1.33,2.09,2.09,0,0,0-1.5.22c-.15.05-.36.06-.41-.08s0-.18,0-.27c.18-.41.38-.77.58-1.18,0-.07.1-.05.15-.18a.43.43,0,0,0-.12-.5c-.2-.11-.51.11-.62.17a.14.14,0,0,1-.15,0s0-.1,0-.15a1.6,1.6,0,0,1,.07-.19,1.38,1.38,0,0,1,.08-.2c.05-.08.05-.43.15-.45s.38.23.56.21.4,0,.51-.21a.37.37,0,0,0,0-.53c-.19-.17-.68.09-.8.19s-.17.22-.2.21,0-.16.06-.29.13-.71.18-.84,0-.26.08-.27.4.24.58.22.4,0,.51-.21a.38.38,0,0,0,0-.53c-.2-.17-.68.09-.8.19s-.21.28-.24.24a2.37,2.37,0,0,1,.13-.56c.05-.14.12-.67.25-.72s.39.24.58.21.4,0,.51-.21a.36.36,0,0,0,0-.53c-.2-.16-.67.07-.8.19s-.15.17-.22.24,0,0,0,0a4.43,4.43,0,0,1,.34-.69c.12-.13.12-.32.25-.33s.36.28.54.28.4,0,.53-.14a.37.37,0,0,0,0-.53c-.17-.2-.68,0-.81.08s-.17.16-.19.17,0-.08.1-.15a3.28,3.28,0,0,1,.36-.43c.09-.08.06-.17.2-.2s.43.05.6,0a.67.67,0,0,0,.42-.4c0-.2,0-.39-.21-.46s-.61.34-.7.51a2.74,2.74,0,0,0-.14.35c0,.07,0,0,0,0l-.19.2-.38.45c-.12.15-.29.4-.4.57a4.65,4.65,0,0,0-.36.69c0,.1,0,0,0,0s0-.17,0-.37-.11-.75-.36-.83-.34.08-.4.28a.9.9,0,0,0,.17.58c.1.18.46.24.51.4s-.22.6-.23.75a3.13,3.13,0,0,1-.12.46s0,0,0-.15-.11-.76-.36-.83-.34.08-.4.28a.89.89,0,0,0,.17.59c.1.16.42.27.5.37s0,.06,0,.21-.16.7-.18.83a2,2,0,0,1-.08.3s0,0,0-.14-.11-.76-.36-.83-.34.08-.4.28a.91.91,0,0,0,.17.59c.1.16.41.27.48.36s-.07.22-.07.3,0,.13-.07.19a2,2,0,0,1-.07.19,1.41,1.41,0,0,1-.1.21s-.09.07-.09,0a2.68,2.68,0,0,0-.08-.6c0-.11,0,0,0-.11s-.08-.38-.34-.33-.47.6-.5.76,0,.28,0,.3a.5.5,0,0,1,0-.18c0-.09-.07-.19,0-.4s.2-.71.27-1c0-.05.07,0,.16-.09a.91.91,0,0,0,.32-.48.38.38,0,0,0-.27-.41c-.15,0-.18.12-.25.1s0,.09,0-.05a.8.8,0,0,0-.73-.22c-.06,0-.13-.19-.06-.22a2.14,2.14,0,0,0,.59-.18.78.78,0,0,0,.34-.49c0-.21,0-.39-.3-.4s-.53.51-.59.66,0,.36-.08.35a2,2,0,0,1-.16-.54c0-.15-.22-.63-.13-.75s.45-.07.6-.21.32-.28.33-.49,0-.39-.29-.4-.54.49-.6.67,0,.23-.07.33,0,0,0,0a3.55,3.55,0,0,1,0-.79c0-.19-.06-.34,0-.44s.44,0,.59-.12.36-.24.38-.45,0-.38-.25-.43-.59.44-.65.58-.07.25-.08.26,0-.09,0-.18a4.58,4.58,0,0,1,.09-.58c0-.13,0-.19.08-.3s.4-.24.5-.42a.8.8,0,0,0,.16-.59c-.06-.2-.16-.34-.4-.25s-.36.68-.35.87a1.93,1.93,0,0,0,0,.38c0,.08,0,0,0,0s0,.14-.06.29-.08.4-.11.61-.06.51-.07.72a6.35,6.35,0,0,0,0,.79c0,.12,0,.05,0,0s-.05-.15-.15-.32-.46-.54-.7-.45-.25.28-.2.48.25.28.42.37.5-.09.61,0,.11.63.17.77a3.49,3.49,0,0,1,.12.45s0,0-.07-.13-.47-.55-.7-.44a.36.36,0,0,0-.2.48c0,.2.25.3.42.37a2.21,2.21,0,0,0,.59,0c.09,0,.07.11,0,.13a1.62,1.62,0,0,1-.2.08c-.55.22-1.1.46-1.67.67-.2.07-.35.18-.6.08a1,1,0,0,1-.47-.72c-.29-1.36-.12-2.84-.47-4.19a2.84,2.84,0,0,0-1.47-2,2.37,2.37,0,0,0-2.35.35,6.5,6.5,0,0,0-1.66,2c-.25.38-.48,1-1,.9-1.36-.24-1.5-2.11-2.82-2.51-.54-.17-1,.27-1.37.61-.33-.12-.89.22-1.07.35s-.25.34-.3.31.06-.24.1-.44.2-1.05.27-1.24,0-.38.12-.4.59.35.85.32.6,0,.75-.3.24-.56-.08-.78-.9,0-1.21.3c0,0-.33.41-.32.35a6.93,6.93,0,0,1,.19-.86,3.39,3.39,0,0,1,.4-1.1s.64.37.85.34.61,0,.75-.3.24-.56-.08-.78-.91,0-1.23.31l-.28.32s0,0,0,0a7.61,7.61,0,0,1,.52-1c.17-.2.17-.48.37-.5s.53.42.81.43.59,0,.77-.21.29-.53,0-.79-.9-.1-1.23.15c0,0-.27.24-.26.22a1.53,1.53,0,0,1,.16-.22,5.78,5.78,0,0,1,.53-.64c.14-.12.1-.25.3-.3s.65.07.9-.05.55-.31.61-.59.07-.62-.31-.69-.86.4-1.06.8c0,0-.18.43-.2.49s0,0,0,0l-.28.3c-.15.17-.38.43-.56.66s-.43.58-.6.85-.45.82-.54,1,0,0,0,0,.05-.45.05-.49c0-.46-.17-1.12-.54-1.29s-.49.14-.59.41.15.65.25.86.76.51.76.55a6.77,6.77,0,0,1-.34,1.17c-.06.3-.14.53-.18.71s0-.19,0-.2c0-.41-.18-1.12-.54-1.27s-.51.13-.59.41a1.19,1.19,0,0,0,.26.86c.14.23.62.44.73.55s0,.21,0,.28c-.05.35-.23,1-.28,1.27s-.11.38-.13.46,0-.16,0-.17c0-.41-.18-1.12-.55-1.27s-.5.13-.58.41a1.24,1.24,0,0,0,.25.86c.14.24.6.4.71.54s-.1.32-.1.44-.08.19-.11.3-.07.18-.11.28-.18.41-.22.47-.09.1-.1.07,0,0,0-.18a3.57,3.57,0,0,0-.1-1c-.07-.17,0,0,0-.17s-.12-.6-.51-.47-.68.72-.75,1.17c0,0,0,.42,0,.41s0-.17,0-.28-.05-.44-.06-.57,0-.2,0-.32-.06-.17,0-.32-.24-.56-.12-.69.65-.1.85-.29.49-.43.5-.73,0-.61-.44-.59-.77.62-.89,1a2.49,2.49,0,0,1-.09.42,3,3,0,0,1-.12-.43c-.05-.21-.34-1-.37-1.2s-.21-.29-.09-.4.68-.1.88-.29.49-.43.5-.73,0-.61-.44-.58-.76.61-.89,1c0,0-.08.55-.11.49a6.82,6.82,0,0,1-.24-.83,3.09,3.09,0,0,1-.18-1.15s.73-.11.89-.27.5-.44.48-.73,0-.61-.43-.58-.77.6-.89,1c0,0-.09.41-.1.45s0,0,0,0a8,8,0,0,1,0-1.18c0-.27-.08-.5.08-.64s.66,0,.89-.18.52-.37.55-.66,0-.62-.37-.65-.82.52-1,.92c0,0-.11.37-.11.34a1.52,1.52,0,0,1,0-.28c0-.15.08-.68.14-.87s0-.27.12-.43.59-.37.74-.62a1.29,1.29,0,0,0,.24-.89c-.08-.27-.23-.54-.59-.36a1.61,1.61,0,0,0-.52,1.34s.05.47.07.53,0,0,0,0c0,.19,0,.19-.1.43s-.11.59-.16.9-.09.75-.11,1.08,0,1,0,1.18,0,.05,0,.05-.17-.41-.19-.43c-.21-.39-.68-.81-1.07-.71s-.35.42-.3.71.42.43.62.54.88-.06.9,0a7.67,7.67,0,0,1,.27,1.18c.09.28.12.52.18.69s-.08-.16-.08-.18c-.19-.34-.69-.79-1.06-.69s-.37.43-.31.71.38.45.63.55.74,0,.88,0,.08.19.11.26c.13.32.28,1,.36,1.22s.09.37.11.45-.06-.13-.07-.14c-.19-.34-.69-.8-1.06-.69s-.37.42-.3.71.38.44.62.54.71-.06.86,0,.06.32.12.43a1.06,1.06,0,0,1,0,.31c0,.1,0,.18,0,.31s0,.44,0,.56,0,.35,0,.37-.11-.38-.12-.41a1.39,1.39,0,0,0-.94-.9c-.3-.05-.21.21-.34.18s-.2-.27-.34-.38a2.34,2.34,0,0,0-1.79-.68,2.13,2.13,0,0,0-1.51,1.05,13.07,13.07,0,0,0-.81,2c0,.11-.18.05-.35.16s-.72.1-.78-.16a.65.65,0,0,1,.09-.54c.38-.78.76-1.49,1.13-2.27.07-.14.21-.11.29-.35s.18-.78-.23-1-.88.12-1.22.34c-.07,0-.25,0-.27,0s.07-.18.1-.27.09-.25.15-.37,0-.24.15-.4.08-.79.31-.87.75.45,1.07.41.79-.06,1-.4.32-.73-.1-1-1.19,0-1.59.39c0,0-.36.44-.36.39a4.91,4.91,0,0,1,.13-.55c.13-.51.22-1.2.37-1.71.05-.15,0-.49.15-.49s.77.46,1.11.44.79-.07,1-.4.32-.73-.1-1-1.19,0-1.59.39c0,0-.43.54-.42.45a9.14,9.14,0,0,1,.25-1.12,4.2,4.2,0,0,1,.53-1.43s.83.49,1.11.45.8-.06,1-.4.33-.73-.1-1-1.18,0-1.6.4l-.38.42s0,0,0,0a8.4,8.4,0,0,1,.69-1.34c.22-.28.19-.6.48-.66s.71.56,1.05.56.78.05,1-.27.38-.7,0-1-1.18-.14-1.62.19c0,0-.34.32-.33.29a1.66,1.66,0,0,1,.21-.28,8.31,8.31,0,0,1,.69-.85c.19-.15.13-.33.39-.39s.85.09,1.18-.06.72-.41.8-.78.1-.8-.41-.89-1.12.51-1.38,1c0,0-.24.56-.26.64s0,0,0,0c-.16.18-.17.17-.37.4s-.48.54-.73.86-.54.73-.79,1.13a11.07,11.07,0,0,0-.72,1.37h0c0-.1.07-.61.07-.65,0-.61-.22-1.47-.7-1.69s-.65.18-.77.53.19.85.32,1.12,1,.67,1,.73a8.65,8.65,0,0,1-.44,1.53c-.08.39-.19.69-.23.92s0-.24,0-.26c0-.53-.23-1.46-.71-1.66s-.66.17-.76.53a1.59,1.59,0,0,0,.33,1.13c.19.3.81.57,1,.72s0,.25,0,.37c-.08.57-.27,1.17-.38,1.71,0,.19-.13.46-.16.56s0-.21,0-.23c0-.54-.23-1.47-.71-1.67s-.66.17-.76.54a1.56,1.56,0,0,0,.33,1.12c.18.31.79.53.93.72s-.14.41-.14.57-.1.26-.13.38-.11.26-.15.37a3.08,3.08,0,0,1-.19.4s-.18.08-.18,0a3.75,3.75,0,0,0-.16-1.23c0-.05,0-.12,0-.16-.09-.33-.15-.79-.67-.65s-.89.95-1,1.53c0,0,0,.53,0,.52s0-.2,0-.36a3.25,3.25,0,0,1-.06-.74c.18-.61.37-1.33.55-2,0-.11.12,0,.31-.17a1.78,1.78,0,0,0,.62-.93.72.72,0,0,0-.52-.79c-.28-.05-.39.17-.48.2s0,0-.05-.05c-.32-.59-1-.52-1.45-.5-.13,0-.24-.36-.11-.43a4.1,4.1,0,0,0,1.14-.35c.26-.21.65-.57.65-.94s0-.81-.57-.78-1,.78-1.17,1.36c0,0-.12.56-.13.67a10.17,10.17,0,0,1-.32-1.13,4,4,0,0,1-.24-1.52s.95-.14,1.16-.34.65-.58.64-1,0-.8-.57-.77-1,.79-1.17,1.35l-.12.59c0,.05,0,0,0,0a9.08,9.08,0,0,1-.06-1.54c.06-.36-.12-.67.09-.84s.87,0,1.17-.23.69-.48.73-.86,0-.81-.49-.85-1.08.67-1.28,1.19c0,0-.14.46-.15.46s0-.25,0-.34c.06-.33.1-.88.19-1.16s0-.35.16-.58.77-.47,1-.81a1.6,1.6,0,0,0,.32-1.15c-.1-.37-.31-.72-.77-.48a2.09,2.09,0,0,0-.68,1.75c0,.05.06.62.08.69s0,0,0,0c0,.26-.07.25-.13.56s-.15.77-.21,1.18-.12.94-.14,1.43a12.15,12.15,0,0,0,0,1.59v0c0-.1-.23-.55-.25-.58-.28-.52-.9-1.07-1.4-.94s-.46.55-.4.93.55.57.81.71,1.15-.08,1.18,0a10.26,10.26,0,0,1,.35,1.54c.12.37.16.68.23.9s-.09-.21-.1-.22c-.25-.45-.9-1.05-1.39-.92s-.48.56-.4.93.51.59.82.72a3.87,3.87,0,0,0,1.15,0c.18,0,.13.21.1.25s-.27.1-.4.15c-1.07.42-2.13.89-3.23,1.29-.39.14-.69.35-1.18.15a1.94,1.94,0,0,1-.9-1.41c-.56-2.65-.22-5.52-.91-8.14a5.51,5.51,0,0,0-2.83-3.86,4.54,4.54,0,0,0-4.55.66,12.72,12.72,0,0,0-3.25,3.9c-.47.74-.93,1.91-1.92,1.72-2.63-.51-2.89-4.13-5.44-4.94-1.05-.33-1.94.52-2.65,1.16a2.85,2.85,0,0,0-2.17.74c-.05,0-.45.5-.54.61.07-.27.14-.57.21-.86.22-.83.34-1.74.58-2.55.07-.25-.05-.65.24-.73.12,0,1.18.72,1.64.67s1.18-.09,1.45-.58.49-1.09-.14-1.52-1.75,0-2.38.59c-.05.05-.54.59-.64.72.15-.59.2-1.09.42-1.73a6.28,6.28,0,0,1,.79-2.14s1.23.73,1.65.67,1.19-.09,1.45-.59.49-1.09-.14-1.51-1.76,0-2.38.59c0,0-.52.57-.57.62s-.05,0,0,0a16.56,16.56,0,0,1,1-2c.3-.5.4-.63.69-1.05a4.38,4.38,0,0,0,1.59.91,1.51,1.51,0,0,0,1.51-.39,1,1,0,0,0,0-1.52,2.2,2.2,0,0,0-2.41.29s-.45.38-.52.46c.08-.1.21-.31.3-.41a13.33,13.33,0,0,1,1.07-1.29c.32-.27.19-.48.6-.58s1.25.14,1.74-.1,1.08-.61,1.21-1.15.15-1.2-.6-1.34-1.67.78-2.06,1.55c0,.07-.37.85-.4,1s0,0,0,0c-.23.26-.25.26-.55.58s-.74.84-1.09,1.28-.85,1.16-1.18,1.65a21,21,0,0,0-1,2c-.13.31,0,.1,0,.09s.1-.88.1-.94c0-.9-.32-2.19-1-2.51s-1,.27-1.15.79.27,1.25.47,1.66,1.46,1,1.45,1.09a13.16,13.16,0,0,1-.68,2.32c-.08.47-.27.92-.35,1.38,0-.07,0-.4,0-.43,0-.84-.32-2.18-1-2.49s-1,.26-1.14.79a2.34,2.34,0,0,0,.48,1.67c.28.45,1.2.85,1.42,1.08s0,.37-.07.55c-.13.86-.4,1.69-.59,2.54-.06.3-.16.58-.24.86a2.6,2.6,0,0,0,0-.37c0-.83-.32-2.18-1-2.49s-1,.25-1.14.79a2.38,2.38,0,0,0,.48,1.68c.28.46,1.15.78,1.37,1.07s-.21.61-.21.84-.15.37-.21.57a5.1,5.1,0,0,1-.23.56c-.09.21-.34.77-.42.92a.23.23,0,0,1-.2.13s.05-.25.06-.28a5,5,0,0,0-.21-2c0-.07,0-.17,0-.23-.14-.48-.23-1.17-1-1s-1.33,1.4-1.48,2.28c0,.06-.06.69-.06.82,0-.21,0-.3,0-.57s-.07-.85-.1-1.13-.05-.36-.08-.61,0-.31-.1-.64-.2-1-.3-1.38a4.87,4.87,0,0,0,1.73-.5,2.06,2.06,0,0,0,1-1.41c0-.55-.08-1.2-.83-1.15s-1.51,1.16-1.75,2c0,.05-.16.71-.17.85-.07-.26-.16-.56-.23-.84-.19-.81-.55-1.66-.71-2.45,0-.25-.39-.56-.15-.74s1.31-.18,1.71-.52,1-.85,1-1.41-.07-1.19-.84-1.14-1.5,1.15-1.74,2c0,.06-.19.82-.21,1-.15-.58-.34-1-.46-1.67a6,6,0,0,1-.33-2.24c0-.05,1.4-.21,1.72-.52s1-.86,1-1.4-.06-1.2-.83-1.15-1.5,1.17-1.75,2c0,.05-.18.8-.19.87s0,0,0,0a13,13,0,0,1-.07-2.33c.07-.42-.16-.92.17-1.23s1.3,0,1.71-.31,1-.73,1.09-1.29.05-1.2-.72-1.25-1.6,1-1.91,1.78c0,0-.2.6-.23.71,0-.14,0-.39.06-.53a15.67,15.67,0,0,1,.3-1.74c.15-.43-.06-.51.24-.86s1.14-.71,1.44-1.2a2.44,2.44,0,0,0,.49-1.71c-.16-.55-.45-1.07-1.14-.71a3.11,3.11,0,0,0-1,2.59c0,.08.08.93.11,1s0,0,0,0c-.07.37-.09.38-.19.83s-.23,1.16-.32,1.75-.18,1.49-.23,2.1,0,1.93,0,2.28,0,.1,0,.1l-.36-.83c-.41-.76-1.33-1.58-2.07-1.39s-.69.82-.6,1.38.8.84,1.19,1.06,1.7-.14,1.75-.05a15.66,15.66,0,0,1,.52,2.32c.14.43.2.91.34,1.34,0-.06-.15-.35-.16-.37-.38-.71-1.33-1.56-2.06-1.36s-.72.82-.6,1.37.74.85,1.2,1.05,1.44-.09,1.72,0,.14.32.2.49c.3.79.46,1.65.7,2.46.09.28.14.58.21.85a3.26,3.26,0,0,0-.15-.32c-.37-.7-1.32-1.57-2.05-1.38s-.72.83-.6,1.38.73.86,1.2,1.07,1.36-.11,1.68,0,.11.63.22.83a2,2,0,0,1,.09.6,4.69,4.69,0,0,1,.07.61c0,.27.06.82.08,1.11s0,.5,0,.76c0-.15-.21-.79-.23-.85-.38-.87-1-1.72-1.89-1.77-.32,0-.42.23-.61.41a5,5,0,0,0-.65-.8,4.43,4.43,0,0,0-3.45-1.38,4,4,0,0,0-2.93,2c-1.06,1.64-1.29,3.56-2.23,5.23a1.38,1.38,0,0,1-1,.75,1.41,1.41,0,0,1-.88-.34,2.58,2.58,0,0,1-.55-.37c-.07-.11.08,0,.12-.16s.24-.54-.08-.75-.82,0-1.1.19c-.08,0-.25-.1-.24-.17a7.24,7.24,0,0,1,.24-1.11c.07-.2,0-.37.12-.39s.57.35.83.33.6,0,.75-.29.24-.55-.07-.77-.9,0-1.2.28c0,0-.33.4-.32.34a5.23,5.23,0,0,1,.2-.84,3,3,0,0,1,.41-1.08s.62.37.83.34.61,0,.74-.29.25-.55-.07-.76-.89,0-1.21.28l-.29.32s0,0,0,0a6,6,0,0,1,.53-1c.16-.2.17-.47.36-.49s.52.42.79.43.59,0,.77-.2.29-.52,0-.77-.89-.11-1.22.13l-.25.22a1.36,1.36,0,0,1,.15-.22c.1-.11.39-.51.53-.63s.11-.24.3-.29.64.08.89,0,.55-.3.61-.57.08-.61-.3-.68-.85.38-1.05.77c0,0-.19.43-.2.49s0,0,0,0l-.28.29c-.15.17-.38.42-.56.65s-.43.57-.6.83a9.58,9.58,0,0,0-.55,1c-.06.14,0,0,0,0s.05-.45.05-.48c0-.46-.16-1.12-.52-1.28s-.49.13-.58.39.13.64.23.85.74.51.74.56a6.78,6.78,0,0,1-.35,1.15c-.06.29-.15.52-.18.69s0-.18,0-.2c0-.4-.16-1.1-.52-1.25s-.5.12-.59.39a1.23,1.23,0,0,0,.24.86c.14.24.61.4.72.55s0,.1,0,.31a7.53,7.53,0,0,1-.26,1c0,.05-.17,0-.22-.15s-.21-.59-.45-.68-.43.14-.5.22-.12,0-.12,0,0-.08.07-.25-.17-.57-.39-.57a.56.56,0,0,0-.37.15c-.07,0,0,0,0,0-.24-.44-.73-.39-1.1-.38-.09,0-.17-.27-.08-.32s.68-.1.87-.26.5-.43.5-.71,0-.61-.42-.59-.77.6-.9,1c0,0-.08.54-.11.48a7.39,7.39,0,0,1-.23-.82,3.28,3.28,0,0,1-.16-1.14s.72-.11.88-.26.5-.43.49-.71,0-.61-.42-.58-.77.59-.9,1c0,0-.09.4-.09.44s0,0,0,0a6.52,6.52,0,0,1,0-1.16c.06-.27-.08-.5.08-.63s.65,0,.88-.17.53-.36.56-.65,0-.6-.36-.64-.82.51-1,.89a2.74,2.74,0,0,1-.11.34,2,2,0,0,1,0-.27,5.76,5.76,0,0,1,.15-.86c.07-.19,0-.27.12-.43s.59-.36.74-.6a1.26,1.26,0,0,0,.25-.88c-.08-.27-.23-.54-.58-.36a1.6,1.6,0,0,0-.53,1.32,5.19,5.19,0,0,0,.06.52c0,.05,0,0,0,0,0,.19-.05.19-.1.42s-.13.59-.17.89-.1.74-.12,1.07a8.94,8.94,0,0,0,0,1.16c0,.16,0,.05,0,0l-.18-.42c-.21-.39-.67-.8-1.05-.71s-.35.41-.31.69.41.44.6.55.87-.06.89,0a6.35,6.35,0,0,1,.25,1.16c.09.28.12.52.17.68s-.07-.16-.08-.17c-.18-.34-.66-.79-1-.69s-.37.41-.31.7.37.44.6.54a3.13,3.13,0,0,0,.88,0c.13,0,.09.16.07.19s-.21.08-.31.12c-.81.31-1.62.65-2.45.95a1,1,0,0,1-.89.11,1.4,1.4,0,0,1-.66-1.07c-.4-2-.11-4.16-.61-6.14a4.1,4.1,0,0,0-2.1-2.91,3.44,3.44,0,0,0-3.44.48,9.65,9.65,0,0,0-2.48,2.95c-.37.56-.73,1.44-1.47,1.3-2-.37-2.15-3.11-4.07-3.73-.79-.25-1.48.39-2,.88a2.17,2.17,0,0,0-1.64.53s-.39.48-.4.42A5.13,5.13,0,0,1,410,307c.15-.57.27-1.34.45-1.9,0-.17,0-.55.17-.55s.86.52,1.24.5.89-.07,1.11-.43.37-.82-.1-1.15-1.32,0-1.8.44a7.11,7.11,0,0,0-.49.54c.12-.45.16-.82.33-1.3a4.63,4.63,0,0,1,.61-1.61s.92.55,1.24.51.9-.06,1.1-.43.38-.81-.09-1.14-1.33,0-1.8.43c0,0-.4.42-.44.47s0,0,0,0a9.19,9.19,0,0,1,.79-1.5c.26-.3.23-.66.56-.72s.79.63,1.17.63.88.06,1.14-.3.44-.77,0-1.15-1.31-.16-1.81.21l-.38.33a2.5,2.5,0,0,1,.21-.3c.24-.26.57-.76.81-1s.15-.36.46-.44.94.11,1.32-.07.82-.45.92-.86.12-.9-.45-1-1.26.58-1.57,1.16c0,.05-.28.63-.3.72s0,0,0,0c-.18.2-.2.19-.42.44s-.56.61-.84,1-.62.8-.91,1.24a13.2,13.2,0,0,0-.83,1.53h0c0-.11.09-.67.09-.72,0-.68-.22-1.65-.76-1.89s-.73.2-.87.59.19.94.34,1.24,1.09.75,1.09.83a10.38,10.38,0,0,1-.52,1.71c-.1.48-.2.65-.29,1.07,0-.06,0-.3,0-.33,0-.63-.24-1.65-.76-1.88s-.75.18-.87.58a1.77,1.77,0,0,0,.35,1.26c.2.35.9.66,1.06.83s0,.29-.05.42c-.1.63-.32,1.3-.46,1.9-.05.21-.15.51-.18.62a2.23,2.23,0,0,1,0-.26c0-.6-.24-1.64-.76-1.88s-.74.17-.87.58a1.83,1.83,0,0,0,.35,1.26c.2.35.87.62,1,.83s-.16.46-.17.64-.11.27-.15.42-.11.26-.18.42-.26.57-.33.68a.17.17,0,0,1-.15.1s0-.19,0-.21a3.83,3.83,0,0,0-.14-1.51c0-.06,0-.13,0-.17-.1-.37-.16-.89-.75-.75s-1,1-1.12,1.68c0,0,0,.59,0,.59l0-.41c0-.15-.05-.64-.07-.84s-.05-.28-.05-.46-.09-.24-.07-.48-.33-.78-.15-1,1-.12,1.25-.37.73-.62.73-1,0-.9-.63-.88-1.13.87-1.33,1.47a3.14,3.14,0,0,1-.14.6,5.31,5.31,0,0,1-.16-.59c-.14-.56-.42-1.26-.53-1.83,0-.18-.3-.43-.12-.55s1-.13,1.3-.38.73-.61.74-1,0-.89-.62-.85-1.14.83-1.34,1.47c0,.05-.15.61-.16.73-.11-.43-.25-.75-.34-1.23a4.42,4.42,0,0,1-.23-1.67s1.06-.15,1.3-.38.75-.63.74-1,0-.89-.63-.86-1.14.87-1.33,1.5c0,0-.14.59-.15.65s0,0,0,0a9.88,9.88,0,0,1,0-1.71c.08-.42-.13-.68.14-.95s1,0,1.3-.23.78-.53.83-.95,0-.9-.53-.94-1.22.73-1.47,1.31c0,0-.16.51-.17.51s0-.28.05-.38c.08-.36.13-1,.24-1.28s0-.39.18-.64.88-.53,1.1-.9a1.85,1.85,0,0,0,.38-1.29c-.11-.41-.34-.8-.86-.53a2.34,2.34,0,0,0-.79,1.95c0,.06.06.69.08.77s0,0,0,0c-.06.28-.08.28-.16.62s-.18.85-.26,1.31-.15,1-.18,1.58a13.09,13.09,0,0,0,0,1.77h0l-.27-.64c-.3-.58-1-1.18-1.55-1.05s-.53.61-.47,1,.6.64.89.8,1.3-.09,1.33,0a9.55,9.55,0,0,1,.36,1.7c.14.44.14.63.26,1a2.61,2.61,0,0,0-.12-.28c-.29-.53-1-1.15-1.54-1s-.56.6-.47,1,.55.64.9.78,1.09-.05,1.3,0,.11.25.15.37c.22.58.36,1.26.53,1.84.06.2.12.51.15.62s-.1-.21-.11-.22c-.27-.52-1-1.18-1.55-1s-.55.6-.45,1,.55.65.9.81,1-.07,1.28,0,.08.47.16.62a1.41,1.41,0,0,1,.07.45,3.28,3.28,0,0,1,0,.46c0,.19.05.67.06.83a3.3,3.3,0,0,1,0,.53s-.08-.42-.17-.64a3.3,3.3,0,0,0-.58-.89l-.14-.14s-.05,0-.06-.07-.07-.3-.22-.33-.27.08-.36.11.05,0-.07,0-.33.31-.44.27-.29-.38-.49-.57a3.87,3.87,0,0,0-2.62-1.08c-.22,0-.46.15-.61.1s-.16-.33-.41-.23-.27.46-.36.61a1.07,1.07,0,0,1-.33.29c-.08.08,0,0-.15,0s-.19.3-.24.36,0,0-.13,0a.46.46,0,0,0-.28.39c0,.15.08.1.05.22a2.56,2.56,0,0,1-.26.58c-.08.06-.16-.13-.32-.08a.37.37,0,0,0-.27.43.75.75,0,0,0,.33.41,11.18,11.18,0,0,1-.88,2.18c0,.09-.14.25-.19.24s-.08-.18-.1-.29c-.29-1.37-.11-2.83-.47-4.2a3.1,3.1,0,0,0-1.48-2.05,2.42,2.42,0,0,0-2.36.24c-.68.39-.9.93-1.39,1.45-.2.21-.45.19-.7.43a6.55,6.55,0,0,0-.87.94c-1-.67-1.3-2.13-2.55-2.52-.56-.18-1,.27-1.36.61-.33-.12-.89.22-1.06.35s-.25.34-.3.31.06-.24.09-.44.17-1.05.24-1.25,0-.39.11-.41.6.36.86.34.61,0,.75-.31.23-.56-.1-.78-.9,0-1.21.3c0,0-.32.41-.31.35a5.45,5.45,0,0,1,.17-.87,2.93,2.93,0,0,1,.37-1.1s.65.37.86.34.62,0,.75-.3.23-.57-.1-.78-.9,0-1.22.3c0,0-.26.3-.29.33s0,0,0,0a5.9,5.9,0,0,1,.5-1c.16-.2.16-.48.35-.5s.55.43.83.43.6,0,.77-.22.28-.55,0-.8-.9-.09-1.24.16a2.4,2.4,0,0,1-.25.23,1.53,1.53,0,0,1,.16-.22,6.93,6.93,0,0,1,.51-.66c.15-.13.1-.26.3-.31s.65.06.9-.07a1,1,0,0,0,.61-.61c.05-.29.05-.63-.33-.69s-.86.42-1.05.83a4.77,4.77,0,0,0-.19.5c0,.05,0,0,0,0l-.28.31c-.14.17-.36.44-.54.68s-.42.58-.59.85a8.13,8.13,0,0,0-.51,1l0,0c0-.12,0-.37,0-.51s-.05-.21,0-.34.06,0,.08-.25-.12-.61-.47-.63c0,0,0,0,0,0s0,0-.18-.11-.51.23-.54.41.05,0,0,.1a3.37,3.37,0,0,0-.35.52,4.92,4.92,0,0,0-.16.54c0,.08,0,0,0,0s-.14.15-.28.34-.37.47-.55.73-.41.63-.57.92a10.91,10.91,0,0,0-.46,1.09c-.05.15,0,.06,0,0s0-.31,0-.52-.29-.62-.3-.78.39-.11.49-.21l.37-.4c.06-.06.27.17.29.16a1.74,1.74,0,0,0-.35-1.92c-.38-.23-.57.07-.73.29s.12.53.05.69a8.65,8.65,0,0,0-.48.84c0,.18,0,.13,0,.17s-.12,0-.16-.05,0,.08,0,0a2.9,2.9,0,0,1-.13-.41,3.13,3.13,0,0,1-.2-1.14s.72-.12.88-.28.5-.45.48-.74-.06-.61-.46-.58-.76.61-.88,1c0,0-.07.41-.08.46s0,0,0,0a7,7,0,0,1-.08-1.18c0-.27-.1-.51.06-.64s.66,0,.89-.19.52-.38.55-.68,0-.61-.4-.64-.82.53-1,.93c0,0-.1.37-.1.35a1.1,1.1,0,0,1,0-.28,7.68,7.68,0,0,1,.12-.88c.06-.19,0-.27.11-.44s.58-.37.73-.62a1.27,1.27,0,0,0,.22-.89c-.09-.28-.26-.54-.61-.35a1.58,1.58,0,0,0-.49,1.34s.06.47.08.53,0,0,0,0c0,.19,0,.19-.08.43s-.1.59-.14.9-.07.76-.08,1.09a10.36,10.36,0,0,0,.06,1.19c0,.15,0,0,0,0s-.18-.4-.2-.43c-.22-.38-.72-.8-1.1-.7s-.34.44-.29.72.44.43.64.54.89-.08.91,0a6.41,6.41,0,0,1,.3,1.16,3,3,0,0,1,.11.37c0,.08-.06.05-.08,0-.21-.26-.65-.67-1-.55s-.34.43-.28.72.45.44.63.53.22-.07.33.06a4.87,4.87,0,0,0,.42.57c.16.12.36.15.48.27s.14.45.2.58a3.77,3.77,0,0,1,.12.42c0,.05-.07-.13-.08-.14-.21-.36-.69-.78-1.09-.69s-.27.47-.31.68-.11.14-.13.37a1.37,1.37,0,0,0,.43.79,2.11,2.11,0,0,0,.22.15s-.06.17-.11.12-.21-.27-.34-.39a2.82,2.82,0,0,0-1.6-.68s.05,0,0-.12-.18-.61-.6-.48a1.5,1.5,0,0,0-.86,1.15s0,.22,0,.23,0,.21-.11.11a4.82,4.82,0,0,1-.33-.63c-.1-.25-.44-.77-.4-1.11a4.89,4.89,0,0,0,1-.39c.17-.18.51-.49.45-.8s-.18-.6-.6-.52-.78.67-.87,1.16c0,0,0,.42,0,.46s0,0,0,0a5.85,5.85,0,0,1-.25-1.17c0-.27-.18-.49,0-.65s.76-.1,1-.29.55-.42.54-.75-.12-.61-.54-.59-.86.6-1,1.05a2.3,2.3,0,0,1-.07.36s0-.12,0-.28a6.84,6.84,0,0,1,0-.89c0-.19-.08-.26.06-.45s.62-.44.76-.72a1.07,1.07,0,0,0,.13-.91c-.15-.28-.39-.49-.75-.27a1.44,1.44,0,0,0-.38,1.4s.14.46.17.52,0,0,0,0c0,.2,0,.2,0,.44s0,.61,0,.92,0,.76.05,1.09a9.51,9.51,0,0,0,.23,1.18c0,.15,0,0,0,0s-.27-.38-.29-.4a1.52,1.52,0,0,0-1.36-.56c-.41.14-.36.46-.24.75s.57.38.81.45,1-.19,1-.15a6.58,6.58,0,0,1,.51,1.13c.15.26.23.5.32.66l-.12-.16a1.51,1.51,0,0,0-1.34-.54c-.4.14-.37.46-.24.74a1.06,1.06,0,0,0,.82.45,2.06,2.06,0,0,0,.78-.09c-.19.4-.28.81-.44,1.23a1.72,1.72,0,0,0-.11.38,3.25,3.25,0,0,1-.3.78c-.07.1,0,.15-.09.13a5.75,5.75,0,0,0-1.28-.16c-.35-.05-.51-.36-.81-.46s-.57-.42-.88-.05-.11,1.23-.06,1.7c0,0,.06.12-.07.06s-.82-.25-1-.34c0,0,0-.17.08-.27s.21-.13.27-.39,0-.8-.43-.91a1.78,1.78,0,0,0-1.34.53.51.51,0,0,1-.32.06s.06-.2.08-.3a2.72,2.72,0,0,1,.1-.38c.05-.13,0-.25.1-.42s0-.81.21-.91,1,.32,1.31.23.89-.17,1.07-.55.22-.78-.29-1a1.89,1.89,0,0,0-1.77.64s-.33.48-.35.43,0-.38,0-.56c.06-.52,0-1.22.13-1.75,0-.16-.13-.47.08-.5s1,.32,1.37.25.89-.17,1.07-.55.22-.79-.3-1a1.92,1.92,0,0,0-1.79.65s-.35.45-.41.55a10.33,10.33,0,0,1,.11-1.19,3.35,3.35,0,0,1,.36-1.51,6.19,6.19,0,0,0,1.37.27c.31-.08.92-.16,1.08-.54s.23-.78-.29-1a2,2,0,0,0-1.81.64s-.34.43-.37.48,0,0,0,0a8.52,8.52,0,0,1,.57-1.43c.22-.31.13-.63.46-.72s.94.44,1.32.39.92-.07,1.14-.43.31-.75-.18-1a2,2,0,0,0-1.85.44l-.35.34s.13-.22.18-.29a10.77,10.77,0,0,1,.68-1c.22-.21.1-.34.4-.45s1,0,1.36-.25.78-.48.82-.9-.08-.82-.63-.83-1.2.64-1.44,1.25c0,.06-.19.61-.2.69s0,0,0,0c-.15.21-.17.2-.36.45s-.48.62-.71,1-.51.8-.73,1.23a10.81,10.81,0,0,0-.62,1.47h0c0-.11,0-.61,0-.65a2,2,0,0,0-1.11-1.56c-.55-.13-.73.24-.81.64s.36.81.57,1.06,1.26.5,1.27.57a8.44,8.44,0,0,1-.24,1.58c0,.39-.1.71-.1.94s0-.24,0-.26c-.09-.58-.58-1.42-1.12-1.53s-.73.24-.79.65.32.79.59,1.07,1.05.43,1.24.55,0,.25,0,.37c0,.58-.1,1.2-.13,1.76,0,.19-.07.47-.08.57s0-.21,0-.23c-.1-.59-.58-1.41-1.12-1.53s-.74.23-.79.65.31.79.58,1.07,1,.39,1.21.55-.09.43-.07.59-.06.27-.09.4a2.22,2.22,0,0,1-.11.39,2.41,2.41,0,0,1-.14.43s-.19.11-.21,0a3.54,3.54,0,0,0-.39-1.19s0-.11,0-.16c-.18-.35-.37-.74-.9-.53a1.89,1.89,0,0,0-.87,1.67s.05.54.05.53a1.42,1.42,0,0,1-.09-.36c0-.15-.24-.47-.2-.71.09-.63.18-1.39.27-2,0-.13.15,0,.33-.22s.58-.61.56-1a.77.77,0,0,0-.75-.69c-.31,0-.42.22-.53.27s0,0-.06,0c-.51-.53-1.24-.32-1.79-.22-.13,0-.34-.31-.2-.4a6.66,6.66,0,0,0,1.27-.55c.26-.26.65-.65.58-1.06s-.26-.78-.8-.66a2,2,0,0,0-1.12,1.56c0,.05,0,.57,0,.68-.19-.36-.4-.63-.58-1.05a3.61,3.61,0,0,1-.55-1.45s1.07-.31,1.28-.55.66-.65.58-1.06-.26-.78-.81-.65a1.92,1.92,0,0,0-1.12,1.54c0,.05,0,.55,0,.61s0,0,0,0a6.7,6.7,0,0,1-.35-1.51c0-.38-.26-.59,0-.86s1-.16,1.31-.42.71-.57.69-1-.18-.8-.73-.74-1.11.8-1.27,1.41c0,0-.08.48-.09.48s0-.25,0-.34a9.4,9.4,0,0,1,0-1.19c.06-.29-.11-.34.07-.59s.8-.61,1-1a1.38,1.38,0,0,0,.14-1.21c-.2-.36-.52-.63-1-.32a1.92,1.92,0,0,0-.46,1.85c0,.05.2.6.23.67s0,0,0,0c0,.26,0,.26,0,.58s0,.78,0,1.21a12.3,12.3,0,0,0,.1,1.43,9.42,9.42,0,0,0,.33,1.56s0,0,0,0-.36-.49-.39-.53a2,2,0,0,0-1.81-.66c-.52.2-.45.6-.29,1s.76.47,1.07.56,1.32-.29,1.37-.24c.34.35.48,1.1.69,1.45s.32.64.44.84-.15-.19-.16-.2a2,2,0,0,0-1.79-.65c-.51.21-.47.61-.29,1s.71.49,1.08.55a4.87,4.87,0,0,0,1.34-.24c.21,0,.18.19.16.24a4.35,4.35,0,0,1-.44.22c-1.16.6-2.32,1.25-3.51,1.86a1.61,1.61,0,0,1-2.61-.85c-1.17-2.53-1.31-5.34-2.67-7.83a6,6,0,0,0-4.08-3.2,6.14,6.14,0,0,0-5.14,1.6,13.11,13.11,0,0,0-3,4.58c-.42.88-.75,2.07-1.87,2.1-3,.09-4.41-3.41-7.39-3.64-1.22-.09-2.11.86-2.83,1.71a3.64,3.64,0,0,0-2.38,1.19c0,.05-.41.58-.5.71,0-.28,0-.59.06-.89.08-.86,0-1.78.11-2.63,0-.25-.21-.64.12-.76.15-.05,1.55.45,2.05.3s1.35-.3,1.58-.88.29-1.18-.5-1.45a2.91,2.91,0,0,0-2.65,1.08c-.05.06-.51.69-.59.84.05-.61,0-1.11.11-1.77a5.42,5.42,0,0,1,.47-2.26,8.71,8.71,0,0,0,2.05.31c.45-.14,1.35-.31,1.56-.88s.29-1.18-.5-1.45a2.91,2.91,0,0,0-2.63,1.08s-.47.66-.52.73-.06,0-.05,0a13,13,0,0,1,.76-2.23c.18-.41.35-.75.56-1.13a6.26,6.26,0,0,0,2,.55,2,2,0,0,0,1.67-.7c.33-.51.41-1.14-.33-1.49a2.93,2.93,0,0,0-2.72.79s-.43.46-.5.56c.07-.12.18-.35.26-.47a13.53,13.53,0,0,1,1-1.48c.31-.34.12-.51.56-.7s1.48-.12,2-.46,1.11-.76,1.14-1.38-.16-1.21-1-1.18-1.73,1-2,1.95c0,.08-.24.9-.25,1s0,0,0,0c-.21.31-.24.32-.51.69s-.67,1-1,1.48-.74,1.31-1,1.86a18.87,18.87,0,0,0-.8,2.14c-.09.34,0,.11,0,.1s-.08-.87-.09-.94c-.18-1-.91-2.09-1.73-2.24s-1.06.4-1.16,1,.58,1.17.9,1.54,1.9.63,1.93.75c.15.82-.29,1.59-.3,2.41,0,.47-.12.95-.12,1.41,0-.06,0-.39,0-.42a2.89,2.89,0,0,0-1.73-2.22c-.81-.14-1.1.39-1.16,1s.47,1.15.92,1.55a10.75,10.75,0,0,0,1.9.76c.24.12,0,.36,0,.54,0,.85-.08,1.75-.12,2.61,0,.31-.06.61-.08.9,0-.06,0-.34,0-.37a3,3,0,0,0-1.76-2.23c-.8-.14-1.12.4-1.15,1a2,2,0,0,0,.94,1.54,6.05,6.05,0,0,0,1.92.75c0,.27-.09.64-.13.88s-.07.39-.13.6-.08.37-.15.6-.22.82-.29,1a.27.27,0,0,1-.2.17s0-.25,0-.28a4.44,4.44,0,0,0-.69-1.91c0-.07,0-.17,0-.23-.29-.52-.59-1.08-1.38-.74a2.8,2.8,0,0,0-1.2,2.54c0,.06.08.68.12.82-.07-.21-.1-.3-.18-.56s-.28-.81-.38-1.07-.13-.35-.23-.59-.13-.29-.27-.6-.47-.92-.67-1.28a6.49,6.49,0,0,0,1.91-.86,1.92,1.92,0,0,0,.83-1.6c-.07-.61-.43-1.13-1.21-.94a2.9,2.9,0,0,0-1.62,2.34,8.13,8.13,0,0,0,0,.87c-.15-.24-.31-.51-.46-.77-.43-.74-1-1.48-1.35-2.24-.12-.23-.53-.42-.33-.7.1-.12,1.54-.48,1.88-.87s.95-1,.82-1.59-.42-1.15-1.22-.94a2.86,2.86,0,0,0-1.61,2.35c0,.07,0,.85,0,1-.3-.53-.62-.92-.9-1.53s-.88-1.38-.85-2.14c0-.05,1.58-.5,1.88-.87s.95-1,.81-1.59-.41-1.14-1.22-.94a2.88,2.88,0,0,0-1.59,2.35c0,.06,0,.81,0,.89s0,.06-.05,0a14.58,14.58,0,0,1-.6-2.27,11,11,0,0,1-.17-1.25,6.36,6.36,0,0,0,2-.66,2,2,0,0,0,1-1.5c0-.62-.29-1.18-1.1-1.07s-1.61,1.23-1.82,2.16c0,.05-.1.62-.1.74,0-.14-.05-.39-.05-.53a15.25,15.25,0,0,1,0-1.77c.08-.45-.17-.49.08-.88s1.16-.93,1.4-1.49a2.11,2.11,0,0,0,.18-1.79c-.32-.53-.81-.92-1.47-.44a2.85,2.85,0,0,0-.61,2.76c0,.08.3.88.36,1s0,0,0,0c0,.38,0,.4,0,.86s0,1.18,0,1.78.12,1.49.2,2.1a18.52,18.52,0,0,0,.53,2.23l0,.09c-.07-.07-.56-.68-.6-.73a2.84,2.84,0,0,0-2.68-.91c-.77.32-.65.91-.4,1.47s1.12.66,1.6.79,1.93-.52,2-.43c.58.6.63,1.48,1.08,2.16.25.39.43.86.69,1.24l-.28-.33a2.92,2.92,0,0,0-2.66-.89c-.75.32-.7.93-.4,1.48s1,.69,1.61.77a9.88,9.88,0,0,0,2-.41c.26,0,.21.3.31.44.5.69.87,1.51,1.33,2.24.17.26.3.54.44.79l-.24-.28a3,3,0,0,0-2.73-.89c-.76.31-.73.92-.4,1.47a2.06,2.06,0,0,0,1.68.77,6.36,6.36,0,0,0,2-.43c.13.25.29.58.39.82s.16.35.25.57l.22.58c.09.26.26.78.35,1.07l.21.73c-.07-.14-.41-.72-.46-.78a3.06,3.06,0,0,0-2.64-1.32c-.36.05-.44.31-.62.54a7.4,7.4,0,0,0-1-.64,6.24,6.24,0,0,0-4.43-.55,4.72,4.72,0,0,0-3,2.6c-.85,1.91-.59,3.76-1.3,5.66a1.64,1.64,0,0,1-.94,1,2,2,0,0,1-1.11-.11,3.35,3.35,0,0,1-.74-.22c-.12-.1.08,0,.09-.19s.13-.59-.29-.7-.93.22-1.23.46c-.09.06-.33,0-.33-.1a7.26,7.26,0,0,1,0-1.14c0-.21-.13-.35,0-.41s.79.2,1.07.11.68-.18.81-.47.13-.6-.28-.73a1.57,1.57,0,0,0-1.35.58s-.28.47-.29.41a5.14,5.14,0,0,1,0-.87,2.72,2.72,0,0,1,.2-1.15,4.63,4.63,0,0,0,1.09.12c.23-.08.7-.17.8-.47s.13-.6-.29-.73a1.54,1.54,0,0,0-1.36.59l-.26.38s0,0,0,0a5.56,5.56,0,0,1,.35-1.11c.15-.24.08-.51.31-.57s.75.27,1.06.21.7-.1.86-.39.2-.58-.2-.75a1.57,1.57,0,0,0-1.42.44s-.25.3-.24.27A1.2,1.2,0,0,1,306,309a5.62,5.62,0,0,1,.46-.75c.14-.15.06-.27.28-.36a5.74,5.74,0,0,0,1.05-.26c.26-.18.57-.4.58-.72s-.11-.62-.53-.59a1.51,1.51,0,0,0-1.06,1s-.11.45-.11.52,0,0,0,0-.12.16-.25.36-.34.5-.5.77a10.76,10.76,0,0,0-.49,1,7.33,7.33,0,0,0-.38,1.11v0s-.06-.45-.07-.48a1.49,1.49,0,0,0-1-1.11c-.43-.07-.55.21-.59.53s.33.59.51.77,1,.3,1,.35a5.69,5.69,0,0,1-.11,1.2c0,.3,0,.54,0,.72s0-.18,0-.2c-.11-.44-.54-1-1-1.09s-.57.21-.59.54.29.57.52.77.84.24,1,.35,0,.1,0,.31a5.61,5.61,0,0,1,0,1.08c0,.05-.2,0-.3-.1s-.44-.52-.72-.54-.47.23-.54.34-.12.07-.15,0,0-.08,0-.28-.39-.5-.62-.44a.92.92,0,0,0-.4.24c-.07.06,0,0-.05,0-.43-.37-1-.17-1.41-.06-.09,0-.28-.22-.18-.29a4.41,4.41,0,0,0,1-.49c.19-.21.47-.52.4-.83s-.25-.57-.66-.45a1.54,1.54,0,0,0-.8,1.22s.05.55,0,.5a5.37,5.37,0,0,1-.49-.73c-.15-.27-.5-.69-.5-1.05,0,0,.82-.3,1-.49s.48-.53.4-.83-.25-.57-.66-.45a1.49,1.49,0,0,0-.8,1.23s0,.42,0,.46,0,0,0,0a5.67,5.67,0,0,1-.35-1.11c0-.27-.23-.46-.08-.63s.78-.19,1-.41.52-.46.49-.79-.18-.59-.6-.52a1.55,1.55,0,0,0-.93,1.14,2.6,2.6,0,0,1,0,.36,2.37,2.37,0,0,1,0-.27,6.05,6.05,0,0,1,0-.87c0-.2-.1-.26,0-.46s.6-.5.71-.79a1,1,0,0,0,0-.9c-.18-.26-.44-.45-.77-.19a1.39,1.39,0,0,0-.25,1.4,5.21,5.21,0,0,0,.2.5c0,.05,0,0,0,0,0,.19,0,.2,0,.44s0,.6,0,.9a10.12,10.12,0,0,0,.14,1.07,7.57,7.57,0,0,0,.33,1.12c.06.14,0,0,0,0s-.3-.34-.33-.36a1.57,1.57,0,0,0-1.44-.4c-.4.18-.33.48-.18.76s.62.31.87.36,1-.3,1.05-.26c.28.24.43.8.61,1.05s.28.46.39.6-.13-.13-.14-.14a1.62,1.62,0,0,0-1.43-.38c-.38.18-.33.49-.16.76s.57.33.86.35a4.71,4.71,0,0,0,1-.25c.16,0,.15.12.14.16s-.23.13-.34.19l-2.16,1.34c-.93-.19-1.86-.44-2.76-.71-.87-1.73-1.08-3.62-2.21-5.26a4.76,4.76,0,0,0-3.37-2.15,4.91,4.91,0,0,0-3.87,1.48,6.59,6.59,0,0,0-.84,1.07c.07-.19.06-.38.14-.58s.21-.14.26-.45-.05-.85-.57-.9a2,2,0,0,0-1.39.72.45.45,0,0,1-.34.1s0-.21.05-.31,0-.27.06-.43,0-.22,0-.46,0-.73.05-1a4.8,4.8,0,0,0,1.5.11,1.41,1.41,0,0,0,1.1-.7c.17-.42.14-.86-.43-1a2.15,2.15,0,0,0-1.84.9s-.3.55-.32.5a5.22,5.22,0,0,1,0-.6c0-.56-.1-1.29-.06-1.85,0-.18-.2-.49,0-.55s1.11.22,1.5.1.93-.27,1.07-.69.12-.85-.44-1a2.06,2.06,0,0,0-1.82.88c0,.05-.32.52-.38.63,0-.43-.06-.79,0-1.26a3.54,3.54,0,0,1,.18-1.61,6.48,6.48,0,0,0,1.49.12c.32-.12,1-.28,1.08-.7s.15-.85-.43-1a2.1,2.1,0,0,0-1.84.89l-.34.55c0,.05,0,0,0,0a8.21,8.21,0,0,1,.44-1.59c.2-.35.06-.67.4-.81s1.05.36,1.44.26.95-.16,1.14-.57.22-.82-.32-1a2.06,2.06,0,0,0-1.89.65l-.31.41a2,2,0,0,1,.15-.33,8.43,8.43,0,0,1,.59-1.08c.2-.25.06-.37.36-.52s1.05-.15,1.4-.4.75-.59.75-1-.18-.85-.76-.8-1.18.81-1.36,1.47c0,.06-.13.66-.13.74s0,0,0,0c-.13.23-.15.22-.32.51s-.41.69-.62,1.09a14.91,14.91,0,0,0-.63,1.38,11.86,11.86,0,0,0-.48,1.63h0c0-.11-.1-.64-.11-.69-.18-.68-.77-1.44-1.37-1.51s-.74.34-.78.78.48.81.73,1.05,1.4.37,1.42.44a8.44,8.44,0,0,1-.05,1.68c0,.46,0,.65,0,1.05,0-.06-.06-.29-.06-.31-.18-.64-.8-1.42-1.38-1.48s-.76.33-.78.78.43.79.76,1,1.18.33,1.4.44,0,.26.06.39c.07.6,0,1.27.05,1.85,0,.21,0,.51,0,.62s-.05-.22-.05-.24c-.18-.61-.8-1.42-1.38-1.47s-.77.33-.78.78.42.79.76,1.05,1.11.28,1.36.44,0,.47,0,.62,0,.29-.05.43,0,.3-.07.42a2.74,2.74,0,0,1-.11.47c0,.05-.19.15-.21.07a3.7,3.7,0,0,0-.58-1.2s0-.12,0-.16c-.24-.36-.48-.73-1-.45a2,2,0,0,0-.74,1.87l.11.54a2.16,2.16,0,0,1-.14-.36c0-.16-.3-.46-.29-.73,0-.67,0-1.48.06-2.17,0-.15.16-.05.32-.27s.57-.72.49-1.16a.84.84,0,0,0-.89-.64c-.33,0-.42.29-.53.36s0,0-.07,0a1.9,1.9,0,0,0-2,0c.07-.16-.43-.27-.23-.43s1-.41,1.31-.73.62-.74.51-1.18-.38-.79-.94-.6a2,2,0,0,0-1,1.75,6.66,6.66,0,0,0,0,.73c-.25-.32-.51-.68-.74-1,0,0-.05,0,0-.06l.15-.09a1.66,1.66,0,0,0,.8-1.09c.06-.45-.26-.65-.52-.82-.06,0,.11-.09.15-.14.25-.32.6-.75.5-1.18s-.36-.8-.92-.62a2.09,2.09,0,0,0-1,1.77c0,.05,0,.58,0,.64s0,0,0,0a7.43,7.43,0,0,1-.54-1.56c0-.41-.32-.61-.12-.91s1.08-.28,1.35-.59.7-.66.63-1.11-.28-.81-.86-.7-1.09.94-1.19,1.61c0,0,0,.5,0,.51a2.9,2.9,0,0,1-.06-.36,9.11,9.11,0,0,1-.12-1.24c0-.32-.16-.34,0-.63s.79-.71.93-1.12a1.46,1.46,0,0,0,0-1.27c-.25-.37-.61-.63-1.06-.26a2,2,0,0,0-.3,2,6.57,6.57,0,0,0,.3.69c.05.06,0,0,0,0,0,.27,0,.27,0,.61s0,.82.1,1.26.13,1,.24,1.52a9.88,9.88,0,0,0,.53,1.62s0,0,0,0-.45-.47-.48-.51a2.16,2.16,0,0,0-2-.51c-.54.27-.45.71-.22,1.08s.83.44,1.23.46a5.26,5.26,0,0,0,1.44-.42c.21-.07.11.06.1.08a6.49,6.49,0,0,0-.4.79c-.08.23,0,.48-.13.63s-.12,0-.38.15a1,1,0,0,0-.23,1c.05.27-.29.47-.41.8s-.52,1.09-.64,1.42-.21.74-.3.9-.23.21-.3.18.06.17-.05-.15-.83-1.5-1.44-1.47-.7.34-.83.79c0,0,0-.05,0-.07-1.54-2.54-1.94-5.49-3.68-8a6.18,6.18,0,0,0-10-.79,13.7,13.7,0,0,0-2.75,5.14c-.36,1-.61,2.25-1.8,2.42-3.15.44-5.07-3.08-8.25-3-1.31,0-2.13,1.13-2.82,2.1a3.83,3.83,0,0,0-2.37,1.49c-.05.06-.38.65-.46.8,0-.3,0-.62,0-.94,0-.9-.18-1.86-.16-2.76,0-.27-.28-.65.05-.81.15-.07,1.68.3,2.19.1s1.39-.46,1.57-1.09.19-1.27-.67-1.47A3.06,3.06,0,0,0,238,301.5c-.05.07-.46.77-.53.94a18.76,18.76,0,0,1-.08-1.88,5.81,5.81,0,0,1,.24-2.41,9.32,9.32,0,0,0,2.2.11c.46-.2,1.38-.44,1.55-1.06s.16-1.25-.69-1.46a3,3,0,0,0-2.65,1.36l-.47.82c0,.07-.06,0-.06,0a15.58,15.58,0,0,1,.56-2.41c.14-.44.29-.81.46-1.23a6.5,6.5,0,0,0,2.2.39,2,2,0,0,0,1.67-.86,1,1,0,0,0-.51-1.52,3,3,0,0,0-2.77,1.05s-.4.52-.46.62c.06-.12.14-.37.21-.5a15.4,15.4,0,0,1,.84-1.63c.29-.38.08-.55.52-.78s1.54-.26,2-.65,1.09-.9,1.06-1.55-.3-1.26-1.16-1.16-1.7,1.23-1.94,2.22c0,.09-.16,1-.15,1.09s0,0,0,0c-.19.34-.22.35-.46.76s-.6,1.08-.87,1.64-.62,1.42-.84,2a18.89,18.89,0,0,0-.61,2.32c0,.36,0,.12,0,.11s-.18-.91-.2-1a3.15,3.15,0,0,0-2.07-2.19c-.86-.09-1.13.52-1.1,1.17a2.05,2.05,0,0,0,1.15,1.54,7,7,0,0,0,2.2.6c-.09.85-.16,1.7-.17,2.56,0,.49,0,1,0,1.5a4.25,4.25,0,0,0-.09-.44c-.27-.94-1.2-2.09-2.07-2.16s-1.12.53-1.11,1.19.62,1.16,1.15,1.53a10.93,10.93,0,0,0,2.08.61c.27.11,0,.38.08.56.12.9.08,1.85.14,2.75,0,.32,0,.64,0,.95,0-.06-.08-.35-.08-.38-.27-.93-1.22-2.07-2.08-2.14s-1.13.53-1.11,1.18a2.08,2.08,0,0,0,1.16,1.53,6.6,6.6,0,0,0,2.09.57c0,.29,0,.69,0,1s0,.42-.07.65,0,.4-.1.65-.15.9-.2,1.07-.17.18-.2.21,0-.27,0-.3a4.63,4.63,0,0,0-.92-1.95c0-.07,0-.18-.06-.24-.36-.51-.73-1.07-1.53-.63a3,3,0,0,0-1,2.83c0,.06.15.71.2.85-.1-.21-.13-.3-.25-.57s-.36-.83-.5-1.1-.18-.34-.31-.59a6.32,6.32,0,0,0-.35-.6c-.18-.31-.59-.92-.82-1.28a7.1,7.1,0,0,0,1.93-1.13,2.08,2.08,0,0,0,.72-1.77c-.15-.64-.57-1.16-1.39-.87a3.1,3.1,0,0,0-1.44,2.64,8.36,8.36,0,0,0,.05.94l-.54-.79c-.49-.78-1.17-1.49-1.66-2.25-.15-.23-.6-.39-.41-.71.08-.14,1.56-.65,1.87-1.09s.89-1.14.69-1.76-.55-1.17-1.37-.88a3,3,0,0,0-1.44,2.63c0,.08,0,.9.08,1.08a15.57,15.57,0,0,1-1.1-1.54c-.35-.63-1.08-1.39-1.14-2.18,0-.06,1.61-.67,1.88-1.09s.89-1.13.68-1.74-.56-1.16-1.39-.87-1.39,1.59-1.41,2.6c0,.06.06.86.07.94s0,.06-.05,0a16.06,16.06,0,0,1-.88-2.34c-.13-.46-.22-.85-.31-1.3a6.41,6.41,0,0,0,2-.87,1.94,1.94,0,0,0,.89-1.65c-.08-.65-.44-1.21-1.27-1a2.93,2.93,0,0,0-1.68,2.41s0,.66,0,.78a4.46,4.46,0,0,1-.11-.55,14.43,14.43,0,0,1-.23-1.84c0-.48-.24-.5,0-.94s1.12-1.07,1.31-1.67a2.19,2.19,0,0,0,0-1.89c-.38-.53-.93-.9-1.59-.34s-.71,2-.35,2.94c0,.08.41.9.48,1s0,0,0,0c0,.4,0,.42.06.9s.11,1.24.2,1.86.29,1.56.44,2.19a20.79,20.79,0,0,0,.79,2.3c.16.33,0,.1,0,.1s-.65-.68-.71-.73a3.12,3.12,0,0,0-2.92-.73c-.77.4-.63,1.06-.26,1.59a2.09,2.09,0,0,0,1.8.67,6.39,6.39,0,0,0,2.16-.68c.39.78.81,1.53,1.27,2.27.27.42.57.85.85,1.26,0-.06-.29-.3-.32-.33-.73-.64-2.14-1.13-2.9-.71s-.63,1-.27,1.59a2.25,2.25,0,0,0,1.79.69,9.87,9.87,0,0,0,2.07-.62c.28,0,.25.29.38.44.6.68,1.1,1.5,1.64,2.25.19.27.35.55.52.82l-.28-.29a3.08,3.08,0,0,0-2.92-.7,1,1,0,0,0-.29,1.63,2.09,2.09,0,0,0,1.8.67,6.46,6.46,0,0,0,2.09-.67c.16.25.36.59.5.82s.21.36.32.58l.29.59c.13.27.36.79.48,1.09s.21.49.3.75c-.09-.14-.51-.72-.56-.77a3.27,3.27,0,0,0-2.94-1.1c-.37.09-.44.37-.6.64a7.3,7.3,0,0,0-1.07-.58,6.19,6.19,0,0,0-4.63-.17,5.4,5.4,0,0,0-3,3.1c-.84,2.15-.48,4.22-1.21,6.36a2,2,0,0,1-1,1.19,2.64,2.64,0,0,1-1.3.08c-1.22-.13-2.34-.31-3.55-.48a4.51,4.51,0,0,0-1.42,0c.37-.19.91-.35,1.07-.77s.11-.86-.55-.94A3.1,3.1,0,0,0,210,320l-.44.61c0,.06,0,0,0,0A8.08,8.08,0,0,1,210,319c.25-.38.08-.7.49-.87s1.29.24,1.76.1,1.16-.28,1.41-.72.29-.86-.37-1a3.08,3.08,0,0,0-2.34.9l-.39.44s.13-.26.19-.35a13,13,0,0,1,.74-1.17c.25-.27.1-.39.46-.57a11.91,11.91,0,0,0,1.71-.58c.4-.29.9-.6.89-1.1s-.29-.82-.92-.72a2.51,2.51,0,0,0-1.64,1.62c0,.06-.16.67-.16.76s0,0,0,0c-.17.26-.19.25-.4.56s-.53.76-.78,1.19a15.21,15.21,0,0,0-.78,1.46,11.22,11.22,0,0,0-.62,1.74s0,0,0,0-.1-.63-.12-.69a2,2,0,0,0-1.64-1.38.93.93,0,0,0-1,.92c-.06.51.56.78.88,1s1.73.16,1.75.25c.17.49-.17,1.28-.15,1.75s-.05.67,0,1.08a1.76,1.76,0,0,0-.06-.3,2,2,0,0,0-1.67-1.34,1,1,0,0,0-1,1c0,.52.52.75.93,1a9,9,0,0,0,1.74.22c.28.08,0,.26.06.4s0,.34,0,.5a18.78,18.78,0,0,0-2.16.28c-.33.11.11.21,0,.27-.35.24-.66.4-.63.88s.5.75.92,1c.12.06.35,0,.48.13.35.28.8.6,1.16.87.08.06-.05.22-.05.34a2.43,2.43,0,0,1-.11.45c0,.17-.17.64-.22.77a.34.34,0,0,1-.18.16s0-.19,0-.21a2.49,2.49,0,0,0-.7-1.28s0-.11,0-.16a.88.88,0,0,0-1.28-.31,2.36,2.36,0,0,0-1,2.07s.13.54.12.55-.1-.22-.17-.35l-.37-.73-.22-.39-.25-.4c-.14-.2-.45-.61-.62-.84a6.81,6.81,0,0,0,1.63-.92c.39-.36.79-.79.67-1.29s-.55-.7-1.14-.47a2.48,2.48,0,0,0-1.29,1.91c0,.05.06.63,0,.61s-.27-.32-.41-.47c-.38-.43-1-.93-1.33-1.38-.11-.14-.53-.25-.35-.43s1.31-.57,1.61-.92.79-.79.64-1.28-.52-.72-1.12-.49a2.42,2.42,0,0,0-1.28,1.92,5,5,0,0,0,0,.75,8.43,8.43,0,0,1-.85-1c-.27-.41-.83-.9-.87-1.44a10.29,10.29,0,0,0,1.59-.87c.23-.3.79-.79.62-1.26a.77.77,0,0,0-1.13-.49,2.35,2.35,0,0,0-1.24,1.88c0,.05,0,.58,0,.64s0,0,0,0a6.27,6.27,0,0,1-.64-1.51c0-.39-.38-.59-.15-.88s1.29-.39,1.61-.73.84-.68.75-1.18-.42-.76-1-.6a2.42,2.42,0,0,0-1.44,1.73s0,.5,0,.51-.06-.25-.07-.34a7.87,7.87,0,0,1-.16-1.22c0-.32-.18-.34,0-.64s.94-.78,1.11-1.2.36-.91,0-1.29a.86.86,0,0,0-1.28-.15,1.87,1.87,0,0,0-.36,2c0,.06.32.59.38.66s0,0,0,0c0,.27,0,.28,0,.61s.06.81.14,1.25a13.91,13.91,0,0,0,.31,1.47,9,9,0,0,0,.62,1.57s0,0,0,0-.52-.43-.57-.46a2.87,2.87,0,0,0-2.4-.31c-.59.29-.54.7-.26,1.11s1,.33,1.45.36a13.42,13.42,0,0,0,1.73-.57c.5.31.7,1.06,1,1.41s.39.54.68.84l-.26-.21a2.73,2.73,0,0,0-2.36-.31.67.67,0,0,0-.28,1.13c.31.4,1,.36,1.45.36a9.41,9.41,0,0,0,1.7-.56c.3-.05.23.18.33.26.49.42.9,1,1.33,1.4.15.15.32.41.39.49s-.19-.14-.21-.15a2.9,2.9,0,0,0-2.42-.23c-.59.3-.61.72-.28,1.13s1,.34,1.49.32a17.11,17.11,0,0,0,1.71-.57c.28,0,.27.4.41.5s.14.24.23.37.12.23.21.39.27.58.34.73.21.45.2.47-.37-.43-.42-.47a2.75,2.75,0,0,0-2.35-.58c-.28.06-.34.43-.52.45s-.53-.21-.86-.29a6.55,6.55,0,0,0-3.8.22,4.85,4.85,0,0,0-2.5,2.31c-.71,1.51-.44,2.83-1,4.31a1.44,1.44,0,0,1-.76.79,2.37,2.37,0,0,1-1,0c-.79-.09-1.9-.28-2.57-.35s-1.4-.17-1.7.35c-.52.89,1,1.63.59,2.48,0,0,0,0-.07,0a20.18,20.18,0,0,0-3.7.24,3.89,3.89,0,0,0,.76,1.09l-.34.17a6.81,6.81,0,0,0,2.54,1.4l-3.22,1.8c15.3-3,30.33-7.14,45.64-10l-.76.47c7.5-1.38,14.77-2.67,22.31-3.94s14.55-2.46,22.38-3.66S290,325.36,298,324.47s9.6-1,19.7-1.85,36.8-2.56,46.76-2.92,12.67-.31,19.8-.25,16.88.4,21.75.67-2.52-.37,2.07.23,13.72,2.06,20,2.9,8,1.15,16.51,2.35,31.1,4.39,39.84,5.57,10.11,1.35,17.2,2.28,14.27,1.88,21.48,2.82A34.09,34.09,0,0,1,519.6,334.14ZM205,332.47a1.79,1.79,0,0,1-1.56-.65c-.07-.07-.21-.17-.16-.17.39,0,1.38-.42,1.67-.4s.26.6.36.72a.46.46,0,0,1,.13.36C205.39,332.41,205.13,332.45,205,332.47Zm39.46-7.71a2.21,2.21,0,0,0-.35.34c-.09.11-.35.31-.4.37s-.07.07-.07,0c0-.33.05-.73,0-1.09l.89-.15c0,.11,0,.36,0,.44S244.55,324.71,244.45,324.76Zm-6.86-14.64c0-.16,0-.4.07-.63s0-.34.06-.69,0-1.09,0-1.51a9.34,9.34,0,0,0,2,.14,10.51,10.51,0,0,0,0,1.86,3.35,3.35,0,0,0-1.79,1.12,1.15,1.15,0,0,1-.53.27C237.45,310.67,237.58,310.29,237.59,310.12Zm-3,1.27a7.64,7.64,0,0,0,1.49.67,9.75,9.75,0,0,1-1.92,1.93,5.19,5.19,0,0,1-.19-.53c-.08-.32-.49-.87-.45-1.3C233.54,312.06,234.48,311.58,234.61,311.39Zm-1.69,1.16c.4.17.39.88.52,1.11a.83.83,0,0,1,.18.54c0,.12-.32.13-.51.13a2.6,2.6,0,0,1-2-1.14c-.08-.1-.18-.17-.21-.28C231.31,313,232.77,312.49,232.92,312.55Zm-23.68,9.95a3.87,3.87,0,0,1,.3-1.72,10.85,10.85,0,0,0,1.73-.07c-.16.16-.28.12-.45.41a1.79,1.79,0,0,0-.12,1.18,4.43,4.43,0,0,0-.94.75c-.23.27-.33.47-.53.75C209.25,323.33,209.18,323,209.24,322.5Zm0,1.92c.07-.16-.25-.47,0-.56a12.85,12.85,0,0,0,1.86-.13h0c.16.18.76.91.55,1.07s.22,0-.18,0a15.16,15.16,0,0,0-2.33.14C209.3,324.77,209.19,324.57,209.27,324.42Zm-.27,4.72a2.5,2.5,0,0,1,.09-.43c0-.07,0-.17,0-.15a2.81,2.81,0,0,1,.67.34c0,.07-.35.33-.43.39a1.86,1.86,0,0,1-.46.24S209,329.23,209,329.14Zm-3.22,2.63c-.06-.14-.4-.61-.32-.85a2.9,2.9,0,0,1,1-.6c.18,0,.9.32,1.18.29a7.11,7.11,0,0,1-1.69,1.48C205.82,332.14,205.84,331.9,205.78,331.77Zm53.58-8.16c0,.11-.08.3-.14.31s-.15-.15-.21-.24a9.67,9.67,0,0,1-.79-1.73l1.44-.24A8.56,8.56,0,0,1,259.36,323.61Zm14.23-18.35c.07-.13.29-.56.39-.73,0,0,0,0,0,0s.29.18.26.23-.39.27-.48.39-.31.41-.35.44A2.89,2.89,0,0,1,273.59,305.26Zm-.76,2.19s-.13.14-.1,0a2.82,2.82,0,0,1,.24-.74c.12-.19.09-.72.4-.83s1.06.34,1.39.25C274.14,306.61,273.46,307,272.83,307.45Zm2.33-5.67Zm.62,1.48c.13,0,0,0,.09.11s.39.61.56.81a2.88,2.88,0,0,0-.25-.25,3.59,3.59,0,0,0-1-.5C275.32,303.43,275.65,303.25,275.78,303.26Zm.64,1.83c-.06,0-.13.11-.13.08s-.1-.34-.07-.39a1.24,1.24,0,0,1,.47-.2c.06,0,.2.19.17.24A4.68,4.68,0,0,1,276.42,305.09Zm3.1,5.2v-.06h0S279.52,310.28,279.52,310.29Zm.05-.67a.54.54,0,0,1,0-.24s0,.1.07.15.18.46.17.46A2.82,2.82,0,0,1,279.57,309.62Zm.86.19s.51-.34.56-.36.19.09.17.1ZM302.22,318v0h0Zm.06-.47a.47.47,0,0,1,0-.18s0,.07,0,.11a2.6,2.6,0,0,1,.11.34Zm.09-.69h0l.11.31A3.05,3.05,0,0,0,302.37,316.87Zm.21.54s0-.11,0-.09.11.25.12.28,0,.08,0,.06A2.3,2.3,0,0,1,302.58,317.41ZM323,311.17a2.43,2.43,0,0,1-1.74-1.27.84.84,0,0,1-.17-.28c.35.14,1.75-.21,1.88-.14.36.2.29.87.39,1.09s.17.42.12.52S323.19,311.18,323,311.17Zm1-.22c0-.24-.09-.21-.13-.51s-.38-.86-.31-1.26c0-.1.94-.45,1.07-.62a7.54,7.54,0,0,0,1.34.78A9,9,0,0,1,324,311Zm5.73-3.82A3.12,3.12,0,0,0,328,308a1,1,0,0,1-.52.2c-.07,0,.1-.36.12-.51a4.17,4.17,0,0,1,.13-.58c0-.22.06-.32.11-.64s.14-1,.17-1.42a8.9,8.9,0,0,0,1.91.34A10.16,10.16,0,0,0,329.77,307.13Zm36.57,4.62v0h0Zm.12-.61a.45.45,0,0,1,0-.23s0,.1,0,.15.12.45.11.45A3.08,3.08,0,0,1,366.46,311.14Zm.76.27s.5-.27.54-.29.17.11.15.12Zm39.94-1.52a5.79,5.79,0,0,0,.71.77,4.33,4.33,0,0,1-1.43.85c-.11,0,0-.21,0-.37a3.39,3.39,0,0,1,0-1C406.42,310.13,407.06,310,407.16,309.89Zm-1.18.42c.19.2.06.68.08.86s.05.33,0,.4-.21,0-.32,0a1.62,1.62,0,0,1-.87-1.18c0-.08-.08-.24-.05-.22S405.92,310.25,406,310.31Zm-23.3-3.81s0,0,0,0,.12,0,.15,0,0-.1,0,.05a1.6,1.6,0,0,0,.29.83,8.72,8.72,0,0,0,.73.55c.11.13-.11.32-.1.43s-.08.21-.1.3a1.38,1.38,0,0,1-.11.27c0,.05,0,.06,0,.06s-.2.17-.24.07a4,4,0,0,0-.15-.74s0,0,0,0,0,.07.08-.1.17-.6-.23-.74a1.52,1.52,0,0,0-1.31.4s0,0,0-.08-.24-.58-.14-.68.69-.14.84-.28A1.87,1.87,0,0,0,382.68,306.5Zm-.84,2.5a4,4,0,0,1,0-.46c0-.05.15,0,.16,0a2.57,2.57,0,0,0-.06.28c0,.07,0,.39,0,.41A1.25,1.25,0,0,1,381.84,309Zm.06.44a2.1,2.1,0,0,1,.52-.21,1,1,0,0,1,.28.31.18.18,0,0,1-.15.15,6.18,6.18,0,0,0-.62.12C381.88,309.83,381.85,309.47,381.9,309.44Zm-.43-1.61c0,.07,0,.15,0,.19a1,1,0,0,1-.21.28,7.26,7.26,0,0,1,.08-.84c0-.11,0-.06,0,0A2.85,2.85,0,0,1,381.47,307.83Zm.1.65a3.19,3.19,0,0,1,.06.55c0,.1,0,.37,0,.36s-.1-.33-.13-.43-.21-.35-.25-.42a.19.19,0,0,1,0-.17S381.53,308.4,381.57,308.48Zm.08,1.06a.65.65,0,0,1,0,.42c0,.08-.26.17-.32.25s0,.09-.07.07-.15-.08-.15-.17a1.82,1.82,0,0,1,.06-.58A.69.69,0,0,1,381.65,309.54Zm-.68.28s-.08-.19-.09-.23a.37.37,0,0,1-.05-.15s.16,0,.17.05A1.16,1.16,0,0,1,381,309.82Zm3.92-1.73a3.38,3.38,0,0,1-.18.82s-.27,0-.34,0-.22-.06-.3-.06-.25.05-.28,0,0-.11.06-.19a2.34,2.34,0,0,1,.11-.3c.05-.12.1-.62.21-.67A2,2,0,0,1,384.89,308.09Zm-2.24-4c.08-.11.38-.58.51-.71s.12-.29.29-.33a7.66,7.66,0,0,1,.91-.1,1.66,1.66,0,0,1,.63.39c0,.33-.26.87-.31,1.16s-.14.55-.16.7,0-.13,0-.22a5.74,5.74,0,0,1-.1-.6.72.72,0,0,0-.2-.59.62.62,0,0,0-.27-.09c-.08,0,0,0,0,0s0,0,0,0h-.11c-.07,0,0,0-.16,0a2.78,2.78,0,0,0-.86.35c-.13.11-.27.27-.29.27A1.58,1.58,0,0,1,382.65,304.05Zm-.58,1c.16-.22.15-.51.34-.55s.8.34,1,.33.07,0,.16,0,0,0,.11.16a8.5,8.5,0,0,0,.74.53c.11.09,0,.21,0,.28,0,.35-.21,1-.26,1.28s-.09.38-.11.45,0-.14,0-.16a2,2,0,0,0-.48-1.26s0,.08,0-.05.11-.62-.22-.73a1.09,1.09,0,0,0-.91.12h0c-.36.06-.57.39-.74.68,0,0,0,0,0,0s0,0,0,0A5.86,5.86,0,0,1,382.07,305.05Zm-.45,1.19,0,.06v-.06Zm-.44-.15a.46.46,0,0,1,.32.11,4.13,4.13,0,0,1-.11.53s-.06-.16-.07-.22A2.29,2.29,0,0,1,381.18,306.09Zm.06,1.32h0c0,.18-.07.57-.09.69s0-.15,0-.21-.13-.38-.13-.44S381.22,307.42,381.24,307.41ZM370.55,314c.09-.24.23-.62.34-.88a4.81,4.81,0,0,0,.81,1l-1.19.43A.79.79,0,0,1,370.55,314Zm40-4.43a1.8,1.8,0,0,0-1.23.37.68.68,0,0,1-.35.08s.11-.26.15-.37.1-.26.16-.4a3.87,3.87,0,0,1,.17-.45c.12-.19.13-.85.36-1s.81.52,1.07.46C410.74,308.74,410.61,309.13,410.53,309.58Zm22.34,8.36v0h0A.08.08,0,0,0,432.87,317.94Zm.15-.45a.56.56,0,0,1,.06-.17v.12c0,.05,0,.35,0,.35A1.6,1.6,0,0,1,433,317.49Zm.22-.65h0c0,.05,0,.32,0,.33Zm.07.84a2.11,2.11,0,0,1,0-.26.8.8,0,0,0,0-.11s0,.27,0,.3Zm17.79-2.31c-.68-.21-1-.93-1.17-1.55,0-.1-.11-.31-.07-.29.22.13,1.47.11,1.55.19.24.25.08.9.11,1.13a1.06,1.06,0,0,1,0,.54C451.45,315.48,451.25,315.41,451.1,315.37Zm.89,0c0-.25,0-.23,0-.53a5,5,0,0,1,0-1.29c0-.08.87-.28,1-.41a6,6,0,0,0,1,1A7.91,7.91,0,0,1,452,315.35Zm5.45-2.75a2.47,2.47,0,0,0-1.63.54,1,1,0,0,1-.47.11s.15-.34.2-.49.14-.34.22-.55.11-.3.21-.61.31-1,.41-1.35a6.74,6.74,0,0,0,1.5.67A11.84,11.84,0,0,0,457.44,312.6Zm29.75,11v-.05h0Zm.19-.6a.81.81,0,0,1,.07-.22,1.32,1.32,0,0,1,0,.16c0,.06,0,.46,0,.46A3,3,0,0,1,487.38,323Zm.6.38.51-.21s.14.13.09.14Zm9.11,3.72c-.19,0-.56-.6-.57-.75s-.08-.19,0-.18.69,0,.81.1,0,.47.05.57.06.22,0,.28S497.28,327.14,497.09,327.12Zm.51,0c-.07,0,0-.16,0-.25s-.1-.55,0-.63a.89.89,0,0,1,.53-.21c.1,0,.33.42.48.47A2.85,2.85,0,0,1,497.6,327.08Zm2.74-1.45a4,4,0,0,0-.78.31.28.28,0,0,1-.26.07s.08-.18.1-.25l.11-.28c0-.09.05-.18.11-.3s.12-.62.23-.67a1.93,1.93,0,0,1,.7.32C500.58,324.92,500.47,325.57,500.34,325.63Zm15.38,5.59v0h0Zm.1-.3s0-.11,0-.12,0,.06,0,.09a1.93,1.93,0,0,1,0,.23A1.43,1.43,0,0,1,515.82,330.92Zm.31.19.25-.11s.08.06.06.07Z" style="fill:#263238"></path><path d="M232,302.16c-5.76-2.37-11.7-3.37-19.48-.05-8.06,3.44-10.3,12.28-15.15,18.74-2.41,3.22-5.22,5.7-9.23,6.61-5.32,1.19-11.46-1.13-16,2.88-3.54,3.1-5.55,21.63-7.83,22.23,0,0,50.82-13.38,62.86-15.6s66-4.91,66-4.91-7.14-13.82-17.84-18.28c-8.56-3.56-18.2-1-26.9-4.07C242.19,307.54,237.14,304.3,232,302.16Z" style="fill:#407BFF"></path><line x1="227.09" y1="336.97" x2="219.96" y2="320.03" style="fill:none;stroke:#263238;stroke-miterlimit:10"></line><polyline points="229.32 318.24 224.86 329.83 203.91 324.04" style="fill:none;stroke:#263238;stroke-miterlimit:10"></polyline><polyline points="270.78 322.7 256.96 333.4 244.47 321.36" style="fill:none;stroke:#263238;stroke-miterlimit:10"></polyline><line x1="262.31" y1="328.94" x2="261.42" y2="320.92" style="fill:none;stroke:#263238;stroke-miterlimit:10"></line><line x1="208.81" y1="340.09" x2="178.5" y2="336.97" style="fill:none;stroke:#263238;stroke-miterlimit:10"></line><polyline points="191.42 333.4 193.65 338.3 178.5 343.21" style="fill:none;stroke:#263238;stroke-miterlimit:10"></polyline><polygon points="315.96 149.07 343.46 145.22 349.15 111.86 335.74 115.22 332.39 136.33 331.05 128.29 325.68 141.36 315.96 149.07" style="fill:#fff;opacity:0.36"></polygon><path d="M424.25,314.61s6-31.51,12-46.18S457,227.16,457,227.16l3.35.88s-9.55,11.45-19,39.32c-7.67,22.58-8.55,48.16-8.55,48.16S429.57,317.56,424.25,314.61Z" style="fill:#263238;stroke:#263238;stroke-miterlimit:10"></path><path d="M459.15,228.3s12.92-1,17.35.69,11,5.25,14.2,12.33,7.28,21.3,7.31,22.45-9-5.42-9-5.42l-.68-3.57-.94-4.93-2.15,5.83-5.8-4.81L479,237l-3.18,10.49-4.61-3.69-.67-7.84L468,242.05l-5.77-3.66L462,230.3l-3.07,6.33Z" style="fill:#407BFF"></path><path d="M459.15,228.3s-7.3-4.89-14.15-6.21-26,13.88-27.77,16l-1.79,2.13,6.58-.3,3.9-5.3-.54,5.56,8.29-.92,4.65-7.75-.3,6,4.48-.93L447,229.2l-.41,6.37,11.56-4.12Z" style="fill:#407BFF"></path><path d="M459.15,228.3s5-12.61,13.83-14.12,18.44,23.54,18.44,23.54L483,229.05l-1.1-1.86L480,223.93,476.5,229l-4.57-2.54-2.3-3.75-1.17,3.85Z" style="fill:#407BFF"></path><path d="M459.15,228.3s4.63-12.72-5.19-16.85-22.51,13.78-22.51,13.78L443,220l1.95-1.61,2.12-1.73-1,3.13,3.42,2.18,2.79-4.87L451,222.72l1.57,1.29,3.68-.84-.89,1.86Z" style="fill:#407BFF"></path><path d="M491.44,325.28s6.49-34.21,13-50.13,22.5-44.8,22.5-44.8l3.64,1S520.21,243.73,509.93,274c-8.33,24.51-9.29,52.28-9.29,52.28S497.21,328.48,491.44,325.28Z" style="fill:#263238;stroke:#263238;stroke-miterlimit:10"></path><path d="M529.32,231.59s14-1.14,18.84.74,11.94,5.7,15.41,13.39,7.9,23.12,7.93,24.37-9.81-5.88-9.81-5.88l-.74-3.88-1-5.36-2.34,6.34-6.29-5.22-.4-15-3.46,11.39-5-4-.73-8.51-2.83,6.6-6.26-4-.23-8.78-3.33,6.87Z" style="fill:#407BFF"></path><path d="M529.32,231.59s-7.93-5.31-15.37-6.74-28.2,15.06-30.14,17.37l-1.95,2.31,7.15-.32,4.23-5.76-.59,6,9-1,5-8.42-.32,6.53,4.86-1,4.93-8-.44,6.91L528.28,235Z" style="fill:#407BFF"></path><path d="M529.32,231.59s5.4-13.7,15-15.34,20,25.56,20,25.56l-9.16-9.42-1.19-2-2.09-3.54-3.74,5.49-5-2.75-2.5-4.07-1.26,4.17Z" style="fill:#407BFF"></path><path d="M529.32,231.59s5-13.82-5.64-18.3-24.44,15-24.44,15l12.52-5.74,2.12-1.74,2.3-1.89-1.09,3.4,3.71,2.37,3-5.29-1.34,6.16,1.7,1.4,4-.91-1,2Z" style="fill:#407BFF"></path><path d="M342.68,328.44s11-21.95,24.14-25.79,14.81,4.39,26.88,2.2,15.91-15.91,34.56-14.27,23,14.82,25.24,19.75,11,3.29,21.39,1.65,12.07,5.48,14.27,9.87,7.13,1.65,15.91.55,15.91,5.49,17,11l1.1,5.49L441.43,329l16.46,8.77s-32.92-1.09-45.54-1.09-39,1.64-39,1.64l13.17-7.68Z" style="fill:#407BFF"></path><line x1="378.34" y1="328.99" x2="370.66" y2="313.62" style="fill:none;stroke:#263238;stroke-miterlimit:10"></line><line x1="375.05" y1="322.4" x2="377.79" y2="315.82" style="fill:none;stroke:#263238;stroke-miterlimit:10"></line><line x1="420.58" y1="336.12" x2="415.1" y2="320.76" style="fill:none;stroke:#263238;stroke-miterlimit:10"></line><polyline points="421.13 320.76 418.94 329.53 406.87 327.34" style="fill:none;stroke:#263238;stroke-miterlimit:10"></polyline><polyline points="460.08 320.76 449.11 328.44 443.07 308.14" style="fill:none;stroke:#263238;stroke-miterlimit:10"></polyline><line x1="453.23" y1="325.33" x2="451.08" y2="318.86" style="fill:none;stroke:#263238;stroke-miterlimit:10"></line><line x1="500.46" y1="335.32" x2="508.01" y2="328.3" style="fill:none;stroke:#263238;stroke-miterlimit:10"></line><line x1="502.35" y1="332.89" x2="514.49" y2="331.54" style="fill:none;stroke:#263238;stroke-miterlimit:10"></line><line x1="472.39" y1="332.08" x2="477.79" y2="319.67" style="fill:none;stroke:#263238;stroke-miterlimit:10"></line><polyline points="482.92 322.36 475.09 326.41 469.15 320.2" style="fill:none;stroke:#263238;stroke-miterlimit:10"></polyline><line x1="445.68" y1="316.7" x2="431.65" y2="311.57" style="fill:none;stroke:#263238;stroke-miterlimit:10"></line><line x1="376.6" y1="325.06" x2="362.84" y2="321.01" style="fill:none;stroke:#263238;stroke-miterlimit:10"></line><path d="M253.92,341.83s-10.23-39.53-19.07-57.67-29.77-50.69-29.77-50.69l-4.18,1.39s13.09,13.75,27.44,48.37c11.62,28,14.88,60.46,14.88,60.46S247.41,346,253.92,341.83Z" style="fill:#263238;stroke:#263238;stroke-miterlimit:10"></path><path d="M202.4,235.1s-16.5-.25-22,2.32-13.54,7.59-17,16.85-7.47,27.66-7.41,29.13,11-7.64,11-7.64l.57-4.59.78-6.35,3.22,7.23,7-6.6-.68-17.63,4.92,13.06,5.54-5.08.2-10,3.82,7.5,7-5.12-.4-10.29,4.42,7.78Z" style="fill:#407BFF"></path><path d="M202.4,235.1s8.86-6.82,17.45-9.07,34.16,15.46,36.61,18l2.46,2.55-8.39.18-5.4-6.42,1.16,7-10.62-.47-6.54-9.46.88,7.62-5.77-.81-6.39-9,1.05,8-15-4.28Z" style="fill:#407BFF"></path><path d="M202.4,235.1s-7.38-15.61-18.76-16.79-21.45,31.44-21.45,31.44l10-11.72,1.24-2.45,2.18-4.31,4.8,6.15,5.6-3.6,2.6-5,1.81,4.79Z" style="fill:#407BFF"></path><path d="M202.4,235.1s-6.94-15.78,5.19-21.84,29.74,15.63,29.74,15.63l-15.09-5.75-2.62-1.88-2.82-2,1.53,3.9-4.16,3.06-3.95-6,2,7.1-1.89,1.77-4.75-.76,1.29,2.28Z" style="fill:#407BFF"></path><path d="M362.69,339.84s7-37.06,14.09-54.32S401.15,237,401.15,237l3.94,1s-11.23,13.46-22.36,46.24c-9,26.55-10.06,56.64-10.06,56.64S369,343.3,362.69,339.84Z" style="fill:#263238;stroke:#263238;stroke-miterlimit:10"></path><path d="M403.73,238.33s15.19-1.22,20.41.81,12.94,6.18,16.7,14.5,8.55,25.05,8.59,26.41-10.64-6.37-10.64-6.37l-.79-4.2-1.11-5.81-2.53,6.87-6.81-5.67-.44-16.29-3.75,12.33L418,256.57l-.8-9.22-3.06,7.15-6.78-4.3-.26-9.51-3.6,7.44Z" style="fill:#407BFF"></path><path d="M403.73,238.33s-8.58-5.75-16.64-7.3-30.55,16.32-32.66,18.82l-2.11,2.51,7.74-.35,4.59-6.24-.64,6.54,9.76-1.07,5.46-9.12-.35,7.08,5.27-1.1,5.34-8.7-.48,7.48,13.6-4.85Z" style="fill:#407BFF"></path><path d="M403.73,238.33s5.85-14.83,16.27-16.61,21.67,27.69,21.67,27.69l-9.92-10.2L430.46,237l-2.27-3.84-4.05,5.95-5.38-3-2.7-4.41-1.38,4.52Z" style="fill:#407BFF"></path><path d="M403.73,238.33s5.44-15-6.11-19.81-26.47,16.21-26.47,16.21l13.56-6.21,2.3-1.89,2.49-2-1.19,3.68,4,2.57,3.28-5.73-1.45,6.67,1.84,1.52,4.34-1-1.05,2.18Z" style="fill:#407BFF"></path><path d="M362.48,344.84s-6.21-32.68-12.42-47.89-21.5-42.8-21.5-42.8l-3.47.91s9.9,11.88,19.72,40.78c8,23.41,8.88,50,8.88,50S357,347.9,362.48,344.84Z" style="fill:#263238;stroke:#263238;stroke-miterlimit:10"></path><path d="M326.29,255.33s-13.39-1.08-18,.71-11.41,5.45-14.72,12.79S286,290.92,286,292.12s9.38-5.62,9.38-5.62l.7-3.71,1-5.11,2.24,6.05,6-5,.38-14.38L309,275.24l4.77-3.83.7-8.13,2.71,6.31,6-3.8.23-8.38,3.18,6.56Z" style="fill:#407BFF"></path><path d="M326.29,255.33s7.57-5.07,14.68-6.44,26.94,14.39,28.8,16.6l1.85,2.21-6.82-.31-4.05-5.5.57,5.77-8.61-1-4.81-8,.31,6.24-4.65-1-4.71-7.68.42,6.6-12-4.28Z" style="fill:#407BFF"></path><path d="M326.29,255.33s-5.16-13.08-14.35-14.65-19.11,24.42-19.11,24.42l8.75-9,1.14-1.92,2-3.39,3.57,5.25,4.75-2.62,2.38-3.9,1.21,4Z" style="fill:#407BFF"></path><path d="M326.29,255.33s-4.8-13.19,5.39-17.47S355,252.15,355,252.15l-11.95-5.48L341,245l-2.2-1.81,1.05,3.25-3.55,2.26-2.89-5.05,1.27,5.88-1.62,1.34-3.83-.87.93,1.93Z" style="fill:#407BFF"></path></g><g id="freepik--clouds-1--inject-218"><path d="M336.06,86.79s-1.14-10.9-13.76-13.19-13.19,4-18.35,7.45-8-1.14-13.76-2.86S281,81.63,277,86.79s-5.74-1.72-12.05-.58-8.6,5.17-10.32,6.89-6.31-2.87-10.32-1.15l-4,1.72H359s4-9.75-6.31-10.9S341.23,88.51,336.06,86.79Z" style="fill:#fff;stroke:#263238;stroke-miterlimit:10"></path><path d="M446.61,175.17s-.78-7.35-9.28-8.89-8.89,2.7-12.37,5-5.41-.77-9.27-1.93-6.19,2.32-8.89,5.8-3.87-1.16-8.12-.39-5.8,3.48-7,4.64-4.25-1.93-7-.77l-2.71,1.16h80s2.7-6.58-4.25-7.35S450.09,176.33,446.61,175.17Z" style="fill:#fff;stroke:#263238;stroke-miterlimit:10"></path></g><g id="freepik--Sea--inject-218"><path d="M56.08,363.4C72.39,446.32,183,481.06,259.13,465.69c89-18,85.74-20.41,179.64-2.45s205.76-14.7,243.33-84.92A142.31,142.31,0,0,0,689,363.4Z" style="fill:#407BFF"></path><line x1="43.77" y1="363.8" x2="713.92" y2="363.8" style="fill:none;stroke:#263238;stroke-miterlimit:10"></line><line x1="84.4" y1="379.96" x2="126.86" y2="379.96" style="fill:none;stroke:#263238;stroke-miterlimit:10"></line><line x1="186.46" y1="383.22" x2="144" y2="383.22" style="fill:none;stroke:#263238;stroke-miterlimit:10"></line><line x1="116.24" y1="390.57" x2="150.53" y2="390.57" style="fill:none;stroke:#263238;stroke-miterlimit:10"></line><line x1="197.89" y1="384.04" x2="213.41" y2="384.04" style="fill:none;stroke:#263238;stroke-miterlimit:10"></line><line x1="234.64" y1="379.96" x2="277.1" y2="379.96" style="fill:none;stroke:#263238;stroke-miterlimit:10"></line><line x1="336.7" y1="383.22" x2="294.24" y2="383.22" style="fill:none;stroke:#263238;stroke-miterlimit:10"></line><line x1="266.48" y1="390.57" x2="300.78" y2="390.57" style="fill:none;stroke:#263238;stroke-miterlimit:10"></line><line x1="348.13" y1="384.04" x2="363.65" y2="384.04" style="fill:none;stroke:#263238;stroke-miterlimit:10"></line><line x1="384.88" y1="379.96" x2="427.34" y2="379.96" style="fill:none;stroke:#263238;stroke-miterlimit:10"></line><line x1="486.94" y1="383.22" x2="444.49" y2="383.22" style="fill:none;stroke:#263238;stroke-miterlimit:10"></line><line x1="416.72" y1="390.57" x2="451.02" y2="390.57" style="fill:none;stroke:#263238;stroke-miterlimit:10"></line><line x1="498.38" y1="384.04" x2="513.89" y2="384.04" style="fill:none;stroke:#263238;stroke-miterlimit:10"></line><line x1="535.12" y1="379.96" x2="577.58" y2="379.96" style="fill:none;stroke:#263238;stroke-miterlimit:10"></line><line x1="637.19" y1="383.22" x2="594.73" y2="383.22" style="fill:none;stroke:#263238;stroke-miterlimit:10"></line><line x1="566.96" y1="390.57" x2="601.26" y2="390.57" style="fill:none;stroke:#263238;stroke-miterlimit:10"></line><line x1="648.62" y1="384.04" x2="664.13" y2="384.04" style="fill:none;stroke:#263238;stroke-miterlimit:10"></line><line x1="613.51" y1="417.24" x2="578.46" y2="417.24" style="fill:none;stroke:#263238;stroke-miterlimit:10"></line><line x1="529.27" y1="412.13" x2="564.31" y2="412.13" style="fill:none;stroke:#263238;stroke-miterlimit:10"></line><line x1="587.22" y1="400.65" x2="558.92" y2="400.65" style="fill:none;stroke:#263238;stroke-miterlimit:10"></line><line x1="519.83" y1="410.86" x2="507.03" y2="410.86" style="fill:none;stroke:#263238;stroke-miterlimit:10"></line><line x1="489.5" y1="417.24" x2="454.46" y2="417.24" style="fill:none;stroke:#263238;stroke-miterlimit:10"></line><line x1="405.26" y1="412.13" x2="440.31" y2="412.13" style="fill:none;stroke:#263238;stroke-miterlimit:10"></line><line x1="463.22" y1="400.65" x2="434.92" y2="400.65" style="fill:none;stroke:#263238;stroke-miterlimit:10"></line><line x1="395.83" y1="410.86" x2="383.02" y2="410.86" style="fill:none;stroke:#263238;stroke-miterlimit:10"></line><line x1="365.5" y1="417.24" x2="330.46" y2="417.24" style="fill:none;stroke:#263238;stroke-miterlimit:10"></line><line x1="281.26" y1="412.13" x2="316.31" y2="412.13" style="fill:none;stroke:#263238;stroke-miterlimit:10"></line><line x1="339.22" y1="400.65" x2="310.91" y2="400.65" style="fill:none;stroke:#263238;stroke-miterlimit:10"></line><line x1="271.83" y1="410.86" x2="259.02" y2="410.86" style="fill:none;stroke:#263238;stroke-miterlimit:10"></line><line x1="241.5" y1="417.24" x2="206.46" y2="417.24" style="fill:none;stroke:#263238;stroke-miterlimit:10"></line><line x1="157.26" y1="412.13" x2="192.3" y2="412.13" style="fill:none;stroke:#263238;stroke-miterlimit:10"></line><line x1="215.22" y1="400.65" x2="186.91" y2="400.65" style="fill:none;stroke:#263238;stroke-miterlimit:10"></line><line x1="147.83" y1="410.86" x2="135.02" y2="410.86" style="fill:none;stroke:#263238;stroke-miterlimit:10"></line><line x1="697.61" y1="448.73" x2="650.25" y2="448.73" style="fill:none;stroke:#263238;stroke-miterlimit:10"></line><line x1="583.75" y1="441.83" x2="631.12" y2="441.83" style="fill:none;stroke:#263238;stroke-miterlimit:10"></line><line x1="662.09" y1="426.31" x2="623.83" y2="426.31" style="fill:none;stroke:#263238;stroke-miterlimit:10"></line><line x1="571" y1="440.11" x2="553.7" y2="440.11" style="fill:none;stroke:#263238;stroke-miterlimit:10"></line><line x1="530.02" y1="448.73" x2="482.65" y2="448.73" style="fill:none;stroke:#263238;stroke-miterlimit:10"></line><line x1="416.16" y1="441.83" x2="463.53" y2="441.83" style="fill:none;stroke:#263238;stroke-miterlimit:10"></line><line x1="494.49" y1="426.31" x2="456.24" y2="426.31" style="fill:none;stroke:#263238;stroke-miterlimit:10"></line><line x1="403.41" y1="440.11" x2="386.1" y2="440.11" style="fill:none;stroke:#263238;stroke-miterlimit:10"></line><line x1="362.42" y1="448.73" x2="315.06" y2="448.73" style="fill:none;stroke:#263238;stroke-miterlimit:10"></line><line x1="248.57" y1="441.83" x2="295.93" y2="441.83" style="fill:none;stroke:#263238;stroke-miterlimit:10"></line><line x1="326.9" y1="426.31" x2="288.65" y2="426.31" style="fill:none;stroke:#263238;stroke-miterlimit:10"></line><line x1="235.82" y1="440.11" x2="218.51" y2="440.11" style="fill:none;stroke:#263238;stroke-miterlimit:10"></line><line x1="194.83" y1="448.73" x2="147.47" y2="448.73" style="fill:none;stroke:#263238;stroke-miterlimit:10"></line><line x1="80.98" y1="441.83" x2="128.34" y2="441.83" style="fill:none;stroke:#263238;stroke-miterlimit:10"></line><line x1="159.31" y1="426.31" x2="121.05" y2="426.31" style="fill:none;stroke:#263238;stroke-miterlimit:10"></line><line x1="68.22" y1="440.11" x2="50.92" y2="440.11" style="fill:none;stroke:#263238;stroke-miterlimit:10"></line></g><g id="freepik--Sun--inject-218"><circle cx="184.84" cy="109.46" r="27.34" transform="translate(47.19 274.38) rotate(-80.78)" style="fill:#407BFF"></circle></g></svg>