<svg xmlns="http://www.w3.org/2000/svg" viewBox="0 0 500 500"><g id="freepik--background-complete--inject-183"><rect y="382.4" width="500" height="0.25" style="fill:#ebebeb"></rect><rect x="416.78" y="398.49" width="33.12" height="0.25" style="fill:#ebebeb"></rect><rect x="322.53" y="401.21" width="8.69" height="0.25" style="fill:#ebebeb"></rect><rect x="396.59" y="389.21" width="19.19" height="0.25" style="fill:#ebebeb"></rect><rect x="52.46" y="390.89" width="43.19" height="0.25" style="fill:#ebebeb"></rect><rect x="104.56" y="390.89" width="6.33" height="0.25" style="fill:#ebebeb"></rect><rect x="131.47" y="395.11" width="93.68" height="0.25" style="fill:#ebebeb"></rect><path d="M237,337.8H43.91a5.71,5.71,0,0,1-5.7-5.71V60.66A5.71,5.71,0,0,1,43.91,55H237a5.71,5.71,0,0,1,5.71,5.71V332.09A5.71,5.71,0,0,1,237,337.8ZM43.91,55.2a5.46,5.46,0,0,0-5.45,5.46V332.09a5.46,5.46,0,0,0,5.45,5.46H237a5.47,5.47,0,0,0,5.46-5.46V60.66A5.47,5.47,0,0,0,237,55.2Z" style="fill:#ebebeb"></path><path d="M453.31,337.8H260.21a5.72,5.72,0,0,1-5.71-5.71V60.66A5.72,5.72,0,0,1,260.21,55h193.1A5.71,5.71,0,0,1,459,60.66V332.09A5.71,5.71,0,0,1,453.31,337.8ZM260.21,55.2a5.47,5.47,0,0,0-5.46,5.46V332.09a5.47,5.47,0,0,0,5.46,5.46h193.1a5.47,5.47,0,0,0,5.46-5.46V60.66a5.47,5.47,0,0,0-5.46-5.46Z" style="fill:#ebebeb"></path><polygon points="247.86 337.16 276.73 280.99 240.54 337.16 247.86 337.16" style="fill:#f0f0f0"></polygon><polygon points="72.05 290.99 276.73 280.99 72.05 270.99 72.05 290.99" style="fill:#f0f0f0"></polygon><polygon points="79.88 337.16 101.76 337.16 276.73 280.99 76.44 324.31 79.88 337.16" style="fill:#f0f0f0"></polygon><polygon points="264.59 337.16 276.73 280.99 258.7 337.16 264.59 337.16" style="fill:#f0f0f0"></polygon><polygon points="312.93 337.16 276.73 280.99 305.6 337.16 312.93 337.16" style="fill:#f0f0f0"></polygon><polygon points="279.48 337.16 276.73 280.99 273.99 337.16 279.48 337.16" style="fill:#f0f0f0"></polygon><polygon points="338.67 337.16 276.73 280.99 327.67 337.16 338.67 337.16" style="fill:#f0f0f0"></polygon><polygon points="386.01 337.16 276.73 280.99 363.9 337.16 386.01 337.16" style="fill:#f0f0f0"></polygon><polygon points="76.44 237.68 276.73 280.99 81.61 218.36 76.44 237.68" style="fill:#f0f0f0"></polygon><polygon points="294.76 337.16 276.73 280.99 288.88 337.16 294.76 337.16" style="fill:#f0f0f0"></polygon><polygon points="225.8 337.16 276.73 280.99 214.8 337.16 225.8 337.16" style="fill:#f0f0f0"></polygon><polygon points="458.5 222.65 276.73 280.99 458.5 241.68 458.5 222.65" style="fill:#f0f0f0"></polygon><polygon points="458.5 186.46 448.99 169.99 276.73 280.99 458.5 187.57 458.5 186.46" style="fill:#f0f0f0"></polygon><polygon points="414.39 129.19 276.73 280.99 428.54 143.33 414.39 129.19" style="fill:#f0f0f0"></polygon><polygon points="370.41 98.73 276.73 280.99 387.73 108.73 370.41 98.73" style="fill:#f0f0f0"></polygon><polygon points="458.5 272.11 276.73 280.99 458.5 289.87 458.5 272.11" style="fill:#f0f0f0"></polygon><polygon points="458.5 337.16 458.5 320.3 276.73 280.99 451.7 337.16 458.5 337.16" style="fill:#f0f0f0"></polygon><polygon points="214.1 85.87 276.73 280.99 233.42 80.7 214.1 85.87" style="fill:#f0f0f0"></polygon><polygon points="165.73 108.73 276.73 280.99 183.05 98.73 165.73 108.73" style="fill:#f0f0f0"></polygon><polygon points="320.05 80.7 276.73 280.99 339.37 85.87 320.05 80.7" style="fill:#f0f0f0"></polygon><polygon points="124.93 143.33 276.73 280.99 139.07 129.19 124.93 143.33" style="fill:#f0f0f0"></polygon><polygon points="94.47 187.31 276.73 280.99 104.47 169.99 94.47 187.31" style="fill:#f0f0f0"></polygon><polygon points="266.73 76.31 276.73 280.99 286.73 76.31 266.73 76.31" style="fill:#f0f0f0"></polygon><path d="M56.11,337.06s22.45-15,31.59-13.5,13.56,5.15,17.68,6.23,33-16.67,43.11-14.13S212.64,334,220.84,334s26.8-15.79,39.17-10,28.63,10.13,40.29,10.4,59.12-36.8,70.78-35.45S407,326.25,412,325.13s5.2-9.78,17-3.87,24.32,16.54,24.32,16.54Z" style="fill:#e0e0e0"></path><polygon points="189.57 337.16 276.73 280.99 167.46 337.16 189.57 337.16" style="fill:#f0f0f0"></polygon></g><g id="freepik--Shadow--inject-183"><ellipse id="freepik--path--inject-183" cx="250" cy="426.47" rx="193.89" ry="11.32" style="fill:#f5f5f5"></ellipse></g><g id="freepik--Sun--inject-183"><circle cx="276.73" cy="280.99" r="54.33" transform="translate(-18.48 542.5) rotate(-86.97)" style="fill:#407BFF"></circle><circle cx="276.73" cy="280.99" r="54.33" transform="translate(-18.48 542.5) rotate(-86.97)" style="fill:#fff;opacity:0.7000000000000001"></circle><circle cx="276.73" cy="280.99" r="50.22" transform="translate(-18.48 542.5) rotate(-86.97)" style="fill:#fff;opacity:0.7000000000000001"></circle></g><g id="freepik--Clouds--inject-183"><path d="M167.41,130.79c.2-3.94-.74-8.24-5.16-10.2-9.18-4.08-15.81,3.55-15.81,3.55s-3.57-25-23.36-25.35-22.78,24.07-22.78,24.07-7.94-8.39-16-6.23c-5.19,1.39-9.18,8.93-11.38,14.16Z" style="fill:#407BFF"></path><path d="M167.41,130.79c.2-3.94-.74-8.24-5.16-10.2-9.18-4.08-15.81,3.55-15.81,3.55s-3.57-25-23.36-25.35-22.78,24.07-22.78,24.07-7.94-8.39-16-6.23c-5.19,1.39-9.18,8.93-11.38,14.16Z" style="fill:#fff;opacity:0.6"></path><path d="M344.17,145.53c.11-2.24-.43-4.69-2.94-5.8-5.21-2.32-9,2-9,2s-2-14.19-13.27-14.4S306,141,306,141s-4.51-4.77-9.11-3.54c-2.94.79-5.21,5.07-6.46,8.05Z" style="fill:#407BFF"></path><path d="M344.17,145.53c.11-2.24-.43-4.69-2.94-5.8-5.21-2.32-9,2-9,2s-2-14.19-13.27-14.4S306,141,306,141s-4.51-4.77-9.11-3.54c-2.94.79-5.21,5.07-6.46,8.05Z" style="fill:#fff;opacity:0.6"></path><path d="M431.67,247.87c-.08-4.05-1.27-25-17.95-24.93-18.47,0-20.54,21.36-20.54,21.36s-4.31-10.54-15.86-8.83c-7.92,1.17-11.72,9.91-12.65,12.4Z" style="fill:#407BFF"></path><path d="M431.67,247.87c-.08-4.05-1.27-25-17.95-24.93-18.47,0-20.54,21.36-20.54,21.36s-4.31-10.54-15.86-8.83c-7.92,1.17-11.72,9.91-12.65,12.4Z" style="fill:#fff;opacity:0.6"></path></g><g id="freepik--Sea--inject-183"><path d="M98.22,344.79c1.53.43,3.23,1,5.14,1.77,31,1,84.37,2.77,84.47,3.15s-46.5,0-74.56.37a98.83,98.83,0,0,0,12.88,3.12c23.39.89,50.55,1.68,51.47,2.15.68.34-6.53.77-15.05,1.39,6.87,1.61,11.34,4.07,16.51,6.83,15.92.19,30.5.16,31.41.52,1.35.54-15.35,1-26.37,2.09,1.19.58,2.44,1.17,3.79,1.76a40.45,40.45,0,0,0,7.69,2.38c33.45,1.49,95.21,2.21,92.07,2.38-9.65.52-27.39.72-42.07,1.17a57.91,57.91,0,0,1,10.66,2.79c8.34.14,17.2.26,25.31.36,6.53-.8,13-1.64,15.92-2a60.67,60.67,0,0,0,8.34-1.95l-7.05-.63s4.82-.24,11.33-.63c5.86-1.75,12.41-3.82,17.72-5.14-9.31-.51-19.65-1-22.87-1.9-6-1.7,14.36-2.25,31.7-2.89,5.17-.19,13.89-.71,23.53-1.41,2.38-.25,4.82-.44,7.28-.55,3.16-.25,6.35-.51,9.48-.79,5.58-1.28,10.12-4.13,15.24-6.79C368,351.22,326,351.13,326,351.13s50.7-1.56,74.06-2.26A41.25,41.25,0,0,1,414,346.68c9.1.08,15.43-1.74,19.68-3.83-18.75-.64-66.26-.58-66.26-.58l70.63-2.12a14.2,14.2,0,0,0,3.11-3.09H78.82C82.49,344.23,90.19,342.54,98.22,344.79Z" style="fill:#407BFF"></path><path d="M258.16,377.42a12.67,12.67,0,0,0,5.69,1.44c2.24,0,7.72-.63,13.71-1.35Z" style="fill:#407BFF"></path><g style="isolation:isolate;opacity:0.30000000000000004"><path d="M98.22,344.79c1.53.43,3.23,1,5.14,1.77,31,1,84.37,2.77,84.47,3.15s-46.5,0-74.56.37a98.83,98.83,0,0,0,12.88,3.12c23.39.89,50.55,1.68,51.47,2.15.68.34-6.53.77-15.05,1.39,6.87,1.61,11.34,4.07,16.51,6.83,15.92.19,30.5.16,31.41.52,1.35.54-15.35,1-26.37,2.09,1.19.58,2.44,1.17,3.79,1.76a40.45,40.45,0,0,0,7.69,2.38c33.45,1.49,95.21,2.21,92.07,2.38-9.65.52-27.39.72-42.07,1.17a57.91,57.91,0,0,1,10.66,2.79c8.34.14,17.2.26,25.31.36,6.53-.8,13-1.64,15.92-2a60.67,60.67,0,0,0,8.34-1.95l-7.05-.63s4.82-.24,11.33-.63c5.86-1.75,12.41-3.82,17.72-5.14-9.31-.51-19.65-1-22.87-1.9-6-1.7,14.36-2.25,31.7-2.89,5.17-.19,13.89-.71,23.53-1.41,2.38-.25,4.82-.44,7.28-.55,3.16-.25,6.35-.51,9.48-.79,5.58-1.28,10.12-4.13,15.24-6.79C368,351.22,326,351.13,326,351.13s50.7-1.56,74.06-2.26A41.25,41.25,0,0,1,414,346.68c9.1.08,15.43-1.74,19.68-3.83-18.75-.64-66.26-.58-66.26-.58l70.63-2.12a14.2,14.2,0,0,0,3.11-3.09H78.82C82.49,344.23,90.19,342.54,98.22,344.79Z" style="fill:#fff"></path><path d="M258.16,377.42a12.67,12.67,0,0,0,5.69,1.44c2.24,0,7.72-.63,13.71-1.35Z" style="fill:#fff"></path></g><path d="M314.93,338.06H228.55s-6.62.37-6.62,1.07,13.24.82,13.24,1.58-17,.23-17,2.09c0,1.56,29,1.65,38.21,2.68,17.22.15,38.73.4,39.35.71s-20.16.25-36.62.15c-.89,1.6-15.65,1.61-15.65,3s18.92.93,18.92,2.38-10.23,1.34-10.23,3,13.75,2,13.75,3.26-10.76,1.43-3.52,1.93c21.3,1.5,35.61-1.06,36.4-1.93.45-.51-.79-1.14-1.63-1.84-10.51,0-19.57,0-18.35-.07s9-.3,17.79-.53a.73.73,0,0,1,.21-1c1.58-1.33,14.62-1.69,14.62-2.8s-5.53-1.68-5.53-3.57,16.2-1.13,16.2-2.52-11.61-1.62-12.19-2.92c-8.44-.27-20.42-.68-18.14-.79,2.44-.11,14.36-.07,21.15,0,6.65-.64,21.74-.71,21.43-1.65C334,339,314.93,338.06,314.93,338.06Z" style="fill:#fff"></path><path d="M268.44,361.57s20.73-.35,22.12,0-17.8,1.55-22.12,1S268.44,361.57,268.44,361.57Z" style="fill:#fff"></path><path d="M277.32,365h7a17.73,17.73,0,0,1-7,1.26C273.62,366.06,273.58,364.94,277.32,365Z" style="fill:#fff"></path></g><g id="freepik--Mountain--inject-183"><path d="M418.45,338.27l-278.95.22h-.8l.06,0,2.49-.82h0c4.66-1.55,15.15-5,27.41-8.82,25.16-7.87,57.76-17.34,62.64-15.32,13.37,5.52,25.54,14.09,39.81,16.63a4.77,4.77,0,0,0,2.22.06,5,5,0,0,0,1.46-.8c10.21-7.18,20.4-14.5,30.59-21.77,10.82-7.71,21.91-16.5,34-22.11,1.35-.62,3.73-2.06,5.3-1.46a17.55,17.55,0,0,1,2.44,1.3c10,6.09,38.21,29.11,41.62,33,3.77,4.28,17.85,12.26,19.93,13.17s9.23,6.4,9.67,6.74h0Z" style="fill:#407BFF"></path><path d="M138.76,338.47l2.49-.82-1.75.84h-.8Z" style="fill:#fff;opacity:0.4"></path><path d="M396.21,324.13a41.71,41.71,0,0,0-8.26-1.87c-6.28-.51-11.22-6.71-11.22-6.71l8.19,2.9-3.39-2.9-12.9-9.26c-6.67-3.13-13.3-6.21-19.87-9.51a4.54,4.54,0,0,0-6.13.66l-8.32,6.33a1.85,1.85,0,0,0,1.81-.07A97.21,97.21,0,0,1,305.47,326v-2.66c0,.41-7.39,3.55-8.19,4-2.93,1.58-5.81,3.25-8.74,4.81-5.26,2.81-11.32,6-17.36,6.25-8.71.31-17.49,0-26.21,0l3.05-1.57-2.17-1.51c-2.16-1.5-5.48-1.66-10-3.29a19.81,19.81,0,0,0-7.26-1.45l.4,3.33s-4.22-1.83-5.24-3.33-.56-2.19-2.85-3.31-6.8-5-6.8-5-13.06,3.5-16.36,3.3-9.89,2.31-14,3-38.54,9.71-39.35,9.93H138.7l.06,0,2.49-.82h0c4.66-1.55,15.15-5,27.41-8.82,25.16-7.87,57.76-17.34,62.64-15.32,13.37,5.52,25.54,14.09,39.81,16.63a4.77,4.77,0,0,0,2.22.06,5,5,0,0,0,1.46-.8c10.21-7.18,20.4-14.5,30.59-21.77,10.82-7.71,21.91-16.5,34-22.11,1.35-.62,3.73-2.06,5.3-1.46a17.55,17.55,0,0,1,2.44,1.3c10,6.09,38.21,29.11,41.62,33A41.93,41.93,0,0,0,396.21,324.13Z" style="fill:#fff;opacity:0.4"></path><path d="M347.2,285.35l-.08,0c-.62-.39-4.67.36-7.3,2.22-2.09,1.47-4.15,2.89-6.33,4.24l-4.17,2.58c-2.08,1.3-4.17,2.59-6.24,3.92a5.42,5.42,0,0,0-1.58,1.35,12,12,0,0,0-.63,1.24,10.2,10.2,0,0,1-1,1.46,55.22,55.22,0,0,0-3.58,4.79c6.59-2.19,13.2-6.95,19.42-10.28-.53.43-17.46,14.22-21.4,17.79-3.18,2.9-7.92,4.51-11.94,5.91a17.21,17.21,0,0,0-5.11,2.34l6.85-8.33a75.72,75.72,0,0,0-13.05,7.78,31.61,31.61,0,0,0-5.22,4.62c-1,1.13-2.38,3.34-4,3.65-1.79.34-15.35,5.24-15.35,5.24l-8.92,1.05,5.76-3s-9.5-3.94-11-3.7,3.28,3.29,3.85,3.67a62.15,62.15,0,0,0-10-3.67c-4.55-1.08-10.21-8-10.21-8l7.27,1.72c-.77-.29-13.1-4.86-14.13-6.47s-5.27.34-9.49,0c-3.36-.27-37.2,7.95-50.85,11.31,25.16-7.87,57.76-17.34,62.64-15.32,13.37,5.52,25.54,14.09,39.81,16.63a4.77,4.77,0,0,0,2.22.06,5,5,0,0,0,1.46-.8c10.21-7.18,20.4-14.5,30.59-21.77,10.82-7.71,21.91-16.5,34-22.11,1.35-.62,3.73-2.06,5.3-1.46A17.55,17.55,0,0,1,347.2,285.35Z" style="fill:#fff;opacity:0.5"></path></g><g id="freepik--Birds--inject-183"><path d="M361.74,176s-1.33-3.35-2.29-3.65a47.25,47.25,0,0,0-6.32-.14s3.54,4.74,4.91,5S361.74,176,361.74,176Z" style="fill:#263238"></path><path d="M353.13,172.17h0c.11.15,3.56,4.74,4.91,5a4.67,4.67,0,0,0,2.5-.56,10,10,0,0,0,1.2-.64s-1.33-3.35-2.29-3.65a44,44,0,0,0-6.29-.14h0Z" style="fill:#fff;opacity:0.30000000000000004"></path><path d="M353.13,172.17c.11.15,3.56,4.74,4.91,5a4.67,4.67,0,0,0,2.5-.56c.91-1.09-1.74-1.21-2.18-1.38s-.29-.5-.23-.72-.5-.57-1.06-.61-.83-.38-.88-1-2.69-.7-3-.72h0Z" style="isolation:isolate;opacity:0.2"></path><path d="M363.66,173.14c-1.14.3-3.32,2.32-4.15,2.64s-5.88-1.34-6.92-1.55-9.27,1.06-9.27,1.06,6.84,3.82,10.45,2.92a12.82,12.82,0,0,1-3.25,1.55,36.78,36.78,0,0,0-7.63,1.47l5.35.15-4.09,1.8a22.78,22.78,0,0,0,6.08-1.54,32,32,0,0,0,5.09-.1,7.8,7.8,0,0,0,6-3.22c1.16-1.69,5.82-4.61,5.82-4.61l-1.91-.1A1.58,1.58,0,0,0,363.66,173.14Z" style="fill:#263238"></path><path d="M348.24,181.38l-4.09,1.8a22.63,22.63,0,0,0,6.08-1.55,29,29,0,0,0,4.11,0l1-.07a7.8,7.8,0,0,0,6-3.22,13.3,13.3,0,0,1,2.6-2.39l.51-.38h0l.39-.27c.28-.21.56-.4.82-.57.86-.6,1.5-1,1.5-1l-1.91-.1a1.58,1.58,0,0,0-1.61-.47,12.42,12.42,0,0,0-2.91,1.85,7,7,0,0,1-1.24.79c-.83.31-5.88-1.34-6.92-1.55a30.43,30.43,0,0,0-4.8.42c-2.27.3-4.46.64-4.46.64s4.73,2.65,8.4,3a6.5,6.5,0,0,0,1.83-.05h0l.21,0,0,0a12.31,12.31,0,0,1-3.21,1.52,16.89,16.89,0,0,0-1.82.17h0a41.39,41.39,0,0,0-5.8,1.3Z" style="fill:#fff;opacity:0.4"></path><path d="M360.75,175a2.52,2.52,0,0,1,1.6-.11c.45.26,1,.92,1.61,1.05l.51-.38h0l.39-.27c.28-.21.56-.4.82-.57a3.87,3.87,0,0,0-.41-1.1,1.58,1.58,0,0,0-1.61-.47A12.42,12.42,0,0,0,360.75,175Z" style="isolation:isolate;opacity:0.2"></path><path d="M343.33,175.29s4.73,2.65,8.4,3a11.73,11.73,0,0,0,1.83-.05h0l.17,0c2.77-.37,3-.87,3-.87s-1,0-1.06,0,.29-.4-.35-.45-.64-.35-.64-.35a8.11,8.11,0,0,1-1.86-.24c-.11-.16.06-.52-.7-.45s-.18-.51-1.42-.58-1-.39-1-.39a3.21,3.21,0,0,1-1.84-.29C345.52,175,343.33,175.29,343.33,175.29Z" style="isolation:isolate;opacity:0.2"></path><path d="M348.24,181.38l-4.09,1.8a22.63,22.63,0,0,0,6.08-1.55,29,29,0,0,0,4.11,0c.41-.4-1.11-.43-1.81-.56-.89-.18-.75-.12-.53-.41s-.1-.25-1.05-.19-.82-.2-1.49-.45a2.14,2.14,0,0,0-.76-.07h0a41.39,41.39,0,0,0-5.8,1.3Z" style="isolation:isolate;opacity:0.2"></path><polygon points="365.27 173.6 364.88 174.11 365.43 174.87 367.19 173.71 365.27 173.6" style="fill:#263238"></polygon><path d="M318.25,219.25s-.54-1.37-.93-1.49a19.36,19.36,0,0,0-2.57,0s1.44,1.92,2,2A2.93,2.93,0,0,0,318.25,219.25Z" style="fill:#263238"></path><path d="M314.75,217.71h0c0,.06,1.44,1.92,2,2a1.9,1.9,0,0,0,1-.22,5.17,5.17,0,0,0,.49-.26s-.54-1.37-.93-1.49a18.64,18.64,0,0,0-2.55,0h0Z" style="fill:#fff;opacity:0.30000000000000004"></path><path d="M314.76,217.71c0,.06,1.44,1.92,2,2a1.9,1.9,0,0,0,1-.22c.37-.45-.7-.5-.88-.56s-.12-.21-.1-.3-.2-.23-.43-.24-.33-.16-.35-.41-1.1-.29-1.23-.29Z" style="isolation:isolate;opacity:0.2"></path><path d="M319,218.1a18.35,18.35,0,0,0-1.69,1.07,14.35,14.35,0,0,1-2.81-.63,37,37,0,0,0-3.76.44s2.78,1.55,4.24,1.18a5.15,5.15,0,0,1-1.31.63,14.61,14.61,0,0,0-3.1.6l2.17.05-1.66.74a9.38,9.38,0,0,0,2.47-.63,12.8,12.8,0,0,0,2.06,0,3.16,3.16,0,0,0,2.45-1.3,12.14,12.14,0,0,1,2.37-1.88l-.78,0A.64.64,0,0,0,319,218.1Z" style="fill:#263238"></path><path d="M312.77,221.44l-1.66.74a9.38,9.38,0,0,0,2.47-.63,10.93,10.93,0,0,0,1.66,0l.4,0a3.16,3.16,0,0,0,2.45-1.3,5.46,5.46,0,0,1,1.06-1l.21-.16h0l.15-.11.34-.23.61-.41-.78,0a.64.64,0,0,0-.65-.19,5,5,0,0,0-1.18.75,2.6,2.6,0,0,1-.51.32,14.35,14.35,0,0,1-2.81-.63,12,12,0,0,0-1.94.18c-.92.12-1.81.26-1.81.26a11.1,11.1,0,0,0,3.41,1.22,2.59,2.59,0,0,0,.74,0h0l.08,0h0a4.92,4.92,0,0,1-1.3.62,6.37,6.37,0,0,0-.74.07h0a17,17,0,0,0-2.35.53Z" style="fill:#fff;opacity:0.4"></path><path d="M317.85,218.85a1.06,1.06,0,0,1,.65,0c.18.1.39.37.65.43l.21-.16h0l.15-.11.34-.23a1.51,1.51,0,0,0-.17-.45.64.64,0,0,0-.65-.19A5,5,0,0,0,317.85,218.85Z" style="isolation:isolate;opacity:0.2"></path><path d="M310.78,219a11.1,11.1,0,0,0,3.41,1.22,5.71,5.71,0,0,0,.74,0H315c1.12-.15,1.2-.35,1.2-.35h-.43s.12-.16-.14-.18-.26-.15-.26-.15a3.63,3.63,0,0,1-.76-.09c0-.06,0-.21-.28-.18s-.08-.21-.58-.24-.42-.16-.42-.16a1.35,1.35,0,0,1-.74-.11C311.67,218.84,310.78,219,310.78,219Z" style="isolation:isolate;opacity:0.2"></path><path d="M312.77,221.44l-1.66.74a9.38,9.38,0,0,0,2.47-.63,10.93,10.93,0,0,0,1.66,0c.17-.16-.44-.17-.73-.23s-.3-.05-.21-.16,0-.11-.43-.08-.33-.08-.6-.19a.89.89,0,0,0-.31,0h0a17,17,0,0,0-2.35.53Z" style="isolation:isolate;opacity:0.2"></path><polygon points="319.68 218.29 319.53 218.49 319.75 218.81 320.46 218.33 319.68 218.29" style="fill:#263238"></polygon><path d="M390.6,114.25c-.79-.24-2.75,3.49-4,4.22a4.8,4.8,0,0,0,2.89-.74C390.84,116.83,391.43,114.5,390.6,114.25Z" style="fill:#263238"></path><path d="M386.64,118.47a4.8,4.8,0,0,0,2.89-.74c1.31-.9,1.9-3.23,1.07-3.48-.18-.06-.44.11-.73.4C388.93,115.6,387.56,117.92,386.64,118.47Z" style="fill:#fff;opacity:0.2"></path><path d="M386.64,118.47s1.22-.19,1.33-.41a.84.84,0,0,1,.59-.44c.33-.1.42-.29.27-.61s.37-.26.62-.45-.09-.2-.16-.43.49-.41.47-.61-.22-.09-.15-.32.46-.41.26-.55C388.93,115.6,387.56,117.92,386.64,118.47Z" style="isolation:isolate;opacity:0.2"></path><path d="M392.63,113.08a27.5,27.5,0,0,0-2.82,1c-.48.07-3.75.72-3.75.72a7.77,7.77,0,0,1-2.14.51,22.17,22.17,0,0,0-4.76-.1l3.19.78-2.68.55a13.83,13.83,0,0,0,3.83-.14,19.86,19.86,0,0,0,3.06.59,4.81,4.81,0,0,0,4-1.15,17.93,17.93,0,0,1,4.08-2l-1.13-.3A1,1,0,0,0,392.63,113.08Z" style="fill:#263238"></path><path d="M382.35,116l-2.68.55a13.9,13.9,0,0,0,3.84-.14l.15,0A20.2,20.2,0,0,0,386,117c.18,0,.38.06.59.09a5.27,5.27,0,0,0,2.19-.13,4.47,4.47,0,0,0,1.84-1,8,8,0,0,1,1.86-1.1l.36-.16h0l.26-.12.57-.23c.59-.25,1-.41,1-.41l-1.13-.31a1,1,0,0,0-.91-.48,8,8,0,0,0-2,.73,4.3,4.3,0,0,1-.84.32c-.53.08-3.79.72-3.75.72h0a7.77,7.77,0,0,1-2.12.5,9.64,9.64,0,0,0-1.11-.13h0a24.82,24.82,0,0,0-3.64,0Z" style="fill:#fff;opacity:0.30000000000000004"></path><path d="M390.65,113.81a1.64,1.64,0,0,1,1,.14c.23.21.46.68.82.84l.36-.16h0l.26-.12.57-.23a2.41,2.41,0,0,0-.1-.72,1,1,0,0,0-.91-.48A7.63,7.63,0,0,0,390.65,113.81Z" style="isolation:isolate;opacity:0.2"></path><path d="M382.34,116l-2.67.55a13.83,13.83,0,0,0,3.83-.14A18,18,0,0,0,386,117c.29-.19-.61-.4-1-.57s-.44-.17-.27-.31,0-.17-.61-.25-.46-.23-.82-.46a1.4,1.4,0,0,0-.45-.14h0a24.82,24.82,0,0,0-3.64,0Z" style="isolation:isolate;opacity:0.2"></path><polygon points="393.54 113.56 393.24 113.81 393.47 114.34 394.67 113.87 393.54 113.56" style="fill:#263238"></polygon><path d="M383.66,116.49A20.2,20.2,0,0,0,386,117c.18,0,.38.06.59.09a5.27,5.27,0,0,0,2.19-.13,5.49,5.49,0,0,0,.58-1.6,1.87,1.87,0,0,0-1.43-.6C387.19,114.66,385.05,115.74,383.66,116.49Z" style="isolation:isolate;opacity:0.30000000000000004"></path><path d="M389.05,114.36c-1.41-.31-7.7,4.41-10.56,5.32a17,17,0,0,0,6.2-.91C387.86,117.65,390.54,114.68,389.05,114.36Z" style="fill:#263238"></path><path d="M378.48,119.68a17,17,0,0,0,6.21-.91c3.17-1.12,5.85-4.09,4.36-4.41a3.31,3.31,0,0,0-1.71.5C384.86,116.06,380.67,119,378.48,119.68Z" style="fill:#fff;opacity:0.4"></path><path d="M378.48,119.68a13.62,13.62,0,0,0,2.91-.51,3,3,0,0,1,1.46-.55c.71-.12,1-.36.92-.77s.9-.33,1.51-.57,0-.25,0-.55,1.23-.52,1.32-.77-.39-.12-.11-.4,1.17-.51.88-.7C384.86,116.06,380.67,119,378.48,119.68Z" style="isolation:isolate;opacity:0.2"></path><path d="M355.27,222c-.42-.12-1.46,1.86-2.1,2.25a2.54,2.54,0,0,0,1.53-.4C355.4,223.41,355.71,222.17,355.27,222Z" style="fill:#263238"></path><path d="M353.17,224.28a2.54,2.54,0,0,0,1.53-.4c.7-.47,1-1.71.57-1.85-.1,0-.23.06-.39.22A19.36,19.36,0,0,1,353.17,224.28Z" style="fill:#fff;opacity:0.2"></path><path d="M353.17,224.28s.64-.1.7-.22a.46.46,0,0,1,.32-.24c.17,0,.22-.15.14-.32s.19-.14.33-.24-.05-.11-.09-.23.26-.22.25-.32-.12-.05-.08-.17.24-.22.14-.29A19.36,19.36,0,0,1,353.17,224.28Z" style="isolation:isolate;opacity:0.2"></path><path d="M356.35,221.41a14.92,14.92,0,0,0-1.5.56l-2,.38a4,4,0,0,1-1.14.27,12,12,0,0,0-2.52-.05l1.69.41-1.43.3a7.65,7.65,0,0,0,2-.08,11.07,11.07,0,0,0,1.62.32,2.5,2.5,0,0,0,2.14-.62,9.91,9.91,0,0,1,2.17-1.06l-.6-.17A.53.53,0,0,0,356.35,221.41Z" style="fill:#263238"></path><path d="M350.89,223l-1.43.3a7.65,7.65,0,0,0,2-.08l.08,0a9.89,9.89,0,0,0,1.23.25l.31.05a2.84,2.84,0,0,0,1.16-.07,2.4,2.4,0,0,0,1-.55,4.7,4.7,0,0,1,1-.58l.19-.08h0l.14-.07.3-.12.55-.21-.6-.17a.53.53,0,0,0-.48-.26,4.32,4.32,0,0,0-1.05.39,2.23,2.23,0,0,1-.45.17c-.29,0-2,.39-2,.38h0a3.84,3.84,0,0,1-1.13.26l-.59-.07h0a13.52,13.52,0,0,0-1.93,0Z" style="fill:#fff;opacity:0.30000000000000004"></path><path d="M355.29,221.8c.19,0,.43,0,.52.08s.25.36.44.44l.19-.08h0l.14-.07.3-.12a1.37,1.37,0,0,0-.05-.38.51.51,0,0,0-.48-.25A4,4,0,0,0,355.29,221.8Z" style="isolation:isolate;opacity:0.2"></path><path d="M350.89,223l-1.43.3a7.65,7.65,0,0,0,2-.08,8.93,8.93,0,0,0,1.31.27c.16-.1-.32-.21-.54-.3s-.23-.09-.14-.16,0-.09-.32-.14-.24-.12-.44-.24a.93.93,0,0,0-.24-.08h0a13.52,13.52,0,0,0-1.93,0Z" style="isolation:isolate;opacity:0.2"></path><polygon points="356.83 221.67 356.67 221.8 356.79 222.09 357.43 221.84 356.83 221.67" style="fill:#263238"></polygon><path d="M351.58,223.22a9.89,9.89,0,0,0,1.23.25l.31.05a2.84,2.84,0,0,0,1.16-.07,2.8,2.8,0,0,0,.31-.85,1,1,0,0,0-.75-.32A7.87,7.87,0,0,0,351.58,223.22Z" style="isolation:isolate;opacity:0.30000000000000004"></path><path d="M354.44,222.09c-.74-.16-4.08,2.34-5.6,2.83a9,9,0,0,0,3.29-.48C353.81,223.84,355.23,222.27,354.44,222.09Z" style="fill:#263238"></path><path d="M348.84,224.92a9.21,9.21,0,0,0,3.29-.48c1.68-.6,3.1-2.17,2.31-2.35a1.76,1.76,0,0,0-.9.27C352.22,223,350,224.55,348.84,224.92Z" style="fill:#fff;opacity:0.4"></path><path d="M348.84,224.92a7.14,7.14,0,0,0,1.54-.27,1.63,1.63,0,0,1,.77-.3c.38-.06.54-.19.49-.4s.48-.18.8-.3,0-.14,0-.3.65-.27.7-.4-.21-.07-.06-.22.62-.27.47-.37C352.22,223,350,224.55,348.84,224.92Z" style="isolation:isolate;opacity:0.2"></path></g><g id="freepik--beach-bucket--inject-183"><polygon points="279.5 394.76 270.31 378.88 268.28 379.46 278.31 395.37 279.5 394.76" style="fill:#263238"></polygon><polygon points="279.5 394.76 270.31 378.88 268.28 379.46 278.31 395.37 279.5 394.76" style="fill:#fff;opacity:0.4"></polygon><path d="M285.32,404.45s2.35-6-3.11-14.82l-11.42,4.76S275.8,403.83,285.32,404.45Z" style="fill:#263238"></path><path d="M285.32,404.45s2.35-6-3.11-14.82l-11.42,4.76S275.8,403.83,285.32,404.45Z" style="fill:#fff;opacity:0.7000000000000001"></path><path d="M267.7,403.77l29.42-.39c0-1.77.12-3.75-1.17-3.78l-27.19.36C267.56,400,267.55,401.72,267.7,403.77Z" style="fill:#407BFF"></path><path d="M267.7,403.77l29.42-.39c0-1.77.12-3.75-1.17-3.78l-27.19.36C267.56,400,267.55,401.72,267.7,403.77Z" style="fill:#fff;opacity:0"></path><path d="M272.4,426l19.84-.26c1.05.52,1.68-13.75,2.47-22.29l-24.83.33C270.72,412.2,271.59,426.61,272.4,426Z" style="fill:#407BFF"></path><path d="M272.4,426l19.84-.26c1.05.52,1.68-13.75,2.47-22.29l-24.83.33C270.72,412.2,271.59,426.61,272.4,426Z" style="fill:#fff;opacity:0"></path><polygon points="294.62 404.36 269.97 404.69 269.88 403.74 294.71 403.42 294.62 404.36" style="opacity:0.2"></polygon><path d="M268.5,420.55l15.28-19.46a.51.51,0,0,0,0-.64l-1-.76a.49.49,0,0,0-.67.12l-15.28,19.47Z" style="fill:#263238"></path><path d="M268.5,420.55l15.28-19.46a.51.51,0,0,0,0-.64l-1-.76a.49.49,0,0,0-.67.12l-15.28,19.47Z" style="fill:#fff;opacity:0.1"></path></g><g id="freepik--sand-castle--inject-183"><path d="M357.73,320.5s5.53.9,9,3.66,5.82,2.13,5.82,2.13a5,5,0,0,1-6.11,3.88,10,10,0,0,0-8.72,3.06Z" style="fill:#263238"></path><path d="M357.73,320.5s5.53.9,9,3.66,5.82,2.13,5.82,2.13a5,5,0,0,1-6.11,3.88,10,10,0,0,0-8.72,3.06Z" style="fill:#fff;isolation:isolate;opacity:0.5"></path><polygon points="356.86 360.93 356.86 318.28 358.61 318.28 358.61 362.09 356.86 360.93" style="fill:#263238"></polygon><polygon points="389.83 347.65 389.83 350.96 384.05 350.96 384.05 347.65 378.25 347.65 378.25 350.96 372.46 350.96 372.46 347.65 366.66 347.65 366.66 350.96 360.87 350.96 360.87 347.65 355.07 347.65 355.07 350.96 349.28 350.96 349.28 347.65 343.48 347.65 343.48 350.96 337.69 350.96 337.69 347.65 331.9 347.65 331.9 350.96 326.11 350.96 326.11 347.65 321.91 347.65 317.78 386.74 398.17 386.74 394.03 347.65 389.83 347.65" style="fill:#263238"></polygon><polygon points="398.17 386.74 317.78 386.74 321.91 347.65 326.1 347.65 326.1 350.97 331.9 350.97 331.9 347.65 337.7 347.65 337.7 350.97 343.48 350.97 343.48 347.65 349.28 347.65 349.28 350.97 355.07 350.97 355.07 347.65 360.88 347.65 360.88 350.97 366.66 350.97 366.66 347.65 372.46 347.65 372.46 350.97 378.24 350.97 378.24 347.65 384.04 347.65 384.04 350.97 389.84 350.97 389.84 347.65 394.03 347.65 398.17 386.74" style="fill:#fff;isolation:isolate;opacity:0.7000000000000001"></polygon><path d="M329.23,361.34h.62a3,3,0,0,1,3,3v5.1a0,0,0,0,1,0,0H326.2a0,0,0,0,1,0,0v-5.1A3,3,0,0,1,329.23,361.34Z" style="fill:#263238"></path><path d="M343.45,361.34h.62a3,3,0,0,1,3,3v5.1a0,0,0,0,1,0,0h-6.67a0,0,0,0,1,0,0v-5.1A3,3,0,0,1,343.45,361.34Z" style="fill:#263238"></path><path d="M357.66,361.34h.62a3,3,0,0,1,3,3v5.1a0,0,0,0,1,0,0h-6.67a0,0,0,0,1,0,0v-5.1A3,3,0,0,1,357.66,361.34Z" style="fill:#263238"></path><path d="M371.88,361.34h.62a3,3,0,0,1,3,3v5.1a0,0,0,0,1,0,0h-6.67a0,0,0,0,1,0,0v-5.1a3,3,0,0,1,3-3Z" style="fill:#263238"></path><path d="M386.1,361.34h.62a3,3,0,0,1,3,3v5.1a0,0,0,0,1,0,0h-6.67a0,0,0,0,1,0,0v-5.1A3,3,0,0,1,386.1,361.34Z" style="fill:#263238"></path><polygon points="407.22 378.76 407.22 382.6 401.43 382.6 401.43 378.76 395.63 378.76 395.63 382.6 389.84 382.6 389.84 378.76 384.04 378.76 384.04 382.6 378.25 382.6 378.25 378.76 372.45 378.76 372.45 382.6 366.66 382.6 366.66 378.76 360.87 378.76 360.87 382.6 355.08 382.6 355.08 378.76 349.28 378.76 349.28 382.6 343.49 382.6 343.49 378.76 337.69 378.76 337.69 382.6 331.9 382.6 331.9 378.76 326.1 378.76 326.1 382.6 320.31 382.6 320.31 378.76 314.51 378.76 314.51 382.6 308.73 382.6 308.73 378.76 304.77 378.76 298.04 425.81 417.9 425.81 411.17 378.76 407.22 378.76" style="fill:#263238"></polygon><polygon points="407.22 378.76 407.22 382.6 401.43 382.6 401.43 378.76 395.63 378.76 395.63 382.6 389.84 382.6 389.84 378.76 384.04 378.76 384.04 382.6 378.25 382.6 378.25 378.76 372.45 378.76 372.45 382.6 366.66 382.6 366.66 378.76 360.87 378.76 360.87 382.6 355.08 382.6 355.08 378.76 349.28 378.76 349.28 382.6 343.49 382.6 343.49 378.76 337.69 378.76 337.69 382.6 331.9 382.6 331.9 378.76 326.1 378.76 326.1 382.6 320.31 382.6 320.31 378.76 314.51 378.76 314.51 382.6 308.73 382.6 308.73 378.76 304.77 378.76 298.04 425.81 417.9 425.81 411.17 378.76 407.22 378.76" style="fill:#fff;isolation:isolate;opacity:0.6000000000000001"></polygon><path d="M254.75,427.7H427.09s-12.5-7.32-16.26-6.37-15.15,1.72-17.77.84-5.49-2.19-9.89-3.92-13.18-2.86-14.65-2.1-14.64,5.92-19,6-21-.84-21-.84a49.86,49.86,0,0,0-10.3.48c-4.88.85-27.34,5.44-30.27,3.15S254.75,427.7,254.75,427.7Z" style="fill:#263238"></path><path d="M254.75,427.7H427.09s-12.5-7.32-16.26-6.37-15.15,1.72-17.77.84-5.49-2.19-9.89-3.92-13.18-2.86-14.65-2.1-14.64,5.92-19,6-21-.84-21-.84a49.86,49.86,0,0,0-10.3.48c-4.88.85-27.34,5.44-30.27,3.15S254.75,427.7,254.75,427.7Z" style="fill:#fff;isolation:isolate;opacity:0.5"></path><path d="M312,392.41h.62a3,3,0,0,1,3,3v5.1a0,0,0,0,1,0,0H309a0,0,0,0,1,0,0v-5.1a3,3,0,0,1,3-3Z" style="fill:#263238"></path><path d="M327.22,392.41h.62a3,3,0,0,1,3,3v5.1a0,0,0,0,1,0,0H324.2a0,0,0,0,1,0,0v-5.1A3,3,0,0,1,327.22,392.41Z" style="fill:#263238"></path><path d="M342.44,392.41h.62a3,3,0,0,1,3,3v5.1a0,0,0,0,1,0,0h-6.67a0,0,0,0,1,0,0v-5.1A3,3,0,0,1,342.44,392.41Z" style="fill:#263238"></path><path d="M357.66,392.41h.62a3,3,0,0,1,3,3v5.1a0,0,0,0,1,0,0h-6.67a0,0,0,0,1,0,0v-5.1A3,3,0,0,1,357.66,392.41Z" style="fill:#263238"></path><path d="M372.88,392.41h.62a3,3,0,0,1,3,3v5.1a0,0,0,0,1,0,0h-6.67a0,0,0,0,1,0,0v-5.1A3,3,0,0,1,372.88,392.41Z" style="fill:#263238"></path><path d="M388.1,392.41h.62a3,3,0,0,1,3,3v5.1a0,0,0,0,1,0,0h-6.67a0,0,0,0,1,0,0v-5.1A3,3,0,0,1,388.1,392.41Z" style="fill:#263238"></path><path d="M403.32,392.41h.62a3,3,0,0,1,3,3v5.1a0,0,0,0,1,0,0h-6.67a0,0,0,0,1,0,0v-5.1a3,3,0,0,1,3-3Z" style="fill:#263238"></path></g><g id="freepik--Trees--inject-183"><path d="M153.12,424.79C135.49,376,142,281.53,104.23,239.5l-6.39.78c29.72,55.53,28.93,147.17,36.72,185.88Z" style="fill:#407BFF"></path><polygon points="149.45 412.77 132.68 414.83 132.81 413.88 149.33 411.85 149.45 412.77" style="opacity:0.4"></polygon><polygon points="148.14 407.42 131.7 407.18 131.34 404.23 147.19 403.1 148.14 407.42" style="opacity:0.4"></polygon><polygon points="146.53 399.83 131.08 401.73 131.2 400.76 146.35 398.9 146.53 399.83" style="opacity:0.4"></polygon><polygon points="144.02 385.51 129.74 388.85 130.16 387.21 143.83 384.33 144.02 385.51" style="opacity:0.4"></polygon><polygon points="143.19 380.1 128.87 380.06 128.71 378.76 142.81 377.5 143.19 380.1" style="opacity:0.4"></polygon><polygon points="141.92 371.25 128.31 374.36 128.16 372.94 141.74 369.96 141.92 371.25" style="opacity:0.4"></polygon><polygon points="140.38 359.33 127.05 362.04 126.93 360.98 140.19 358.39 140.38 359.33" style="opacity:0.4"></polygon><polygon points="139.74 354.97 126.46 356.6 126.34 355.53 139.43 352.61 139.74 354.97" style="opacity:0.4"></polygon><polygon points="138.73 347.41 125.7 349.92 125.6 349.03 138.74 346.81 138.73 347.41" style="opacity:0.4"></polygon><polygon points="137.49 338.33 124.44 339.67 124.37 338.98 137.35 337.39 137.49 338.33" style="opacity:0.4"></polygon><polygon points="136.93 334.44 124.1 336.74 124.01 336.02 136.63 332.43 136.93 334.44" style="opacity:0.4"></polygon><polygon points="136.09 328.78 123.36 331.66 123.27 331.01 135.87 327.37 136.09 328.78" style="opacity:0.4"></polygon><polygon points="134.37 318.19 122.01 321.76 121.72 320.77 133.9 315.48 134.37 318.19" style="opacity:0.4"></polygon><polygon points="133.02 310.68 120.89 313.98 120.44 313.13 132.9 309.74 133.02 310.68" style="opacity:0.4"></polygon><polygon points="132.03 305.64 119.62 308.6 119.53 307.89 131.74 304.24 132.03 305.64" style="opacity:0.4"></polygon><polygon points="129.75 295.32 117.71 299.01 117.36 297.36 128.67 291.02 129.75 295.32" style="opacity:0.4"></polygon><polygon points="127.03 285 115.55 289.48 115.45 288.61 126.63 283.61 127.03 285" style="opacity:0.4"></polygon><polygon points="125.42 279.67 114.2 284.06 113.96 283.15 125.22 279.05 125.42 279.67" style="opacity:0.4"></polygon><polygon points="124.01 275.42 113.11 280.01 112.67 278.44 123.69 274.51 124.01 275.42" style="opacity:0.4"></polygon><polygon points="120.07 265.22 109.72 268.71 109.37 267.64 119.59 264.13 120.07 265.22" style="opacity:0.4"></polygon><polygon points="118.72 262.2 108.64 265.48 108.3 264.5 118.26 261.2 118.72 262.2" style="opacity:0.4"></polygon><polygon points="116.37 257.39 107.23 261.52 106.99 260.85 115.81 256.33 116.37 257.39" style="opacity:0.4"></polygon><polygon points="113.97 253.03 105.5 256.94 105.15 256.08 113.62 252.44 113.97 253.03" style="opacity:0.4"></polygon><polygon points="111.4 248.88 103.61 252.35 103.09 251.16 110.2 247.09 111.4 248.88" style="opacity:0.4"></polygon><polygon points="108.32 244.49 101.74 248.13 101.28 247.14 107.45 243.36 108.32 244.49" style="opacity:0.4"></polygon><path d="M153.12,424.79C135.49,376,142,281.53,104.23,239.5l-6.39.78c29.72,55.53,28.93,147.17,36.72,185.88Z" style="opacity:0.2"></path><path d="M129.49,275.45c-1.14-.76-2.27-1.53-3.39-2.33-.1-.08,1.75-3.44,1.64-3.52s-2.3,3-2.47,2.91c-1.08-.78-2.14-1.57-3.18-2.39-.15-.11,3.37-4.62,3.22-4.73s-4.07,4.07-4.27,3.91c-1.11-.88-2.2-1.78-3.27-2.69-.18-.15,5.2-5.93,5-6.09s-5.85,5.38-6,5.25c-1.51-1.32-3-2.66-4.38-4-.14-.13,6.5-7.45,6.36-7.58s-7.25,6.71-7.48,6.48q-1.68-1.66-3.22-3.36c-.12-.13,6.37-7.08,6.25-7.21s-6.92,6.46-7.08,6.29c-.78-.88-1.53-1.77-2.25-2.65-.12-.15,6-7.33,5.88-7.48s-6.6,6.58-6.77,6.36q-1.55-2-2.84-3.93c-.11-.17,4.19-6.2,4.08-6.36s-4.69,5.42-4.82,5.2a40.13,40.13,0,0,1-2.2-4c-.16-.34,2-2.3,1.81-2.64-.06-.14-2.39,1.33-2.45,1.19a24.58,24.58,0,0,1-.94-2.68C114.3,238,126.53,254.45,129.49,275.45Z" style="fill:#263238"></path><path d="M145.65,225.17a44,44,0,0,1,3.66,5.81c-2.37-.13-4.64-.22-6.83-.27a44,44,0,0,0-4.72-6.9s2.54,5.88,2.36,6.87q-3.48,0-6.7.13c-.63-1.68-5.55-8.14-5.7-8.13.74,1.4,3.62,5.78,4.48,8.2q-2.91.17-5.65.5c-.24,0-5.61-6.9-5.61-6.9s4.24,7.07,3.91,7.12c-2.12.3-4.86.83-6.87,1.29-.86-2.13-5.37-7.51-5.89-7.37a35.45,35.45,0,0,1,4.48,7.72c-1.82.49-4.26,1.23-6,1.87-.46.16-5-3.77-5-3.77s2.71,4.63,2.26,4.81a80.1,80.1,0,0,0-10.15,5.08c1.55-25.65,38.58-25.9,67.46-9.5-4.16-.28-8.14-.48-12.26-.45A47.38,47.38,0,0,0,145.65,225.17Z" style="fill:#263238"></path><path d="M96.83,237.83q2-1.43,4-3c.21-.16-2.09-4.07-1.88-4.23s3.11,3.31,3.41,3.08l4.13-3.11c.27-.2-5-6.32-4.69-6.53s6,5.57,6.19,5.4q2.22-1.68,4.55-3.4c.28-.2-6.14-7.66-5.86-7.87s7.14,6.93,7.36,6.77c2-1.48,4.11-3,6.25-4.46.26-.19-6.14-8.86-5.87-9s7,8.27,7.16,8.15c2.27-1.55,4.6-3.1,7-4.61.1-.06-5.54-7.84-5.44-7.9s6.06,7.51,6.21,7.41c1.92-1.19,3.87-2.36,5.86-3.49.18-.1-4.53-6.86-4.35-7s5.41,6.36,5.67,6.22q2.63-1.47,5.36-2.84c.26-.13-3.33-4.48-3.07-4.61s4.42,3.94,4.7,3.8q2.58-1.24,5.23-2.4c.16-.06-2.09-1.94-1.94-2s2.78,1.66,3,1.58c2.1-.88,4.24-1.71,6.42-2.47C122.41,195.26,93.26,214.86,96.83,237.83Z" style="fill:#263238"></path><path d="M71.68,216.26c-18-3.35-32.69,20.07-26,44.23a47.31,47.31,0,0,1,5.18-5.77c-1.32-6.24-2.4-11.79-2.4-11.79l3.58,10.68c1-1,2.23-2,3.53-3l-1.36-6,2.64,5a54.23,54.23,0,0,1,5.61-3.6l-4.17-17.4,8,15.44a46,46,0,0,1,6.37-2.33l-3-11.76,4.74,11.3a43.83,43.83,0,0,1,5.8-1L75.3,223s3.83,9.32,7.22,17.16a47.06,47.06,0,0,1,17,2.32l-.7-2.09S88.07,219.32,71.68,216.26Z" style="fill:#263238"></path><path d="M69.46,250.49C81.74,230.28,97.63,241,97.63,241c-5.75,3.18-10.22,8.53-13.72,14.79l-3-2.32,1.62,4.84q-1.2,2.41-2.24,4.94l-6-7.58L79,266.86c-.94,2.61-1.76,5.24-2.47,7.83l-3.83-8.05,3,11.2c-.72,2.88-1.31,5.68-1.79,8.3l-5.78-15.08L73,291.22c-1,6.87-1.27,11.58-1.27,11.58S57.17,270.7,69.46,250.49Z" style="fill:#263238"></path><path d="M95.85,270.05l3.23.41c-.46-2.16-.9-4.45-1.29-6.79l-3.12-2.5,2.8.45c-.12-.78-.23-1.57-.33-2.35l-4.92-5.4L96.67,255c-.56-6.48-.32-12.5,1.6-16.12,0,0-25,21.3,4.3,45.63,0,0-1.54-5.15-3.08-12.11Z" style="fill:#263238"></path><path d="M111.06,191.2l3.23,5a12.14,12.14,0,0,0-1.94.8l-4-6.53,3.35,6.91a16.44,16.44,0,0,0-3.51,2.84l-5.51-8.81,4.47,10c-.39.48-.78,1-1.17,1.58l-5.75-8.12L105.3,204a39.43,39.43,0,0,0-4.25,10.25l-4.34-13,3.11,18.41a110.22,110.22,0,0,0-1.61,19S84,191.2,94.18,182.8s23,12.93,23,12.93a7.41,7.41,0,0,0-1.65.15Z" style="fill:#263238"></path><path d="M68.16,202.06l1.06,6a4.8,4.8,0,0,1,1.27-.27L69,200l2,7.79a8,8,0,0,1,3,.74L72,198l3,11.07c.42.23.86.49,1.32.8l-1.5-10.06,2.29,10.62a42,42,0,0,1,7.06,6.9l-4.56-13.62,7.86,17.82a168.31,168.31,0,0,1,10.29,16s-17.51-49-26.3-51.34-3.81,23-3.81,23a2.9,2.9,0,0,1,.81-.69Z" style="fill:#263238"></path><path d="M118.24,232.94c-16.08-6.39-20.6,6.9-20.6,6.9,4.75-.67,9.72.47,14.52,2.58l.71-2.65,1.18,3.54c1.18.58,2.34,1.21,3.49,1.89l.13-7,2.25,8.53c1.7,1.1,3.33,2.28,4.9,3.48l-1.32-6.39,3.18,7.86c1.69,1.37,3.27,2.74,4.71,4.06l-3.28-11.35,6,13.94c3.63,3.56,5.85,6.2,5.85,6.2S134.32,239.32,118.24,232.94Z" style="fill:#263238"></path><path d="M141.8,424.85s-7.35-69.91-3.85-94,18.31-54.24,28-66.2,25.67-33.31,25.67-33.31l8.17,2.84S184.5,253.66,175.44,267,156,312.8,152.94,334.61s11.65,90.53,11.65,90.53Z" style="fill:#407BFF"></path><path d="M141.8,424.85s-7.35-69.91-3.85-94,18.31-54.24,28-66.2,25.67-33.31,25.67-33.31l8.17,2.84S184.5,253.66,175.44,267,156,312.8,152.94,334.61s11.65,90.53,11.65,90.53Z" style="fill:#fff;opacity:0.1"></path><g style="opacity:0.4"><polygon points="152.94 334.61 137.54 334.42 137.2 339.56 152.68 337.19 152.94 334.61"></polygon><polygon points="163.83 292.08 151.14 289.94 148.95 294.79 163.18 293.94 163.83 292.08"></polygon><polygon points="163.61 420.45 141.23 419.1 141.26 416.96 162.55 415.13 163.61 420.45"></polygon><polygon points="160.94 406.78 140.39 409.98 140.24 408.25 160.63 405.11 160.94 406.78"></polygon><polygon points="159.34 398.03 139.66 401.48 139.26 396.44 158.84 395.19 159.34 398.03"></polygon><polygon points="157.53 387.43 138.73 389.24 138.58 387.13 157.16 385.2 157.53 387.43"></polygon><polygon points="156.11 378.43 138.16 380.68 138.09 379.44 155.92 377.14 156.11 378.43"></polygon><polygon points="154.7 368.43 137.68 372.14 137.58 370.17 154.56 367.31 154.7 368.43"></polygon><polygon points="153.77 360.7 137.24 361.89 137.26 360.49 153.58 358.9 153.77 360.7"></polygon><polygon points="152.74 349.78 136.98 349.58 137.03 352.81 152.72 351.4 152.74 349.78"></polygon><polygon points="153.99 328.15 138.77 326.13 139.4 323.16 154.46 325.66 153.99 328.15"></polygon><polygon points="156.51 316.48 142.04 313.35 142.36 312.32 156.93 314.82 156.51 316.48"></polygon><polygon points="159.81 304.37 159.23 306.36 145.16 304.19 145.75 302.63 159.81 304.37"></polygon><polygon points="178.31 262.87 170.42 259.07 168.36 261.68 176.78 265.06 178.31 262.87"></polygon><polygon points="190.88 245.77 182.51 243.42 181.66 244.53 189.91 247.05 190.88 245.77"></polygon><polygon points="177.26 250.28 184.66 254.09 183.85 255.19 175.86 252.09 177.26 250.28"></polygon><polygon points="195.66 239.53 187.76 236.5 186.37 237.95 194.62 240.88 195.66 239.53"></polygon><polygon points="170.25 276.38 159.77 273.67 158.25 276.23 169.15 278.75 170.25 276.38"></polygon><polygon points="173.24 270.04 164.15 267.03 163.14 268.46 172.84 271.31 173.24 270.04"></polygon><polygon points="166.61 284.73 155.02 282.09 154.38 283.33 166.1 286.03 166.61 284.73"></polygon></g><path d="M225,238.68c1.94.07,3.88.17,5.85.32,1.33-2.41.62-10.3.62-10.3s2.56,8.52,2.12,10.52c2.34.21,4.69.47,7.05.76,1-.86.79-7.29.79-7.29s1.52,4.68,1.36,7.58q3.54.48,7,1.08c.9-1.71.36-4.64.36-4.64s1.6,3.82,1.5,5q4.63.83,9.17,1.8c-6.7-7.48-17.43-13.92-28.65-17.05-2.6-10.26-15.5-15.81-23.94-10.85a15.88,15.88,0,0,0-5.88,6.28C199,211.06,183.22,200.91,163,199.4a46.72,46.72,0,0,1,6.67,4.12c.25.18,3.07-1.34,3.07-1.34s-1.92,2.18-1.72,2.33c1.06.79,2.15,1.65,3.26,2.54.18.16,4.28-2.71,4.28-2.71s-3.33,3.5-3.13,3.66l.66.57a53.73,53.73,0,0,0-26.47-.87l3.52,2.32c.14.09,5.71-2.31,5.85-2.22s-5.12,2.69-5,2.79c1,.63,3.12,1.63,4.07,2.23,3.1-1.68,6-3.35,6.14-3.36a64.48,64.48,0,0,0-5.15,4.39l2.8,1.78c.16.1,7.18-5.15,7.34-5.06s-6.42,5.63-6.2,5.77q1.47.93,2.91,1.8c.18.12,9.06-5.88,9.24-5.77s-8.29,6.35-8.09,6.48l3.32,2c.18.1,9.12-5.7,9.29-5.6s-8.18,6.26-7.89,6.43l1.28.74c-12.39,1.19-26.14,7.73-37.14,19.71,2.11-.69,4.22-1.3,6.33-1.85.19,0,1.16-2.87,1.35-2.92s-.47,2.7-.31,2.66q2.68-.68,5.37-1.21c.3-.06,1.09-5.57,1.38-5.62s.06,5.34.34,5.29c1.92-.36,3.83-.67,5.73-.95.29,0,.44-8,.72-8s.52,7.86.72,7.83c2.17-.29,4.34-.53,6.49-.73.18,0,.26-9.25.44-9.26s.33,9.19.44,9.18c1.69-.15,3.37-.27,5-.37-13.53,6.59-27.21,21.77-29.44,39.2,2.08-1.56,4.24-3.17,6.46-4.81.17-.12-1-5.85-.83-6s1.61,5.4,1.75,5.31l3.76-2.77c.18-.13-2.27-7.32-2.09-7.45s2.88,6.87,3,6.78l5.11-3.74c.19-.14-3.19-8.94-3-9.08s3.83,8.46,4,8.37l6-4.42c.26-.19-4.25-10-4-10.18s5.21,9.28,5.44,9.11c2.37-1.75,4.71-3.49,7-5.2.27-.2-5.25-9.65-5-9.85s6.18,9,6.37,8.81c2-1.49,3.85-2.95,5.65-4.36.25-.2-4.42-7.82-4.18-8s5.33,7.1,5.54,6.93c1.72-1.37,3.35-2.7,4.85-4,.16-.13-3.41-5.63-3.26-5.76s.21.18.48.51c0,0,0,.06,0,.06h0c1.08,1.33,6.72,6.78,6.33,7.89.46-.2,1-.38,1.43-.57-.11,1.34-.19,2.72-.19,4.17,0,.3,7.48-2.25,8.47-2.32l-.1.17c-1.28.72-8.36,3.65-8.36,3.88q.08,2.92.39,6.06c0,.35,11.38-2.59,11.42-2.24s-11.25,3.78-11.22,4c.18,1.41.38,2.84.62,4.3,0,.29,11.65-2.25,11.71-1.95s-11.48,3.26-11.44,3.49c.34,1.87.73,3.78,1.17,5.7.09.4,12.17-2.29,12.26-1.89.06.24-11.86,3.57-11.8,3.81.58,2.37,1.24,4.77,2,7.17.07.23,9.78-1.8,9.85-1.57s-9.46,2.83-9.37,3.11q.78,2.52,1.67,5c.1.3,7-1.6,7.14-1.3s-6.66,2.65-6.58,2.87q.85,2.34,1.78,4.65c.1.25,4.47-1.68,4.57-1.43s-4.15,2.48-4.08,2.63c.65,1.6,1.33,3.17,2,4.73,7-15.72,8.68-32,3.62-44.32,2.41-2.14,6.53-10.85,6.57-11.58.35.24-2.37,10.7-5.53,13.15,3.25,2.26,6.66,4.49,10.22,6.65,3.66-1.62,8.48-14.36,8.93-14.09.19.11-3.53,12.37-7,15.24,3.19,1.88,6.51,3.71,9.94,5.46,2.68-1.66,8.06-11.49,8.35-11.35s-3.78,9-6.77,12.14q4.84,2.4,10,4.57c2.86-1.42,6.13-6.4,6.54-6.23s-1.64,5.76-4,7.29c2.39.95,4.82,1.86,7.31,2.73a5.36,5.36,0,0,0,2.65-2.75c.24.08.1,2.31-.85,3.36,1.45.48,2.92,1,4.4,1.4C251.18,258.87,238.51,245.11,225,238.68Zm-21.79-3.6c-.08-2.05-.34-3.92-.34-3.92a32.66,32.66,0,0,1,1.54,3.74Q203.85,235,203.25,235.08Zm10.19-8a83.85,83.85,0,0,1,1.93,8.32c-.5-.1-1-.18-1.48-.26C213.9,231.54,213.44,227.05,213.44,227.05Zm8.2.11s1.1,7.31,1.13,10.52c-.46-.19-.92-.36-1.38-.53A72,72,0,0,0,221.64,227.16Zm6.54-1.72-.8-.16-.59-4.36S227.45,223,228.18,225.44Zm-3.43-.59-.72-.09.16-2Zm-4.71-.41c-.77,0-1.53-.05-2.28,0l.5-6.87Zm-6.44.24-.84.1-.16-4.34Zm-4.3.79c-.34.08-.68.18-1,.28-.1-3.38-.26-6.83-.26-6.83Zm-9.15,2.87c-.61.6-1.27,1.27-1.76,1.79-.41-.41-.82-.81-1.26-1.19a32.38,32.38,0,0,0,3.2-1.42C200.26,227.81,200.2,228.08,200.15,228.34Zm-14.75-5.21a19.35,19.35,0,0,1,2.65-1.59,14,14,0,0,1-2,1.74Zm4.47,8.15a7.68,7.68,0,0,0,.83-.48c0,1.25,0,2.63,0,3.59a10.76,10.76,0,0,0-1.23-.6C189.58,233,189.73,232.14,189.87,231.28Zm8.54-12s-2.8,2.5-4.46,4.15q-.21-.66-.48-1.29C195.57,221,198.41,219.31,198.41,219.31Zm-8.8-2.94c-.22-.23-.45-.45-.68-.67,1.88-1.18,3.9-2.52,3.9-2.52S191.12,214.83,189.61,216.37Zm-3.39-8.06s-1.67,1.78-3,3.26l-.9-.48C184.05,209.93,186.22,208.31,186.22,208.31ZM184,218.7a51,51,0,0,1-4.73,3.58c-.41,0-.82-.05-1.24-.06C180.5,220.71,183.87,218.65,184,218.7Zm-10.32,6.9c.23,0,.38,5.87.57,8.75-.39.13-.78.28-1.16.43C173.25,232.05,173.5,225.61,173.65,225.6Zm8.71,7.06c.24-1.55.5-3.38.72-4.69l.48.25c0,1.29-.06,3-.09,4.44Zm14.2-1.43c.08,0,.2.46.32,1.08-.23.22-.46.45-.68.68C196.3,232.06,196.41,231.24,196.56,231.23Zm-1.65,5.22a9.06,9.06,0,0,1,.63,1.18l-.14.07-.29-.18C195,236.88,194.91,236.45,194.91,236.45Zm5,4.91c.2-.35.39-.7.56-1l.9-.18c-.16.64-.37,1.36-.62,2.07C200.52,241.93,200.23,241.64,200,241.36Z" style="fill:#263238"></path><path d="M207.84,239.16c.59,3.71-1.36,7.11-4.36,7.59s-5.91-2.14-6.5-5.85,1.35-7.12,4.35-7.6S207.25,235.44,207.84,239.16Z" style="fill:#407BFF"></path><path d="M207.84,239.16c.59,3.71-1.36,7.11-4.36,7.59s-5.91-2.14-6.5-5.85,1.35-7.12,4.35-7.6S207.25,235.44,207.84,239.16Z" style="opacity:0.1"></path><path d="M198.07,240.82c-1.64,3.39-5.18,5.06-7.92,3.74s-3.62-5.14-2-8.53,5.18-5.06,7.91-3.73S199.71,237.44,198.07,240.82Z" style="fill:#407BFF"></path><path d="M198.07,240.82c-1.64,3.39-5.18,5.06-7.92,3.74s-3.62-5.14-2-8.53,5.18-5.06,7.91-3.73S199.71,237.44,198.07,240.82Z" style="fill:#fff;opacity:0.1"></path><path d="M200.86,247.66c-1.64,3.38-5.19,5.06-7.92,3.73s-3.63-5.14-2-8.52,5.18-5.06,7.92-3.74S202.49,244.27,200.86,247.66Z" style="fill:#407BFF"></path><path d="M200.86,247.66c-1.64,3.38-5.19,5.06-7.92,3.73s-3.63-5.14-2-8.52,5.18-5.06,7.92-3.74S202.49,244.27,200.86,247.66Z" style="fill:#fff;opacity:0.2"></path><path d="M74.39,423.54s56.3-22,73.1-19.48,32.23,13.36,39.43,12.53,17.33,4.23,20.28,6.57,12.48.86,16.32,1,25.64,3,25.64,3H63.9S70.53,425,74.39,423.54Z" style="fill:#263238"></path><path d="M74.39,423.54s56.3-22,73.1-19.48,32.23,13.36,39.43,12.53,17.33,4.23,20.28,6.57,12.48.86,16.32,1,25.64,3,25.64,3H63.9S70.53,425,74.39,423.54Z" style="fill:#fff;isolation:isolate;opacity:0.5"></path><ellipse cx="172.67" cy="419.24" rx="15.14" ry="5.9" style="opacity:0.2"></ellipse></g><g id="freepik--Ball--inject-183"><path d="M166.34,417l.1.14h0a14,14,0,0,0,5.81,5.11c.2.09.39.18.6.26a14.13,14.13,0,0,0,4.1,1c.32,0,.65.05,1,.05h1c.25,0,.51,0,.76-.06h0a13.89,13.89,0,0,0,6.13-2.09,14.08,14.08,0,0,0,6.33-9.14,13.58,13.58,0,0,0,.24-4.07,14,14,0,0,0-2.1-6.28l0,0a9.78,9.78,0,0,0-.67-1,13.94,13.94,0,0,0-4-3.63,12.79,12.79,0,0,0-1.21-.64,14.44,14.44,0,0,0-4.3-1.25,13.72,13.72,0,0,0-1.43-.09h-.52a14,14,0,0,0-3.84.59l-.33.11a13.89,13.89,0,0,0-3.13,1.47,9.16,9.16,0,0,0-.88.61l-.22.15h0a13.72,13.72,0,0,0-3.19,3.45l-.11.17a14.13,14.13,0,0,0-.93,13.45v0A13,13,0,0,0,166.34,417Z" style="fill:#407BFF"></path><path d="M166.34,417a14.09,14.09,0,0,0,13.36,6.54h0a2.87,2.87,0,0,0,.15-1.22c-6.26-5.06-6.21-9.91-6.21-9.91l0-.06-.81-.93-.15-.17c-1.54-1.7-4.66-4.75-7.89-5.74A14.12,14.12,0,0,0,166.34,417Z" style="fill:#fff;isolation:isolate;opacity:0.6000000000000001"></path><path d="M186.2,401.62s3.41.78,6.2,6.6a14,14,0,0,0-2.1-6.28A14.18,14.18,0,0,0,180,395.41,17.12,17.12,0,0,1,186.2,401.62Z" style="fill:#fff;isolation:isolate;opacity:0.6000000000000001"></path><path d="M164.74,405.49c4.55,1.4,8.9,6.9,8.9,6.9,8.33-2.76,12.56-10.77,12.56-10.77a17.2,17.2,0,0,0-6.16-6.21,14.16,14.16,0,0,0-15.3,10.08Z" style="fill:#fff;isolation:isolate;opacity:0.2"></path><path d="M179.7,423.52a13.89,13.89,0,0,0,6.13-2.09,14.08,14.08,0,0,0,6.33-9.14c-1.4,2.74-4.82,7.49-12.31,10A2.87,2.87,0,0,1,179.7,423.52Z" style="fill:#fff;isolation:isolate;opacity:0.2"></path><g style="isolation:isolate;opacity:0.2"><path d="M166.38,401.87a17.14,17.14,0,0,1,1.73.82,26.56,26.56,0,0,1,3,2c1,.74,1.88,1.55,2.78,2.38s1.75,1.7,2.58,2.6a25.35,25.35,0,0,0-2.37-2.81,30.67,30.67,0,0,0-2.75-2.47,20.85,20.85,0,0,0-3.12-2,15.91,15.91,0,0,0-1.76-.73Z"></path><path d="M169.69,398.24c.35.2.69.4,1,.62a24,24,0,0,1,3.18,2.41c1,.86,2,1.8,2.93,2.75s1.86,1.94,2.75,2.93a34.71,34.71,0,0,0-2.54-3.13,33.55,33.55,0,0,0-2.88-2.84,22,22,0,0,0-3.29-2.38c-.31-.18-.63-.36-1-.51Z"></path><path d="M173.92,396l.54.4a26.71,26.71,0,0,1,2.77,2.44c.89.85,1.73,1.75,2.57,2.66s1.65,1.85,2.45,2.8a29.38,29.38,0,0,0-2.23-3,36.35,36.35,0,0,0-2.52-2.74,22.87,22.87,0,0,0-2.86-2.42l-.39-.26Z"></path><path d="M178.09,395.31c.69.6,1.36,1.21,2,1.86s1.38,1.48,2,2.24,1.29,1.57,1.91,2.38a22.55,22.55,0,0,0-1.68-2.56,29.59,29.59,0,0,0-2-2.33c-.56-.55-1.14-1.09-1.75-1.58Z"></path><path d="M172.77,418.5a13.89,13.89,0,0,0,2.79,3.37,16.07,16.07,0,0,0,1.72,1.33c.21.13.42.26.64.38h.24a15.49,15.49,0,0,1-2.4-1.93,14.5,14.5,0,0,1-2.65-3.35,15.14,15.14,0,0,1-1.69-3.92,17.43,17.43,0,0,1-.66-4.25,13.4,13.4,0,0,0,.37,4.32A14.3,14.3,0,0,0,172.77,418.5Z"></path><path d="M170.2,419.65l.66,1,.76.9a6.14,6.14,0,0,0,.63.71c.2.09.39.18.6.26a8.5,8.5,0,0,1-1-1.16l-.71-.91-.64-1a9,9,0,0,1-.58-1c-.17-.34-.38-.66-.52-1a17.22,17.22,0,0,1-1.4-4.38,15.83,15.83,0,0,1-.2-4.61,13.26,13.26,0,0,0-.09,4.66,16.2,16.2,0,0,0,1.34,4.5,11.37,11.37,0,0,0,.55,1A9.26,9.26,0,0,0,170.2,419.65Z"></path><path d="M166.34,417l.1.14a2.6,2.6,0,0,1-.1-.25,20.19,20.19,0,0,1-1.16-4.79,17,17,0,0,1,.07-4.93,14.52,14.52,0,0,0-.37,5,19.27,19.27,0,0,0,.57,3.21v0A13,13,0,0,0,166.34,417Z"></path><path d="M185.59,399.36a11.14,11.14,0,0,1,2.58,1.1,15,15,0,0,1,2.1,1.44,9.78,9.78,0,0,0-.67-1,9.8,9.8,0,0,0-1.3-.73A7.85,7.85,0,0,0,185.59,399.36Z"></path><path d="M183,396.53c.85.25,1.69.5,2.52.77a12.79,12.79,0,0,0-1.21-.64A9.69,9.69,0,0,0,183,396.53Z"></path><path d="M187.81,404.14c-.83,1.11-1.7,2.18-2.62,3.21a34.64,34.64,0,0,1-2.88,2.93,18.32,18.32,0,0,1-7,4.26,12.37,12.37,0,0,0,3.88-1.48,21.4,21.4,0,0,0,3.35-2.49,30.23,30.23,0,0,0,2.85-3A26.66,26.66,0,0,0,187.81,404.14Z"></path><path d="M189.61,407a36,36,0,0,1-2.68,3.22,30.26,30.26,0,0,1-3.05,2.84,23,23,0,0,1-3.42,2.38l-.91.52-1,.44c-.61.34-1.29.52-1.94.81a17.4,17.4,0,0,0,3.94-1.5,20.75,20.75,0,0,0,3.52-2.35,26.3,26.3,0,0,0,3-2.94A21.62,21.62,0,0,0,189.61,407Z"></path><path d="M190.88,409.66a24.81,24.81,0,0,1-2.46,3.21,22.51,22.51,0,0,1-2.92,2.77c-.5.44-1.06.81-1.6,1.21s-1.13.73-1.73,1a23.94,23.94,0,0,1-3.69,1.64,17.5,17.5,0,0,0,3.83-1.37,18.36,18.36,0,0,0,3.44-2.22,20.77,20.77,0,0,0,2.9-2.88A17.34,17.34,0,0,0,190.88,409.66Z"></path><path d="M191.55,411.83a25.23,25.23,0,0,1-2.31,3,23.39,23.39,0,0,1-2.74,2.62,18.27,18.27,0,0,1-3.13,2.11l-.84.44-.88.37c-.57.28-1.2.42-1.79.65a14.37,14.37,0,0,0,3.64-1.19,16.78,16.78,0,0,0,3.25-2.08,20,20,0,0,0,2.71-2.73A16.61,16.61,0,0,0,191.55,411.83Z"></path></g></g></svg>
