<svg xmlns="http://www.w3.org/2000/svg" xmlns:xlink="http://www.w3.org/1999/xlink" viewBox="0 0 500 500"><defs><clipPath id="freepik--clip-path--inject-63"><path d="M466,401.34s-5.46-37.26-18.18-64.52-15.45-40-26.35-54.52-37.26-58.16-38.17-65.43c-.63-5.07-5.68-28.68-8.68-42.52L379,178.7l1.82-6.36,2.62,5.79,1.81-5,.15,9.3h0l3.2-4.45-.6,10.16.18.41,3.51-2.85-.35,3.39,5.3-7.25-5,10.21,4.5-5.81-2.83,8.23,2.31-2.49.89,3.87a22,22,0,0,0,4.68,4.84,90.48,90.48,0,0,0,9.7,4.95l-.51-5.92s3,2.4,2.68,1.28-5.1-11.27-5.1-11.27,7.11,9,8.25,10-4.45-9-4.45-9,4.08,5.25,4.71,6.16-2.84-10.59-1.22-12.15c0,0-5.31-11.57-5.85-13s5.08,4.11,5.08,4.11l-6.07-8.8,3.72,2.81-5.66-8.2,4.76,3-7.29-8,10.44,6.69s-2.61-3.13-5-6-9.16-9.36-9.16-9.36-7-5-9-5.88,1.07-3,1.07-3l4.93,4.43,1,.89-4.86-9.63s11.53,10.85,13.19,11.95-4.2-6.07-4.2-6.07,8.42,7.64,9.56,8.64-4.1-6.58-4.1-6.58l11.93,10.14-2.93-4.25s6.85,6,8.6,6.61-2.47-6.82-2.47-6.82l7.81,8.06-5.27-8.92S435.86,158.78,438,160s-5.31-11.58-5.31-11.58,8.87,10.9,12.51,14.22-6.64-11.55-6.64-11.55,6.25,6.44,9.77,8.94-6.2-9.62-6.2-9.62,12,11,12.89,12.17c-.58-.85-7.45-10.78-10.69-15.48-3.56-5.15-12.33-9.41-22.14-15.18s-30.55-9.82-30.55-9.82l3.46-1.49a44.32,44.32,0,0,1,7,2.34c2.68,1.28-5.82-5.84-5.82-5.84a55.33,55.33,0,0,1,6,3.48c1.86,1.4-5.64-6.86-5.64-6.86s7.55,5.09,9.83,7.1-5.42-6.56-5.42-6.56a86.76,86.76,0,0,1,8,5.7c3.21,2.71-3.78-5.46-3.78-5.46S413.34,121,416,121a.75.75,0,0,0,.44-.12,36.36,36.36,0,0,0,3.59,2.71c4,2.59-5.77-9-5.77-9s9,8.55,10.51,10.67l-4.62-6.67s7.9,7.54,10.3,10.36-6-9.31-6-9.31,5,4.65,8.17,8c-1.53-1.9-3.21-4.06-3.51-4.49-.63-.91,7,5,8.18,6s-6.8-9.2-16.4-20.5a38,38,0,0,0-5.25-5.23c.65.14,1.29.27,1.9.38,4.1.75-6.2-3.79-6.2-3.79l2.94-1.58S416,99.1,418,100c2.26,1,4.94,2.2,6.09,2.83,2.17,1.19-5.6-4.2-5.6-4.2a56,56,0,0,1,7.61,1.92c2.47,1-4.38-5-4.38-5a79,79,0,0,1,8.95,3.22c3.91,1.78-5.9-4-5.9-4s3.5,1.17,6.48,2.24-1.46-2.12-1.46-2.12,4.52,1.36,10,3.42-4.89-5.14-4.89-5.14,4.32,1.05,8.33,2.32-2.92-2.92-2.92-2.92,8.47,4.46,10.86,7.29-4.82-7-4.82-7,6.76,3.45,11.3,6.2c-2.85-2.52-6.46-5.79-8.24-7-3.31-2.2-13.48-4.58-20.75-5.38s-16.1,4-29.44,7.34c-.46.11-.94.27-1.41.41l-.15-2-4.2-6.07,4.11.75-3.12-3.22,4.4.54a42.38,42.38,0,0,0-4.75-3c-1.24-.49,6,.31,6,.31l-7.63-3.25s7.24-1.86,8.57-1.88-7.4-1.62-8.52-1.29,5.7-2.14,5.7-2.14-6.25-.62-9.92.57S383.13,76,370.6,90.92a70.23,70.23,0,0,0-6.32,8.64,18.25,18.25,0,0,0-2.39-3.07c-3.12-3.22-6.11-4.3-4.78-4.32s8.52,1.29,8.52,1.29l-6.83-4.7s3.61,2,2.47,1a78.17,78.17,0,0,0-6.93-4.19l5.55,1.55L354,80.46l5.34,1.24-5.92-5.33-1.53-6.11-1.47-2.12-1.73-12.25-1.26-1.82.53,7.26-3-6.91.67,9.4-5.13-6.77,1,6s-2.4-2.83-11.56-6.36a68.49,68.49,0,0,0-18.89-4l4.94,2-4,.17L307.7,55l-.77,2.77,4.32,1.06-5.09,1.72s7.46-.23,5,1.45-8.61,5.05-7,4.82,8.23-3,7.14-1.35S308,71,308,71l5-1.21-1.24,5.34,6.42-7.57s-.42-.61,4.27-1.61,11.17,1.25,11.17,1.25l-9.47,2.51,7.09,1.83-5.07,1.2-1.86.44-3.13,2.61L318,77.06s-1.1,1.66,5.44.73,7.86-1,9.61-.36l1.74.58-3.61,3.85,4.8-.18s-5.88,3.16-3.43,2.81a15,15,0,0,1,5.22.43,81.22,81.22,0,0,0,2.7,8.44s-12.63-9.2-15.1-10.18-11.1-3.09-11.1-3.09l3.94,3.11s-7.14-4.49-9.38-3.84-1.56-1.61-7.86,1-24.8,9.52-24.8,9.52l10.2-2.11L277.25,94s8.45-2.69,7.24-1.86-4.72,5.5-4.72,5.5,5.06-3,4.15-2.42a25.15,25.15,0,0,0-3.1,3.94l6.37-4.4s-11.16,11.74-7.22,9,14-11.49,14-11.49l3.64-2.51c1.22-.84.59-1.75,3.76-1.7s-8.52,10.37-8.52,10.37l10.64-6,6-1s-5.07,3-2.71,3.22,10.4-1.81,10.4-1.81-4.15,2.42-2.43,1.68,6.53-.93,6.53-.93-2.3,1.09-3.84,2c-4.88-.27-10.88-.11-14.09,1.87-6,3.68-9,5.77-10,6.91s5.49-2.44,5.49-2.44l-10.72,7.85s-1.77,3.92.05,2.66l-6.75,6.45,6.09-2.86-1,1.19c-2.91,1.09-6,2.34-9.45,3.79-17,7.24-4,3.24-4,3.24s-12,6-13.49,7.08,3.48-.16,3.48-.16l-7.68,5.75a27,27,0,0,0,5.5-1.11c2.55-.86-4.32,4.77-5.32,5.91s2.75-.55,3.66-1.18-5.77,9.81-5.77,9.81l5.84-5.82-3.62,9.67a28.83,28.83,0,0,1,4.08-6.41c2.71-3.21-.37,2.05-.37,2.05s1.8-2.58,2.8-3.72.67,3.57.67,3.57,1.66-4.74,2.67-5.88,1.7,3.76,1.7,3.76a21.51,21.51,0,0,1,.63-4.92c.59-1.75,2.6,8.95,2.6,8.95s.9-7.78,1.88-10.26,3.14,4.56,3.14,4.56A82.91,82.91,0,0,1,276,137c.47-2.57,1.72,5.08,1.72,5.08l1-5.64,2.25,6.51.66-9.42,2.64,4.45,1.08-8.81,1.11,5.5a45.27,45.27,0,0,0,2.13-6.65c.2,2,1,7.22,1,7.22s2.24-6.48,3.55-7.84.23,7.47.23,7.47L298.19,123s-.93,6.46-2.13,11.57c.77-1.88,1.45-3.47,1.45-3.47l-.22,5.52s6.61-8.6,7.83-9.43-4.58,7.64-4.58,7.64,6.67-4.61,8.1-5.15-3.72,4.36-3.72,4.36,8.22-4.33,6.7-3.28-7.35,6.87-14.15,16.5-4.77,14.5-4.77,14.5l-3.95,2.73c.91-.63-10.74,12.35-10.74,12.35l5.65-4.8-7.61,9.74a33,33,0,0,1,3.73-3c2.13-1.47-3.18,11.61-3.18,11.61s2.5-3.52,3.71-4.35.53,13.08.53,13.08.31-6,1.29-8.51,1.81,4.57,1.81,4.57l-.43-7.77,2.95,5.58-1.15-8.16,3.37,6.18-.57-9.91s3,8.23,3.84,9.45-.65-8.07-.65-8.07l2.68,7.11s-.43-13.59,1.27-15.67,1.7,9.59,1.7,9.59,1.45-10.87,3.06-12.43c1-.93,1.44,1.85,1.67,4.23l-.5-7.73a9.36,9.36,0,0,0,3.55-2c1.31-1.35.38,16.77.38,16.77s2.77-18.05,3.94-21.55.64,8.07.64,8.07,2.18-10.46,3.89-12.54.46,9.1.46,9.1,4.49-13,5.28-14.41-.92,6.46-.92,6.46,3.86-8,4.86-9.19-4,13.06-4,13.06l6.1-14.52,10.08-8.76a138.63,138.63,0,0,1-9.16,15.29c-1.81,2.61-2.63,3.87-3,4.57-.73,1.39.29.6-1.15,3.68a42.42,42.42,0,0,0-3.23,8.95c-.77,2.78-2.83,8.23-4.17,14.09s-1.22,6.67-3.79,12-6.61,14.43-6.61,14.43,7-9.32,8.83-10.58-7.39,11.37-7.39,11.37l1.52-1-.82,5.95,1.68-3.4,1.74,6.41.87,2.49,2.79,8-.2-12,4.21,7.4-.31-12.78,3.86,10.78,1.7-2.08-.28-6.56-.22-5.19,2.19,2.52-1.63-5.6,4.38,5-3.13-10.38,7,6.84-3.79-12.62,6.46,6.75-5.19-10.76,5.4,5.23-5.77-9,6.5,3.58-6.5-9.41,5.57,2.87-4.3-6.88,4.66,3.5-2.28-7.84,9-2.6L336,178.44s3.43-2.82,4.64-3.65-2.54,6.69-2.54,6.69l4.24-2.94-3.76,13.36-3.56,7.84a27.79,27.79,0,0,1,3.93-4.06c1.51-1.05.57,4.08.57,4.08l.3,5.62,1.8-2.58.6,5.41.63,2.82,2.58,11.55-1-6,3.14,4.55-1.86-7.23,3.45,4.34-1-7.35,4.19,6.07L347.25,207l5.13,6.77.24-4.2,2.44-.35-4.84-8.3,6.13,5.62-6-9.31,6.43,5.42-4.82-7,6.71,3.88-6.06-7.47s10.61,4.32,12.24,4.09-9.64-8.12-9.64-8.12l10.11,5.56-11.09-8.92,8.35,3.64-8.6-6.6,8.13,3.34L353,177l8,2.52s-6.53-4.9-8-5.7,4.94,2,4.94,2l-3.77-5.46,7,3.67-2.16-7,4.4,6.37-1.13-6.83,2.23,5.18s8.77,35.14,11.49,47.87,15.45,30,21.81,46.34,20.9,40.89,24.54,55.43,16.7,85.73,16.7,85.73,5.11,1.51,7.83,2.42,12.73-.91,16.36-2.73A4.87,4.87,0,0,0,466,401.34ZM302.08,112.21l-.5.14,1.22-1.48S302.48,111.45,302.08,112.21Zm5.47-1.31-1.18.27,2.94-2.56S308.45,109.69,307.55,110.9Zm4-.78-.64.1-.43.09c1.65-1.48,3-2.79,3-2.79S312.56,108.72,311.51,110.12Zm5.76-.52c-.57,0-1.13,0-1.69.06l1.71-1.18ZM390.88,93l3.84,2.41c-1.48.54-3,1.16-4.49,1.84l-3.87-5.61Zm-19.27,9.73c-1.44-.79,4.81-.18,4.81-.18L374.85,101l2.64-1.38,1.29,0,2.19-.11-1.38-2.63s3.5,1.17,4.64,2.17-3.54-3.83-3.54-3.83,2.24-.65,1.61-1.56c-.34-.5,2.22.89,4.62,2.24,1.1.62,2.15,1.23,2.88,1.66a137,137,0,0,0-15.92,8.79l-2.64-1.46,3.77-.37S373.06,103.57,371.61,102.77Z" style="fill:#263238"></path></clipPath><clipPath id="freepik--clip-path-2--inject-63"><path d="M256,157.67a33.28,33.28,0,0,1,4.68,7.33l-4.15-11.06,6.67,6.66s-7.63-11.94-6.59-11.22,5.33,2.66,4.18,1.36-9-7.75-6.08-6.77a31.25,31.25,0,0,0,6.29,1.27l-8.78-6.57s5.71,1.38,4,.18-15.42-8.09-15.42-8.09,14.77,4.57-4.62-3.7c-3.89-1.67-7.48-3.09-10.8-4.34l-1.15-1.36,7,3.28-7.71-7.38c2.08,1.44,0-3,0-3l-12.24-9s7.41,4.1,6.26,2.8-4.61-3.7-11.44-7.91C202.39,97.87,195.53,97.69,190,98c-1.76-1.06-4.4-2.3-4.4-2.3s5.49.21,7.47,1.06-2.78-1.92-2.78-1.92,9.2,2.26,11.9,2.07-3.1-3.68-3.1-3.68l6.88,1.17,12.16,6.87s-13.37-11.8-9.74-11.86,2.91,1,4.29,1.94l4.17,2.88s11.52,10,16,13.13-8.24-10.31-8.24-10.31l7.28,5s-2.51-3.78-3.55-4.5,4.75,2.76,4.75,2.76-4-5.32-5.39-6.28,8.26,2.12,8.26,2.12L225.54,89l11.65,2.42s-21.15-8-28.35-10.88-6.43-.34-9-1.08-10.71,4.38-10.71,4.38l4.5-3.55s-9.86,2.41-12.69,3.53-17.26,11.64-17.26,11.64a93.68,93.68,0,0,0,3.08-9.65,16.93,16.93,0,0,1,6-.49c2.8.4-3.92-3.22-3.92-3.22l5.49.21-4.14-4.4,2-.67c2-.67,3.52-.64,11,.42s6.21-.83,6.21-.83l-3.6-1.47-3.58-3-2.12-.5-5.8-1.38,8.11-2.09-10.83-2.87S179,63,184.32,64.1s4.88,1.84,4.88,1.84l7.34,8.66-1.42-6.11,5.71,1.38s-2.62-4.37-3.87-6.26,6.29,1.28,8.16,1.54-5.21-3.59-8-5.51S202.9,58,202.9,58l-5.82-2,4.93-1.2-.88-3.17-4.87-.21-4.59-.18L197.32,49a78.6,78.6,0,0,0-21.6,4.55c-10.47,4-13.21,7.27-13.21,7.27l1.16-6.88-5.86,7.74.77-10.75-3.41,7.9.61-8.3-1.44,2.08-2,14L150.68,69l-1.76,7-6.76,6.08,6.1-1.41-6.79,7.6,6.34-1.76s-6.61,3.63-7.91,4.78,2.82-1.13,2.82-1.13l-7.8,5.37s8.21-1.5,9.73-1.48-1.89,1.26-5.46,4.94a20.84,20.84,0,0,0-2.74,3.51,80.78,80.78,0,0,0-7.21-9.87C114.9,75.58,113.17,74.38,109,73s-11.33-.66-11.33-.66,7.79,2.82,6.51,2.45-11.25,1.45-9.74,1.48,9.79,2.15,9.79,2.15L95.5,82.16s8.31-.91,6.9-.35A48.26,48.26,0,0,0,97,85.22l5-.61-3.57,3.68,4.69-.86-4.79,6.94-.18,2.31c-.54-.16-1.08-.34-1.61-.47C81.3,92.33,71.21,86.9,62.89,87.82S43,91.46,39.17,94c-2,1.35-6.16,5.09-9.42,8,5.19-3.14,12.91-7.09,12.91-7.09s-8.25,11.21-5.51,8S49.57,94.5,49.57,94.5s-7.92,4.78-3.33,3.33,9.52-2.65,9.52-2.65-11.83,8.23-5.6,5.87,11.41-3.9,11.41-3.9-5.09,3.66-1.68,2.43S67.3,97,67.3,97s-11.22,6.6-6.74,4.57A89.56,89.56,0,0,1,70.8,97.89s-7.84,6.88-5,5.76a63.26,63.26,0,0,1,8.69-2.19s-8.87,6.16-6.4,4.8c1.32-.72,4.38-2.1,7-3.24,2.3-1,4.23-1.83,4.23-1.83L82.64,103s-11.78,5.18-7.09,4.32c.7-.13,1.43-.27,2.17-.43a43.76,43.76,0,0,0-6,6c-11,12.92-20.06,24.58-18.75,23.43s10.07-7.9,9.35-6.86c-.34.49-2.27,2.95-4,5.13,3.64-3.82,9.34-9.14,9.34-9.14s-9.59,13.88-6.84,10.65,11.77-11.85,11.77-11.85l-5.27,7.63c1.68-2.43,12-12.2,12-12.2s-11.21,13.27-6.6,10.3a40.91,40.91,0,0,0,4.1-3.1.86.86,0,0,0,.51.14c3,0,12.28-7.4,12.28-7.4s-8,9.34-4.31,6.24a100.19,100.19,0,0,1,9.11-6.51s-8.81,9.79-6.2,7.5,11.24-8.12,11.24-8.12-8.57,9.45-6.44,7.85a61,61,0,0,1,6.85-4s-9.73,8.14-6.66,6.67a51.32,51.32,0,0,1,8-2.68l4,1.71s-23.7,4.63-34.92,11.23S49,151,44.91,156.86L32.69,174.55c1-1.38,14.73-13.9,14.73-13.9s-11.1,13.85-7.08,11S51.5,161.42,51.5,161.42s-11.74,17-7.59,13.2,14.31-16.25,14.31-16.25S49.67,173,52.15,171.6s14.38-14.14,14.38-14.14l-6,10.19,8.92-9.21s-4.82,8.46-2.82,7.79,9.83-7.56,9.83-7.56l-3.35,4.86,13.64-11.59s-6,8.68-4.69,7.53S93,149.59,93,149.59s-6.69,8.19-4.8,6.94,15.08-13.67,15.08-13.67l-5.56,11,1.13-1,5.64-5.07s3.46,2.4,1.23,3.42-10.29,6.73-10.29,6.73-7.72,7.47-10.47,10.7-5.72,6.8-5.72,6.8l11.93-7.64-8.33,9.1,5.43-3.41-6.47,9.36,4.27-3.2-7,10.06s6.42-6.33,5.8-4.7-6.67,14.86-6.67,14.86c1.84,1.78-2.12,14.93-1.4,13.89s5.38-7,5.38-7S75.82,218.19,77.12,217s9.43-11.42,9.43-11.42-5.45,11.6-5.83,12.88S83.79,217,83.79,217l-.58,6.77s8.13-3.6,11.09-5.66a25.52,25.52,0,0,0,5.35-5.52l1-4.43L103.3,211l-3.23-9.41,5.15,6.63-5.77-11.67,6.06,8.29L105.1,201l4,3.26.21-.47-.69-11.62,3.66,5.09h0l.18-10.64,2.06,5.72,3-6.61,2.08,7.27,4.76-4.76c-2.15,7.56-4.53,15.86-6.57,22.77-5.2,17.68-11.56,47.37-17.92,63.64S91.22,309.31,87.75,322s-15.6,47.38-16.18,51.62-8.67,31.82-8.67,31.82,4.62,4.95,7.51,6.37,10.41,2.83,13.88,2.12a85.75,85.75,0,0,0,10.4-3.54l2.31-.7s-2-32.53,2.67-48.09,5.46-36.77,7.77-46,11.83-65.05,14.15-77.78,3.3-24.12,7.78-36.77c1.71-4.83,3.37-9.78,4.88-14.5l1.87-1.58,2.56-5.92-1.3,7.81,5-7.28-2.47,8,8-4.19-4.31,6.24s7.3-3.15,5.65-2.24-9.12,6.51-9.12,6.51l9.17-2.89-10.44,9.19,9.3-3.82L138.38,204l9.54-4.17-12.68,10.2,11.57-6.36s-12.9,9-11,9.29,14-4.68,14-4.68l-6.92,8.54,7.67-4.43-5.51,8,7.35-6.19-6.84,10.65,7-6.44L147,227.9l2.8.4.27,4.8,5.86-7.74-5.8,11.36,4.79-6.93-1.19,8.4,3.94-5-2.12,8.27,3.59-5.2L158,243.17l2.95-13.2.72-3.23.68-6.19,2.06,3,.34-6.42s-1.07-5.87.66-4.67a31.66,31.66,0,0,1,4.49,4.63l-4.07-9-4.3-15.27,4.85,3.35s-4.3-8.61-2.91-7.65,5.31,4.18,5.31,4.18l-5.47-8.39,10.24,3-2.61,9,5.33-4-4.92,7.87,6.37-3.28-7.43,10.75,7.43-4.09-6.6,10.3,6.18-6-5.93,12.3,7.37-7.71-4.33,14.43,8-7.82-3.59,11.86,5-5.76-1.87,6.4,2.51-2.88-.25,5.93-.33,7.51,2,2.37,4.42-12.32-.36,14.61,4.82-8.46L194.42,252l3.18-9.14,1-2.84,2-7.33,1.92,3.89-.94-6.8,1.73,1.2s-10.51-14.44-8.43-13S205,230,205,230s-4.63-10.37-7.56-16.5-2.81-7.06-4.34-13.75-3.88-12.93-4.76-16.1a48.41,48.41,0,0,0-3.69-10.23c-1.65-3.52-.48-2.62-1.32-4.21-.43-.8-1.36-2.25-3.43-5.23a158.76,158.76,0,0,1-10.47-17.48l11.53,10,7,16.6s-5.69-16.23-4.55-14.93,5.56,10.5,5.56,10.5-2-9-1.05-7.38,6,16.47,6,16.47-1.42-12.77.53-10.4,4.44,14.34,4.44,14.34-.6-13.22.74-9.22,4.5,24.63,4.5,24.63-1.06-20.72.43-19.17a10.8,10.8,0,0,0,4.06,2.29L208,189.1c.26-2.72.8-5.9,1.9-4.83,1.85,1.79,3.51,14.21,3.51,14.21s0-13.33,1.94-11,1.45,17.92,1.45,17.92l3.06-8.14s-1.69,10.62-.73,9.23,4.38-10.8,4.38-10.8l-.65,11.33,3.86-7.07-1.33,9.33,3.38-6.37-.49,8.88s.95-8.06,2.07-5.23,1.48,9.73,1.48,9.73-.79-15.92.59-15,4.25,5,4.25,5-6.07-14.95-3.64-13.27a36.42,36.42,0,0,1,4.27,3.46l-8.7-11.14,6.45,5.49s-13.31-14.84-12.27-14.12l-4.51-3.12s2.31-5.57-5.46-16.57-14.44-17.67-16.17-18.87,7.65,3.76,7.65,3.76-5.87-5.6-4.24-5,9.26,5.89,9.26,5.89-6.63-9.7-5.24-8.74S213,144.92,213,144.92l-.24-6.32s.77,1.82,1.65,4c-1.36-5.84-2.43-13.22-2.43-13.22l5.5,13.54s-1.24-10.08.26-8.54,4.06,9,4.06,9,.85-6,1.08-8.25a52.47,52.47,0,0,0,2.44,7.61l1.27-6.3,1.24,10.08,3-5.1.75,10.77,2.58-7.44,1.18,6.45s1.43-8.74,2-5.81A93.89,93.89,0,0,1,238,155.5s2.47-8,3.59-5.2S243.74,162,243.74,162s2.31-12.24,3-10.24a24.5,24.5,0,0,1,.73,5.63s.79-5.6,1.94-4.3,3.05,6.72,3.05,6.72-.38-5.39.77-4.08,3.2,4.26,3.2,4.26S252.88,154,256,157.67ZM101.66,97.84,106,95.08l5.17-1.55-4.43,6.41C105.07,99.17,103.35,98.46,101.66,97.84Zm5.63,2.33c.83-.49,2-1.19,3.29-1.9,2.73-1.55,5.67-3.13,5.27-2.56-.72,1,1.85,1.79,1.85,1.79s-5.36,5.52-4,4.37,5.3-2.48,5.3-2.48l-1.57,3,2.5.12,1.47.07,3,1.57L122.58,106s7.15-.7,5.5.2-3.9,1.93-3.9,1.93l4.32.42-3,1.66A157.81,157.81,0,0,0,107.29,100.17ZM190.2,114l0-1.29,1.95,1.35C191.49,114,190.84,114,190.2,114Zm7.31.7-.73-.11c-1.2-1.6-2.26-3-2.26-3s1.6,1.5,3.49,3.19Zm3.8.78c-1-1.39-2-2.62-2-2.62s1.51,1.33,3.35,2.92Zm6.25,1.5-.82-1.54s.54.67,1.4,1.7Z" style="fill:#263238"></path></clipPath></defs><g id="freepik--background-simple--inject-63"><path d="M363,92S301.53,53.24,229.31,77.24,109.76,170.13,70,224.9,34.45,345.28,78.54,384.52s85.76,5,155.62,18.34,86.58,27.66,151.94.18,94-120.19,62-200.55S363,92,363,92Z" style="fill:#407BFF"></path><path d="M363,92S301.53,53.24,229.31,77.24,109.76,170.13,70,224.9,34.45,345.28,78.54,384.52s85.76,5,155.62,18.34,86.58,27.66,151.94.18,94-120.19,62-200.55S363,92,363,92Z" style="fill:#fff;opacity:0.7000000000000001"></path><path d="M208,189.1c-.17,1.82-.22,3.44-.22,3.44Z" style="fill:#263238"></path><path d="M25.18,105.32c-.39.91,1.77-.92,4.57-3.38C27.33,103.4,25.45,104.69,25.18,105.32Z" style="fill:#263238"></path></g><g id="freepik--Landscape--inject-63"><path d="M55.86,279.79s-8.35-3.34,0-18.35,30.87-5,30.87-5,.83-11.68,7.51-20,20.86-5,20.86-5-1.67-5.84,6.67-6.67,13.35,11.68,13.35,11.68,6.67-5,15-3.34,9.17,20.86,9.17,20.86,3.52-44.19,32.54-55.07,46.72,15.85,46.72,15.85,5.84-5.84,14.19-5,11.68,11.68,11.68,11.68,5.84-5,13.35,1.67a23,23,0,0,1,7.51,15.85s6.67-20,22.52-23.36,28.37,15.85,28.37,22.52c0,0,21.69-11.68,38.38,16.69,0,0,11.68-9.18,21.69-5.84s7.51,21.69,7.51,21.69,7.51-5.84,11.68-1.67a28,28,0,0,1,5.84,8.35s18.36-10,31.71-6.68,16.68,10,16.68,10Z" style="fill:#fff"></path><path d="M52.15,273.08c0-2.73.85-6.5,3.71-11.64,8.34-15,30.87-5,30.87-5s.83-11.68,7.51-20,20.86-5,20.86-5-1.67-5.84,6.67-6.67,13.35,11.68,13.35,11.68,6.67-5,15-3.34,9.17,20.86,9.17,20.86,3.52-44.19,32.54-55.07,46.72,15.85,46.72,15.85,5.84-5.84,14.19-5,11.68,11.68,11.68,11.68,5.84-5,13.35,1.67a23,23,0,0,1,7.51,15.85s6.67-20,22.52-23.36,28.37,15.85,28.37,22.52c0,0,21.69-11.68,38.38,16.69,0,0,11.68-9.18,21.69-5.84s7.51,21.69,7.51,21.69,7.51-5.84,11.68-1.67a28,28,0,0,1,5.84,8.35s18.36-10,31.71-6.68,16.68,10,16.68,10" style="fill:none;stroke:#7d7d7d;stroke-linecap:round;stroke-linejoin:round"></path><path d="M185.88,280.05c-.19-2.09-1.56-13.68-9.15-14.78a26.44,26.44,0,0,0-15,2.42s-5-9.06-13.35-8.46-6.67,4.83-6.67,4.83-14.18-2.41-20.86,3.63a24.4,24.4,0,0,0-7.07,12.22Z" style="fill:#e5e5e5"></path><path d="M186,280.05l214.79.44c-16.63-19.89-38-11.59-38-11.59,0-4.84-12.51-18.74-28.36-16.32s-22.53,16.92-22.53,16.92,0-6.64-7.51-11.48S291,256.81,291,256.81s-3.33-7.85-11.68-8.46A23.19,23.19,0,0,0,265.17,252s-17.7-19.37-46.72-11.48C191.12,247.92,186.41,276.71,186,280.05Z" style="fill:#e5e5e5"></path><path d="M428.47,280.54a9.15,9.15,0,0,0-5.61-3.79l-.38-.07c-.76.37-1.19.61-1.19.61s-.13-.34-.41-.9c-7.79-1-16.05,2.72-18.77,4.1Z" style="fill:#e5e5e5"></path><path d="M96.34,279.87h3.81C98.9,279.82,97.62,279.81,96.34,279.87Z" style="fill:#e5e5e5"></path><line x1="59.17" y1="280.57" x2="472.69" y2="280.57" style="fill:#fff;stroke:#7d7d7d;stroke-linecap:round;stroke-linejoin:round"></line><path d="M33.58,317.43s43.94.44,62.86.88,38.38-2.19,32.82,2.18-18.36,5.68,30,9.17,82,.81,88.38,3.58c15.33,6.67,28.44,1.66,74.05-2.27s99.57-12.66,93.45-6.11,38.38,8.29,53.4,4.8,13.35-8.3,13.35-8.3" style="fill:none;stroke:#7d7d7d;stroke-linecap:round;stroke-linejoin:round"></path><path d="M49.67,313.12H89c20.67,0,65.33-2.14,59.33,1.07s-14,5.86-4.66,6.4,35.33,4.27,46.66,4.27,12.67-4.27,1.34-4.27S185,316.32,203,316.32s65.33,2.13,51.33,5.87,21.34,5.33,40,5.33,44.67-1.6,54-4.8-14-3.2-16.66-3.73,6.66-6.94,25.33-5.87,34,3.73,52.67,1.6,17.33,3.2,14.66,5.33,25.34,10.14,45.34,5.34" style="fill:none;stroke:#7d7d7d;stroke-linecap:round;stroke-linejoin:round"></path><line x1="131.67" y1="286.44" x2="218.33" y2="286.44" style="fill:none;stroke:#7d7d7d;stroke-linecap:round;stroke-linejoin:round"></line><line x1="220.33" y1="294.44" x2="251.08" y2="294.44" style="fill:none;stroke:#7d7d7d;stroke-linecap:round;stroke-linejoin:round"></line><line x1="168.33" y1="298.71" x2="153.67" y2="298.71" style="fill:none;stroke:#7d7d7d;stroke-linecap:round;stroke-linejoin:round"></line><line x1="357" y1="288.58" x2="371.67" y2="288.58" style="fill:none;stroke:#7d7d7d;stroke-linecap:round;stroke-linejoin:round"></line><line x1="287" y1="285.37" x2="249" y2="285.37" style="fill:none;stroke:#7d7d7d;stroke-linecap:round;stroke-linejoin:round"></line><line x1="389" y1="296.05" x2="347.67" y2="296.05" style="fill:none;stroke:#7d7d7d;stroke-linecap:round;stroke-linejoin:round"></line><line x1="396.33" y1="288.04" x2="413.67" y2="288.04" style="fill:none;stroke:#7d7d7d;stroke-linecap:round;stroke-linejoin:round"></line><line x1="284.33" y1="293.38" x2="269" y2="293.38" style="fill:none;stroke:#7d7d7d;stroke-linecap:round;stroke-linejoin:round"></line><line x1="319.62" y1="286.23" x2="304.29" y2="286.23" style="fill:none;stroke:#7d7d7d;stroke-linecap:round;stroke-linejoin:round"></line><line x1="311.58" y1="290.25" x2="296.25" y2="290.25" style="fill:none;stroke:#7d7d7d;stroke-linecap:round;stroke-linejoin:round"></line><line x1="346.88" y1="291.14" x2="331.54" y2="291.14" style="fill:none;stroke:#7d7d7d;stroke-linecap:round;stroke-linejoin:round"></line><line x1="189.63" y1="291.59" x2="174.29" y2="291.59" style="fill:none;stroke:#7d7d7d;stroke-linecap:round;stroke-linejoin:round"></line><line x1="90.45" y1="289.36" x2="75.12" y2="289.36" style="fill:none;stroke:#7d7d7d;stroke-linecap:round;stroke-linejoin:round"></line><line x1="128.87" y1="291.59" x2="113.54" y2="291.59" style="fill:none;stroke:#7d7d7d;stroke-linecap:round;stroke-linejoin:round"></line><line x1="453.64" y1="287.57" x2="438.31" y2="287.57" style="fill:none;stroke:#7d7d7d;stroke-linecap:round;stroke-linejoin:round"></line><line x1="447.39" y1="292.04" x2="432.06" y2="292.04" style="fill:none;stroke:#7d7d7d;stroke-linecap:round;stroke-linejoin:round"></line><line x1="392.44" y1="284.44" x2="377.11" y2="284.44" style="fill:none;stroke:#7d7d7d;stroke-linecap:round;stroke-linejoin:round"></line></g><g id="freepik--Palms--inject-63"><path d="M473.12,399.85c-4.46-.55-18.4-1.11-20.63-.55s-13.94,4.46-13.94,4.46-1.68,0-11.71,1.67-21.2,1.12-26.21,1.12H387.8c-5,0-12.83.55-12.83.55s17.85,3.35,25.1,3.35,17.84,1.11,22.86.56l10-1.12s-20.58,7.05-33.46,6.69c-5.63-.15-9.64-.28-12.93-.33l.05,0c2.73-1.73-10.27-1.12-17.88-1.29l-13.87-.31s19.77-3.14,28.72-2.94,23.25,1.41,24.59,1.44-18.72-3.55-35.32-2.13c0,0-23.79,2.6-47.4-2.85s-48,2.52-72.57,2-34.94.56-50.09-2.91-22.35-1.39-34.92.12c-8.8,1.06-17.83,2.77-22.92,3.69h-8.68s-.18.15-.44.4l8.09-.22a25.77,25.77,0,0,1-3,.45c-.58,0-2.71,0-5.37.06l.29-.29-11.49.31-14.84-6.85s-20.64,1.12-37.93-.56-21.19-2.78-27.32-1.67-21.75,5-21.75,5,12.27-1.11,19-1.11,28.93,5.29,28.93,5.29-17.22,2-25.58,3.07-21.2,4.46-21.2,4.46,28.45,1.12,34,1.12,8.93,3.34,17.29,3.34,20.63,1.68,27.33,1.12,25.65,1.11,28.44,1.11-18.4-4.46-20.08-5,8.37-.55,11.71-.55,17.85,2.79,23.43,1.67,24-1.67,27.32-2.23-2.23-.56-11.15-.56c-7.29,0-18.1-3.1-23.88-4,14.28,1.19,20.3,2.31,35-.29,15.73-2.79,23.31-1.28,39.35,2.22S254,419.54,254,419.54s-17.54,3.63-33.23,4.18-36.33,2.77-36.33,2.77,32.63,2.52,51.87,3.4,30,.67,40.33-1.79,31-5.13,39.53-5.84c6.77-.56,29.37-1.89,42.64-2.32-2,.52-3.44.94-3.94,1.1-1.68.56,14.5,0,19.51,0H433c1.67,0-21.75,10-30.11,11.16s-23.43,1.11-27.89,3.34l-6.69,3.35s34.58-2.79,44.61-2.23,26.22,2.23,29.56,0,7.81-6.69,10.6-9.48-.56-3.9,5-6.14,10-5.57,9.48-2.23-6.14,14.5-6.14,14.5,10.6-4.46,13.39-10.59,3.9-8.37,4.46-12.83S477.59,400.41,473.12,399.85ZM134,415l1.05.08A2.26,2.26,0,0,1,134,415Z" style="fill:#407BFF"></path><path d="M473.12,399.85c-4.46-.55-18.4-1.11-20.63-.55s-13.94,4.46-13.94,4.46-1.68,0-11.71,1.67-21.2,1.12-26.21,1.12H387.8c-5,0-12.83.55-12.83.55s17.85,3.35,25.1,3.35,17.84,1.11,22.86.56l10-1.12s-20.58,7.05-33.46,6.69c-5.63-.15-9.64-.28-12.93-.33l.05,0c2.73-1.73-10.27-1.12-17.88-1.29l-13.87-.31s19.77-3.14,28.72-2.94,23.25,1.41,24.59,1.44-18.72-3.55-35.32-2.13c0,0-23.79,2.6-47.4-2.85s-48,2.52-72.57,2-34.94.56-50.09-2.91-22.35-1.39-34.92.12c-8.8,1.06-17.83,2.77-22.92,3.69h-8.68s-.18.15-.44.4l8.09-.22a25.77,25.77,0,0,1-3,.45c-.58,0-2.71,0-5.37.06l.29-.29-11.49.31-14.84-6.85s-20.64,1.12-37.93-.56-21.19-2.78-27.32-1.67-21.75,5-21.75,5,12.27-1.11,19-1.11,28.93,5.29,28.93,5.29-17.22,2-25.58,3.07-21.2,4.46-21.2,4.46,28.45,1.12,34,1.12,8.93,3.34,17.29,3.34,20.63,1.68,27.33,1.12,25.65,1.11,28.44,1.11-18.4-4.46-20.08-5,8.37-.55,11.71-.55,17.85,2.79,23.43,1.67,24-1.67,27.32-2.23-2.23-.56-11.15-.56c-7.29,0-18.1-3.1-23.88-4,14.28,1.19,20.3,2.31,35-.29,15.73-2.79,23.31-1.28,39.35,2.22S254,419.54,254,419.54s-17.54,3.63-33.23,4.18-36.33,2.77-36.33,2.77,32.63,2.52,51.87,3.4,30,.67,40.33-1.79,31-5.13,39.53-5.84c6.77-.56,29.37-1.89,42.64-2.32-2,.52-3.44.94-3.94,1.1-1.68.56,14.5,0,19.51,0H433c1.67,0-21.75,10-30.11,11.16s-23.43,1.11-27.89,3.34l-6.69,3.35s34.58-2.79,44.61-2.23,26.22,2.23,29.56,0,7.81-6.69,10.6-9.48-.56-3.9,5-6.14,10-5.57,9.48-2.23-6.14,14.5-6.14,14.5,10.6-4.46,13.39-10.59,3.9-8.37,4.46-12.83S477.59,400.41,473.12,399.85ZM134,415l1.05.08A2.26,2.26,0,0,1,134,415Z" style="fill:#fff;opacity:0.5"></path><path d="M31.14,400s42-4.67,72.37,0,69.26,1.55,92.6,1.55,69.26,4.67,82.48,4.67,38.13-4.67,51.36-4.67,40.47,3.89,60.7.78,35.79-1.56,45.13-4.67,31.13-5.45,42.8-3.11" style="fill:none;stroke:#263238;stroke-linecap:round;stroke-linejoin:round"></path><path d="M466,401.34s-5.46-37.26-18.18-64.52-15.45-40-26.35-54.52-37.26-58.16-38.17-65.43c-.63-5.07-5.68-28.68-8.68-42.52L379,178.7l1.82-6.36,2.62,5.79,1.81-5,.15,9.3h0l3.2-4.45-.6,10.16.18.41,3.51-2.85-.35,3.39,5.3-7.25-5,10.21,4.5-5.81-2.83,8.23,2.31-2.49.89,3.87a22,22,0,0,0,4.68,4.84,90.48,90.48,0,0,0,9.7,4.95l-.51-5.92s3,2.4,2.68,1.28-5.1-11.27-5.1-11.27,7.11,9,8.25,10-4.45-9-4.45-9,4.08,5.25,4.71,6.16-2.84-10.59-1.22-12.15c0,0-5.31-11.57-5.85-13s5.08,4.11,5.08,4.11l-6.07-8.8,3.72,2.81-5.66-8.2,4.76,3-7.29-8,10.44,6.69s-2.61-3.13-5-6-9.16-9.36-9.16-9.36-7-5-9-5.88,1.07-3,1.07-3l4.93,4.43,1,.89-4.86-9.63s11.53,10.85,13.19,11.95-4.2-6.07-4.2-6.07,8.42,7.64,9.56,8.64-4.1-6.58-4.1-6.58l11.93,10.14-2.93-4.25s6.85,6,8.6,6.61-2.47-6.82-2.47-6.82l7.81,8.06-5.27-8.92S435.86,158.78,438,160s-5.31-11.58-5.31-11.58,8.87,10.9,12.51,14.22-6.64-11.55-6.64-11.55,6.25,6.44,9.77,8.94-6.2-9.62-6.2-9.62,12,11,12.89,12.17c-.58-.85-7.45-10.78-10.69-15.48-3.56-5.15-12.33-9.41-22.14-15.18s-30.55-9.82-30.55-9.82l3.46-1.49a44.32,44.32,0,0,1,7,2.34c2.68,1.28-5.82-5.84-5.82-5.84a55.33,55.33,0,0,1,6,3.48c1.86,1.4-5.64-6.86-5.64-6.86s7.55,5.09,9.83,7.1-5.42-6.56-5.42-6.56a86.76,86.76,0,0,1,8,5.7c3.21,2.71-3.78-5.46-3.78-5.46S413.34,121,416,121a.75.75,0,0,0,.44-.12,36.36,36.36,0,0,0,3.59,2.71c4,2.59-5.77-9-5.77-9s9,8.55,10.51,10.67l-4.62-6.67s7.9,7.54,10.3,10.36-6-9.31-6-9.31,5,4.65,8.17,8c-1.53-1.9-3.21-4.06-3.51-4.49-.63-.91,7,5,8.18,6s-6.8-9.2-16.4-20.5a38,38,0,0,0-5.25-5.23c.65.14,1.29.27,1.9.38,4.1.75-6.2-3.79-6.2-3.79l2.94-1.58S416,99.1,418,100c2.26,1,4.94,2.2,6.09,2.83,2.17,1.19-5.6-4.2-5.6-4.2a56,56,0,0,1,7.61,1.92c2.47,1-4.38-5-4.38-5a79,79,0,0,1,8.95,3.22c3.91,1.78-5.9-4-5.9-4s3.5,1.17,6.48,2.24-1.46-2.12-1.46-2.12,4.52,1.36,10,3.42-4.89-5.14-4.89-5.14,4.32,1.05,8.33,2.32-2.92-2.92-2.92-2.92,8.47,4.46,10.86,7.29-4.82-7-4.82-7,6.76,3.45,11.3,6.2c-2.85-2.52-6.46-5.79-8.24-7-3.31-2.2-13.48-4.58-20.75-5.38s-16.1,4-29.44,7.34c-.46.11-.94.27-1.41.41l-.15-2-4.2-6.07,4.11.75-3.12-3.22,4.4.54a42.38,42.38,0,0,0-4.75-3c-1.24-.49,6,.31,6,.31l-7.63-3.25s7.24-1.86,8.57-1.88-7.4-1.62-8.52-1.29,5.7-2.14,5.7-2.14-6.25-.62-9.92.57S383.13,76,370.6,90.92a70.23,70.23,0,0,0-6.32,8.64,18.25,18.25,0,0,0-2.39-3.07c-3.12-3.22-6.11-4.3-4.78-4.32s8.52,1.29,8.52,1.29l-6.83-4.7s3.61,2,2.47,1a78.17,78.17,0,0,0-6.93-4.19l5.55,1.55L354,80.46l5.34,1.24-5.92-5.33-1.53-6.11-1.47-2.12-1.73-12.25-1.26-1.82.53,7.26-3-6.91.67,9.4-5.13-6.77,1,6s-2.4-2.83-11.56-6.36a68.49,68.49,0,0,0-18.89-4l4.94,2-4,.17L307.7,55l-.77,2.77,4.32,1.06-5.09,1.72s7.46-.23,5,1.45-8.61,5.05-7,4.82,8.23-3,7.14-1.35S308,71,308,71l5-1.21-1.24,5.34,6.42-7.57s-.42-.61,4.27-1.61,11.17,1.25,11.17,1.25l-9.47,2.51,7.09,1.83-5.07,1.2-1.86.44-3.13,2.61L318,77.06s-1.1,1.66,5.44.73,7.86-1,9.61-.36l1.74.58-3.61,3.85,4.8-.18s-5.88,3.16-3.43,2.81a15,15,0,0,1,5.22.43,81.22,81.22,0,0,0,2.7,8.44s-12.63-9.2-15.1-10.18-11.1-3.09-11.1-3.09l3.94,3.11s-7.14-4.49-9.38-3.84-1.56-1.61-7.86,1-24.8,9.52-24.8,9.52l10.2-2.11L277.25,94s8.45-2.69,7.24-1.86-4.72,5.5-4.72,5.5,5.06-3,4.15-2.42a25.15,25.15,0,0,0-3.1,3.94l6.37-4.4s-11.16,11.74-7.22,9,14-11.49,14-11.49l3.64-2.51c1.22-.84.59-1.75,3.76-1.7s-8.52,10.37-8.52,10.37l10.64-6,6-1s-5.07,3-2.71,3.22,10.4-1.81,10.4-1.81-4.15,2.42-2.43,1.68,6.53-.93,6.53-.93-2.3,1.09-3.84,2c-4.88-.27-10.88-.11-14.09,1.87-6,3.68-9,5.77-10,6.91s5.49-2.44,5.49-2.44l-10.72,7.85s-1.77,3.92.05,2.66l-6.75,6.45,6.09-2.86-1,1.19c-2.91,1.09-6,2.34-9.45,3.79-17,7.24-4,3.24-4,3.24s-12,6-13.49,7.08,3.48-.16,3.48-.16l-7.68,5.75a27,27,0,0,0,5.5-1.11c2.55-.86-4.32,4.77-5.32,5.91s2.75-.55,3.66-1.18-5.77,9.81-5.77,9.81l5.84-5.82-3.62,9.67a28.83,28.83,0,0,1,4.08-6.41c2.71-3.21-.37,2.05-.37,2.05s1.8-2.58,2.8-3.72.67,3.57.67,3.57,1.66-4.74,2.67-5.88,1.7,3.76,1.7,3.76a21.51,21.51,0,0,1,.63-4.92c.59-1.75,2.6,8.95,2.6,8.95s.9-7.78,1.88-10.26,3.14,4.56,3.14,4.56A82.91,82.91,0,0,1,276,137c.47-2.57,1.72,5.08,1.72,5.08l1-5.64,2.25,6.51.66-9.42,2.64,4.45,1.08-8.81,1.11,5.5a45.27,45.27,0,0,0,2.13-6.65c.2,2,1,7.22,1,7.22s2.24-6.48,3.55-7.84.23,7.47.23,7.47L298.19,123s-.93,6.46-2.13,11.57c.77-1.88,1.45-3.47,1.45-3.47l-.22,5.52s6.61-8.6,7.83-9.43-4.58,7.64-4.58,7.64,6.67-4.61,8.1-5.15-3.72,4.36-3.72,4.36,8.22-4.33,6.7-3.28-7.35,6.87-14.15,16.5-4.77,14.5-4.77,14.5l-3.95,2.73c.91-.63-10.74,12.35-10.74,12.35l5.65-4.8-7.61,9.74a33,33,0,0,1,3.73-3c2.13-1.47-3.18,11.61-3.18,11.61s2.5-3.52,3.71-4.35.53,13.08.53,13.08.31-6,1.29-8.51,1.81,4.57,1.81,4.57l-.43-7.77,2.95,5.58-1.15-8.16,3.37,6.18-.57-9.91s3,8.23,3.84,9.45-.65-8.07-.65-8.07l2.68,7.11s-.43-13.59,1.27-15.67,1.7,9.59,1.7,9.59,1.45-10.87,3.06-12.43c1-.93,1.44,1.85,1.67,4.23l-.5-7.73a9.36,9.36,0,0,0,3.55-2c1.31-1.35.38,16.77.38,16.77s2.77-18.05,3.94-21.55.64,8.07.64,8.07,2.18-10.46,3.89-12.54.46,9.1.46,9.1,4.49-13,5.28-14.41-.92,6.46-.92,6.46,3.86-8,4.86-9.19-4,13.06-4,13.06l6.1-14.52,10.08-8.76a138.63,138.63,0,0,1-9.16,15.29c-1.81,2.61-2.63,3.87-3,4.57-.73,1.39.29.6-1.15,3.68a42.42,42.42,0,0,0-3.23,8.95c-.77,2.78-2.83,8.23-4.17,14.09s-1.22,6.67-3.79,12-6.61,14.43-6.61,14.43,7-9.32,8.83-10.58-7.39,11.37-7.39,11.37l1.52-1-.82,5.95,1.68-3.4,1.74,6.41.87,2.49,2.79,8-.2-12,4.21,7.4-.31-12.78,3.86,10.78,1.7-2.08-.28-6.56-.22-5.19,2.19,2.52-1.63-5.6,4.38,5-3.13-10.38,7,6.84-3.79-12.62,6.46,6.75-5.19-10.76,5.4,5.23-5.77-9,6.5,3.58-6.5-9.41,5.57,2.87-4.3-6.88,4.66,3.5-2.28-7.84,9-2.6L336,178.44s3.43-2.82,4.64-3.65-2.54,6.69-2.54,6.69l4.24-2.94-3.76,13.36-3.56,7.84a27.79,27.79,0,0,1,3.93-4.06c1.51-1.05.57,4.08.57,4.08l.3,5.62,1.8-2.58.6,5.41.63,2.82,2.58,11.55-1-6,3.14,4.55-1.86-7.23,3.45,4.34-1-7.35,4.19,6.07L347.25,207l5.13,6.77.24-4.2,2.44-.35-4.84-8.3,6.13,5.62-6-9.31,6.43,5.42-4.82-7,6.71,3.88-6.06-7.47s10.61,4.32,12.24,4.09-9.64-8.12-9.64-8.12l10.11,5.56-11.09-8.92,8.35,3.64-8.6-6.6,8.13,3.34L353,177l8,2.52s-6.53-4.9-8-5.7,4.94,2,4.94,2l-3.77-5.46,7,3.67-2.16-7,4.4,6.37-1.13-6.83,2.23,5.18s8.77,35.14,11.49,47.87,15.45,30,21.81,46.34,20.9,40.89,24.54,55.43,16.7,85.73,16.7,85.73,5.11,1.51,7.83,2.42,12.73-.91,16.36-2.73A4.87,4.87,0,0,0,466,401.34ZM302.08,112.21l-.5.14,1.22-1.48S302.48,111.45,302.08,112.21Zm5.47-1.31-1.18.27,2.94-2.56S308.45,109.69,307.55,110.9Zm4-.78-.64.1-.43.09c1.65-1.48,3-2.79,3-2.79S312.56,108.72,311.51,110.12Zm5.76-.52c-.57,0-1.13,0-1.69.06l1.71-1.18ZM390.88,93l3.84,2.41c-1.48.54-3,1.16-4.49,1.84l-3.87-5.61Zm-19.27,9.73c-1.44-.79,4.81-.18,4.81-.18L374.85,101l2.64-1.38,1.29,0,2.19-.11-1.38-2.63s3.5,1.17,4.64,2.17-3.54-3.83-3.54-3.83,2.24-.65,1.61-1.56c-.34-.5,2.22.89,4.62,2.24,1.1.62,2.15,1.23,2.88,1.66a137,137,0,0,0-15.92,8.79l-2.64-1.46,3.77-.37S373.06,103.57,371.61,102.77Z" style="fill:#263238"></path><g style="clip-path:url(#freepik--clip-path--inject-63)"><line x1="386.99" y1="218.65" x2="379.5" y2="220.64" style="fill:none;stroke:#969696;stroke-miterlimit:10"></line><line x1="387.98" y1="254.07" x2="397.96" y2="250.08" style="fill:none;stroke:#969696;stroke-miterlimit:10"></line><path d="M417.92,273s-4-1.49-9.48,2" style="fill:none;stroke:#969696;stroke-miterlimit:10"></path><path d="M421.61,294.18a17.69,17.69,0,0,1,3.79.3" style="fill:none;stroke:#969696;stroke-miterlimit:10"></path><path d="M410.43,301a13,13,0,0,1,7.15-6" style="fill:none;stroke:#969696;stroke-miterlimit:10"></path><path d="M418.42,315.43s7.48-4,12.47-4" style="fill:none;stroke:#969696;stroke-miterlimit:10"></path><path d="M435.23,342.4a30.42,30.42,0,0,1,20.6-1" style="fill:none;stroke:#969696;stroke-miterlimit:10"></path><path d="M424.9,349.36a28.24,28.24,0,0,1,5.73-4.58" style="fill:none;stroke:#969696;stroke-miterlimit:10"></path><path d="M442,356.7a38.24,38.24,0,0,0-3.58,1.64" style="fill:none;stroke:#969696;stroke-miterlimit:10"></path><path d="M461.32,351.85a108.46,108.46,0,0,0-15.21,3.4" style="fill:none;stroke:#969696;stroke-miterlimit:10"></path><path d="M444.36,385.77s9.48-2.49,14.47-2.49" style="fill:none;stroke:#969696;stroke-miterlimit:10"></path></g><path d="M256,157.67a33.28,33.28,0,0,1,4.68,7.33l-4.15-11.06,6.67,6.66s-7.63-11.94-6.59-11.22,5.33,2.66,4.18,1.36-9-7.75-6.08-6.77a31.25,31.25,0,0,0,6.29,1.27l-8.78-6.57s5.71,1.38,4,.18-15.42-8.09-15.42-8.09,14.77,4.57-4.62-3.7c-3.89-1.67-7.48-3.09-10.8-4.34l-1.15-1.36,7,3.28-7.71-7.38c2.08,1.44,0-3,0-3l-12.24-9s7.41,4.1,6.26,2.8-4.61-3.7-11.44-7.91C202.39,97.87,195.53,97.69,190,98c-1.76-1.06-4.4-2.3-4.4-2.3s5.49.21,7.47,1.06-2.78-1.92-2.78-1.92,9.2,2.26,11.9,2.07-3.1-3.68-3.1-3.68l6.88,1.17,12.16,6.87s-13.37-11.8-9.74-11.86,2.91,1,4.29,1.94l4.17,2.88s11.52,10,16,13.13-8.24-10.31-8.24-10.31l7.28,5s-2.51-3.78-3.55-4.5,4.75,2.76,4.75,2.76-4-5.32-5.39-6.28,8.26,2.12,8.26,2.12L225.54,89l11.65,2.42s-21.15-8-28.35-10.88-6.43-.34-9-1.08-10.71,4.38-10.71,4.38l4.5-3.55s-9.86,2.41-12.69,3.53-17.26,11.64-17.26,11.64a93.68,93.68,0,0,0,3.08-9.65,16.93,16.93,0,0,1,6-.49c2.8.4-3.92-3.22-3.92-3.22l5.49.21-4.14-4.4,2-.67c2-.67,3.52-.64,11,.42s6.21-.83,6.21-.83l-3.6-1.47-3.58-3-2.12-.5-5.8-1.38,8.11-2.09-10.83-2.87S179,63,184.32,64.1s4.88,1.84,4.88,1.84l7.34,8.66-1.42-6.11,5.71,1.38s-2.62-4.37-3.87-6.26,6.29,1.28,8.16,1.54-5.21-3.59-8-5.51S202.9,58,202.9,58l-5.82-2,4.93-1.2-.88-3.17-4.87-.21-4.59-.18L197.32,49a78.6,78.6,0,0,0-21.6,4.55c-10.47,4-13.21,7.27-13.21,7.27l1.16-6.88-5.86,7.74.77-10.75-3.41,7.9.61-8.3-1.44,2.08-2,14L150.68,69l-1.76,7-6.76,6.08,6.1-1.41-6.79,7.6,6.34-1.76s-6.61,3.63-7.91,4.78,2.82-1.13,2.82-1.13l-7.8,5.37s8.21-1.5,9.73-1.48-1.89,1.26-5.46,4.94a20.84,20.84,0,0,0-2.74,3.51,80.78,80.78,0,0,0-7.21-9.87C114.9,75.58,113.17,74.38,109,73s-11.33-.66-11.33-.66,7.79,2.82,6.51,2.45-11.25,1.45-9.74,1.48,9.79,2.15,9.79,2.15L95.5,82.16s8.31-.91,6.9-.35A48.26,48.26,0,0,0,97,85.22l5-.61-3.57,3.68,4.69-.86-4.79,6.94-.18,2.31c-.54-.16-1.08-.34-1.61-.47C81.3,92.33,71.21,86.9,62.89,87.82S43,91.46,39.17,94c-2,1.35-6.16,5.09-9.42,8,5.19-3.14,12.91-7.09,12.91-7.09s-8.25,11.21-5.51,8S49.57,94.5,49.57,94.5s-7.92,4.78-3.33,3.33,9.52-2.65,9.52-2.65-11.83,8.23-5.6,5.87,11.41-3.9,11.41-3.9-5.09,3.66-1.68,2.43S67.3,97,67.3,97s-11.22,6.6-6.74,4.57A89.56,89.56,0,0,1,70.8,97.89s-7.84,6.88-5,5.76a63.26,63.26,0,0,1,8.69-2.19s-8.87,6.16-6.4,4.8c1.32-.72,4.38-2.1,7-3.24,2.3-1,4.23-1.83,4.23-1.83L82.64,103s-11.78,5.18-7.09,4.32c.7-.13,1.43-.27,2.17-.43a43.76,43.76,0,0,0-6,6c-11,12.92-20.06,24.58-18.75,23.43s10.07-7.9,9.35-6.86c-.34.49-2.27,2.95-4,5.13,3.64-3.82,9.34-9.14,9.34-9.14s-9.59,13.88-6.84,10.65,11.77-11.85,11.77-11.85l-5.27,7.63c1.68-2.43,12-12.2,12-12.2s-11.21,13.27-6.6,10.3a40.91,40.91,0,0,0,4.1-3.1.86.86,0,0,0,.51.14c3,0,12.28-7.4,12.28-7.4s-8,9.34-4.31,6.24a100.19,100.19,0,0,1,9.11-6.51s-8.81,9.79-6.2,7.5,11.24-8.12,11.24-8.12-8.57,9.45-6.44,7.85a61,61,0,0,1,6.85-4s-9.73,8.14-6.66,6.67a51.32,51.32,0,0,1,8-2.68l4,1.71s-23.7,4.63-34.92,11.23S49,151,44.91,156.86L32.69,174.55c1-1.38,14.73-13.9,14.73-13.9s-11.1,13.85-7.08,11S51.5,161.42,51.5,161.42s-11.74,17-7.59,13.2,14.31-16.25,14.31-16.25S49.67,173,52.15,171.6s14.38-14.14,14.38-14.14l-6,10.19,8.92-9.21s-4.82,8.46-2.82,7.79,9.83-7.56,9.83-7.56l-3.35,4.86,13.64-11.59s-6,8.68-4.69,7.53S93,149.59,93,149.59s-6.69,8.19-4.8,6.94,15.08-13.67,15.08-13.67l-5.56,11,1.13-1,5.64-5.07s3.46,2.4,1.23,3.42-10.29,6.73-10.29,6.73-7.72,7.47-10.47,10.7-5.72,6.8-5.72,6.8l11.93-7.64-8.33,9.1,5.43-3.41-6.47,9.36,4.27-3.2-7,10.06s6.42-6.33,5.8-4.7-6.67,14.86-6.67,14.86c1.84,1.78-2.12,14.93-1.4,13.89s5.38-7,5.38-7S75.82,218.19,77.12,217s9.43-11.42,9.43-11.42-5.45,11.6-5.83,12.88S83.79,217,83.79,217l-.58,6.77s8.13-3.6,11.09-5.66a25.52,25.52,0,0,0,5.35-5.52l1-4.43L103.3,211l-3.23-9.41,5.15,6.63-5.77-11.67,6.06,8.29L105.1,201l4,3.26.21-.47-.69-11.62,3.66,5.09h0l.18-10.64,2.06,5.72,3-6.61,2.08,7.27,4.76-4.76c-2.15,7.56-4.53,15.86-6.57,22.77-5.2,17.68-11.56,47.37-17.92,63.64S91.22,309.31,87.75,322s-15.6,47.38-16.18,51.62-8.67,31.82-8.67,31.82,4.62,4.95,7.51,6.37,10.41,2.83,13.88,2.12a85.75,85.75,0,0,0,10.4-3.54l2.31-.7s-2-32.53,2.67-48.09,5.46-36.77,7.77-46,11.83-65.05,14.15-77.78,3.3-24.12,7.78-36.77c1.71-4.83,3.37-9.78,4.88-14.5l1.87-1.58,2.56-5.92-1.3,7.81,5-7.28-2.47,8,8-4.19-4.31,6.24s7.3-3.15,5.65-2.24-9.12,6.51-9.12,6.51l9.17-2.89-10.44,9.19,9.3-3.82L138.38,204l9.54-4.17-12.68,10.2,11.57-6.36s-12.9,9-11,9.29,14-4.68,14-4.68l-6.92,8.54,7.67-4.43-5.51,8,7.35-6.19-6.84,10.65,7-6.44L147,227.9l2.8.4.27,4.8,5.86-7.74-5.8,11.36,4.79-6.93-1.19,8.4,3.94-5-2.12,8.27,3.59-5.2L158,243.17l2.95-13.2.72-3.23.68-6.19,2.06,3,.34-6.42s-1.07-5.87.66-4.67a31.66,31.66,0,0,1,4.49,4.63l-4.07-9-4.3-15.27,4.85,3.35s-4.3-8.61-2.91-7.65,5.31,4.18,5.31,4.18l-5.47-8.39,10.24,3-2.61,9,5.33-4-4.92,7.87,6.37-3.28-7.43,10.75,7.43-4.09-6.6,10.3,6.18-6-5.93,12.3,7.37-7.71-4.33,14.43,8-7.82-3.59,11.86,5-5.76-1.87,6.4,2.51-2.88-.25,5.93-.33,7.51,2,2.37,4.42-12.32-.36,14.61,4.82-8.46L194.42,252l3.18-9.14,1-2.84,2-7.33,1.92,3.89-.94-6.8,1.73,1.2s-10.51-14.44-8.43-13S205,230,205,230s-4.63-10.37-7.56-16.5-2.81-7.06-4.34-13.75-3.88-12.93-4.76-16.1a48.41,48.41,0,0,0-3.69-10.23c-1.65-3.52-.48-2.62-1.32-4.21-.43-.8-1.36-2.25-3.43-5.23a158.76,158.76,0,0,1-10.47-17.48l11.53,10,7,16.6s-5.69-16.23-4.55-14.93,5.56,10.5,5.56,10.5-2-9-1.05-7.38,6,16.47,6,16.47-1.42-12.77.53-10.4,4.44,14.34,4.44,14.34-.6-13.22.74-9.22,4.5,24.63,4.5,24.63-1.06-20.72.43-19.17a10.8,10.8,0,0,0,4.06,2.29L208,189.1c.26-2.72.8-5.9,1.9-4.83,1.85,1.79,3.51,14.21,3.51,14.21s0-13.33,1.94-11,1.45,17.92,1.45,17.92l3.06-8.14s-1.69,10.62-.73,9.23,4.38-10.8,4.38-10.8l-.65,11.33,3.86-7.07-1.33,9.33,3.38-6.37-.49,8.88s.95-8.06,2.07-5.23,1.48,9.73,1.48,9.73-.79-15.92.59-15,4.25,5,4.25,5-6.07-14.95-3.64-13.27a36.42,36.42,0,0,1,4.27,3.46l-8.7-11.14,6.45,5.49s-13.31-14.84-12.27-14.12l-4.51-3.12s2.31-5.57-5.46-16.57-14.44-17.67-16.17-18.87,7.65,3.76,7.65,3.76-5.87-5.6-4.24-5,9.26,5.89,9.26,5.89-6.63-9.7-5.24-8.74S213,144.92,213,144.92l-.24-6.32s.77,1.82,1.65,4c-1.36-5.84-2.43-13.22-2.43-13.22l5.5,13.54s-1.24-10.08.26-8.54,4.06,9,4.06,9,.85-6,1.08-8.25a52.47,52.47,0,0,0,2.44,7.61l1.27-6.3,1.24,10.08,3-5.1.75,10.77,2.58-7.44,1.18,6.45s1.43-8.74,2-5.81A93.89,93.89,0,0,1,238,155.5s2.47-8,3.59-5.2S243.74,162,243.74,162s2.31-12.24,3-10.24a24.5,24.5,0,0,1,.73,5.63s.79-5.6,1.94-4.3,3.05,6.72,3.05,6.72-.38-5.39.77-4.08,3.2,4.26,3.2,4.26S252.88,154,256,157.67ZM101.66,97.84,106,95.08l5.17-1.55-4.43,6.41C105.07,99.17,103.35,98.46,101.66,97.84Zm5.63,2.33c.83-.49,2-1.19,3.29-1.9,2.73-1.55,5.67-3.13,5.27-2.56-.72,1,1.85,1.79,1.85,1.79s-5.36,5.52-4,4.37,5.3-2.48,5.3-2.48l-1.57,3,2.5.12,1.47.07,3,1.57L122.58,106s7.15-.7,5.5.2-3.9,1.93-3.9,1.93l4.32.42-3,1.66A157.81,157.81,0,0,0,107.29,100.17ZM190.2,114l0-1.29,1.95,1.35C191.49,114,190.84,114,190.2,114Zm7.31.7-.73-.11c-1.2-1.6-2.26-3-2.26-3s1.6,1.5,3.49,3.19Zm3.8.78c-1-1.39-2-2.62-2-2.62s1.51,1.33,3.35,2.92Zm6.25,1.5-.82-1.54s.54.67,1.4,1.7Z" style="fill:#263238"></path><g style="clip-path:url(#freepik--clip-path-2--inject-63)"><path d="M81.23,385.88c.79.42,1.6.88,2.43,1.39" style="fill:none;stroke:#969696;stroke-miterlimit:10"></path><path d="M63.71,383.78s4.34-2.79,12.53-.06" style="fill:none;stroke:#969696;stroke-miterlimit:10"></path><path d="M101.12,373.8s-4.49-4.49-16-4" style="fill:none;stroke:#969696;stroke-miterlimit:10"></path><path d="M100.14,345.7a39.26,39.26,0,0,1,6,1.16" style="fill:none;stroke:#969696;stroke-miterlimit:10"></path><path d="M91.14,345.36s1.5-.09,3.77,0" style="fill:none;stroke:#969696;stroke-miterlimit:10"></path><path d="M84.66,322.91a24.58,24.58,0,0,1,14.47,1" style="fill:none;stroke:#969696;stroke-miterlimit:10"></path><path d="M103.69,286.63a25,25,0,0,1,12.9,5.35" style="fill:none;stroke:#969696;stroke-miterlimit:10"></path><path d="M90.65,287a40.61,40.61,0,0,1,8.85-.69" style="fill:none;stroke:#969696;stroke-miterlimit:10"></path><path d="M99.13,272a14,14,0,0,1,10,2.49" style="fill:none;stroke:#969696;stroke-miterlimit:10"></path><path d="M125.07,228.62s-4.49-4-7-3.49" style="fill:none;stroke:#969696;stroke-miterlimit:10"></path></g></g><g id="freepik--Character--inject-63"><path d="M307.74,308c-4.14,0-6.44,0-7.36,6.44a26.61,26.61,0,0,0-.06,5.86c-.13,4.07-.5,14.14-.86,16.7-.46,3.22-4.1,10.13-4.1,10.13s11.92,4.13,13.76-.93,5.55-13.5,4.62-15.72l-.51-1.26c-1-2.52-.87-5.76-2.26-9.25.68.27,2.41.08,3.58,1s10.68,6.38,10.68,6.38L328,324.1S311.89,308,307.74,308Z" style="fill:#ccc;stroke:#263238;stroke-linecap:round;stroke-linejoin:round"></path><path d="M319.93,305.75s-3.7-5.14-6.92-4.73-1.1,8.88.19,12a32.79,32.79,0,0,0,4.21,6.67l4.21-2.23S321.71,309.65,319.93,305.75Z" style="fill:#407BFF;stroke:#263238;stroke-linecap:round;stroke-linejoin:round"></path><path d="M160.92,304.31s32.22,36.36,47.4,47.41,35,19.33,50.63,21.17,38.79-6.76,38.79-6.76-14.39,17.34-25,19.65-32.68-6.45-39.12-10.13S197,353.54,187.49,341.58,160.92,304.31,160.92,304.31Z" style="fill:#2b2b2b;stroke:#263238;stroke-linecap:round;stroke-linejoin:round"></path><path d="M273.61,367s-2.46-3-8-12.51S254.35,337,251.08,336.26s-23.94,9.43-28.41,11.25-10.52,4.23-12.21,4.23-2.3-.12-5.68-2.78-5.45-1.82-4,.48,1.45,5,4,6.41,3.86,2.18,4.59,3.14,1.21,2.9,2.9,2.18,1.81-2.42,3.14-4.35,5.32-3.87,13.43-3.51,16.44-3.51,16.44-3.51a95.45,95.45,0,0,0,3.26,15.12c2.18,6.53,3.72,16.91,8.32,19.69s9.55,2.78,13.18-.73S273.83,369.86,273.61,367Z" style="fill:#ccc;stroke:#263238;stroke-linecap:round;stroke-linejoin:round"></path><path d="M319.16,317.6s-4.92.31-6.42,1.44-2.31,2.62-3.62,3.29-4-.18-4.49.73.24,3.57.24,3.57-3.84,3.14-4.16,4.56,3.54,3.53,3.54,3.53a26.49,26.49,0,0,1-2.58,5.51,22.22,22.22,0,0,1-3.55,3.66,9.62,9.62,0,0,1,5.24,1,48.67,48.67,0,0,1,4.43,2.44s1.73-4.65,5-6.63,8.52,1,12.9-1.54,2.6-13.67-.25-17.85S319.16,317.6,319.16,317.6Z" style="fill:#ccc;stroke:#263238;stroke-linecap:round;stroke-linejoin:round"></path><path d="M318.26,323.34s-7.9-4.74-9.78-5.24-2.93,1.79-3.06,2.75.06,1.35,1.48,1.67a3.13,3.13,0,0,0,2.22-.19s-.74,4.54,1.52,5.82a5,5,0,0,0,5.86-.9c.88-1.1,3.44-2.83,2.8-3.53S318.26,323.34,318.26,323.34Z" style="stroke:#263238;stroke-linecap:round;stroke-linejoin:round"></path><path d="M304.25,334.72a13.45,13.45,0,0,0,4.46,1.35" style="fill:none;stroke:#263238;stroke-linecap:round;stroke-linejoin:round"></path><path d="M308,346.47s-2-3.21-7.07-3.65-6.68.67-10.41,2.11-7.59,1-10.36,3.47-.29,6.55-.29,6.55a12.12,12.12,0,0,0-3.37,5c-.89,2.93-1.55,6-2.2,6.29s-5.95.22-11.63-3.53-16.57-8.34-22.49-10.88-10.64-2.18-13.42-2.54-7.86-1.93-16.93-4.71-14.75-6.53-15.84-7.5-2.53-3.63-3.14-6.89.85-5.44.24-6.29a1.13,1.13,0,0,0-1.93-.12l-.48.6a7.84,7.84,0,0,0-1.46,1.94c-.24.72-1.08,1.57-1.33,2.3a14.13,14.13,0,0,0-.84,4.71c0,2.3,1.93,7.5,2.42,8.22a3.76,3.76,0,0,0,2.29,1.94c1.33.36,3.15-.37,3.75.24s9.92,7.49,12.82,10.52,5.08,5.32,11.12,5.8,9.91,0,12.7,1.69,7,7.26,12.93,13.42,14.85,13.41,23.79,14.5,12.91.62,17.08-4.91,6.62-12.51,12.42-17.45,9.49-10.54,11-14.48S308.49,347.51,308,346.47Z" style="fill:#ccc;stroke:#263238;stroke-linecap:round;stroke-linejoin:round"></path><path d="M282.33,386.61c-1.69-1.28-3.93-6.49-5.67-9.77a22.67,22.67,0,0,1-2.29-10.6l-.05,0a13.93,13.93,0,0,1-5.35-.53c1.11,2.34,1.57,10.23.46,16.09a10,10,0,0,1-5.41,7.39c1,.19,1.91.35,2.87.47C274.74,390.64,278.23,390.44,282.33,386.61Z" style="fill:#263238;stroke:#263238;stroke-miterlimit:10"></path><path d="M297.74,366.13c1.13-1.05,2.18-2.12,3.13-3.19a16.57,16.57,0,0,1-3.31-2.41c-4.25-3.75-7.89-6.56-6.57-11.75s11.27-4.92,14.91-4.31a10.45,10.45,0,0,0-4.95-1.65c-5.06-.45-6.68.67-10.41,2.11s-7.59,1-10.36,3.47-.29,6.55-.29,6.55,7.47,7,12,8.83C294.37,364.8,296.42,365.61,297.74,366.13Z" style="fill:#263238;stroke:#263238;stroke-linecap:round;stroke-linejoin:round"></path><path d="M293,351l-12.17,11.4s-10.77-2.68-19.11-5.22-12.33-1.57-12.33-1.57,5,2.54,6,3,1.21-.24,2.66,1.09,12.5,8,17,10.19,3.79,2.59,6.71,1.77,15.74-9.81,19.73-13.17,5.69-7.64,4.06-10.06-4.68-2.35-6.95-1.81" style="fill:#ccc;stroke:#263238;stroke-linecap:round;stroke-linejoin:round"></path><line x1="364.33" y1="275.03" x2="389.58" y2="235.77" style="fill:none;stroke:#263238;stroke-miterlimit:10;stroke-width:2px"></line><line x1="136.14" y1="264.73" x2="119.21" y2="238.17" style="fill:none;stroke:#263238;stroke-miterlimit:10;stroke-width:2px"></line><path d="M361.57,279.22l-51.72,66s-17,24.09-27.74,31.56-17.47,7.57-26.72,5.6c-2.76-.59-7.65-2.48-13.17-4.85-5.88-3.58-27.38-17-35.58-26.2-2.8-3.15-6.34-6.84-9.95-10.47-30.27-33.66-59.77-74.39-59.77-74.39s36.61,63.76,47.23,74.19l0,0,.1.32s6.94,6.73,15.94,14.1a127.6,127.6,0,0,0,12.7,8.69l-.23-.12,2.8,1.69c2.08,1.26,4.18,2.51,6.22,3.7,4.71,2.77,10.69,6.24,16.55,9.5,1.42.81,2.9,1.61,4.3,2.35a126.59,126.59,0,0,0,14.78,7.15c11,3.94,16.81,5.75,25-1.5A164.46,164.46,0,0,0,305.85,360c6.18-8.89,56.61-80.06,56.61-80.06Z" style="fill:none;stroke:#263238;stroke-linecap:round;stroke-linejoin:round"></path><path d="M346,299.14l-36.12,46.11s-17,24.09-27.74,31.56-17.47,7.57-26.72,5.6c-2.76-.59-7.65-2.48-13.17-4.85-5.88-3.58-27.38-17-35.58-26.2-2.8-3.15-6.34-6.84-9.95-10.47-12.44-13.84-24.75-28.87-34.94-41.77l-4.08,2.39c10.19,16.71,21.36,34.15,26.48,39.18l0,0,.1.32s6.94,6.73,15.94,14.1a127.6,127.6,0,0,0,12.7,8.69l-.23-.12,2.8,1.69c2.08,1.26,4.18,2.51,6.22,3.7,4.71,2.77,10.69,6.24,16.55,9.5,1.42.81,2.9,1.61,4.3,2.35a128.26,128.26,0,0,0,14.78,7.15c11,3.94,16.81,5.75,25-1.5A164.46,164.46,0,0,0,305.85,360c4-5.8,26.88-38.08,42.29-59.83Z" style="fill:#407BFF;stroke:#263238;stroke-linecap:round;stroke-linejoin:round"></path><path d="M322,313.6s-1.32-2.86-3.67-.87-2.22,3.73-1,5,4.85,2.86,5,7.88-4.83,6.79-10.1,9.61-7.05,10.5-3.65,14.26,7.21-.11,7.21-.11,2.88,3.08,5.83,2a5.12,5.12,0,0,0,3.15-4.32s2.88,3.07,5.8.42,2.09-8.13,2.09-8.13a46.68,46.68,0,0,1-.42-12.14,11.63,11.63,0,0,0-6.31-11.85A17.41,17.41,0,0,0,322,313.6Z" style="fill:#fff;stroke:#263238;stroke-linecap:round;stroke-linejoin:round"></path><path d="M322.65,312.59c.38-.07,7.39-2.29,10.46-.65S339,320.8,338,326s-3.23,7.62-3.23,7.62a20.44,20.44,0,0,1-9.14-9.06C322,317.74,322.65,312.59,322.65,312.59Z" style="fill:#407BFF;stroke:#263238;stroke-linecap:round;stroke-linejoin:round"></path><path d="M344.9,342.72s-7.4-4.8-15.4-18.58-9.57-18.39-9.57-18.39a60.53,60.53,0,0,1-.47,13.24c-1.07,6.07.18,15.64,6.28,20.13S341.25,344.41,344.9,342.72Z" style="fill:#407BFF;stroke:#263238;stroke-linecap:round;stroke-linejoin:round"></path><path d="M314,348.14s-2.21.06-1.45-1.91,4.84-2.39,5.14-.15a3.35,3.35,0,0,1-1.91,3.28" style="fill:none;stroke:#263238;stroke-linecap:round;stroke-linejoin:round"></path><path d="M324.78,347.05a6.19,6.19,0,0,0-2.55-2.79c-1.61-.71-3.82,1.18-3.3,2.72s2.45.82,2.45.82" style="fill:none;stroke:#263238;stroke-linecap:round;stroke-linejoin:round"></path><path d="M134.59,267.62c1,2.24,2.81,3.6,4.1,3s1.56-2.83.59-5.08-2.81-3.6-4.11-3S133.61,265.38,134.59,267.62Z" style="fill:#407BFF;stroke:#263238;stroke-linecap:round;stroke-linejoin:round"></path><path d="M364.74,279.19c-1.27,2.09-3.28,3.2-4.49,2.46s-1.16-3,.11-5.11,3.28-3.19,4.48-2.46S366,277.1,364.74,279.19Z" style="fill:#407BFF;stroke:#263238;stroke-linecap:round;stroke-linejoin:round"></path></g></svg>