<svg xmlns="http://www.w3.org/2000/svg" viewBox="0 0 670.14 443.06"><g id="freepik--background-simple--inject-265"><g><path d="M546.2,65.87c-9.57-7.7-19.49-14.99-29.61-21.85C481.04,19.9,440.23,.82,396.57,.02c-43.36-.79-81.54,19.57-112.61,48.51-3.09,2.88-6.11,5.83-9.08,8.84-53.89,54.71-125.75,103.7-204.13,148.61-37.28,21.36-60.42,60.37-62.83,103.09-5.82,103.1,120.63,147.44,204.91,130.43,89-17.96,85.74-20.41,179.64-2.45,93.9,17.96,205.77-14.7,243.33-84.92,22.41-41.89,21.78-92.11,11.46-137.36-13.99-61.31-53.22-110.41-101.05-148.91Z" style="fill:#407BFF;"></path><path d="M546.2,65.87c-9.57-7.7-19.49-14.99-29.61-21.85C481.04,19.9,440.23,.82,396.57,.02c-43.36-.79-81.54,19.57-112.61,48.51-3.09,2.88-6.11,5.83-9.08,8.84-53.89,54.71-125.75,103.7-204.13,148.61-37.28,21.36-60.42,60.37-62.83,103.09-5.82,103.1,120.63,147.44,204.91,130.43,89-17.96,85.74-20.41,179.64-2.45,93.9,17.96,205.77-14.7,243.33-84.92,22.41-41.89,21.78-92.11,11.46-137.36-13.99-61.31-53.22-110.41-101.05-148.91Z" style="fill:#fff; opacity: .7;"></path></g></g><g id="freepik--Clouds--inject-265"><g><path d="M646.34,195.76c-2.82-2.69-4.59,.29-7.55,.33-3.05,.04-3.9-1.77-5.32-4.86-2.12-4.64-3.2-10.11-8.49-8.89-1.39,.32-2.66,1.16-3.96,1.84-1.3,.68-2.73,1.21-4.12,.87-3.45-.84-3.54-7.45-3.85-10.75-.69-7.16-8.24-16-18.54-17.26-5.46-.67-11.54,3.3-15.26,8.05-1.34,1.72-2.32,3.79-3.28,5.86-.33,.7-.65,1.4-.99,2.09-5.56-2.84-12.18-1.68-17.9-4.34-5.98-2.79-8.92-8.13-11.96-13.46-1.8-3.16-3.63-6.32-6.14-8.94-6.96-7.26-18.34-13.31-28.55-12.29-19.27,1.93-33.4,15.42-34.69,26.34-.59,5.03-.77,15.12-7.21,16.41-2.6,.52-5.27-.29-7.71-1.33-2.44-1.04-4.81-2.32-7.42-2.81-9.91-1.87-11.92,6.49-15.89,13.57-2.64,4.71-4.24,7.47-9.95,7.41-5.53-.06-8.85-4.6-14.12-.5-5.78,4.5-7.07,7.71-7.07,7.71h243.77s-.69-2.1-3.78-5.05Z" style="fill: none; stroke: #263238; stroke-miterlimit: 10;"></path><path d="M133.26,230.72c-1.52-1.45-2.47,.16-4.06,.18-1.64,.02-2.1-.95-2.86-2.61-1.14-2.5-1.72-5.44-4.57-4.78-.75,.17-1.43,.63-2.13,.99-.7,.37-1.47,.65-2.22,.47-1.85-.45-1.9-4.01-2.07-5.79-.37-3.85-4.43-8.61-9.98-9.29-2.94-.36-6.21,1.78-8.21,4.33-.72,.92-1.25,2.04-1.77,3.15-.18,.38-.35,.75-.53,1.12-2.99-1.53-6.56-.9-9.64-2.34-3.22-1.5-4.8-4.37-6.44-7.25-.97-1.7-1.95-3.4-3.31-4.81-3.75-3.91-9.87-7.17-15.37-6.62-10.37,1.04-17.98,8.3-18.67,14.18-.32,2.71-.41,8.14-3.88,8.83-1.4,.28-2.84-.16-4.15-.72-1.31-.56-2.59-1.25-3.99-1.51-5.33-1.01-6.41,3.49-8.55,7.3-1.42,2.53-2.28,4.02-5.35,3.99-2.98-.03-4.76-2.48-7.6-.27-3.11,2.42-3.8,4.15-3.8,4.15H135.29s-.37-1.13-2.03-2.72Z" style="fill: none; stroke: #263238; stroke-miterlimit: 10;"></path><path d="M260.65,70.26s-1.15-10.9-13.76-13.19c-12.62-2.29-13.19,4.01-18.35,7.45-5.16,3.44-8.03-1.15-13.76-2.87-5.73-1.72-9.18,3.44-13.19,8.6s-5.73-1.72-12.04-.57c-6.31,1.15-8.6,5.16-10.32,6.88s-6.31-2.87-10.32-1.15l-4.01,1.72h118.71s4.01-9.75-6.31-10.9c-10.32-1.15-11.47,5.73-16.63,4.01Z" style="fill: none; stroke: #263238; stroke-miterlimit: 10;"></path></g></g><g id="freepik--Sun--inject-265"><g><g><circle cx="533.97" cy="61.75" r="52.12" transform="translate(112.73 395.66) rotate(-45)" style="fill:#407BFF;"></circle><circle cx="533.97" cy="61.75" r="52.12" transform="translate(112.73 395.66) rotate(-45)" style="fill:#fff; opacity: .7;"></circle></g><g><circle cx="533.97" cy="61.75" r="43.09" transform="translate(112.73 395.66) rotate(-45)" style="fill:#407BFF;"></circle><circle cx="533.97" cy="61.75" r="43.09" transform="translate(112.73 395.66) rotate(-45)" style="fill:#fff; opacity: .49;"></circle></g><circle cx="533.97" cy="61.75" r="34.32" style="fill:#407BFF;"></circle></g></g><g id="freepik--Island--inject-265"><g><g><path d="M354.27,305.17s15.48-19.04,29.16-19.92c13.69-.89,13.5,7.5,25.76,7.98,12.26,.48,18.99-12.07,36.84-6.41,17.85,5.66,19.27,19.47,20.34,24.76,1.07,5.3,9.99,5.6,20.53,6.26,10.53,.66,10.59,7.98,11.78,12.74,1.19,4.76,6.6,3.16,15.41,3.99,8.81,.84,14.34,8.81,14.22,14.41l-.12,5.59-77.64-27.4,14.16,12.14s-31.89-8.22-44.21-10.97c-12.32-2.74-38.38-6.86-38.38-6.86l14.52-4.64-42.36-11.68Z" style="fill:#407BFF;"></path><line x1="388.95" y1="313.45" x2="384.8" y2="296.79" style="fill: none; stroke: #263238; stroke-miterlimit: 10;"></line><line x1="387.17" y1="306.31" x2="391.28" y2="300.48" style="fill: none; stroke: #263238; stroke-miterlimit: 10;"></line><line x1="428.64" y1="329.59" x2="426.62" y2="313.41" style="fill: none; stroke: #263238; stroke-miterlimit: 10;"></line><polyline points="432.51 314.72 428.46 322.81 417.16 318.05" style="fill: none; stroke: #263238; stroke-miterlimit: 10;"></polyline><polyline points="470.53 323.18 458.15 328.3 456.67 307.17" style="fill: none; stroke: #263238; stroke-miterlimit: 10;"></polyline><line x1="462.85" y1="326.16" x2="462.15" y2="319.37" style="fill: none; stroke: #263238; stroke-miterlimit: 10;"></line><line x1="506.78" y1="346.17" x2="515.68" y2="340.96" style="fill: none; stroke: #263238; stroke-miterlimit: 10;"></line><line x1="509.15" y1="344.21" x2="521.3" y2="345.53" style="fill: none; stroke: #263238; stroke-miterlimit: 10;"></line><line x1="480.09" y1="336.91" x2="488.05" y2="325.97" style="fill: none; stroke: #263238; stroke-miterlimit: 10;"></line><polyline points="492.47 329.72 483.95 331.97 479.51 324.62" style="fill: none; stroke: #263238; stroke-miterlimit: 10;"></polyline><line x1="457.36" y1="316.09" x2="444.77" y2="308.04" style="fill: none; stroke: #263238; stroke-miterlimit: 10;"></line><line x1="388.11" y1="309.25" x2="375.55" y2="302.31" style="fill: none; stroke: #263238; stroke-miterlimit: 10;"></line></g><path d="M88.63,278.87s-.28,7.59,.09,6.07c.38-1.52,3.51-9.2,3.51-9.2,0,0,.09,6.07,1.52,3.6,.81-1.4,2.17-3.45,3.19-4.95,.78-1.14,1.36-1.97,1.36-1.97,0,0-1.14,6.17,.85,4.65,1.99-1.52,4.65-5.69,4.65-5.69,0,0-1.97,5.62,0,3.65s4.29-5.33,4.29-5.33c0,0-4.87,8.64-5.33,12.46-.46,3.83,3.01-2.2,3.01-2.2,0,0-2.78,17.04-1.16,14.49,1.62-2.55,5.57-12.41,5.57-12.41,0,0-.06,10.09,.81,7.59,.37-1.05,.61-2.65,.77-4.15,.79,5.76,2.14,11.52,3.92,17.72,5.17,18.11,13.85,29.98,24.5,46.87,.71,1.13,1.37,2.23,1.99,3.3h6.67c-5.42-8.97-12.58-17.02-24.03-39.25-6.19-12.01-9.09-22.87-10.29-31.86,.63-3.16,1.18-6.49,1.18-6.49,0,0,2.14,15.07,4,12.58,.52-.7,.86-1.71,1.09-2.78,.13,.41,.37,.58,.77,.29l1.8-1.28s-1.68,7.71-.06,6.14l1.62-1.57s-.46,7.77,.06,6.67c.52-1.1,2.09-2.43,2.09-2.43,0,0-1.62,10.43-.23,5.86,.79-2.6,2.01-7.56,2.92-11.35,.08,.12,.18,.14,.29,.08-.67,4.2-1.23,8.83,.33,5.01,1.14-2.79,1.86-6.79,2.22-10.66,.16-.48,.26-.79,.26-.79l1.21,4.29s-.3,1.21-.77,2.8c-.47,1.59-1.1,3.57-1.77,5.11-1.34,3.09,3.69-2.22,3.69-2.22,0,0-1.07,4.29-2.14,6.31-1.07,2.01,3.69-2.22,3.69-2.22,0,0-1.61,8.72-1.94,11.2-.33,2.48,7.07-13.97,7.07-13.97,0,0-2.56-22.27-7.65-27.14-.77-.73-1.62-1.38-2.51-1.95l.24-1.78,3.23,3.23,.09-5.22s1.99,3.32,4.46,4.74c2.47,1.42,.09-5.22,.09-5.22,0,0,3.22,4.84,5.31,6.17,2.09,1.33-1.99-6.54-1.99-6.54l3.89,2.18s.64,1.07,1.43,2.53c.79,1.46,1.74,3.31,2.36,4.87,1.23,3.13,1.04-4.17,1.04-4.17,0,0,2.28,3.79,2.94,5.98,.66,2.18,1.04-4.17,1.04-4.17,0,0,5.03,7.3,6.54,9.3,1.52,1.99-4.87-14.88-4.87-14.88,0,0-17.54-13.95-24.59-13.8-.11,0-.23,.02-.34,.02,1.33-.87,2.47-1.66,3.21-2.18,2.94-2.09-4.84,0-4.84,0,0,0,8.06-6.45,8.92-8.25s-4.84,0-4.84,0c0,0,3.32-1.99,4.93-3.6s-3.79-.95-3.79-.95c0,0,5.03-2.37,7.49-4.17s-6.07-1.52-6.07-1.52c0,0,6.64-2.37,8.25-3.98,1.61-1.61-6.45,1.61-6.45,1.61l4.46-4.93s-11.19,1.23-18.12,14.42c-2.02,3.85-3.43,6.64-4.42,8.67,0-.17,0-.33,0-.5,.09-14.89-9.2-21.25-9.2-21.25l1.61,6.45s-5.6-6.64-4.93-4.46c.66,2.18,5.41,7.4,5.41,7.4,0,0-7.4-4.27-6.07-1.52,1.33,2.75,4.65,7.21,4.65,7.21,0,0-4.46-3.13-3.79-.95s2.66,5.5,2.66,5.5c0,0-4.17-4.27-4.27-2.28-.02,.47,.19,1.36,.52,2.44-.94-.83-1.95-1.59-3.05-2.21-6.15-3.45-28.19,.6-28.19,.6,0,0-13.58,11.88-11.3,10.84s10.15-5.12,10.15-5.12c0,0-2.66,5.79-1.04,4.17,1.61-1.61,5.41-3.89,5.41-3.89,0,0-3.6,6.36-1.04,4.17,1.28-1.09,2.99-2.28,4.38-3.19,1.39-.91,2.45-1.55,2.45-1.55l4.46-.09s-7.3,5.03-4.84,4.84c2.47-.19,7.59-2.94,7.59-2.94,0,0-5.22,4.74-2.37,4.65s6.17-2.09,6.17-2.09l-2.37,4.65,4.36-1.33-.63,1.69c-1.06,.09-2.11,.26-3.13,.55-6.79,1.9-19.52,20.35-19.52,20.35,0,0-1.21,18-.34,15.65,.87-2.35,3.56-10.8,3.56-10.8,0,0,2.21,5.97,2.21,3.69,0-2.28,1.08-6.57,1.08-6.57,0,0,.88,3.19,1.54,4.25-1.51,4.96-2.58,8.56-2.58,8.56l7.78-10.15Zm15.25-27.13l.47,.19c-.45,.49-.91,.99-1.36,1.49-.7-.08-1.42-.13-2.15-.16l3.04-1.52Zm-18.93,22.8c.34-1.63,.64-2.83,.64-2.83l.87-.91c-.08,.22-.17,.42-.24,.65-.6,1.91-1.19,3.8-1.74,5.6,.15-.87,.31-1.74,.47-2.51Z" style="fill:#263238;"></path><path d="M386.95,191.71s18.49-9.01,24.78-7.48c1.12,.27,2.21,.7,3.24,1.2-.56-.87-.97-1.61-1.07-2.03-.41-1.78,4.33,.96,4.33,.96,0,0-2.58-2.44-3.7-4.21-1.12-1.77,3.59-.1,3.59-.1,0,0-4.03-3.12-5.89-5.23-1.85-2.1,5.74-.15,5.74-.15,0,0-5.48-3.44-6.6-5.21-1.12-1.77,5.46,2.73,5.46,2.73l-3.02-5.31s9.79,3.33,13.37,16.52c.04,.15,.08,.3,.12,.45,.37-2.04,.93-4.86,1.77-8.76,2.87-13.36,12.46-17.21,12.46-17.21l-2.73,5.46s6.33-4.84,5.31-3.02c-1.03,1.82-6.31,5.56-6.31,5.56,0,0,7.48-2.36,5.74-.15-1.74,2.2-5.6,5.54-5.6,5.54,0,0,4.62-1.92,3.59-.1-1.03,1.82-3.47,4.4-3.47,4.4,0,0,4.59-3,4.28-1.19s-5.85,9.49-5.85,9.49c0,0,6.36-3.76,4.28-1.19-.53,.65-1.34,1.62-2.3,2.72,.1-.03,.2-.07,.3-.1,6.19-1.87,25.14,6.14,25.14,6.14,0,0,9.81,13.34,7.97,11.96s-8.08-6.61-8.08-6.61c0,0,1.23,5.71,.11,3.95-1.12-1.77-4.07-4.56-4.07-4.56,0,0,1.97,6.41,.11,3.95-.93-1.23-2.23-2.63-3.29-3.73-1.06-1.09-1.89-1.88-1.89-1.88l-3.98-.97s5.55,5.96,3.37,5.3c-2.17-.66-6.22-4.14-6.22-4.14,0,0,3.73,5.29,1.2,4.64-2.53-.65-5.11-3.09-5.11-3.09l1.2,4.64-3.65-2.06,.23,1.63c.93,.29,1.84,.65,2.7,1.11,5.7,3.06,13.45,22.11,13.45,22.11,0,0-2.49,16.37-2.81,14.09-.32-2.28-1.05-10.38-1.05-10.38,0,0-3.17,4.91-2.71,2.87,.45-2.04,.34-6.1,.34-6.1,0,0-3.14,5.93-2.71,2.87,.21-1.53,.29-3.44,.31-4.96,.02-1.52,0-2.67,0-2.67l-2.13-3.5s-.01,.3-.03,.76c.64,3.51,.98,7.22,.67,9.97-.43,3.76-1.08-.48-1.52-4.35-.09,.08-.18,.09-.28,0,.13,3.58,.28,8.26,.22,10.76-.1,4.39-1.24-5.23-1.24-5.23,0,0-1.06,1.56-1.24,2.67-.19,1.1-1.69-5.88-1.69-5.88l-1.05,1.78c-1.05,1.78-1.46-5.45-1.46-5.45l-1.27,1.57c-.28,.35-.53,.26-.75-.07,.07,1.01,.02,1.98-.27,2.73-1.03,2.66-6.64-10.14-6.64-10.14,0,0,.87,7.88,.72,10.52-.1,1.79-1.24-.95-1.95-2.89,0,.39,.01,.79,.02,1.18,.29,1.55,.55,3.4,.48,4.6-.04,.58-.21,.5-.44,.05,.05,25.94-2.17,53.33-5.26,69.4-4.57,23.78-.35,39.76-.35,39.76l-8.04,.22s-1.19-8.96-.11-21.77c1.08-12.81,5.35-29.96,8.74-62.23,.86-8.21,1.37-15.86,1.65-22.72-.22,1.31-.44,2.44-.64,3.11-.81,2.66-2.55-13.1-2.55-13.1,0,0-1.59,6.19-2.12,2.69s1.64-12.33,1.64-12.33c0,0-1.22,3.54-2.48,5.77s-.9-3.23-.9-3.23c0,0-1.32,4.34-2.71,6.18s-1.9-3.9-1.9-3.9c0,0-.31,.88-.72,2.08-.53,1.58-1.23,3.73-1.6,5.16-.65,2.53-2.23-2.81-2.23-2.81,0,0-.87,7.56-.84,9,.04,1.44-1.58-5.34-1.58-5.34l-4.38,10.89s.06-3.45,.17-8.21c-.84-.77-2.41-3.38-2.41-3.38,0,0,.11,4.06,.67,6.08,.56,2.02-2.86-2.72-2.86-2.72,0,0-.29,8.13-.49,10.42-.19,2.29-3.56-13.92-3.56-13.92,0,0,6.71-19.44,12.24-22.8,.83-.51,1.72-.91,2.63-1.25l.14-1.64-3.53,2.25,.95-4.69s-2.44,2.58-4.94,3.36c-2.49,.79,.95-4.69,.95-4.69,0,0-3.85,3.69-5.98,4.47-2.13,.78,3.08-5.47,3.08-5.47l-3.92,1.18s-.79,.83-1.79,1.98c-1,1.15-2.22,2.62-3.08,3.9-1.73,2.56-.11-3.95-.11-3.95,0,0-2.79,2.95-3.82,4.77-1.03,1.82-.11-3.95-.11-3.95,0,0-5.96,5.55-7.71,7.03-1.76,1.48,7.32-12.37,7.32-12.37Zm52.37,8.11h.01v0Zm-36.19,21.69c.05,.72,.12,1.52,.2,2.33,.05-1.73,.1-3.55,.16-5.38,0-.21,.04-.42,.05-.63l-.55,1.02s.03,1.14,.13,2.66Zm10.75-23.12c.27-.55,.55-1.11,.83-1.65l-.46-.05-2.32,2.09c.66-.16,1.31-.29,1.94-.39Z" style="fill:#263238;"></path><path d="M422.85,238.67c2.02-1.1,8.97-5.33,8.97-5.33,0,0-2.07,5.47-.69,3.89,1.37-1.58,4.71-3.9,4.71-3.9,0,0-2.9,6.05-.69,3.89,1.1-1.08,2.59-2.27,3.8-3.2,1.21-.92,2.15-1.58,2.15-1.58l4.08-.37s-6.37,5.06-4.12,4.74,6.76-3.17,6.76-3.17c0,0-4.48,4.67-1.88,4.41,2.6-.27,5.51-2.3,5.51-2.3l-1.88,4.41,3.91-1.49-.47,1.58c-.96,.15-1.92,.37-2.83,.7-6.09,2.17-16.59,19.86-16.59,19.86,0,0,.03,16.56,.68,14.36,.65-2.2,2.58-10.11,2.58-10.11,0,0,2.4,5.33,2.26,3.24-.14-2.09,.57-6.09,.57-6.09,0,0,1.01,2.87,1.68,3.8-1.07,4.63-1.82,8.01-1.82,8.01l6.48-9.78s.22,6.97,.47,5.55c.25-1.41,2.63-8.65,2.63-8.65,0,0,.47,5.55,1.62,3.2,.65-1.33,1.77-3.29,2.61-4.74,.64-1.1,1.12-1.89,1.12-1.89,0,0-.65,5.72,1.08,4.2,1.73-1.52,3.9-5.5,3.9-5.5,0,0-1.45,5.27,.23,3.34,1.68-1.93,3.59-5.15,3.59-5.15,0,0-3.91,8.22-4.1,11.75s2.62-2.21,2.62-2.21c0,0-1.47,15.78-.15,13.34,.34-.62,.78-1.68,1.25-2.92-1.66,6.66-3.7,14.05-6.2,21.92-9.24,29.06-16.54,44.88-20.4,56.91h6.53c1.17-4.25,2.72-8.91,4.77-13.85,6.26-15.12,13.96-41.5,19.14-66.91,.14,.49,.29,.61,.45,.04,.32-1.16,.43-3.03,.46-4.6,.07-.39,.15-.78,.22-1.16,.31,2.05,.87,4.96,1.33,3.23,.68-2.55,1.41-10.44,1.41-10.44,0,0,2.92,13.67,4.46,11.27,.43-.68,.68-1.62,.82-2.62,.15,.37,.38,.5,.72,.22l1.56-1.28s-1.05,7.17,.33,5.63l1.39-1.54s.07,7.14,.47,6.1c.41-1.04,1.76-2.36,1.76-2.36,0,0-.83,9.66,.16,5.38,.56-2.43,1.36-7.05,1.95-10.58,.08,.11,.17,.12,.27,.05-.35,3.89-.57,8.17,.61,4.57,.87-2.63,1.27-6.33,1.36-9.9,.12-.45,.19-.74,.19-.74l1.38,3.85s-.2,1.12-.53,2.61c-.33,1.49-.79,3.34-1.3,4.8-1.03,2.91,3.24-2.26,3.24-2.26,0,0-.71,4-1.56,5.91-.85,1.91,3.24-2.26,3.24-2.26,0,0-.92,8.09-1.07,10.38-.15,2.29,5.59-13.24,5.59-13.24,0,0-3.75-20.23-8.72-24.37-.75-.62-1.57-1.16-2.42-1.63l.11-1.65,3.16,2.75-.24-4.78s2.03,2.91,4.38,4.06c2.35,1.15-.24-4.78-.24-4.78,0,0,3.26,4.23,5.25,5.31,1.99,1.08-2.24-5.87-2.24-5.87l3.7,1.75s.65,.94,1.47,2.22c.82,1.29,1.8,2.92,2.47,4.31,1.33,2.79,.69-3.89,.69-3.89,0,0,2.32,3.33,3.07,5.29,.75,1.96,.69-3.89,.69-3.89,0,0,5.06,6.37,6.58,8.1,1.52,1.73-5.4-13.32-5.4-13.32,0,0-16.95-11.66-23.39-11.08-.1,0-.21,.03-.31,.04,1.16-.88,2.15-1.67,2.8-2.2,2.56-2.1-4.43,.31-4.43,.31,0,0,6.98-6.42,7.64-8.12,.67-1.7-4.43,.31-4.43,.31,0,0,2.91-2.03,4.29-3.61,1.37-1.58-3.53-.63-3.53-.63,0,0,4.45-2.49,6.6-4.29,2.14-1.81-5.65-1.01-5.65-1.01,0,0,5.93-2.59,7.3-4.17,1.37-1.58-5.8,1.88-5.8,1.88l3.77-4.8s-10.17,1.84-15.68,14.35c-1.61,3.65-2.72,6.3-3.5,8.22,0-.16-.02-.3-.03-.46-.85-13.64-9.77-18.87-9.77-18.87l1.88,5.8s-5.54-5.73-4.8-3.77c.75,1.96,5.42,6.43,5.42,6.43,0,0-7.04-3.44-5.65-1.01,1.39,2.44,4.71,6.31,4.71,6.31,0,0-4.28-2.58-3.53-.63,.75,1.96,2.78,4.87,2.78,4.87,0,0-4.09-3.65-4.05-1.82,0,.43,.26,1.23,.63,2.2-.91-.7-1.89-1.34-2.93-1.83-5.85-2.77-25.78,2.33-25.78,2.33,0,0-11.68,11.74-9.66,10.64Zm20.49,18.9c-.43,1.79-.85,3.56-1.24,5.24,.08-.81,.17-1.61,.27-2.32,.21-1.51,.41-2.63,.41-2.63l.74-.89c-.06,.2-.13,.4-.18,.61Zm14.93-19.16l.44,.15c-.39,.47-.77,.96-1.15,1.45-.64-.03-1.31-.03-1.98,0l2.69-1.59Z" style="fill:#263238;"></path><path d="M322.6,233.17c1.79-1.44,7.9-6.82,7.9-6.82,0,0-1.08,5.74,0,3.95,1.08-1.79,3.95-4.67,3.95-4.67,0,0-1.79,6.46,0,3.95,.9-1.26,2.15-2.69,3.19-3.81,1.03-1.12,1.84-1.93,1.84-1.93l3.95-1.08s-5.38,6.1-3.23,5.38c2.15-.72,6.1-4.31,6.1-4.31,0,0-3.59,5.38-1.08,4.67,2.51-.72,5.03-3.23,5.03-3.23l-1.08,4.67,3.59-2.15-.18,1.64c-.92,.32-1.82,.7-2.67,1.18-5.62,3.21-12.85,22.46-12.85,22.46,0,0,2.93,16.3,3.19,14.01,.25-2.28,.77-10.41,.77-10.41,0,0,3.3,4.82,2.79,2.79-.51-2.03-.5-6.09-.5-6.09,0,0,3.3,5.84,2.79,2.79-.25-1.52-.38-3.43-.44-4.95-.06-1.52-.06-2.67-.06-2.67l2.03-3.55s.02,.3,.06,.76c-.54,3.53-.79,7.24-.4,9.98,.54,3.75,1.07-.51,1.41-4.39,.09,.08,.18,.09,.28,0-.04,3.58-.05,8.27,.07,10.76,.22,4.39,1.1-5.27,1.1-5.27,0,0,1.1,1.54,1.32,2.63,.22,1.1,1.54-5.92,1.54-5.92l1.1,1.76c1.1,1.76,1.32-5.48,1.32-5.48l1.32,1.54c.29,.34,.54,.25,.75-.09-.04,1.01,.04,1.98,.35,2.72,1.1,2.63,6.36-10.31,6.36-10.31,0,0-.66,7.9-.44,10.53,.15,1.79,1.21-.98,1.88-2.94,0,.39,0,.79,.01,1.18-.25,1.56-.46,3.41-.35,4.61,.05,.58,.22,.5,.45,.04,.65,25.93,3.61,53.25,7.12,69.23,2.4,10.9,2.89,20.19,2.72,27.04h6.95c-.11-2.71-.31-5.75-.68-9.06-1.42-12.77-6.15-29.8-10.41-61.97-1.08-8.18-1.8-15.82-2.27-22.66,.25,1.3,.5,2.42,.72,3.09,.88,2.63,2.19-13.16,2.19-13.16,0,0,1.76,6.14,2.19,2.63,.44-3.51-1.97-12.29-1.97-12.29,0,0,1.32,3.51,2.63,5.7s.82-3.25,.82-3.25c0,0,1.44,4.31,2.87,6.1,1.44,1.79,1.79-3.95,1.79-3.95,0,0,.33,.87,.77,2.06,.58,1.57,1.33,3.69,1.74,5.12,.72,2.51,2.15-2.87,2.15-2.87,0,0,1.08,7.54,1.08,8.97s1.44-5.38,1.44-5.38l4.67,10.77s-.15-3.45-.39-8.2c.82-.8,2.32-3.44,2.32-3.44,0,0,0,4.06-.5,6.09s2.79-2.79,2.79-2.79c0,0,.51,8.12,.77,10.41,.25,2.28,3.19-14.01,3.19-14.01,0,0-7.23-19.26-12.85-22.46-.85-.48-1.75-.87-2.67-1.18l-.18-1.64,3.59,2.15-1.08-4.67s2.51,2.51,5.03,3.23c2.51,.72-1.08-4.67-1.08-4.67,0,0,3.95,3.59,6.1,4.31,2.15,.72-3.23-5.38-3.23-5.38l3.95,1.08s.81,.81,1.84,1.93c1.03,1.12,2.29,2.56,3.19,3.81,1.79,2.51,0-3.95,0-3.95,0,0,2.87,2.87,3.95,4.67,1.08,1.79,0-3.95,0-3.95,0,0,6.1,5.38,7.9,6.82s-7.65-12.17-7.65-12.17c0,0-18.73-8.51-24.97-6.81-1.11,.3-2.19,.76-3.21,1.29,.54-.89,.93-1.63,1.01-2.06,.36-1.79-4.31,1.08-4.31,1.08,0,0,2.51-2.51,3.59-4.31,1.08-1.79-3.59,0-3.59,0,0,0,3.95-3.23,5.74-5.38,1.79-2.15-5.74,0-5.74,0,0,0,5.38-3.59,6.46-5.38s-5.38,2.87-5.38,2.87l2.87-5.38s-9.69,3.59-12.92,16.87c-.04,.15-.07,.3-.11,.45-.43-2.03-1.06-4.83-2.01-8.71-3.23-13.28-12.92-16.87-12.92-16.87l2.87,5.38s-6.46-4.67-5.38-2.87c1.08,1.79,6.46,5.38,6.46,5.38,0,0-7.54-2.15-5.74,0,1.79,2.15,5.74,5.38,5.74,5.38,0,0-4.67-1.79-3.59,0,1.08,1.79,3.59,4.31,3.59,4.31,0,0-4.67-2.87-4.31-1.08,.36,1.79,6.1,9.33,6.1,9.33,0,0-6.46-3.59-4.31-1.08,.54,.63,1.38,1.59,2.37,2.66-.1-.03-.2-.07-.3-.1-6.24-1.7-24.97,6.81-24.97,6.81,0,0-9.45,13.6-7.65,12.17Zm69.28,13.59s0,1.14-.06,2.67c-.03,.72-.07,1.53-.14,2.34-.09-1.73-.19-3.54-.3-5.38-.01-.21-.05-.42-.07-.63l.57,1Zm-11.84-21.85l2.37,2.03c-.66-.14-1.32-.26-1.95-.34-.29-.54-.58-1.09-.88-1.62l.46-.07Z" style="fill:#263238;"></path><path d="M203.28,230.64c1.79-1.44,7.9-6.82,7.9-6.82,0,0-1.08,5.74,0,3.95,1.08-1.79,3.95-4.67,3.95-4.67,0,0-1.79,6.46,0,3.95,.9-1.26,2.15-2.69,3.19-3.81,1.03-1.12,1.84-1.93,1.84-1.93l3.95-1.08s-5.38,6.1-3.23,5.38c2.15-.72,6.1-4.31,6.1-4.31,0,0-3.59,5.38-1.08,4.67,2.51-.72,5.03-3.23,5.03-3.23l-1.08,4.67,3.59-2.15-.18,1.64c-.92,.32-1.82,.7-2.67,1.18-5.62,3.21-12.85,22.46-12.85,22.46,0,0,2.93,16.3,3.19,14.01,.26-2.28,.77-10.41,.77-10.41,0,0,3.3,4.82,2.79,2.79-.51-2.03-.5-6.09-.5-6.09,0,0,1.5,2.65,2.32,3.44-.24,4.75-.39,8.2-.39,8.2l4.67-10.77s1.44,6.82,1.44,5.38,1.08-8.97,1.08-8.97c0,0,1.44,5.38,2.15,2.87,.41-1.43,1.16-3.55,1.74-5.12,.44-1.19,.77-2.06,.77-2.06,0,0,.36,5.74,1.79,3.95,1.44-1.79,2.87-6.1,2.87-6.1,0,0-.5,5.44,.82,3.25,1.32-2.19,2.63-5.7,2.63-5.7,0,0-2.41,8.78-1.97,12.29,.44,3.51,2.19-2.63,2.19-2.63,0,0,1.32,15.8,2.19,13.16,.22-.67,.47-1.79,.72-3.09-.47,6.85-1.18,14.48-2.27,22.66-4.26,32.17-8.99,49.2-10.41,61.97-.4,3.61-.61,6.9-.71,9.79h7c-.22-6.92,.21-16.48,2.7-27.77,3.52-15.98,6.48-43.31,7.12-69.23,.22,.46,.39,.55,.45-.04,.11-1.2-.11-3.05-.35-4.61,0-.4,0-.79,.01-1.18,.66,1.96,1.73,4.73,1.88,2.94,.22-2.63-.44-10.53-.44-10.53,0,0,5.27,12.94,6.36,10.31,.31-.74,.39-1.71,.35-2.72,.21,.33,.46,.43,.75,.09l1.32-1.54s.22,7.24,1.32,5.48l1.1-1.76s1.32,7.02,1.54,5.92c.22-1.1,1.32-2.63,1.32-2.63,0,0,.88,9.65,1.1,5.27,.12-2.49,.11-7.18,.07-10.76,.1,.09,.19,.08,.28,0,.34,3.89,.87,8.14,1.41,4.39,.39-2.74,.14-6.46-.4-9.98,.04-.47,.06-.76,.06-.76l2.03,3.55s0,1.14-.06,2.67c-.06,1.52-.19,3.43-.44,4.95-.51,3.05,2.79-2.79,2.79-2.79,0,0,0,4.06-.5,6.09-.51,2.03,2.79-2.79,2.79-2.79,0,0,.51,8.12,.77,10.41,.26,2.28,3.19-14.01,3.19-14.01,0,0-7.23-19.26-12.85-22.46-.85-.48-1.75-.87-2.67-1.18l-.18-1.64,3.59,2.15-1.08-4.67s2.51,2.51,5.03,3.23c2.51,.72-1.08-4.67-1.08-4.67,0,0,3.95,3.59,6.1,4.31,2.15,.72-3.23-5.38-3.23-5.38l3.95,1.08s.81,.81,1.84,1.93c1.03,1.12,2.29,2.56,3.19,3.81,1.79,2.51,0-3.95,0-3.95,0,0,2.87,2.87,3.95,4.67,1.08,1.79,0-3.95,0-3.95,0,0,6.1,5.38,7.9,6.82,1.79,1.44-7.65-12.17-7.65-12.17,0,0-18.73-8.51-24.97-6.81-.1,.03-.2,.07-.3,.1,.99-1.07,1.83-2.02,2.37-2.66,2.15-2.51-4.31,1.08-4.31,1.08,0,0,5.74-7.54,6.1-9.33,.36-1.79-4.31,1.08-4.31,1.08,0,0,2.51-2.51,3.59-4.31,1.08-1.79-3.59,0-3.59,0,0,0,3.95-3.23,5.74-5.38s-5.74,0-5.74,0c0,0,5.38-3.59,6.46-5.38s-5.38,2.87-5.38,2.87l2.87-5.38s-9.69,3.59-12.92,16.87c-.94,3.88-1.58,6.68-2.01,8.71-.04-.15-.07-.3-.11-.45-3.23-13.28-12.92-16.87-12.92-16.87l2.87,5.38s-6.46-4.67-5.38-2.87,6.46,5.38,6.46,5.38c0,0-7.54-2.15-5.74,0,1.79,2.15,5.74,5.38,5.74,5.38,0,0-4.67-1.79-3.59,0s3.59,4.31,3.59,4.31c0,0-4.67-2.87-4.31-1.08,.08,.42,.47,1.17,1.01,2.06-1.02-.53-2.1-.98-3.21-1.29-6.24-1.7-24.97,6.81-24.97,6.81,0,0-9.45,13.6-7.65,12.17Zm23.48,15.02c-.11,1.83-.21,3.65-.3,5.38-.06-.81-.11-1.62-.14-2.34-.06-1.52-.06-2.67-.06-2.67l.57-1c-.02,.21-.06,.41-.07,.63Zm11.34-21.48l.46,.07c-.3,.54-.59,1.08-.88,1.63-.64,.09-1.29,.2-1.95,.34l2.37-2.03Z" style="fill:#263238;"></path><path d="M168.49,259.52c1.79-1.44,7.9-6.82,7.9-6.82,0,0-1.08,5.74,0,3.95,1.08-1.79,3.95-4.67,3.95-4.67,0,0-1.79,6.46,0,3.95,.9-1.26,2.15-2.69,3.19-3.81,1.03-1.12,1.84-1.93,1.84-1.93l3.95-1.08s-5.38,6.1-3.23,5.38c2.15-.72,6.1-4.31,6.1-4.31,0,0-3.59,5.38-1.08,4.67,2.51-.72,5.03-3.23,5.03-3.23l-1.08,4.67,3.59-2.15-.18,1.64c-.92,.32-1.82,.7-2.67,1.18-5.62,3.21-12.85,22.46-12.85,22.46,0,0,2.93,16.3,3.19,14.01s.77-10.41,.77-10.41c0,0,3.3,4.82,2.79,2.79-.51-2.03-.5-6.09-.5-6.09,0,0,1.5,2.65,2.32,3.44-.24,4.75-.39,8.2-.39,8.2l4.67-10.77s1.44,6.82,1.44,5.38,1.08-8.97,1.08-8.97c0,0,1.44,5.38,2.15,2.87,.41-1.43,1.16-3.55,1.74-5.12,.44-1.19,.77-2.06,.77-2.06,0,0,.36,5.74,1.79,3.95,1.44-1.79,2.87-6.1,2.87-6.1,0,0-.5,5.44,.82,3.25,1.32-2.19,2.63-5.7,2.63-5.7,0,0-2.41,8.78-1.97,12.29,.44,3.51,2.19-2.63,2.19-2.63,0,0,1.32,15.8,2.19,13.16,.22-.67,.47-1.79,.72-3.09-.47,6.85-1.18,14.48-2.27,22.66-2.47,18.7-5.11,32.27-7.16,42.88h5.98c3.41-16.11,6.25-42.78,6.88-68.12,.22,.46,.39,.55,.45-.04,.11-1.2-.11-3.05-.35-4.61,0-.4,0-.79,.01-1.18,.66,1.96,1.73,4.73,1.88,2.94,.22-2.63-.44-10.53-.44-10.53,0,0,5.27,12.94,6.36,10.31,.31-.74,.39-1.71,.35-2.72,.21,.33,.46,.43,.75,.09l1.32-1.54s.22,7.24,1.32,5.48l1.1-1.76s1.32,7.02,1.54,5.92c.22-1.1,1.32-2.63,1.32-2.63,0,0,.88,9.65,1.1,5.27,.12-2.49,.11-7.18,.07-10.76,.1,.09,.19,.08,.28,0,.34,3.89,.87,8.14,1.41,4.39,.39-2.74,.14-6.46-.4-9.98,.04-.47,.06-.76,.06-.76l2.03,3.55s0,1.14-.06,2.67c-.06,1.52-.19,3.43-.44,4.95-.51,3.05,2.79-2.79,2.79-2.79,0,0,0,4.06-.5,6.09s2.79-2.79,2.79-2.79c0,0,.51,8.12,.77,10.41s3.19-14.01,3.19-14.01c0,0-7.23-19.26-12.85-22.46-.85-.48-1.75-.87-2.67-1.18l-.18-1.64,3.59,2.15-1.08-4.67s2.51,2.51,5.03,3.23c2.51,.72-1.08-4.67-1.08-4.67,0,0,3.95,3.59,6.1,4.31,2.15,.72-3.23-5.38-3.23-5.38l3.95,1.08s.81,.81,1.84,1.93c1.03,1.12,2.29,2.56,3.19,3.81,1.79,2.51,0-3.95,0-3.95,0,0,2.87,2.87,3.95,4.67,1.08,1.79,0-3.95,0-3.95,0,0,6.1,5.38,7.9,6.82,1.79,1.44-7.65-12.17-7.65-12.17,0,0-18.73-8.51-24.97-6.81-.1,.03-.2,.07-.3,.1,.99-1.07,1.83-2.02,2.37-2.66,2.15-2.51-4.31,1.08-4.31,1.08,0,0,5.74-7.54,6.1-9.33,.36-1.79-4.31,1.08-4.31,1.08,0,0,2.51-2.51,3.59-4.31s-3.59,0-3.59,0c0,0,3.95-3.23,5.74-5.38,1.79-2.15-5.74,0-5.74,0,0,0,5.38-3.59,6.46-5.38,1.08-1.79-5.38,2.87-5.38,2.87l2.87-5.38s-9.69,3.59-12.92,16.87c-.94,3.88-1.58,6.68-2.01,8.71-.04-.15-.07-.3-.11-.45-3.23-13.28-12.92-16.87-12.92-16.87l2.87,5.38s-6.46-4.67-5.38-2.87c1.08,1.79,6.46,5.38,6.46,5.38,0,0-7.54-2.15-5.74,0,1.79,2.15,5.74,5.38,5.74,5.38,0,0-4.67-1.79-3.59,0,1.08,1.79,3.59,4.31,3.59,4.31,0,0-4.67-2.87-4.31-1.08,.08,.42,.47,1.17,1.01,2.06-1.02-.53-2.1-.98-3.21-1.29-6.24-1.7-24.97,6.81-24.97,6.81,0,0-9.45,13.6-7.65,12.17Zm23.48,15.02c-.11,1.83-.21,3.65-.3,5.38-.06-.81-.11-1.62-.14-2.34-.06-1.52-.06-2.67-.06-2.67l.57-1c-.02,.21-.06,.41-.07,.63Zm11.34-21.48l.46,.07c-.3,.54-.59,1.08-.88,1.63-.64,.09-1.29,.2-1.95,.34l2.37-2.03Z" style="fill:#263238;"></path><path d="M126.32,221.82s13.96-15.11,20.38-15.96c1.15-.15,2.31-.15,3.46-.06-.84-.61-1.49-1.15-1.73-1.5-1.03-1.52,4.39-.68,4.39-.68,0,0-3.29-1.34-4.98-2.58s3.31-1.39,3.31-1.39c0,0-4.89-1.45-7.38-2.74-2.49-1.29,5.29-2.23,5.29-2.23,0,0-6.35-1.22-8.04-2.46-1.69-1.24,6.08,.56,6.08,.56l-4.73-3.85s10.33-.45,18.45,10.54c.09,.13,.18,.25,.27,.37-.39-2.04-.89-4.87-1.52-8.8-2.17-13.5,5.37-20.56,5.37-20.56l-.56,6.08s4.15-6.81,3.85-4.73c-.3,2.07-3.87,7.47-3.87,7.47,0,0,6.11-4.91,5.29-2.23-.82,2.68-3.21,7.19-3.21,7.19,0,0,3.61-3.46,3.31-1.39-.3,2.07-1.64,5.36-1.64,5.36,0,0,3.19-4.46,3.55-2.66,.36,1.79-2.01,10.97-2.01,10.97,0,0,4.56-5.81,3.55-2.66-.25,.79-.66,2-1.15,3.37,.08-.07,.16-.14,.24-.2,5.09-3.99,25.66-3.4,25.66-3.4,0,0,13.98,8.88,11.77,8.25s-9.92-3.23-9.92-3.23c0,0,3.22,4.88,1.53,3.64-1.69-1.24-5.45-2.77-5.45-2.77,0,0,4.16,5.26,1.53,3.64-1.31-.81-3.03-1.65-4.42-2.28-1.39-.63-2.44-1.07-2.44-1.07l-4.06,.54s7.33,3.54,5.07,3.71c-2.26,.17-7.3-1.61-7.3-1.61,0,0,5.4,3.57,2.8,3.88s-5.88-1.03-5.88-1.03l2.8,3.88-4.14-.59,.8,1.44c.97-.06,1.95-.06,2.92,.06,6.42,.78,20.56,15.73,20.56,15.73,0,0,3.62,16.16,2.5,14.15-1.12-2.01-4.74-9.3-4.74-9.3,0,0-1.17,5.73-1.49,3.66-.32-2.07-1.9-5.81-1.9-5.81,0,0-.78,6.66-1.49,3.66-.36-1.5-.98-3.31-1.51-4.73-.53-1.43-.98-2.48-.98-2.48l-3.25-2.49s.1,.28,.24,.73c1.87,3.04,3.53,6.37,4.24,9.05,.96,3.66-1.18-.05-3-3.5-.05,.11-.13,.15-.26,.1,1.42,3.29,3.26,7.6,4.11,9.94,1.5,4.13-3.05-4.43-3.05-4.43,0,0-.42,1.84-.19,2.94,.22,1.1-3.71-4.86-3.71-4.86l-.33,2.04c-.33,2.04-3.34-4.55-3.34-4.55l-.62,1.93c-.14,.43-.4,.44-.73,.21,.43,.91,.73,1.84,.74,2.64,0,2.85-9.86-7.04-9.86-7.04,0,0,3.67,7.03,4.49,9.54,.56,1.71-1.5-.44-2.87-1.99,.15,.37,.3,.73,.45,1.1,.83,1.34,1.75,2.97,2.11,4.11,.18,.56-.01,.54-.4,.21,9.46,24.15,17.32,50.49,20.27,66.58,4.37,23.82,14.09,37.18,14.09,37.18l-7.41,3.12s-4.36-7.92-8-20.24c-3.64-12.32-5.88-29.86-14.43-61.16-2.17-7.96-4.47-15.28-6.7-21.77,.27,1.3,.48,2.43,.53,3.13,.21,2.77-7.12-11.28-7.12-11.28,0,0,.76,6.34-1,3.28s-2.94-12.09-2.94-12.09c0,0,.15,3.75-.22,6.28-.36,2.53-2.01-2.68-2.01-2.68,0,0,.35,4.53-.28,6.74-.63,2.21-3.19-2.94-3.19-2.94,0,0,.03,.93,.09,2.2,.08,1.67,.2,3.92,.38,5.39,.31,2.59-3.1-1.81-3.1-1.81,0,0,1.93,7.37,2.49,8.69s-3.41-4.41-3.41-4.41l-.13,11.74s-1.2-3.24-2.82-7.71c-1.07-.41-3.47-2.28-3.47-2.28,0,0,1.57,3.74,2.83,5.42,1.25,1.68-3.66-1.49-3.66-1.49,0,0,2.68,7.69,3.33,9.89,.65,2.2-8.37-11.68-8.37-11.68,0,0-.8-20.56,3.14-25.69,.59-.77,1.28-1.48,2-2.12l-.47-1.58-2.47,3.38-.82-4.72s-1.34,3.29-3.38,4.93-.82-4.72-.82-4.72c0,0-2.25,4.84-3.96,6.34-1.71,1.5,.89-6.22,.89-6.22l-3.22,2.52s-.43,1.06-.95,2.49-1.12,3.24-1.46,4.75c-.68,3.01-1.53-3.64-1.53-3.64,0,0-1.53,3.76-1.83,5.83-.3,2.07-1.53-3.64-1.53-3.64,0,0-3.54,7.33-4.64,9.35-1.1,2.02,2.34-14.18,2.34-14.18Zm51.75-11.44h0Zm-25.85,33.33c.31,.65,.66,1.38,1.03,2.1-.58-1.63-1.19-3.34-1.81-5.07-.07-.2-.12-.4-.18-.61l-.14,1.15s.44,1.05,1.09,2.43Zm1.63-25.45c.05-.61,.11-1.23,.18-1.84l-.45,.12-1.4,2.79c.56-.39,1.11-.75,1.67-1.07Z" style="fill:#263238;"></path><path d="M346.07,193.09s-18.73-8.51-24.97-6.81c-1.11,.3-2.19,.76-3.21,1.29,.54-.89,.93-1.63,1.01-2.06,.36-1.79-4.31,1.08-4.31,1.08,0,0,2.51-2.51,3.59-4.31,1.08-1.79-3.59,0-3.59,0,0,0,3.95-3.23,5.74-5.38,1.79-2.15-5.74,0-5.74,0,0,0,5.38-3.59,6.46-5.38,1.08-1.79-5.38,2.87-5.38,2.87l2.87-5.38s-9.69,3.59-12.92,16.87c-.04,.15-.07,.3-.11,.45-.43-2.03-1.06-4.83-2.01-8.71-3.23-13.28-12.92-16.87-12.92-16.87l2.87,5.38s-6.46-4.67-5.38-2.87c1.08,1.79,6.46,5.38,6.46,5.38,0,0-7.54-2.15-5.74,0,1.79,2.15,5.74,5.38,5.74,5.38,0,0-4.67-1.79-3.59,0,1.08,1.79,3.59,4.31,3.59,4.31,0,0-4.67-2.87-4.31-1.08,.36,1.79,6.1,9.33,6.1,9.33,0,0-6.46-3.59-4.31-1.08,.54,.63,1.38,1.59,2.37,2.66-.1-.03-.2-.07-.3-.1-6.24-1.7-24.97,6.81-24.97,6.81,0,0-9.45,13.6-7.65,12.17,1.79-1.44,7.9-6.82,7.9-6.82,0,0-1.08,5.74,0,3.95,1.08-1.79,3.95-4.67,3.95-4.67,0,0-1.79,6.46,0,3.95,.9-1.26,2.15-2.69,3.19-3.81,1.03-1.12,1.84-1.93,1.84-1.93l3.95-1.08s-5.38,6.1-3.23,5.38c2.15-.72,6.1-4.31,6.1-4.31,0,0-3.59,5.38-1.08,4.67,2.51-.72,5.03-3.23,5.03-3.23l-1.08,4.67,3.59-2.15-.18,1.64c-.92,.32-1.82,.7-2.67,1.18-5.62,3.21-12.85,22.46-12.85,22.46,0,0,2.93,16.3,3.19,14.01,.25-2.28,.77-10.41,.77-10.41,0,0,3.3,4.82,2.79,2.79-.51-2.03-.5-6.09-.5-6.09,0,0,3.3,5.84,2.79,2.79-.25-1.52-.38-3.43-.44-4.95-.06-1.52-.06-2.67-.06-2.67l2.03-3.55s.02,.3,.06,.76c-.54,3.53-.79,7.24-.4,9.98,.54,3.75,1.07-.51,1.41-4.39,.09,.08,.18,.09,.28,0-.04,3.58-.05,8.27,.07,10.76,.22,4.39,1.1-5.27,1.1-5.27,0,0,1.1,1.54,1.32,2.63,.22,1.1,1.54-5.92,1.54-5.92l1.1,1.76c1.1,1.76,1.32-5.48,1.32-5.48l1.32,1.54c.29,.34,.54,.25,.75-.09-.04,1.01,.04,1.98,.35,2.72,1.1,2.63,6.36-10.31,6.36-10.31,0,0-.66,7.9-.44,10.53,.15,1.79,1.21-.98,1.88-2.94,0,.39,0,.79,.01,1.18-.25,1.56-.46,3.41-.35,4.61,.05,.58,.22,.5,.45,.04,.64,25.93,3.61,53.25,7.12,69.23,5.2,23.65,1.42,39.74,1.42,39.74h8.04s.95-8.99-.47-21.76c-1.42-12.77-6.15-29.8-10.41-61.97-1.08-8.18-1.8-15.82-2.27-22.66,.25,1.3,.5,2.42,.72,3.09,.88,2.63,2.19-13.16,2.19-13.16,0,0,1.76,6.14,2.19,2.63,.44-3.51-1.97-12.29-1.97-12.29,0,0,1.32,3.51,2.63,5.7,1.32,2.19,.82-3.25,.82-3.25,0,0,1.44,4.31,2.87,6.1,1.44,1.79,1.79-3.95,1.79-3.95,0,0,.33,.87,.77,2.06,.58,1.57,1.33,3.69,1.74,5.12,.72,2.51,2.15-2.87,2.15-2.87,0,0,1.08,7.54,1.08,8.97s1.44-5.38,1.44-5.38l4.67,10.77s-.15-3.45-.39-8.2c.82-.8,2.32-3.44,2.32-3.44,0,0,0,4.06-.5,6.09s2.79-2.79,2.79-2.79c0,0,.51,8.12,.77,10.41,.25,2.28,3.19-14.01,3.19-14.01,0,0-7.23-19.26-12.85-22.46-.85-.48-1.75-.87-2.67-1.18l-.18-1.64,3.59,2.15-1.08-4.67s2.51,2.51,5.03,3.23c2.51,.72-1.08-4.67-1.08-4.67,0,0,3.95,3.59,6.1,4.31,2.15,.72-3.23-5.38-3.23-5.38l3.95,1.08s.81,.81,1.84,1.93c1.03,1.12,2.29,2.56,3.19,3.81,1.79,2.51,0-3.95,0-3.95,0,0,2.87,2.87,3.95,4.67,1.08,1.79,0-3.95,0-3.95,0,0,6.1,5.38,7.9,6.82,1.79,1.44-7.65-12.17-7.65-12.17Zm-52.13,9.51v.02h-.02l.02-.02Zm36.75,20.71c-.03,.72-.08,1.53-.14,2.34-.09-1.73-.19-3.54-.3-5.38-.01-.21-.05-.42-.07-.63l.57,1s0,1.14-.06,2.67Zm-11.36-22.83c-.29-.54-.58-1.09-.88-1.62l.46-.07,2.37,2.03c-.66-.14-1.32-.26-1.95-.34Z" style="fill:#263238;"></path><path d="M249.18,243.91c1.79-1.44,7.9-6.82,7.9-6.82,0,0-1.08,5.74,0,3.95,1.08-1.79,3.95-4.67,3.95-4.67,0,0-1.79,6.46,0,3.95,.9-1.26,2.15-2.69,3.19-3.81,1.03-1.12,1.84-1.93,1.84-1.93l3.95-1.08s-5.38,6.1-3.23,5.38c2.15-.72,6.1-4.31,6.1-4.31,0,0-3.59,5.38-1.08,4.67,2.51-.72,5.03-3.23,5.03-3.23l-1.08,4.67,3.59-2.15-.18,1.64c-.92,.32-1.82,.7-2.67,1.18-5.62,3.21-12.85,22.46-12.85,22.46,0,0,2.93,16.3,3.19,14.01,.25-2.28,.77-10.41,.77-10.41,0,0,3.3,4.82,2.79,2.79-.51-2.03-.5-6.09-.5-6.09,0,0,3.3,5.84,2.79,2.79-.25-1.52-.38-3.43-.44-4.95-.06-1.52-.06-2.67-.06-2.67l2.03-3.55s.02,.3,.06,.76c-.54,3.53-.79,7.24-.4,9.98,.54,3.75,1.07-.51,1.41-4.39,.09,.08,.18,.09,.28,0-.04,3.58-.05,8.27,.07,10.76,.22,4.39,1.1-5.27,1.1-5.27,0,0,1.1,1.54,1.32,2.63,.22,1.1,1.54-5.92,1.54-5.92l1.1,1.76c1.1,1.75,1.32-5.48,1.32-5.48l1.32,1.54c.29,.34,.54,.25,.75-.09-.04,1.01,.04,1.98,.35,2.72,1.1,2.63,6.36-10.31,6.36-10.31,0,0-.66,7.9-.44,10.53,.15,1.79,1.21-.98,1.88-2.94,0,.39,0,.79,.01,1.18-.25,1.56-.46,3.41-.35,4.61,.05,.58,.22,.5,.45,.04,.65,25.93,3.61,53.25,7.12,69.23,1.31,5.96,2.05,11.44,2.42,16.3h6.36c-1.62-12.59-6.13-29.51-10.2-60.29-1.08-8.18-1.8-15.82-2.27-22.66,.25,1.3,.5,2.42,.72,3.09,.88,2.63,2.19-13.16,2.19-13.16,0,0,1.76,6.14,2.19,2.63,.44-3.51-1.97-12.29-1.97-12.29,0,0,1.32,3.51,2.63,5.7,1.32,2.19,.82-3.25,.82-3.25,0,0,1.44,4.31,2.87,6.1,1.44,1.79,1.79-3.95,1.79-3.95,0,0,.33,.87,.77,2.06,.58,1.57,1.33,3.69,1.74,5.12,.72,2.51,2.15-2.87,2.15-2.87,0,0,1.08,7.54,1.08,8.97s1.44-5.38,1.44-5.38l4.67,10.77s-.15-3.45-.39-8.2c.82-.8,2.32-3.44,2.32-3.44,0,0,0,4.06-.5,6.09-.51,2.03,2.79-2.79,2.79-2.79,0,0,.51,8.12,.77,10.41,.26,2.28,3.19-14.01,3.19-14.01,0,0-7.23-19.26-12.85-22.46-.85-.48-1.75-.87-2.67-1.18l-.18-1.64,3.59,2.15-1.08-4.67s2.51,2.51,5.03,3.23c2.51,.72-1.08-4.67-1.08-4.67,0,0,3.95,3.59,6.1,4.31,2.15,.72-3.23-5.38-3.23-5.38l3.95,1.08s.81,.81,1.84,1.93c1.03,1.12,2.29,2.56,3.19,3.81,1.79,2.51,0-3.95,0-3.95,0,0,2.87,2.87,3.95,4.67,1.08,1.79,0-3.95,0-3.95,0,0,6.1,5.38,7.9,6.82,1.79,1.44-7.65-12.17-7.65-12.17,0,0-18.73-8.51-24.97-6.81-1.11,.3-2.19,.76-3.21,1.29,.54-.89,.93-1.63,1.01-2.06,.36-1.79-4.31,1.08-4.31,1.08,0,0,2.51-2.51,3.59-4.31,1.08-1.79-3.59,0-3.59,0,0,0,3.95-3.23,5.74-5.38,1.79-2.15-5.74,0-5.74,0,0,0,5.38-3.59,6.46-5.38,1.08-1.79-5.38,2.87-5.38,2.87l2.87-5.38s-9.69,3.59-12.92,16.87c-.04,.15-.07,.3-.11,.45-.43-2.03-1.06-4.83-2.01-8.71-3.23-13.28-12.92-16.87-12.92-16.87l2.87,5.38s-6.46-4.67-5.38-2.87,6.46,5.38,6.46,5.38c0,0-7.54-2.15-5.74,0s5.74,5.38,5.74,5.38c0,0-4.67-1.79-3.59,0,1.08,1.79,3.59,4.31,3.59,4.31,0,0-4.67-2.87-4.31-1.08,.36,1.79,6.1,9.33,6.1,9.33,0,0-6.46-3.59-4.31-1.08,.54,.63,1.38,1.59,2.37,2.66-.1-.03-.2-.07-.3-.1-6.24-1.7-24.97,6.81-24.97,6.81,0,0-9.45,13.6-7.65,12.17Zm69.28,13.6s0,1.14-.06,2.67c-.03,.72-.07,1.53-.14,2.34-.09-1.73-.19-3.54-.3-5.38-.01-.21-.05-.42-.07-.63l.57,1Zm-11.84-21.85l2.37,2.03c-.66-.14-1.32-.25-1.95-.34-.29-.54-.58-1.09-.88-1.63l.46-.07Z" style="fill:#263238;"></path><g><path d="M110.99,337.28s6.02-23.78,18.06-30.35c12.04-6.57,15.41,1.12,26.73-3.61,11.32-4.73,12.14-18.95,30.71-21.33,18.57-2.38,25.68,9.54,28.88,13.89s11.42,.87,21.25-2.97c9.83-3.84,12.96,2.78,16.05,6.59,3.08,3.82,7.32,.08,15.66-2.87,8.34-2.95,16.71,1.95,18.96,7.08l2.25,5.12-81.96,7.84,17.95,5.05s-32.39,5.97-44.71,8.67c-12.33,2.7-37.7,9.94-37.7,9.94l11.22-10.32-43.34,7.25Z" style="fill:#407BFF;"></path><line x1="145.94" y1="330.18" x2="135.15" y2="316.82" style="fill: none; stroke: #263238; stroke-miterlimit: 10;"></line><line x1="141.31" y1="324.46" x2="142.59" y2="317.44" style="fill: none; stroke: #263238; stroke-miterlimit: 10;"></line><line x1="188.73" y1="328.11" x2="180.08" y2="314.28" style="fill: none; stroke: #263238; stroke-miterlimit: 10;"></line><polyline points="185.98 312.99 185.71 322.03 173.45 322.47" style="fill: none; stroke: #263238; stroke-miterlimit: 10;"></polyline><polyline points="224.03 304.66 214.95 314.51 204.71 295.97" style="fill: none; stroke: #263238; stroke-miterlimit: 10;"></polyline><line x1="218.32" y1="310.59" x2="214.82" y2="304.73" style="fill: none; stroke: #263238; stroke-miterlimit: 10;"></line><line x1="266.58" y1="310.24" x2="272.46" y2="301.77" style="fill: none; stroke: #263238; stroke-miterlimit: 10;"></line><line x1="267.91" y1="307.46" x2="279.48" y2="303.55" style="fill: none; stroke: #263238; stroke-miterlimit: 10;"></line><line x1="238.48" y1="313.08" x2="241.09" y2="299.8" style="fill: none; stroke: #263238; stroke-miterlimit: 10;"></line><polyline points="246.68 301.34 239.9 306.97 232.77 302.18" style="fill: none; stroke: #263238; stroke-miterlimit: 10;"></polyline><line x1="209.09" y1="303.77" x2="194.28" y2="301.77" style="fill: none; stroke: #263238; stroke-miterlimit: 10;"></line><line x1="143.4" y1="326.72" x2="129.09" y2="325.72" style="fill: none; stroke: #263238; stroke-miterlimit: 10;"></line></g><g><path d="M434.25,177.33s8.5,6.27,9.06,15.84c.56,9.57,.96,18.78,.96,18.78l-5.2-12.01s-1.6,7.6-1.6,6-1.2-10.01-1.2-10.01c0,0-1.6,6-2.4,3.2-.45-1.59-1.3-3.96-1.94-5.71-.49-1.33-.86-2.3-.86-2.3,0,0-.4,6.4-2,4.4-1.6-2-3.2-6.8-3.2-6.8,0,0,.56,6.07-.91,3.62s-2.94-6.36-2.94-6.36c0,0,2.69,9.78,2.2,13.7-.49,3.91-2.45-2.94-2.45-2.94,0,0-1.47,17.61-2.45,14.68-.98-2.94-2.45-13.7-2.45-13.7,0,0-2.45,10.03-2.69,7.34-.24-2.69,.98-8.32,.98-8.32,0,0-2.45,8.07-2.69,5.14s.49-11.74,.49-11.74c0,0-5.87,14.43-7.09,11.5s.73-9.05,.73-9.05c0,0-.49,7.83-1.96,6.11l-1.47-1.71s-.24,8.07-1.47,6.11l-1.22-1.96s-1.47,7.83-1.71,6.6-1.47-2.94-1.47-2.94c0,0-.98,10.76-1.22,5.87s0-17.37,0-17.37c0,0-.98,17.12-1.96,10.27-.98-6.85,1.61-19.16,3.49-22.3,1.89-3.14,12.65-19.52,17.54-21.73s11.01,3.18,13.45,7.09c2.45,3.91,5.62,10.65,5.62,10.65Z" style="fill:#263238; stroke: #263238; stroke-miterlimit: 10;"></path><path d="M417.87,170.83s-1.56,26.57,3.19,62.43c4.75,35.86,10.02,54.85,11.6,69.09,1.58,14.24,.53,24.26,.53,24.26h-8.97s4.22-17.93-1.58-44.3c-5.8-26.37-10.25-80.46-6.97-116.17l2.21,4.69Z" style="fill:#adadad; stroke: #263238; stroke-miterlimit: 10;"></path><g><path d="M416.71,161.23s.4-.8-3.2-15.61c-3.6-14.81-14.41-18.81-14.41-18.81l3.2,6s-7.2-5.2-6-3.2c1.2,2,7.2,6,7.2,6,0,0-8.4-2.4-6.4,0s6.4,6,6.4,6c0,0-5.2-2-4,0,1.2,2,4,4.8,4,4.8,0,0-5.2-3.2-4.8-1.2s6.8,10.41,6.8,10.41c0,0-7.2-4-4.8-1.2s10.01,11.21,12.41,11.21,4.4,0,3.6-4.4Z" style="fill:#407BFF;"></path><path d="M412.67,170.43s-.4-.8,3.2-15.61c3.6-14.81,14.41-18.81,14.41-18.81l-3.2,6s7.2-5.2,6-3.2c-1.2,2-7.2,6-7.2,6,0,0,8.4-2.4,6.4,0s-6.4,6-6.4,6c0,0,5.2-2,4,0-1.2,2-4,4.8-4,4.8,0,0,5.2-3.2,4.8-1.2-.4,2-6.8,10.41-6.8,10.41,0,0,7.2-4,4.8-1.2-2.4,2.8-10.01,11.21-12.41,11.21s-4.4,0-3.6-4.4Z" style="fill:#407BFF;"></path><path d="M420.47,164.14s5.69-6.96,12.65-8.86c6.96-1.9,27.84,7.59,27.84,7.59,0,0,10.53,15.16,8.53,13.56-2-1.6-8.8-7.6-8.8-7.6,0,0,1.2,6.4,0,4.4-1.2-2-4.4-5.2-4.4-5.2,0,0,2,7.2,0,4.4-1-1.4-2.4-3-3.55-4.25-1.15-1.25-2.05-2.15-2.05-2.15l-4.4-1.2s6,6.8,3.6,6c-2.4-.8-6.8-4.8-6.8-4.8,0,0,4,6,1.2,5.2s-5.6-3.6-5.6-3.6l1.2,5.2-4-2.4,.4,3.6-2.74-2.34-2.87-2.46-2.8,.4s4.8,6.8,2.4,6c-2.4-.8-6.8-5.6-6.8-5.6l-.8,4s-2.8-8.8-4.4-5.2c-1.6,3.6,2.21-4.69,2.21-4.69Z" style="fill:#407BFF;"></path><path d="M423.84,170.9s8.95-.9,15.21,2.68c6.27,3.58,14.33,25.05,14.33,25.05,0,0-3.27,18.17-3.55,15.62-.28-2.55-.85-11.6-.85-11.6,0,0-3.68,5.38-3.11,3.11s.56-6.79,.56-6.79c0,0-3.68,6.51-3.11,3.11,.28-1.7,.42-3.82,.49-5.52,.07-1.7,.07-2.97,.07-2.97l-2.27-3.96s-.56,9.06-1.69,6.79c-1.13-2.26-1.42-8.21-1.42-8.21,0,0-1.41,7.08-2.83,4.53-1.42-2.55-1.42-6.51-1.42-6.51l-2.83,4.53-1.13-4.53-2.26,2.83-.28-3.59-.29-3.77-2.26-1.7s-1.41,8.21-2.54,5.94c-1.13-2.26-.85-8.77-.85-8.77l-3.39,2.27s4.24-8.21,.56-6.79,4.88-1.76,4.88-1.76Z" style="fill:#407BFF;"></path><path d="M415.66,166.14s-5.69-6.96-12.65-8.86c-6.96-1.9-27.84,7.59-27.84,7.59,0,0-10.53,15.16-8.53,13.56,2-1.6,8.8-7.6,8.8-7.6,0,0-1.2,6.4,0,4.4,1.2-2,4.4-5.2,4.4-5.2,0,0-2,7.2,0,4.4,1-1.4,2.4-3,3.55-4.25s2.05-2.15,2.05-2.15l4.4-1.2s-6,6.8-3.6,6c2.4-.8,6.8-4.8,6.8-4.8,0,0-4,6-1.2,5.2,2.8-.8,5.6-3.6,5.6-3.6l-1.2,5.2,4-2.4-.4,3.6,2.74-2.34,2.87-2.46,2.8,.4s-4.8,6.8-2.4,6c2.4-.8,6.8-5.6,6.8-5.6l.8,4s2.8-8.8,4.4-5.2c1.6,3.6-2.21-4.69-2.21-4.69Z" style="fill:#407BFF;"></path><path d="M412.29,172.9s-8.95-.9-15.21,2.68c-6.27,3.58-14.33,25.05-14.33,25.05,0,0,3.27,18.17,3.55,15.62,.28-2.55,.86-11.6,.86-11.6,0,0,3.68,5.38,3.11,3.11s-.56-6.79-.56-6.79c0,0,3.68,6.51,3.11,3.11-.28-1.7-.42-3.82-.49-5.52-.07-1.7-.07-2.97-.07-2.97l2.27-3.96s.56,9.06,1.69,6.79c1.13-2.26,1.42-8.21,1.42-8.21,0,0,1.41,7.08,2.83,4.53,1.42-2.55,1.42-6.51,1.42-6.51l2.83,4.53,1.13-4.53,2.26,2.83,.28-3.59,.29-3.77,2.26-1.7s1.41,8.21,2.54,5.94c1.13-2.26,.85-8.77,.85-8.77l3.39,2.27s-4.24-8.21-.56-6.79c3.68,1.42-4.88-1.76-4.88-1.76Z" style="fill:#407BFF;"></path></g></g><g><path d="M306.11,175.7s-8.5,6.27-9.06,15.84c-.56,9.57-.96,18.78-.96,18.78l5.2-12.01s1.6,7.6,1.6,6,1.2-10.01,1.2-10.01c0,0,1.6,6,2.4,3.2,.45-1.59,1.3-3.96,1.94-5.71,.49-1.33,.86-2.3,.86-2.3,0,0,.4,6.4,2,4.4,1.6-2,3.2-6.8,3.2-6.8,0,0-.56,6.07,.91,3.62,1.47-2.45,2.94-6.36,2.94-6.36,0,0-2.69,9.78-2.2,13.7,.49,3.91,2.45-2.94,2.45-2.94,0,0,1.47,17.61,2.45,14.68s2.45-13.7,2.45-13.7c0,0,2.45,10.03,2.69,7.34,.24-2.69-.98-8.32-.98-8.32,0,0,2.45,8.07,2.69,5.14,.24-2.94-.49-11.74-.49-11.74,0,0,5.87,14.43,7.09,11.5,1.22-2.94-.73-9.05-.73-9.05,0,0,.49,7.83,1.96,6.12l1.47-1.71s.24,8.07,1.47,6.11l1.22-1.96s1.47,7.83,1.71,6.6,1.47-2.94,1.47-2.94c0,0,.98,10.76,1.22,5.87s0-17.37,0-17.37c0,0,.98,17.12,1.96,10.27,.98-6.85-1.61-19.16-3.49-22.3-1.89-3.14-12.65-19.52-17.54-21.73s-11.01,3.18-13.45,7.09c-2.45,3.91-5.62,10.65-5.62,10.65Z" style="fill:#263238; stroke: #263238; stroke-miterlimit: 10;"></path><path d="M322.5,169.2s1.56,26.57-3.19,62.43c-4.75,35.86-10.02,54.85-11.6,69.09-1.58,14.24-.53,24.26-.53,24.26h8.97s-4.22-17.93,1.58-44.3c5.8-26.37,10.25-80.46,6.97-116.17l-2.21,4.69Z" style="fill:#adadad; stroke: #263238; stroke-miterlimit: 10;"></path><g><path d="M323.65,159.59s-.4-.8,3.2-15.61c3.6-14.81,14.41-18.81,14.41-18.81l-3.2,6s7.2-5.2,6-3.2c-1.2,2-7.2,6-7.2,6,0,0,8.4-2.4,6.4,0s-6.4,6-6.4,6c0,0,5.2-2,4,0-1.2,2-4,4.8-4,4.8,0,0,5.2-3.2,4.8-1.2s-6.8,10.41-6.8,10.41c0,0,7.2-4,4.8-1.2s-10.01,11.21-12.41,11.21-4.4,0-3.6-4.4Z" style="fill:#407BFF;"></path><path d="M327.7,168.8s.4-.8-3.2-15.61c-3.6-14.81-14.41-18.81-14.41-18.81l3.2,6s-7.2-5.2-6-3.2c1.2,2,7.2,6,7.2,6,0,0-8.4-2.4-6.4,0,2,2.4,6.4,6,6.4,6,0,0-5.2-2-4,0,1.2,2,4,4.8,4,4.8,0,0-5.2-3.2-4.8-1.2,.4,2,6.8,10.41,6.8,10.41,0,0-7.2-4-4.8-1.2,2.4,2.8,10.01,11.21,12.41,11.21s4.4,0,3.6-4.4Z" style="fill:#407BFF;"></path><path d="M319.89,162.5s-5.69-6.96-12.65-8.86c-6.96-1.9-27.84,7.59-27.84,7.59,0,0-10.53,15.16-8.53,13.56s8.8-7.6,8.8-7.6c0,0-1.2,6.4,0,4.4,1.2-2,4.4-5.2,4.4-5.2,0,0-2,7.2,0,4.4,1-1.4,2.4-3,3.55-4.25,1.15-1.25,2.05-2.15,2.05-2.15l4.4-1.2s-6,6.8-3.6,6c2.4-.8,6.8-4.8,6.8-4.8,0,0-4,6-1.2,5.2,2.8-.8,5.6-3.6,5.6-3.6l-1.2,5.2,4-2.4-.4,3.6,2.74-2.34,2.87-2.46,2.8,.4s-4.8,6.8-2.4,6c2.4-.8,6.8-5.6,6.8-5.6l.8,4s2.8-8.8,4.4-5.2c1.6,3.6-2.21-4.69-2.21-4.69Z" style="fill:#407BFF;"></path><path d="M316.52,169.27s-8.95-.9-15.21,2.68c-6.27,3.58-14.33,25.05-14.33,25.05,0,0,3.27,18.17,3.55,15.62,.28-2.55,.85-11.6,.85-11.6,0,0,3.68,5.38,3.11,3.11s-.56-6.79-.56-6.79c0,0,3.68,6.51,3.11,3.11-.28-1.7-.42-3.82-.49-5.52-.07-1.7-.07-2.97-.07-2.97l2.27-3.96s.56,9.06,1.69,6.79c1.13-2.26,1.42-8.21,1.42-8.21,0,0,1.41,7.08,2.83,4.53,1.42-2.55,1.42-6.51,1.42-6.51l2.83,4.53,1.13-4.53,2.26,2.83,.28-3.59,.29-3.77,2.26-1.7s1.41,8.21,2.54,5.94c1.13-2.26,.85-8.77,.85-8.77l3.39,2.27s-4.24-8.21-.56-6.79-4.88-1.76-4.88-1.76Z" style="fill:#407BFF;"></path><path d="M324.7,164.5s5.69-6.96,12.65-8.86c6.96-1.9,27.84,7.59,27.84,7.59,0,0,10.53,15.16,8.53,13.56-2-1.6-8.8-7.6-8.8-7.6,0,0,1.2,6.4,0,4.4-1.2-2-4.4-5.2-4.4-5.2,0,0,2,7.2,0,4.4-1-1.4-2.4-3-3.55-4.25s-2.05-2.15-2.05-2.15l-4.4-1.2s6,6.8,3.6,6c-2.4-.8-6.8-4.8-6.8-4.8,0,0,4,6,1.2,5.2-2.8-.8-5.6-3.6-5.6-3.6l1.2,5.2-4-2.4,.4,3.6-2.74-2.34-2.87-2.46-2.8,.4s4.8,6.8,2.4,6c-2.4-.8-6.8-5.6-6.8-5.6l-.8,4s-2.8-8.8-4.4-5.2c-1.6,3.6,2.21-4.69,2.21-4.69Z" style="fill:#407BFF;"></path><path d="M328.07,171.27s8.95-.9,15.21,2.68c6.27,3.58,14.33,25.05,14.33,25.05,0,0-3.27,18.17-3.55,15.62-.28-2.55-.86-11.6-.86-11.6,0,0-3.68,5.38-3.11,3.11s.56-6.79,.56-6.79c0,0-3.68,6.51-3.11,3.11,.28-1.7,.42-3.82,.49-5.52,.07-1.7,.07-2.97,.07-2.97l-2.27-3.96s-.56,9.06-1.69,6.79c-1.13-2.26-1.42-8.21-1.42-8.21,0,0-1.41,7.08-2.83,4.53s-1.42-6.51-1.42-6.51l-2.83,4.53-1.13-4.53-2.26,2.83-.28-3.59-.29-3.77-2.26-1.7s-1.41,8.21-2.54,5.94c-1.13-2.26-.85-8.77-.85-8.77l-3.39,2.27s4.24-8.21,.56-6.79c-3.68,1.42,4.88-1.76,4.88-1.76Z" style="fill:#407BFF;"></path></g></g><g><path d="M200.39,162.35s-9.14,6.75-9.75,17.04c-.61,10.3-1.04,20.2-1.04,20.2l5.6-12.92s1.72,8.18,1.72,6.46,1.29-10.76,1.29-10.76c0,0,1.72,6.46,2.58,3.44,.49-1.71,1.4-4.26,2.09-6.14,.53-1.43,.93-2.47,.93-2.47,0,0,.43,6.89,2.15,4.74,1.72-2.15,3.44-7.32,3.44-7.32,0,0-.6,6.53,.98,3.9,1.58-2.63,3.16-6.84,3.16-6.84,0,0-2.89,10.53-2.37,14.74,.53,4.21,2.63-3.16,2.63-3.16,0,0,1.58,18.95,2.63,15.79,1.05-3.16,2.63-14.74,2.63-14.74,0,0,2.63,10.79,2.89,7.89,.26-2.89-1.05-8.95-1.05-8.95,0,0,2.63,8.68,2.89,5.53,.26-3.16-.53-12.63-.53-12.63,0,0,6.32,15.52,7.63,12.37,1.32-3.16-.79-9.74-.79-9.74,0,0,.53,8.42,2.1,6.58l1.58-1.84s.26,8.68,1.58,6.58l1.32-2.11s1.58,8.42,1.84,7.1c.26-1.32,1.58-3.16,1.58-3.16,0,0,1.05,11.58,1.32,6.32,.26-5.26,0-18.68,0-18.68,0,0,1.05,18.42,2.11,11.05,1.05-7.37-1.73-20.62-3.76-23.99-2.03-3.37-13.61-21-18.87-23.37-5.26-2.37-11.84,3.42-14.47,7.63-2.63,4.21-6.05,11.46-6.05,11.46Z" style="fill:#263238; stroke: #263238; stroke-miterlimit: 10;"></path><path d="M218.02,155.36s1.68,28.58-3.43,67.16c-5.11,38.58-10.78,59.01-12.48,74.32s-.57,26.1-.57,26.1h9.65s-4.54-19.29,1.7-47.66,11.03-86.55,7.5-124.98l-2.37,5.05Z" style="fill:#adadad; stroke: #263238; stroke-miterlimit: 10;"></path><g><path d="M219.27,145.03s-.43-.86,3.44-16.79c3.87-15.93,15.5-20.24,15.5-20.24l-3.44,6.46s7.75-5.6,6.46-3.44-7.75,6.46-7.75,6.46c0,0,9.04-2.58,6.89,0-2.15,2.58-6.89,6.46-6.89,6.46,0,0,5.6-2.15,4.31,0-1.29,2.15-4.31,5.17-4.31,5.17,0,0,5.6-3.44,5.17-1.29-.43,2.15-7.32,11.19-7.32,11.19,0,0,7.75-4.31,5.17-1.29-2.58,3.01-10.76,12.06-13.35,12.06s-4.74,0-3.87-4.74Z" style="fill:#407BFF;"></path><path d="M223.62,154.93s.43-.86-3.44-16.79c-3.87-15.93-15.5-20.24-15.5-20.24l3.44,6.46s-7.75-5.6-6.46-3.44c1.29,2.15,7.75,6.46,7.75,6.46,0,0-9.04-2.58-6.89,0,2.15,2.58,6.89,6.46,6.89,6.46,0,0-5.6-2.15-4.31,0s4.31,5.17,4.31,5.17c0,0-5.6-3.44-5.17-1.29s7.32,11.19,7.32,11.19c0,0-7.75-4.31-5.17-1.29,2.58,3.01,10.76,12.06,13.35,12.06s4.74,0,3.87-4.74Z" style="fill:#407BFF;"></path><path d="M215.22,148.16s-6.13-7.49-13.61-9.53-29.95,8.17-29.95,8.17c0,0-11.33,16.31-9.18,14.59s9.47-8.18,9.47-8.18c0,0-1.29,6.89,0,4.74s4.74-5.6,4.74-5.6c0,0-2.15,7.75,0,4.74,1.08-1.51,2.58-3.23,3.82-4.57s2.21-2.31,2.21-2.31l4.74-1.29s-6.46,7.32-3.87,6.46,7.32-5.17,7.32-5.17c0,0-4.31,6.46-1.29,5.6,3.01-.86,6.03-3.87,6.03-3.87l-1.29,5.6,4.31-2.58-.43,3.87,2.94-2.52,3.08-2.64,3.01,.43s-5.17,7.32-2.58,6.46c2.58-.86,7.32-6.03,7.32-6.03l.86,4.31s3.01-9.47,4.74-5.6c1.72,3.87-2.37-5.05-2.37-5.05Z" style="fill:#407BFF;"></path><path d="M211.59,155.44s-9.63-.97-16.37,2.88c-6.74,3.85-15.42,26.94-15.42,26.94,0,0,3.51,19.55,3.82,16.81,.31-2.74,.92-12.48,.92-12.48,0,0,3.95,5.79,3.35,3.35-.61-2.44-.61-7.31-.61-7.31,0,0,3.95,7,3.35,3.35-.3-1.83-.45-4.11-.53-5.94-.08-1.83-.07-3.2-.07-3.2l2.44-4.26s.6,9.74,1.82,7.31c1.22-2.43,1.53-8.83,1.53-8.83,0,0,1.52,7.61,3.04,4.87,1.52-2.74,1.53-7,1.53-7l3.04,4.87,1.22-4.87,2.43,3.05,.3-3.86,.31-4.05,2.44-1.83s1.52,8.83,2.74,6.39,.92-9.44,.92-9.44l3.65,2.44s-4.56-8.83-.6-7.31c3.96,1.52-5.25-1.9-5.25-1.9Z" style="fill:#407BFF;"></path><path d="M220.39,150.31s6.13-7.49,13.61-9.53,29.95,8.17,29.95,8.17c0,0,11.33,16.31,9.18,14.59-2.15-1.72-9.47-8.18-9.47-8.18,0,0,1.29,6.89,0,4.74-1.29-2.15-4.74-5.6-4.74-5.6,0,0,2.15,7.75,0,4.74-1.08-1.51-2.58-3.23-3.82-4.57s-2.21-2.31-2.21-2.31l-4.74-1.29s6.46,7.32,3.87,6.46c-2.58-.86-7.32-5.17-7.32-5.17,0,0,4.31,6.46,1.29,5.6-3.01-.86-6.03-3.87-6.03-3.87l1.29,5.6-4.31-2.58,.43,3.87-2.94-2.52-3.08-2.64-3.01,.43s5.17,7.32,2.58,6.46c-2.58-.86-7.32-6.03-7.32-6.03l-.86,4.31s-3.01-9.47-4.74-5.6c-1.72,3.87,2.37-5.05,2.37-5.05Z" style="fill:#407BFF;"></path><path d="M224.02,157.59s9.63-.97,16.37,2.88c6.74,3.85,15.42,26.94,15.42,26.94,0,0-3.51,19.55-3.82,16.81-.31-2.74-.92-12.48-.92-12.48,0,0-3.95,5.79-3.35,3.35,.61-2.44,.6-7.31,.6-7.31,0,0-3.95,7-3.35,3.35,.3-1.83,.45-4.11,.53-5.94,.08-1.83,.07-3.2,.07-3.2l-2.44-4.26s-.6,9.74-1.82,7.31c-1.22-2.43-1.53-8.83-1.53-8.83,0,0-1.52,7.61-3.04,4.87-1.52-2.74-1.53-7-1.53-7l-3.04,4.87-1.22-4.87-2.43,3.05-.3-3.86-.31-4.05-2.44-1.83s-1.52,8.83-2.74,6.39c-1.22-2.43-.92-9.44-.92-9.44l-3.65,2.44s4.56-8.83,.6-7.31c-3.96,1.52,5.25-1.9,5.25-1.9Z" style="fill:#407BFF;"></path></g></g><g><path d="M549.79,353.28l-16.45-5.01s-89.23-28.71-109.4-31.81c-20.17-3.1-129.13-20.99-238.98,1.55-25.13,5.16-52.08,11.38-67.5,16.29-8.27,2.64-31.81,10.09-40.35,13.19-6.73,2.45-14.64,4.87-17.7,5.78h490.39Z" style="fill:#fff;"></path><path d="M548.07,352.76l-14.73-4.48s-2.98-.96-7.95-2.54c-5.39-.16,.78,2.65-7.87,3.52-9.59,.96-12.94,.48-19.65-.48-6.71-.96-12.94-3.36-18.21-2.4-5.27,.96,2.4,3.35-6.23,3.83-8.63,.48-18.69-1.92-33.07-3.83-14.38-1.92-19.65-5.27-18.21,1.44,1.44,6.71-22.05-2.4-34.99-4.31-12.94-1.92-7.67,3.36-9.59,5.27s-20.61,0-35.95-1.44c-15.34-1.44-21.09,2.4-43.62,2.88-22.53,.48-31.63-2.88-35.47-2.88s-10.07-.48-10.07-.48l-13.42,2.4s-11.98,0-21.57-1.92c-9.59-1.92-15.34,3.83-32.59,3.83s-17.25-4.31-20.13-6.23c-2.88-1.92-7.19,1.44-13.42,3.83-6.23,2.4-8.15,0-11.98-1.92-3.83-1.92-14.86,2.4-24.92,3.35-10.07,.96-4.31,0-2.88-3.83,1.44-3.83-2.4-2.88-16.78,.96-14.38,3.83-35.38,5.94-35.38,5.94h488.95c-.09-.18-.18-.35-.28-.52Z" style="fill:#adadad;"></path><path d="M549.79,353.28l-16.45-5.01s-89.23-28.71-109.4-31.81c-20.17-3.1-129.13-20.99-238.98,1.55-25.13,5.16-52.08,11.38-67.5,16.29-8.27,2.64-31.81,10.09-40.35,13.19-6.73,2.45-14.64,4.87-17.7,5.78h490.39Z" style="fill: none; stroke: #263238; stroke-miterlimit: 10;"></path></g><path d="M129.27,262.39v0h0Z" style="fill:#263238;"></path><path d="M482.17,246.53v.02h.02l-.02-.02Z" style="fill:#263238;"></path><path d="M355.07,228.72v.02h-.02l.02-.02Z" style="fill:#263238;"></path><path d="M263.07,227.99v.02h.02l-.02-.02Z" style="fill:#263238;"></path><path d="M228.28,256.87v.02h.02l-.02-.02Z" style="fill:#263238;"></path><path d="M281.65,239.46v.02h-.02l.02-.02Z" style="fill:#263238;"></path><g><path d="M279.61,318.29s10.97-21.94,24.14-25.78c13.17-3.84,14.81,4.39,26.88,2.19,12.07-2.19,15.91-15.91,34.56-14.26,18.65,1.65,23.04,14.81,25.24,19.75,2.19,4.94,10.97,3.29,21.4,1.65,10.42-1.65,12.07,5.49,14.26,9.87,2.19,4.39,7.13,1.65,15.91,.55,8.78-1.1,15.91,5.49,17.01,10.97l1.1,5.49-81.74-9.87,16.46,8.78s-32.92-1.1-45.53-1.1-38.95,1.65-38.95,1.65l13.17-7.68-43.89-2.19Z" style="fill:#407BFF;"></path><line x1="315.27" y1="318.84" x2="307.59" y2="303.48" style="fill: none; stroke: #263238; stroke-miterlimit: 10;"></line><line x1="311.98" y1="312.25" x2="314.72" y2="305.67" style="fill: none; stroke: #263238; stroke-miterlimit: 10;"></line><line x1="357.51" y1="325.97" x2="352.02" y2="310.61" style="fill: none; stroke: #263238; stroke-miterlimit: 10;"></line><polyline points="358.06 310.61 355.86 319.39 343.79 317.19" style="fill: none; stroke: #263238; stroke-miterlimit: 10;"></polyline><polyline points="397.01 310.61 386.04 318.29 380 297.99" style="fill: none; stroke: #263238; stroke-miterlimit: 10;"></polyline><line x1="390.16" y1="315.18" x2="388" y2="308.71" style="fill: none; stroke: #263238; stroke-miterlimit: 10;"></line><line x1="437.38" y1="325.17" x2="444.94" y2="318.15" style="fill: none; stroke: #263238; stroke-miterlimit: 10;"></line><line x1="439.27" y1="322.74" x2="451.42" y2="321.39" style="fill: none; stroke: #263238; stroke-miterlimit: 10;"></line><line x1="409.32" y1="321.93" x2="414.72" y2="309.52" style="fill: none; stroke: #263238; stroke-miterlimit: 10;"></line><polyline points="419.84 312.22 412.02 316.26 406.08 310.06" style="fill: none; stroke: #263238; stroke-miterlimit: 10;"></polyline><line x1="382.61" y1="306.55" x2="368.57" y2="301.42" style="fill: none; stroke: #263238; stroke-miterlimit: 10;"></line><line x1="313.53" y1="314.91" x2="299.76" y2="310.87" style="fill: none; stroke: #263238; stroke-miterlimit: 10;"></line></g><g><path d="M257.37,108.04s-9.14,6.75-9.75,17.04c-.61,10.3-1.04,20.2-1.04,20.2l5.6-12.92s1.72,8.18,1.72,6.46,1.29-10.76,1.29-10.76c0,0,1.72,6.46,2.58,3.44,.49-1.71,1.4-4.26,2.09-6.14,.53-1.43,.93-2.47,.93-2.47,0,0,.43,6.89,2.15,4.74,1.72-2.15,3.44-7.32,3.44-7.32,0,0-.6,6.53,.98,3.9s3.16-6.84,3.16-6.84c0,0-2.89,10.53-2.37,14.74,.53,4.21,2.63-3.16,2.63-3.16,0,0,1.58,18.95,2.63,15.79,1.05-3.16,2.63-14.74,2.63-14.74,0,0,2.63,10.79,2.89,7.89,.26-2.89-1.05-8.95-1.05-8.95,0,0,2.63,8.68,2.89,5.53,.26-3.16-.53-12.63-.53-12.63,0,0,6.32,15.52,7.63,12.37,1.32-3.16-.79-9.74-.79-9.74,0,0,.53,8.42,2.1,6.58l1.58-1.84s.26,8.68,1.58,6.58l1.32-2.11s1.58,8.42,1.84,7.1c.26-1.32,1.58-3.16,1.58-3.16,0,0,1.05,11.58,1.32,6.32,.26-5.26,0-18.68,0-18.68,0,0,1.05,18.42,2.1,11.05s-1.73-20.62-3.76-23.99-13.61-21-18.87-23.37-11.84,3.42-14.47,7.63c-2.63,4.21-6.05,11.46-6.05,11.46Z" style="fill:#263238; stroke: #263238; stroke-miterlimit: 10;"></path><path d="M275,101.05s1.68,28.58-3.43,67.16c-5.11,38.58-10.78,59.01-12.48,74.32-1.7,15.32-.57,74.68-.57,74.68h9.65s-4.54-67.87,1.7-96.24,11.03-86.55,7.5-124.98l-2.37,5.05Z" style="fill:#adadad; stroke: #263238; stroke-miterlimit: 10;"></path><g><path d="M276.24,90.71s-.43-.86,3.44-16.79c3.87-15.93,15.5-20.24,15.5-20.24l-3.44,6.46s7.75-5.6,6.46-3.44c-1.29,2.15-7.75,6.46-7.75,6.46,0,0,9.04-2.58,6.89,0-2.15,2.58-6.89,6.46-6.89,6.46,0,0,5.6-2.15,4.31,0s-4.31,5.17-4.31,5.17c0,0,5.6-3.44,5.17-1.29-.43,2.15-7.32,11.19-7.32,11.19,0,0,7.75-4.31,5.17-1.29-2.58,3.01-10.76,12.06-13.35,12.06s-4.74,0-3.87-4.74Z" style="fill:#407BFF;"></path><path d="M280.59,100.62s.43-.86-3.44-16.79c-3.87-15.93-15.5-20.24-15.5-20.24l3.44,6.46s-7.75-5.6-6.46-3.44c1.29,2.15,7.75,6.46,7.75,6.46,0,0-9.04-2.58-6.89,0s6.89,6.46,6.89,6.46c0,0-5.6-2.15-4.31,0,1.29,2.15,4.31,5.17,4.31,5.17,0,0-5.6-3.44-5.17-1.29,.43,2.15,7.32,11.19,7.32,11.19,0,0-7.75-4.31-5.17-1.29,2.58,3.01,10.76,12.05,13.35,12.05s4.74,0,3.87-4.74Z" style="fill:#407BFF;"></path><path d="M272.19,93.84s-6.13-7.49-13.61-9.53c-7.49-2.04-29.95,8.17-29.95,8.17,0,0-11.33,16.31-9.18,14.59,2.15-1.72,9.47-8.18,9.47-8.18,0,0-1.29,6.89,0,4.74,1.29-2.15,4.74-5.6,4.74-5.6,0,0-2.15,7.75,0,4.74,1.08-1.51,2.58-3.23,3.82-4.57,1.24-1.35,2.21-2.31,2.21-2.31l4.74-1.29s-6.46,7.32-3.87,6.46c2.58-.86,7.32-5.17,7.32-5.17,0,0-4.31,6.46-1.29,5.6,3.01-.86,6.03-3.87,6.03-3.87l-1.29,5.6,4.31-2.58-.43,3.87,2.94-2.52,3.08-2.64,3.01,.43s-5.17,7.32-2.58,6.46c2.58-.86,7.32-6.03,7.32-6.03l.86,4.31s3.01-9.47,4.74-5.6c1.72,3.87-2.37-5.05-2.37-5.05Z" style="fill:#407BFF;"></path><path d="M268.57,101.12s-9.63-.97-16.37,2.88c-6.74,3.85-15.42,26.94-15.42,26.94,0,0,3.51,19.55,3.82,16.81,.31-2.74,.92-12.48,.92-12.48,0,0,3.95,5.79,3.35,3.35s-.6-7.31-.6-7.31c0,0,3.95,7,3.35,3.35-.3-1.83-.45-4.11-.53-5.94-.08-1.83-.07-3.2-.07-3.2l2.44-4.26s.6,9.74,1.82,7.31c1.22-2.43,1.53-8.83,1.53-8.83,0,0,1.52,7.61,3.04,4.87s1.53-7,1.53-7l3.04,4.87,1.22-4.87,2.43,3.05,.3-3.86,.31-4.05,2.44-1.83s1.52,8.83,2.74,6.39c1.22-2.43,.92-9.44,.92-9.44l3.65,2.44s-4.56-8.83-.6-7.31c3.96,1.52-5.25-1.9-5.25-1.9Z" style="fill:#407BFF;"></path><path d="M277.37,96s6.13-7.49,13.61-9.53,29.95,8.17,29.95,8.17c0,0,11.33,16.31,9.18,14.59s-9.47-8.18-9.47-8.18c0,0,1.29,6.89,0,4.74s-4.74-5.6-4.74-5.6c0,0,2.15,7.75,0,4.74-1.08-1.51-2.58-3.23-3.82-4.57s-2.21-2.31-2.21-2.31l-4.74-1.29s6.46,7.32,3.87,6.46c-2.58-.86-7.32-5.17-7.32-5.17,0,0,4.31,6.46,1.29,5.6-3.01-.86-6.03-3.87-6.03-3.87l1.29,5.6-4.31-2.58,.43,3.87-2.94-2.52-3.08-2.64-3.01,.43s5.17,7.32,2.58,6.46c-2.58-.86-7.32-6.03-7.32-6.03l-.86,4.31s-3.01-9.47-4.74-5.6c-1.72,3.87,2.37-5.05,2.37-5.05Z" style="fill:#407BFF;"></path><path d="M280.99,103.27s9.63-.97,16.36,2.88c6.74,3.85,15.42,26.94,15.42,26.94,0,0-3.51,19.55-3.82,16.81-.31-2.74-.92-12.48-.92-12.48,0,0-3.95,5.79-3.35,3.35s.61-7.31,.61-7.31c0,0-3.95,7-3.35,3.35,.3-1.83,.45-4.11,.53-5.94,.08-1.83,.07-3.2,.07-3.2l-2.44-4.26s-.6,9.74-1.82,7.31c-1.22-2.43-1.53-8.83-1.53-8.83,0,0-1.52,7.61-3.04,4.87s-1.53-7-1.53-7l-3.04,4.87-1.22-4.87-2.43,3.05-.3-3.86-.31-4.05-2.44-1.83s-1.52,8.83-2.74,6.39c-1.22-2.43-.92-9.44-.92-9.44l-3.65,2.44s4.56-8.83,.6-7.31c-3.96,1.52,5.25-1.9,5.25-1.9Z" style="fill:#407BFF;"></path></g></g><g><path d="M397.98,122.36s9.14,6.75,9.75,17.04c.61,10.3,1.04,20.2,1.04,20.2l-5.6-12.92s-1.72,8.18-1.72,6.46-1.29-10.76-1.29-10.76c0,0-1.72,6.46-2.58,3.44-.49-1.71-1.4-4.26-2.09-6.14-.53-1.43-.93-2.47-.93-2.47,0,0-.43,6.89-2.15,4.74-1.72-2.15-3.44-7.32-3.44-7.32,0,0,.6,6.53-.98,3.9s-3.16-6.84-3.16-6.84c0,0,2.89,10.53,2.37,14.74-.53,4.21-2.63-3.16-2.63-3.16,0,0-1.58,18.95-2.63,15.79-1.05-3.16-2.63-14.74-2.63-14.74,0,0-2.63,10.79-2.89,7.89s1.05-8.95,1.05-8.95c0,0-2.63,8.68-2.89,5.53-.26-3.16,.53-12.63,.53-12.63,0,0-6.32,15.52-7.63,12.37-1.32-3.16,.79-9.74,.79-9.74,0,0-.53,8.42-2.1,6.58l-1.58-1.84s-.26,8.68-1.58,6.58l-1.32-2.11s-1.58,8.42-1.84,7.1c-.26-1.32-1.58-3.16-1.58-3.16,0,0-1.05,11.58-1.32,6.32-.26-5.26,0-18.68,0-18.68,0,0-1.05,18.42-2.1,11.05-1.05-7.37,1.73-20.62,3.76-23.99,2.03-3.37,13.61-21,18.87-23.37,5.26-2.37,11.84,3.42,14.47,7.63s6.05,11.46,6.05,11.46Z" style="fill:#263238; stroke: #263238; stroke-miterlimit: 10;"></path><path d="M380.35,115.36s-1.68,28.58,3.43,67.16c5.11,38.58,10.78,59.01,12.48,74.32,1.7,15.32,.57,74.68,.57,74.68h-9.65s4.54-67.87-1.7-96.24c-6.24-28.37-11.03-86.55-7.5-124.98l2.37,5.05Z" style="fill:#adadad; stroke: #263238; stroke-miterlimit: 10;"></path><g><path d="M379.11,105.03s.43-.86-3.44-16.79c-3.87-15.93-15.5-20.24-15.5-20.24l3.44,6.46s-7.75-5.6-6.46-3.44c1.29,2.15,7.75,6.46,7.75,6.46,0,0-9.04-2.58-6.89,0s6.89,6.46,6.89,6.46c0,0-5.6-2.15-4.31,0,1.29,2.15,4.31,5.17,4.31,5.17,0,0-5.6-3.44-5.17-1.29,.43,2.15,7.32,11.19,7.32,11.19,0,0-7.75-4.31-5.17-1.29,2.58,3.01,10.76,12.06,13.35,12.06s4.74,0,3.87-4.74Z" style="fill:#407BFF;"></path><path d="M374.76,114.93s-.43-.86,3.44-16.79c3.87-15.93,15.5-20.24,15.5-20.24l-3.44,6.46s7.75-5.6,6.46-3.44-7.75,6.46-7.75,6.46c0,0,9.04-2.58,6.89,0s-6.89,6.46-6.89,6.46c0,0,5.6-2.15,4.31,0-1.29,2.15-4.31,5.17-4.31,5.17,0,0,5.6-3.44,5.17-1.29-.43,2.15-7.32,11.19-7.32,11.19,0,0,7.75-4.31,5.17-1.29-2.58,3.01-10.76,12.06-13.35,12.06s-4.74,0-3.87-4.74Z" style="fill:#407BFF;"></path><path d="M383.16,108.16s6.13-7.49,13.61-9.53,29.95,8.17,29.95,8.17c0,0,11.33,16.31,9.18,14.59-2.15-1.72-9.47-8.18-9.47-8.18,0,0,1.29,6.89,0,4.74-1.29-2.15-4.74-5.6-4.74-5.6,0,0,2.15,7.75,0,4.74-1.08-1.51-2.58-3.23-3.82-4.57-1.24-1.35-2.21-2.31-2.21-2.31l-4.74-1.29s6.46,7.32,3.87,6.46c-2.58-.86-7.32-5.17-7.32-5.17,0,0,4.31,6.46,1.29,5.6-3.01-.86-6.03-3.87-6.03-3.87l1.29,5.6-4.31-2.58,.43,3.87-2.94-2.52-3.08-2.64-3.01,.43s5.17,7.32,2.58,6.46-7.32-6.03-7.32-6.03l-.86,4.31s-3.01-9.47-4.74-5.6c-1.72,3.87,2.37-5.05,2.37-5.05Z" style="fill:#407BFF;"></path><path d="M386.78,115.44s9.63-.97,16.37,2.88,15.42,26.94,15.42,26.94c0,0-3.51,19.55-3.82,16.81-.31-2.74-.92-12.48-.92-12.48,0,0-3.95,5.79-3.35,3.35s.6-7.31,.6-7.31c0,0-3.95,7-3.35,3.35,.3-1.83,.45-4.11,.53-5.94,.08-1.83,.07-3.2,.07-3.2l-2.44-4.26s-.6,9.74-1.82,7.31c-1.22-2.43-1.53-8.83-1.53-8.83,0,0-1.52,7.61-3.04,4.87s-1.53-7-1.53-7l-3.04,4.87-1.22-4.87-2.43,3.05-.3-3.86-.31-4.05-2.44-1.83s-1.52,8.83-2.74,6.39c-1.22-2.43-.92-9.44-.92-9.44l-3.65,2.44s4.56-8.83,.6-7.31c-3.96,1.52,5.25-1.9,5.25-1.9Z" style="fill:#407BFF;"></path><path d="M377.98,110.31s-6.13-7.49-13.61-9.53-29.95,8.17-29.95,8.17c0,0-11.33,16.31-9.18,14.59,2.15-1.72,9.47-8.18,9.47-8.18,0,0-1.29,6.89,0,4.74,1.29-2.15,4.74-5.6,4.74-5.6,0,0-2.15,7.75,0,4.74,1.08-1.51,2.58-3.23,3.82-4.57,1.24-1.35,2.21-2.31,2.21-2.31l4.74-1.29s-6.46,7.32-3.87,6.46c2.58-.86,7.32-5.17,7.32-5.17,0,0-4.31,6.46-1.29,5.6,3.01-.86,6.03-3.87,6.03-3.87l-1.29,5.6,4.31-2.58-.43,3.87,2.94-2.52,3.08-2.64,3.01,.43s-5.17,7.32-2.58,6.46c2.58-.86,7.32-6.03,7.32-6.03l.86,4.31s3.01-9.47,4.74-5.6c1.72,3.87-2.37-5.05-2.37-5.05Z" style="fill:#407BFF;"></path><path d="M374.36,117.59s-9.63-.97-16.37,2.88c-6.74,3.85-15.42,26.94-15.42,26.94,0,0,3.51,19.55,3.82,16.81,.31-2.74,.92-12.48,.92-12.48,0,0,3.95,5.79,3.35,3.35-.61-2.44-.6-7.31-.6-7.31,0,0,3.95,7,3.35,3.35-.3-1.83-.45-4.11-.53-5.94-.08-1.83-.07-3.2-.07-3.2l2.44-4.26s.6,9.74,1.82,7.31c1.22-2.43,1.53-8.83,1.53-8.83,0,0,1.52,7.61,3.04,4.87,1.52-2.74,1.53-7,1.53-7l3.04,4.87,1.22-4.87,2.43,3.05,.3-3.86,.31-4.05,2.44-1.83s1.52,8.83,2.74,6.39c1.22-2.43,.92-9.44,.92-9.44l3.65,2.44s-4.56-8.83-.6-7.31c3.96,1.52-5.25-1.9-5.25-1.9Z" style="fill:#407BFF;"></path></g></g><g><path d="M122.17,129.39s-8.06,8.01-7.16,18.28c.9,10.27,1.92,20.13,1.92,20.13l3.65-13.59s2.9,7.84,2.65,6.14c-.25-1.7-.29-10.84-.29-10.84,0,0,2.65,6.14,3.06,3.03,.23-1.77,.76-4.42,1.17-6.38,.31-1.49,.56-2.58,.56-2.58,0,0,1.43,6.75,2.82,4.37,1.39-2.38,2.34-7.74,2.34-7.74,0,0,.36,6.55,1.54,3.71,1.18-2.83,2.13-7.23,2.13-7.23,0,0-1.33,10.83-.19,14.92,1.13,4.09,2.14-3.51,2.14-3.51,0,0,4.32,18.51,4.9,15.24,.58-3.28,.45-14.96,.45-14.96,0,0,4.18,10.29,4.01,7.39-.16-2.9-2.35-8.7-2.35-8.7,0,0,3.87,8.21,3.67,5.04s-2.36-12.42-2.36-12.42c0,0,8.51,14.44,9.35,11.12,.84-3.32-2.2-9.52-2.2-9.52,0,0,1.75,8.25,3.04,6.2l1.29-2.05s1.53,8.55,2.52,6.28l.99-2.27s2.79,8.1,2.86,6.76c.07-1.34,1.1-3.35,1.1-3.35,0,0,2.73,11.3,2.22,6.06s-2.72-18.48-2.72-18.48c0,0,3.73,18.07,3.69,10.63-.03-7.44-4.72-20.14-7.22-23.19-2.5-3.04-16.52-18.8-22.08-20.37-5.55-1.58-11.22,5.11-13.2,9.66s-4.31,12.22-4.31,12.22Z" style="fill:#263238; stroke: #263238; stroke-miterlimit: 10;"></path><path d="M138.59,119.9s5.83,28.03,6.4,66.94c.57,38.91-2.06,59.95-1.51,75.35,.55,15.4,10.33,73.96,10.33,73.96l9.54-1.41s-14.39-66.48-12.35-95.46c2.04-28.97-1.7-87.23-10.8-124.73l-1.61,5.34Z" style="fill:#adadad; stroke: #263238; stroke-miterlimit: 10;"></path><g><path d="M138.32,109.5s-.55-.79,.96-17.11c1.51-16.32,12.38-22.28,12.38-22.28l-2.47,6.89s6.85-6.67,5.89-4.35c-.96,2.32-6.73,7.52-6.73,7.52,0,0,8.57-3.87,6.81-1-1.75,2.87-5.87,7.39-5.87,7.39,0,0,5.22-2.95,4.26-.63s-3.51,5.74-3.51,5.74c0,0,5.03-4.22,4.92-2.03-.11,2.19-5.61,12.14-5.61,12.14,0,0,7.04-5.39,4.92-2.03-2.12,3.36-8.89,13.5-11.45,13.87s-4.69,.69-4.52-4.12Z" style="fill:#407BFF;"></path><path d="M144.06,118.66s.3-.91-5.86-16.11c-6.16-15.19-18.28-17.76-18.28-17.76l4.35,5.89s-8.48-4.41-6.89-2.47c1.59,1.94,8.61,5.26,8.61,5.26,0,0-9.32-1.24-6.81,1,2.51,2.24,7.76,5.38,7.76,5.38,0,0-5.85-1.31-4.26,.63,1.59,1.94,5.01,4.48,5.01,4.48,0,0-6.04-2.59-5.3-.52,.74,2.07,8.87,10.01,8.87,10.01,0,0-8.29-3.13-5.3-.52,2.99,2.6,12.41,10.36,14.96,9.98s4.69-.69,3.14-5.25Z" style="fill:#407BFF;"></path><path d="M134.77,113.19s-7.15-6.51-14.86-7.44-28.44,12.45-28.44,12.45c0,0-8.83,17.79-6.95,15.77,1.88-2.02,8.18-9.47,8.18-9.47,0,0-.27,7,.69,4.69s3.87-6.23,3.87-6.23c0,0-1,7.98,.69,4.69,.85-1.65,2.08-3.57,3.11-5.08,1.03-1.51,1.85-2.61,1.85-2.61l4.5-1.97s-5.32,8.18-2.89,6.95,6.49-6.18,6.49-6.18c0,0-3.32,7.02-.46,5.73,2.86-1.29,5.4-4.71,5.4-4.71l-.46,5.73,3.88-3.18,.14,3.9,2.54-2.92,2.67-3.07h3.04s-4.04,7.98-1.61,6.75c2.43-1.23,6.36-7.03,6.36-7.03l1.48,4.13s1.6-9.81,3.87-6.23c2.27,3.58-3.08-4.65-3.08-4.65Z" style="fill:#407BFF;"></path><path d="M132.24,120.91s-9.66,.45-15.77,5.23c-6.11,4.79-11.32,28.9-11.32,28.9,0,0,6.33,18.83,6.23,16.07s-.91-12.48-.91-12.48c0,0,4.76,5.15,3.8,2.83s-1.66-7.14-1.66-7.14c0,0,4.93,6.35,3.8,2.83-.57-1.76-1.05-4-1.39-5.8-.34-1.8-.54-3.15-.54-3.15l1.79-4.57s2.02,9.55,2.87,6.96c.85-2.59,.22-8.96,.22-8.96,0,0,2.61,7.31,3.72,4.38,1.11-2.93,.49-7.15,.49-7.15l3.72,4.38,.5-5,2.85,2.66-.27-3.87-.28-4.05,2.14-2.16s2.79,8.51,3.64,5.93c.85-2.59-.47-9.47-.47-9.47l3.97,1.88s-5.8-8.07-1.66-7.14c4.14,.93-5.47-1.11-5.47-1.11Z" style="fill:#407BFF;"></path><path d="M140.2,114.56s4.97-8.3,12.08-11.41c7.11-3.11,30.82,3.71,30.82,3.71,0,0,13.59,14.49,11.2,13.1-2.38-1.39-10.56-6.71-10.56-6.71,0,0,2.28,6.63,.69,4.69-1.59-1.94-5.5-4.85-5.5-4.85,0,0,3.26,7.35,.69,4.69-1.28-1.33-3.03-2.82-4.45-3.97-1.42-1.15-2.52-1.97-2.52-1.97l-4.87-.59s7.46,6.3,4.78,5.82c-2.68-.48-7.99-4.04-7.99-4.04,0,0,5.2,5.76,2.09,5.35s-6.53-2.95-6.53-2.95l2.09,5.35-4.64-1.93,.99,3.77-3.28-2.07-3.44-2.17-2.92,.87s6.18,6.49,3.5,6.01c-2.68-.48-8.12-4.9-8.12-4.9l-.22,4.38s-4.36-8.93-5.5-4.85c-1.14,4.08,1.61-5.34,1.61-5.34Z" style="fill:#407BFF;"></path><path d="M144.85,121.23s9.38-2.36,16.61,.46c7.23,2.82,19.18,24.41,19.18,24.41,0,0-.63,19.85-1.33,17.19s-2.73-12.21-2.73-12.21c0,0-3.07,6.3-2.82,3.8,.25-2.5-.47-7.32-.47-7.32,0,0-2.89,7.51-2.82,3.8,.03-1.85-.15-4.13-.34-5.95-.19-1.82-.39-3.17-.39-3.17l-3.03-3.86s.82,9.73-.74,7.5c-1.56-2.23-2.8-8.51-2.8-8.51,0,0-.39,7.75-2.3,5.26-1.91-2.49-2.53-6.7-2.53-6.7l-2.3,5.26-1.92-4.64-1.96,3.37-.86-3.78-.9-3.96-2.68-1.45s-.21,8.96-1.78,6.73c-1.56-2.23-2.28-9.2-2.28-9.2l-3.26,2.94s3.23-9.4-.47-7.32,4.91-2.64,4.91-2.64Z" style="fill:#407BFF;"></path></g></g><g><path d="M563.82,211.95s10.04,7.41,10.71,18.72c.67,11.31,1.14,22.18,1.14,22.18l-6.15-14.18s-1.89,8.98-1.89,7.09-1.42-11.82-1.42-11.82c0,0-1.89,7.09-2.84,3.78-.54-1.88-1.53-4.68-2.29-6.74-.58-1.57-1.02-2.71-1.02-2.71,0,0-.47,7.57-2.36,5.2-1.89-2.36-3.78-8.04-3.78-8.04,0,0,.66,7.17-1.08,4.28s-3.47-7.51-3.47-7.51c0,0,3.18,11.56,2.6,16.18-.58,4.62-2.89-3.47-2.89-3.47,0,0-1.73,20.81-2.89,17.34-1.16-3.47-2.89-16.18-2.89-16.18,0,0-2.89,11.85-3.18,8.67-.29-3.18,1.16-9.83,1.16-9.83,0,0-2.89,9.54-3.18,6.07-.29-3.47,.58-13.87,.58-13.87,0,0-6.94,17.05-8.38,13.58-1.44-3.47,.87-10.69,.87-10.69,0,0-.58,9.25-2.31,7.22l-1.73-2.02s-.29,9.54-1.73,7.22l-1.44-2.31s-1.73,9.25-2.02,7.8-1.73-3.47-1.73-3.47c0,0-1.16,12.72-1.44,6.94-.29-5.78,0-20.52,0-20.52,0,0-1.16,20.23-2.31,12.14-1.16-8.09,1.9-22.64,4.13-26.35s14.94-23.07,20.72-25.67c5.78-2.6,13,3.76,15.89,8.38s6.64,12.59,6.64,12.59Z" style="fill:#263238; stroke: #263238; stroke-miterlimit: 10;"></path><path d="M544.46,204.27s2.15,31.13-27.72,65.14c-24.78,28.21-35.39,32.71-46.02,46.01-10.63,13.3-12.9,20.48-12.9,20.48l10.49,.23s2.4-12.37,19.85-29.06c17.45-16.69,31.1-28.07,42.48-47.79,11.38-19.72,17.6-36.03,16.88-62.92l-3.08,7.91Z" style="fill:#adadad; stroke: #263238; stroke-miterlimit: 10;"></path><g><path d="M543.09,192.92s.47-.95-3.78-18.44c-4.26-17.49-17.02-22.22-17.02-22.22l3.78,7.09s-8.51-6.15-7.09-3.78c1.42,2.36,8.51,7.09,8.51,7.09,0,0-9.93-2.84-7.57,0,2.36,2.84,7.57,7.09,7.57,7.09,0,0-6.15-2.36-4.73,0,1.42,2.36,4.73,5.67,4.73,5.67,0,0-6.15-3.78-5.67-1.42,.47,2.36,8.04,12.29,8.04,12.29,0,0-8.51-4.73-5.67-1.42,2.84,3.31,11.82,13.24,14.66,13.24s5.2,0,4.26-5.2Z" style="fill:#407BFF;"></path><path d="M538.31,203.8s-.47-.95,3.78-18.44c4.26-17.49,17.02-22.22,17.02-22.22l-3.78,7.09s8.51-6.15,7.09-3.78c-1.42,2.36-8.51,7.09-8.51,7.09,0,0,9.93-2.84,7.57,0s-7.57,7.09-7.57,7.09c0,0,6.15-2.36,4.73,0-1.42,2.36-4.73,5.67-4.73,5.67,0,0,6.15-3.78,5.67-1.42-.47,2.36-8.04,12.29-8.04,12.29,0,0,8.51-4.73,5.67-1.42s-11.82,13.24-14.66,13.24-5.2,0-4.26-5.2Z" style="fill:#407BFF;"></path><path d="M547.54,196.36s6.73-8.22,14.95-10.46,32.89,8.97,32.89,8.97c0,0,12.44,17.92,10.08,16.02-2.36-1.89-10.4-8.98-10.4-8.98,0,0,1.42,7.57,0,5.2s-5.2-6.15-5.2-6.15c0,0,2.36,8.51,0,5.2-1.18-1.65-2.84-3.55-4.2-5.02s-2.42-2.54-2.42-2.54l-5.2-1.42s7.09,8.04,4.26,7.09-8.04-5.67-8.04-5.67c0,0,4.73,7.09,1.42,6.15-3.31-.95-6.62-4.26-6.62-4.26l1.42,6.15-4.73-2.84,.47,4.26-3.23-2.77-3.39-2.9-3.31,.47s5.67,8.04,2.84,7.09-8.04-6.62-8.04-6.62l-.95,4.73s-3.31-10.4-5.2-6.15c-1.89,4.26,2.61-5.55,2.61-5.55Z" style="fill:#407BFF;"></path><path d="M551.52,204.35s10.57-1.06,17.97,3.16c7.4,4.22,16.93,29.59,16.93,29.59,0,0-3.86,21.47-4.2,18.46-.34-3.01-1.01-13.71-1.01-13.71,0,0-4.34,6.35-3.68,3.68,.67-2.68,.66-8.02,.66-8.02,0,0-4.34,7.69-3.68,3.68,.33-2.01,.5-4.51,.58-6.52,.08-2.01,.08-3.51,.08-3.51l-2.68-4.68s-.66,10.7-2,8.03c-1.34-2.67-1.68-9.69-1.68-9.69,0,0-1.67,8.36-3.34,5.35s-1.68-7.69-1.68-7.69l-3.34,5.35-1.34-5.35-2.67,3.34-.33-4.24-.34-4.45-2.68-2s-1.67,9.7-3.01,7.02c-1.34-2.67-1.01-10.36-1.01-10.36l-4.01,2.68s5.01-9.7,.66-8.02c-4.35,1.67,5.76-2.08,5.76-2.08Z" style="fill:#407BFF;"></path><path d="M541.85,198.73s-6.73-8.22-14.95-10.47c-8.22-2.24-32.89,8.97-32.89,8.97,0,0-12.44,17.92-10.08,16.02,2.36-1.89,10.4-8.98,10.4-8.98,0,0-1.42,7.57,0,5.2,1.42-2.36,5.2-6.15,5.2-6.15,0,0-2.36,8.51,0,5.2,1.18-1.65,2.84-3.55,4.2-5.02s2.42-2.54,2.42-2.54l5.2-1.42s-7.09,8.04-4.26,7.09c2.84-.95,8.04-5.67,8.04-5.67,0,0-4.73,7.09-1.42,6.15s6.62-4.26,6.62-4.26l-1.42,6.15,4.73-2.84-.47,4.26,3.23-2.77,3.39-2.9,3.31,.47s-5.67,8.04-2.84,7.09c2.84-.95,8.04-6.62,8.04-6.62l.95,4.73s3.31-10.4,5.2-6.15-2.61-5.55-2.61-5.55Z" style="fill:#407BFF;"></path><path d="M537.87,206.72s-10.57-1.06-17.97,3.16c-7.4,4.22-16.93,29.59-16.93,29.59,0,0,3.86,21.47,4.2,18.46s1.01-13.71,1.01-13.71c0,0,4.34,6.35,3.68,3.68-.67-2.68-.66-8.02-.66-8.02,0,0,4.34,7.69,3.68,3.68-.33-2.01-.5-4.51-.58-6.52-.08-2.01-.08-3.51-.08-3.51l2.68-4.68s.66,10.7,2,8.03c1.34-2.67,1.68-9.7,1.68-9.7,0,0,1.67,8.36,3.34,5.35,1.67-3.01,1.68-7.69,1.68-7.69l3.34,5.35,1.34-5.35,2.67,3.34,.33-4.24,.34-4.45,2.68-2s1.67,9.7,3.01,7.02c1.34-2.67,1.01-10.36,1.01-10.36l4.01,2.68s-5.01-9.7-.66-8.02-5.76-2.08-5.76-2.08Z" style="fill:#407BFF;"></path></g></g><g><path d="M297.2,325.49s-9.1-16.03-19.13-18.39c-10.03-2.36-10.94,3.88-20.08,2.71-9.14-1.17-12.56-11.31-26.49-9.34-13.93,1.97-16.7,12.02-18.15,15.81-1.45,3.79-8.1,2.9-15.99,2.08-7.88-.82-8.84,4.59-10.31,7.97-1.47,3.38-5.29,1.52-11.91,1.04-6.63-.48-11.72,4.74-12.33,8.9l-.61,4.16,60.94-10.64-12,7.24s24.65-2.12,34.12-2.62c9.47-.5,29.29-.3,29.29-.3l-10.18-5.24,32.84-3.38Z" style="fill:#407BFF;"></path><line x1="270.47" y1="327.31" x2="275.62" y2="315.48" style="fill: none; stroke: #263238; stroke-miterlimit: 10;"></line><line x1="272.68" y1="322.24" x2="270.36" y2="317.41" style="fill: none; stroke: #263238; stroke-miterlimit: 10;"></line><line x1="239.06" y1="334.33" x2="242.57" y2="322.59" style="fill: none; stroke: #263238; stroke-miterlimit: 10;"></line><polyline points="238.04 322.83 240.03 329.33 249 327.2" style="fill: none; stroke: #263238; stroke-miterlimit: 10;"></polyline><polyline points="208.82 324.37 217.35 329.69 221.08 314.23" style="fill: none; stroke: #263238; stroke-miterlimit: 10;"></polyline><line x1="214.13" y1="327.53" x2="215.5" y2="322.58" style="fill: none; stroke: #263238; stroke-miterlimit: 10;"></line><line x1="179.1" y1="336.88" x2="173.15" y2="331.92" style="fill: none; stroke: #263238; stroke-miterlimit: 10;"></line><line x1="177.59" y1="335.14" x2="168.42" y2="334.6" style="fill: none; stroke: #263238; stroke-miterlimit: 10;"></line><line x1="200.03" y1="333.35" x2="195.49" y2="324.25" style="fill: none; stroke: #263238; stroke-miterlimit: 10;"></line><polyline points="191.75 326.47 197.78 329.2 201.99 324.31" style="fill: none; stroke: #263238; stroke-miterlimit: 10;"></polyline><line x1="219.46" y1="320.75" x2="229.79" y2="316.35" style="fill: none; stroke: #263238; stroke-miterlimit: 10;"></line><line x1="271.62" y1="324.3" x2="281.78" y2="320.72" style="fill: none; stroke: #263238; stroke-miterlimit: 10;"></line></g></g></g><g id="freepik--Sea--inject-265"><g><line y1="353.26" x2="670.14" y2="353.26" style="fill: none; stroke: #263238; stroke-miterlimit: 10;"></line><g><line x1="40.62" y1="369.41" x2="83.08" y2="369.41" style="fill: none; stroke: #263238; stroke-miterlimit: 10;"></line><line x1="142.69" y1="372.68" x2="100.23" y2="372.68" style="fill: none; stroke: #263238; stroke-miterlimit: 10;"></line><line x1="72.47" y1="380.03" x2="106.76" y2="380.03" style="fill: none; stroke: #263238; stroke-miterlimit: 10;"></line><line x1="154.12" y1="373.5" x2="169.63" y2="373.5" style="fill: none; stroke: #263238; stroke-miterlimit: 10;"></line></g><g><line x1="190.86" y1="369.41" x2="233.32" y2="369.41" style="fill: none; stroke: #263238; stroke-miterlimit: 10;"></line><line x1="292.93" y1="372.68" x2="250.47" y2="372.68" style="fill: none; stroke: #263238; stroke-miterlimit: 10;"></line><line x1="222.71" y1="380.03" x2="257" y2="380.03" style="fill: none; stroke: #263238; stroke-miterlimit: 10;"></line><line x1="304.36" y1="373.5" x2="319.87" y2="373.5" style="fill: none; stroke: #263238; stroke-miterlimit: 10;"></line></g><g><line x1="341.1" y1="369.41" x2="383.56" y2="369.41" style="fill: none; stroke: #263238; stroke-miterlimit: 10;"></line><line x1="443.17" y1="372.68" x2="400.71" y2="372.68" style="fill: none; stroke: #263238; stroke-miterlimit: 10;"></line><line x1="372.95" y1="380.03" x2="407.24" y2="380.03" style="fill: none; stroke: #263238; stroke-miterlimit: 10;"></line><line x1="454.6" y1="373.5" x2="470.12" y2="373.5" style="fill: none; stroke: #263238; stroke-miterlimit: 10;"></line></g><g><line x1="491.35" y1="369.41" x2="533.8" y2="369.41" style="fill: none; stroke: #263238; stroke-miterlimit: 10;"></line><line x1="593.41" y1="372.68" x2="550.95" y2="372.68" style="fill: none; stroke: #263238; stroke-miterlimit: 10;"></line><line x1="523.19" y1="380.03" x2="557.48" y2="380.03" style="fill: none; stroke: #263238; stroke-miterlimit: 10;"></line><line x1="604.84" y1="373.5" x2="620.36" y2="373.5" style="fill: none; stroke: #263238; stroke-miterlimit: 10;"></line></g><g><line x1="569.73" y1="406.69" x2="534.69" y2="406.69" style="fill: none; stroke: #263238; stroke-miterlimit: 10;"></line><line x1="485.49" y1="401.59" x2="520.54" y2="401.59" style="fill: none; stroke: #263238; stroke-miterlimit: 10;"></line><line x1="543.45" y1="390.11" x2="515.14" y2="390.11" style="fill: none; stroke: #263238; stroke-miterlimit: 10;"></line><line x1="476.06" y1="400.31" x2="463.25" y2="400.31" style="fill: none; stroke: #263238; stroke-miterlimit: 10;"></line></g><g><line x1="445.73" y1="406.69" x2="410.69" y2="406.69" style="fill: none; stroke: #263238; stroke-miterlimit: 10;"></line><line x1="361.49" y1="401.59" x2="396.53" y2="401.59" style="fill: none; stroke: #263238; stroke-miterlimit: 10;"></line><line x1="419.45" y1="390.11" x2="391.14" y2="390.11" style="fill: none; stroke: #263238; stroke-miterlimit: 10;"></line><line x1="352.05" y1="400.31" x2="339.25" y2="400.31" style="fill: none; stroke: #263238; stroke-miterlimit: 10;"></line></g><g><line x1="321.73" y1="406.69" x2="286.68" y2="406.69" style="fill: none; stroke: #263238; stroke-miterlimit: 10;"></line><line x1="237.49" y1="401.59" x2="272.53" y2="401.59" style="fill: none; stroke: #263238; stroke-miterlimit: 10;"></line><line x1="295.45" y1="390.11" x2="267.14" y2="390.11" style="fill: none; stroke: #263238; stroke-miterlimit: 10;"></line><line x1="228.05" y1="400.31" x2="215.25" y2="400.31" style="fill: none; stroke: #263238; stroke-miterlimit: 10;"></line></g><g><line x1="197.73" y1="406.69" x2="162.68" y2="406.69" style="fill: none; stroke: #263238; stroke-miterlimit: 10;"></line><line x1="113.49" y1="401.59" x2="148.53" y2="401.59" style="fill: none; stroke: #263238; stroke-miterlimit: 10;"></line><line x1="171.44" y1="390.11" x2="143.14" y2="390.11" style="fill: none; stroke: #263238; stroke-miterlimit: 10;"></line><line x1="104.05" y1="400.31" x2="91.25" y2="400.31" style="fill: none; stroke: #263238; stroke-miterlimit: 10;"></line></g><g><line x1="653.83" y1="438.19" x2="606.47" y2="438.19" style="fill: none; stroke: #263238; stroke-miterlimit: 10;"></line><line x1="539.98" y1="431.29" x2="587.34" y2="431.29" style="fill: none; stroke: #263238; stroke-miterlimit: 10;"></line><line x1="618.31" y1="415.77" x2="580.06" y2="415.77" style="fill: none; stroke: #263238; stroke-miterlimit: 10;"></line><line x1="527.23" y1="429.56" x2="509.92" y2="429.56" style="fill: none; stroke: #263238; stroke-miterlimit: 10;"></line></g><g><line x1="486.24" y1="438.19" x2="438.88" y2="438.19" style="fill: none; stroke: #263238; stroke-miterlimit: 10;"></line><line x1="372.39" y1="431.29" x2="419.75" y2="431.29" style="fill: none; stroke: #263238; stroke-miterlimit: 10;"></line><line x1="450.72" y1="415.77" x2="412.46" y2="415.77" style="fill: none; stroke: #263238; stroke-miterlimit: 10;"></line><line x1="359.64" y1="429.56" x2="342.33" y2="429.56" style="fill: none; stroke: #263238; stroke-miterlimit: 10;"></line></g><g><line x1="318.65" y1="438.19" x2="271.29" y2="438.19" style="fill: none; stroke: #263238; stroke-miterlimit: 10;"></line><line x1="204.79" y1="431.29" x2="252.16" y2="431.29" style="fill: none; stroke: #263238; stroke-miterlimit: 10;"></line><line x1="283.13" y1="415.77" x2="244.87" y2="415.77" style="fill: none; stroke: #263238; stroke-miterlimit: 10;"></line><line x1="192.04" y1="429.56" x2="174.74" y2="429.56" style="fill: none; stroke: #263238; stroke-miterlimit: 10;"></line></g><g><line x1="151.06" y1="438.19" x2="103.69" y2="438.19" style="fill: none; stroke: #263238; stroke-miterlimit: 10;"></line><line x1="37.2" y1="431.29" x2="84.56" y2="431.29" style="fill: none; stroke: #263238; stroke-miterlimit: 10;"></line><line x1="115.53" y1="415.77" x2="77.28" y2="415.77" style="fill: none; stroke: #263238; stroke-miterlimit: 10;"></line><line x1="24.45" y1="429.56" x2="7.14" y2="429.56" style="fill: none; stroke: #263238; stroke-miterlimit: 10;"></line></g></g></g></svg>
