<svg xmlns="http://www.w3.org/2000/svg" viewBox="0 0 500 500"><g id="freepik--Shadow--inject-269"><path d="M458.88,448.39c0,3.39-93.52,6.14-208.88,6.14s-208.88-2.75-208.88-6.14,93.52-6.13,208.88-6.13S458.88,445,458.88,448.39Z" style="fill:#f5f5f5"></path></g><g id="freepik--Sun--inject-269"><g id="freepik--freepik--Sun--inject-5--inject-269"><path d="M451.56,82.69c0,3.32-4.8,6-5.62,9s2,7.84.37,10.6-7.1,2.71-9.38,5-2.17,7.76-5,9.38-7.44-1.21-10.61-.37-5.7,5.62-9,5.62-5.95-4.8-9-5.62-7.83,2-10.61.37-2.69-7.1-5-9.38-7.75-2.16-9.38-5,1.21-7.47.37-10.63-5.62-5.69-5.62-9,4.8-5.94,5.62-9-2-7.84-.37-10.6,7.1-2.71,9.38-5,2.17-7.75,5-9.38,7.45,1.22,10.61.37,5.71-5.61,9-5.61,6,4.8,9,5.61,7.84-2,10.61-.37,2.7,7.1,5,9.38,7.75,2.17,9.38,5-1.21,7.44-.37,10.6S451.56,79.39,451.56,82.69Z" style="fill:#407BFF"></path><circle cx="412.33" cy="82.69" r="28.03" transform="translate(248.52 470.02) rotate(-78.42)" style="fill:#407BFF"></circle><path d="M451.56,82.69c0,3.32-4.8,6-5.62,9s2,7.84.37,10.6-7.1,2.71-9.38,5-2.17,7.76-5,9.38-7.44-1.21-10.61-.37-5.7,5.62-9,5.62-5.95-4.8-9-5.62-7.83,2-10.61.37-2.69-7.1-5-9.38-7.75-2.16-9.38-5,1.21-7.47.37-10.63-5.62-5.69-5.62-9,4.8-5.94,5.62-9-2-7.84-.37-10.6,7.1-2.71,9.38-5,2.17-7.75,5-9.38,7.45,1.22,10.61.37,5.71-5.61,9-5.61,6,4.8,9,5.61,7.84-2,10.61-.37,2.7,7.1,5,9.38,7.75,2.17,9.38,5-1.21,7.44-.37,10.6S451.56,79.39,451.56,82.69Z" style="fill:#fff"></path></g></g><g id="freepik--tree-5--inject-269"><path d="M418.49,305.75l-1,4.53q-1.18.15-2.37.36l-1.69-2.3-.41,2.71c-7,1.53-13.85,4.26-21,4.63l1.31-4.22c5-6.54,13-10.84,18.86-13.73a33,33,0,0,1,13.45-3.57l1.73,4.24a12,12,0,0,0,1.88-4.08,19.39,19.39,0,0,1,2,.33c5.5,1.18,10.32,4.4,14.84,7.75q5.48,4.05,10.63,8.49a37.32,37.32,0,0,1-13.48,1.39l-2.82-4.49-1.28,4.14c-2.26-.24-4.51-.56-6.74-.88a73.77,73.77,0,0,0-10.89-1Z" style="fill:#407BFF"></path><g style="opacity:0.30000000000000004"><path d="M418.49,305.75l-1,4.53q-1.18.15-2.37.36l-1.69-2.3-.41,2.71c-7,1.53-13.85,4.26-21,4.63l1.31-4.22c5-6.54,13-10.84,18.86-13.73a33,33,0,0,1,13.45-3.57l1.73,4.24a12,12,0,0,0,1.88-4.08,19.39,19.39,0,0,1,2,.33c5.5,1.18,10.32,4.4,14.84,7.75q5.48,4.05,10.63,8.49a37.32,37.32,0,0,1-13.48,1.39l-2.82-4.49-1.28,4.14c-2.26-.24-4.51-.56-6.74-.88a73.77,73.77,0,0,0-10.89-1Z"></path></g><path d="M367.47,403.11c1.92-26.34,10.26-52,16.5-68.81,4.68-12.67,8.91-21.49,8.91-21.49l4.42,4.59S381.49,360.64,379.09,395c-2,28.53,7.79,48.13,7.79,48.13l-23.59.26S365.56,429.45,367.47,403.11Z" style="fill:#263238"></path><path d="M395.32,286l-8.77-5.05c-.42-1.75-.84-3.51-1.27-5.26h5.55l-6.31-3.16-3.63-15.07A34.5,34.5,0,0,1,394.94,313l-.27,1.62L387.77,286Z" style="fill:#407BFF"></path><g style="opacity:0.4"><path d="M395.32,286l-8.77-5.05c-.42-1.75-.84-3.51-1.27-5.26h5.55l-6.31-3.16-3.63-15.07A34.5,34.5,0,0,1,394.94,313l-.27,1.62L387.77,286Z"></path></g><polygon points="393.04 324.05 392.02 318.19 386.64 322.65 391.15 315.45 394.33 316.41 395.75 319.75 393.04 324.05" style="opacity:0.30000000000000004"></polygon><path d="M401.65,313.9c.51,0,25.68-1.29,34.46,11.37s8.75,30.82,8.08,36.39L431.36,345.8l-1-6.75-2,3s-2.23-2.26-5-5l2.53-7.62-5,5.17c-1.78-1.74-3.59-3.48-5.07-4.84l.79-3.5s-1.46,1-2.56,1.93l-.34-.28c-4.35-3.52-21.78-12.83-21.78-12.83A81.93,81.93,0,0,1,401.65,313.9Z" style="fill:#407BFF"></path><path d="M401.65,313.9c.51,0,25.68-1.29,34.46,11.37s8.75,30.82,8.08,36.39L431.36,345.8l-1-6.75-2,3s-2.23-2.26-5-5l2.53-7.62-5,5.17c-1.78-1.74-3.59-3.48-5.07-4.84l.79-3.5s-1.46,1-2.56,1.93l-.34-.28c-4.35-3.52-21.78-12.83-21.78-12.83A81.93,81.93,0,0,1,401.65,313.9Z" style="opacity:0.4"></path><path d="M394.18,313.14s.44,0,1.26-5S394.81,291,387.77,286l.48,2.73Z" style="opacity:0.30000000000000004"></path><path d="M376.86,287.8l-11.08,3.81L360,287.17l3.1-3.7-5.4,1.93-9.48-7.25A43.4,43.4,0,0,1,366,275.57a29.09,29.09,0,0,1,26.5,21.18,44.18,44.18,0,0,1,1.53,17.83l0-.09A194.58,194.58,0,0,0,375.42,299l-3.55-2.71Z" style="fill:#407BFF"></path><g style="opacity:0.30000000000000004"><path d="M376.86,287.8l-11.08,3.81L360,287.17l3.1-3.7-5.4,1.93-9.48-7.25A43.4,43.4,0,0,1,366,275.57a29.09,29.09,0,0,1,26.5,21.18,44.18,44.18,0,0,1,1.53,17.83l0-.09A194.58,194.58,0,0,0,375.42,299l-3.55-2.71Z"></path></g><path d="M392.78,313.22s.12-4.32-5.53-8.9-10-4-10-4Z" style="opacity:0.30000000000000004"></path><path d="M361.72,297.89a36.42,36.42,0,0,1,32,16.88l-.44,1.43A60.37,60.37,0,0,0,376.41,312l-.34-1.7-1,1.58c-1-.08-1.94-.13-2.92-.16l-1.92-5.07-.78,5.05h-.89c-2,0-7.59.57-7.59.57-1.13.18-2.26.37-3.38.57l-2.65-4.11-.55,4.69-3.08.59-2.41-1.74-.32,2.27c-5.68,1.12-11.35,2.28-17.11,3.21A36.41,36.41,0,0,1,361.72,297.89Z" style="fill:#407BFF"></path><path d="M403.72,321.81a22.57,22.57,0,0,0-4.69-5.33,8.61,8.61,0,0,0-4.7-1.9Z" style="opacity:0.2"></path><g style="opacity:0.4"><path d="M361.72,297.89a36.42,36.42,0,0,1,32,16.88l-.44,1.43A60.37,60.37,0,0,0,376.41,312l-.34-1.7-1,1.58c-1-.08-1.94-.13-2.92-.16l-1.92-5.07-.78,5.05h-.89c-2,0-7.59.57-7.59.57-1.13.18-2.26.37-3.38.57l-2.65-4.11-.55,4.69-3.08.59-2.41-1.74-.32,2.27c-5.68,1.12-11.35,2.28-17.11,3.21A36.41,36.41,0,0,1,361.72,297.89Z"></path></g><path d="M393.67,314.14s-1.35-1.63-5.15-1.9a24.44,24.44,0,0,0-7.54.35l8.36,1.55Z" style="opacity:0.30000000000000004"></path><path d="M393.54,314.05c5.44-3.86,11-7.79,17.35-10.13,10.62-4,22.44-2,32.74,2-10.31-3.8-22.06-5.54-32.52-1.41-6.22,2.45-11.63,6.42-17,10.36l-.58-.81Z" style="fill:#263238"></path><path d="M397.32,337.56l6.36-.34-7.09-4c-.09-.54-.18-1.08-.28-1.62l1.76-3.95-2.24,1.08c-.71-4.24-2.08-10-2.79-14.26h1c11.25,6.48,21.25,19.42,24.05,32.11a46.89,46.89,0,0,1,.05,19.7l-7.35-1.78L417,371a46.17,46.17,0,0,1-6.27,12.73c-4.51-7.64-7-16.28-9.41-24.82a66.06,66.06,0,0,1-1.3-7.3l3.58-4.75c.36-.18-4.73-.31-4.73-.31Z" style="fill:#407BFF"></path><g style="opacity:0.30000000000000004"><path d="M397.32,337.56l6.36-.34-7.09-4c-.09-.54-.18-1.08-.28-1.62l1.76-3.95-2.24,1.08c-.71-4.24-2.08-10-2.79-14.26h1c11.25,6.48,21.25,19.42,24.05,32.11a46.89,46.89,0,0,1,.05,19.7l-7.35-1.78L417,371a46.17,46.17,0,0,1-6.27,12.73c-4.51-7.64-7-16.28-9.41-24.82a66.06,66.06,0,0,1-1.3-7.3l3.58-4.75c.36-.18-4.73-.31-4.73-.31Z"></path></g><path d="M393.91,314.12c13.57,14.82,17.46,26.68,17.5,46.63-.21-12.65-2.39-25.82-10.14-36.16a99.58,99.58,0,0,0-8.1-9.8l.74-.67Z" style="fill:#263238"></path><path d="M369.09,322.62v6c-8.81,5.6-17.52,11.5-27.32,14.83.9-7.56,4.94-14.41,10.59-19.59l3.72,1.27s-.08-2-.21-4.13a38.38,38.38,0,0,1,5.57-3.34c10.13-4.95,21.38-5.13,32.54-3.55l.07.48c-8,1.94-13.82,7.15-20.86,11.46Z" style="fill:#407BFF"></path><g style="opacity:0.30000000000000004"><path d="M369.09,322.62v6c-8.81,5.6-17.52,11.5-27.32,14.83.9-7.56,4.94-14.41,10.59-19.59l3.72,1.27s-.08-2-.21-4.13a38.38,38.38,0,0,1,5.57-3.34c10.13-4.95,21.38-5.13,32.54-3.55l.07.48c-8,1.94-13.82,7.15-20.86,11.46Z"></path></g><path d="M392.71,314.16c-.42-16.55-10.35-36.42-29.18-36,13.67-.87,24.23,10.86,27.81,23.12a52.49,52.49,0,0,1,2.37,12.79l-1,.05Z" style="fill:#263238"></path><path d="M374.87,362.3l8.76,2.83.6-2.71-8.58-2.91Q375.25,360.89,374.87,362.3Z" style="opacity:0.1"></path><path d="M380.29,344.66c-.31.9-.61,1.81-.91,2.73l7.91,2.56c.24-.9.48-1.79.71-2.67Z" style="opacity:0.1"></path><path d="M385.17,331.09c-.33.87-.67,1.77-1,2.69l7,2.28c.27-.91.54-1.79.81-2.65Z" style="opacity:0.1"></path><path d="M371.16,377.59l9.71,2.23c.12-.78.25-1.56.38-2.34l-9.57-2.34C371.5,376,371.33,376.77,371.16,377.59Z" style="opacity:0.1"></path><path d="M379.09,395.1V395c.06-.89.14-1.78.22-2.68l-10.57-1c-.14,1-.26,1.94-.39,2.91Z" style="opacity:0.1"></path><path d="M382.56,431l-17.72.69q-.09.78-.18,1.5v2.57l19-1C383.3,433.55,382.93,432.31,382.56,431Z" style="opacity:0.1"></path><path d="M379.46,414.52c-.11-1-.2-2.13-.29-3.22l-12.34.09c-.1,1.15-.19,2.28-.29,3.38Z" style="opacity:0.1"></path></g><g id="freepik--tree-3--inject-269"><path d="M247.54,265.15c2.69-37,14.41-73,23.18-96.7,6.59-17.8,12.53-30.19,12.53-30.19l6.21,6.45s-22.22,60.76-25.59,109c-2.8,40.09,9.18,188.51,9.18,188.51l-33.15.36S244.86,302.16,247.54,265.15Z" style="fill:#263238"></path><path d="M327.86,127.38l-1.53,7c-1.25.15-2.48.33-3.72.55L320,131.39l-.64,4.2c-11,2.37-21.65,6.62-32.87,7.18l2.05-6.54c7.83-10.15,20.28-16.82,29.49-21.3a52,52,0,0,1,21-5.54l2.7,6.58a18.68,18.68,0,0,0,2.95-6.32c1,.12,2.08.28,3.11.5C356.41,112,364,117,371,122.18q8.53,6.28,16.61,13.17c-6.8,2.15-13.92,2.54-21.08,2.15l-4.41-7-2,6.44c-3.53-.38-7.06-.88-10.54-1.38a116.11,116.11,0,0,0-17-1.59Z" style="fill:#407BFF"></path><g style="opacity:0.30000000000000004"><path d="M327.86,127.38l-1.53,7c-1.25.15-2.48.33-3.72.55L320,131.39l-.64,4.2c-11,2.37-21.65,6.62-32.87,7.18l2.05-6.54c7.83-10.15,20.28-16.82,29.49-21.3a52,52,0,0,1,21-5.54l2.7,6.58a18.68,18.68,0,0,0,2.95-6.32c1,.12,2.08.28,3.11.5C356.41,112,364,117,371,122.18q8.53,6.28,16.61,13.17c-6.8,2.15-13.92,2.54-21.08,2.15l-4.41-7-2,6.44c-3.53-.38-7.06-.88-10.54-1.38a116.11,116.11,0,0,0-17-1.59Z"></path></g><path d="M291.63,96.7l-13.72-7.84-2-8.16h8.67l-9.86-4.89q-2.85-11.69-5.69-23.38a54.68,54.68,0,0,1,34.13,37.26A54.18,54.18,0,0,1,291,138.56l-.42,2.51q-5.4-22.18-10.79-44.37Z" style="fill:#407BFF"></path><g style="opacity:0.4"><path d="M291.63,96.7l-13.72-7.84-2-8.16h8.67l-9.86-4.89q-2.85-11.69-5.69-23.38a54.68,54.68,0,0,1,34.13,37.26A54.18,54.18,0,0,1,291,138.56l-.42,2.51q-5.4-22.18-10.79-44.37Z"></path></g><path d="M301.52,140c.79,0,40.16-2,53.89,17.64s13.68,47.8,12.63,56.44L348,189.49,346.4,179l-3.17,4.72s-3.49-3.52-7.84-7.81l4-11.82-7.85,8c-2.79-2.71-5.62-5.41-7.93-7.51.54-2.34,1.23-5.43,1.23-5.43s-2.29,1.61-4,3l-.54-.44c-6.8-5.46-34.05-19.9-34.05-19.9A129.57,129.57,0,0,1,301.52,140Z" style="fill:#407BFF"></path><path d="M301.52,140c.79,0,40.16-2,53.89,17.64s13.68,47.8,12.63,56.44L348,189.49,346.4,179l-3.17,4.72s-3.49-3.52-7.84-7.81l4-11.82-7.85,8c-2.79-2.71-5.62-5.41-7.93-7.51.54-2.34,1.23-5.43,1.23-5.43s-2.29,1.61-4,3l-.54-.44c-6.8-5.46-34.05-19.9-34.05-19.9A129.57,129.57,0,0,1,301.52,140Z" style="opacity:0.4"></path><path d="M289.84,138.83s.69.07,2-7.75-1-26.54-12-34.38l.75,4.24Z" style="opacity:0.30000000000000004"></path><path d="M262.76,99.53l-17.33,5.91-9.08-6.89,4.84-5.73-8.45,3L217.93,84.57a68.31,68.31,0,0,1,27.88-4,48.28,48.28,0,0,1,26.13,9.87,47.77,47.77,0,0,1,15.31,23,68,68,0,0,1,2.38,27.65l0-.14c-9-8.8-19.06-16.44-29.1-24.05L255,112.67Z" style="fill:#407BFF"></path><g style="opacity:0.30000000000000004"><path d="M262.76,99.53l-17.33,5.91-9.08-6.89,4.84-5.73-8.45,3L217.93,84.57a68.31,68.31,0,0,1,27.88-4,48.28,48.28,0,0,1,26.13,9.87,47.77,47.77,0,0,1,15.31,23,68,68,0,0,1,2.38,27.65l0-.14c-9-8.8-19.06-16.44-29.1-24.05L255,112.67Z"></path></g><path d="M287.66,139s.18-6.69-8.66-13.79S263.32,119,263.32,119Z" style="opacity:0.30000000000000004"></path><path d="M239.08,115.19c19.76-.93,39.67,9.48,50.06,26.17l-.67,2.22A95.6,95.6,0,0,0,262.05,137l-.53-2.65-1.61,2.46c-1.52-.12-3-.2-4.57-.25l-3-7.86-1.22,7.82-1.39,0c-3.07,0-11.88.87-11.88.87l-5.27.89L228.43,132l-.87,7.28-4.8.9-3.78-2.7-.49,3.53c-8.89,1.74-17.76,3.54-26.76,5C200.49,128.34,219.32,116.12,239.08,115.19Z" style="fill:#407BFF"></path><path d="M304.76,152.28s-3.31-5.29-7.33-8.26-7.35-3-7.35-3Z" style="opacity:0.2"></path><g style="opacity:0.4"><path d="M239.08,115.19c19.76-.93,39.67,9.48,50.06,26.17l-.67,2.22A95.6,95.6,0,0,0,262.05,137l-.53-2.65-1.61,2.46c-1.52-.12-3-.2-4.57-.25l-3-7.86-1.22,7.82-1.39,0c-3.07,0-11.88.87-11.88.87l-5.27.89L228.43,132l-.87,7.28-4.8.9-3.78-2.7-.49,3.53c-8.89,1.74-17.76,3.54-26.76,5C200.49,128.34,219.32,116.12,239.08,115.19Z"></path></g><path d="M289,140.38s-2.1-2.52-8-2.94c-7.82-.56-11.79.54-11.79.54l13.07,2.4Z" style="opacity:0.30000000000000004"></path><path d="M289,140.47c18.69-13.6,34.13-22.19,58.05-18.34a100.73,100.73,0,0,1,20.12,5.5A100.52,100.52,0,0,0,347,122.38a60.29,60.29,0,0,0-40.11,7.35,177.32,177.32,0,0,0-17.32,11.55l-.58-.81Z" style="fill:#263238"></path><path d="M294.74,176.7l9.95-.52L293.6,170l-.42-2.53,2.74-6.12-3.5,1.68c-1.11-6.58-3.25-15.54-4.37-22.12h1.61c17.6,10.05,33.24,30.12,37.62,49.8a72.33,72.33,0,0,1,.08,30.55l-11.5-2.76,9.59,10a72.45,72.45,0,0,1-9.8,19.75c-7.06-11.86-10.93-25.27-14.73-38.5a103.86,103.86,0,0,1-2-11.33l5.6-7.37c.56-.28-7.4-.47-7.4-.47Q295.92,183.65,294.74,176.7Z" style="fill:#407BFF"></path><g style="opacity:0.30000000000000004"><path d="M294.74,176.7l9.95-.52L293.6,170l-.42-2.53,2.74-6.12-3.5,1.68c-1.11-6.58-3.25-15.54-4.37-22.12h1.61c17.6,10.05,33.24,30.12,37.62,49.8a72.33,72.33,0,0,1,.08,30.55l-11.5-2.76,9.59,10a72.45,72.45,0,0,1-9.8,19.75c-7.06-11.86-10.93-25.27-14.73-38.5a103.86,103.86,0,0,1-2-11.33l5.6-7.37c.56-.28-7.4-.47-7.4-.47Q295.92,183.65,294.74,176.7Z"></path></g><path d="M289.21,140.54c21.48,23.38,27.23,40.55,27.57,72.14-.24-13.15-1.71-26.54-6.24-39a80.46,80.46,0,0,0-9.46-17.29,155.3,155.3,0,0,0-12.61-15.23l.74-.67Z" style="fill:#263238"></path><path d="M250.6,153.54v9.29c-13.77,8.68-27.39,17.83-42.72,23,1.41-11.72,7.73-22.34,16.56-30.37l5.82,2s-.12-3.15-.33-6.41a59.34,59.34,0,0,1,8.71-5.18c15.84-7.68,33.43-8,50.89-5.5l.1.74c-12.49,3-21.6,11.09-32.61,17.78Z" style="fill:#407BFF"></path><g style="opacity:0.30000000000000004"><path d="M250.6,153.54v9.29c-13.77,8.68-27.39,17.83-42.72,23,1.41-11.72,7.73-22.34,16.56-30.37l5.82,2s-.12-3.15-.33-6.41a59.34,59.34,0,0,1,8.71-5.18c15.84-7.68,33.43-8,50.89-5.5l.1.74c-12.49,3-21.6,11.09-32.61,17.78Z"></path></g><path d="M287.82,140.41c-1-19.57-8.73-41-26.64-51a36.05,36.05,0,0,0-19.26-4.71,36.19,36.19,0,0,1,19.38,4.49c18.2,9.88,26.3,31.47,27.52,51.22l-1,0Z" style="fill:#263238"></path><path d="M259,203.9c-.37,1.28-.73,2.58-1.09,3.9l12.32,4h0c.28-1.27.56-2.54.85-3.81L259,203.88Z" style="opacity:0.1"></path><path d="M276.39,186.69,265.55,183c-.43,1.26-.85,2.54-1.28,3.83h0l11.12,3.6c.33-1.27.67-2.52,1-3.75Z" style="opacity:0.1"></path><path d="M272.42,163.94h0c-.47,1.23-.94,2.49-1.42,3.77l9.91,3.21c.38-1.28.76-2.52,1.13-3.73Z" style="opacity:0.1"></path><path d="M253.45,225.85c-.25,1.14-.49,2.29-.73,3.44l13.64,3.13h0l.54-3.29h0l-13.44-3.28Z" style="opacity:0.1"></path><path d="M263.86,253.89s0-.1,0-.15c.09-1.25.19-2.51.3-3.77l-14.85-1.35h0q-.28,2-.54,4.08h0Z" style="opacity:0.1"></path><path d="M264.75,315c-.09-1.81-.17-3.6-.24-5.38l-19.38.76c-.08,1.87-.17,3.77-.26,5.69Z" style="opacity:0.1"></path><path d="M266.57,349.27c-.1-1.78-.21-3.56-.31-5.33l-22.62.88c-.08,1.9-.15,3.8-.23,5.7Z" style="opacity:0.1"></path><path d="M268.76,383.78c-.12-1.75-.23-3.53-.35-5.32l-26.15.81c-.07,1.91-.14,3.79-.22,5.66Z" style="opacity:0.1"></path><path d="M270.82,413l-29.87.9c-.07,2-.15,3.88-.21,5.7l30.47-1.28C271.09,416.61,271,414.83,270.82,413Z" style="opacity:0.1"></path><path d="M246.54,281.52l17-.33c0-1.54-.06-3.05-.07-4.53l-16.69.12Q246.68,279.06,246.54,281.52Z" style="opacity:0.1"></path></g><g id="freepik--tree-4--inject-269"><path d="M388.53,215.18l-1.61,7.48c-1.31.16-2.62.35-3.93.59l-2.79-3.79-.68,4.47c-11.58,2.52-22.88,7-34.73,7.65l2.16-7c8.28-10.81,21.44-17.92,31.17-22.7A54.47,54.47,0,0,1,400.35,196l2.86,7a19.87,19.87,0,0,0,3.11-6.73c1.1.13,2.2.3,3.29.53,9.1,2,17.07,7.27,24.54,12.81q9,6.7,17.55,14C444.51,226,437,226.38,429.43,226l-4.67-7.42-2.1,6.85c-3.73-.4-7.46-.93-11.14-1.46a121,121,0,0,0-18-1.7Z" style="fill:#407BFF"></path><g style="opacity:0.1"><path d="M388.53,215.18l-1.61,7.48c-1.31.16-2.62.35-3.93.59l-2.79-3.79-.68,4.47c-11.58,2.52-22.88,7-34.73,7.65l2.16-7c8.28-10.81,21.44-17.92,31.17-22.7A54.47,54.47,0,0,1,400.35,196l2.86,7a19.87,19.87,0,0,0,3.11-6.73c1.1.13,2.2.3,3.29.53,9.1,2,17.07,7.27,24.54,12.81q9,6.7,17.55,14C444.51,226,437,226.38,429.43,226l-4.67-7.42-2.1,6.85c-3.73-.4-7.46-.93-11.14-1.46a121,121,0,0,0-18-1.7Z" style="fill:#fff"></path></g><path d="M304.23,376.06c3.16-43.53,16.94-85.86,27.25-113.72,7.75-20.92,14.74-35.5,14.74-35.5l7.3,7.59s-26.13,71.45-30.09,128.21c-3.3,47.15,12.95,80.06,12.95,80.06l-39.07-.09S301.07,419.59,304.23,376.06Z" style="fill:#263238"></path><path d="M304.23,376.06c3.16-43.53,16.94-85.86,27.25-113.72,7.75-20.92,14.74-35.5,14.74-35.5l7.3,7.59s-26.13,71.45-30.09,128.21c-3.3,47.15,12.95,80.06,12.95,80.06l-39.07-.09S301.07,419.59,304.23,376.06Z" style="fill:#fff;opacity:0.2"></path><path d="M350.25,182.49s-9.17-5.3-14.5-8.35c-.7-2.9-1.39-5.8-2.09-8.69h9.16l-10.42-5.22q-3-12.45-6-24.9a57,57,0,0,1,23.23,91.76l-.45,2.67-11.4-47.27Z" style="fill:#407BFF"></path><g style="opacity:0.1"><path d="M350.25,182.49s-9.17-5.3-14.5-8.35c-.7-2.9-1.39-5.8-2.09-8.69h9.16l-10.42-5.22q-3-12.45-6-24.9a57,57,0,0,1,23.23,91.76l-.45,2.67-11.4-47.27Z"></path></g><polygon points="346.47 245.41 344.79 235.74 335.9 243.1 343.35 231.21 348.62 232.79 350.96 238.31 346.47 245.41" style="opacity:0.30000000000000004"></polygon><path d="M360.71,228.63c.83,0,42.44-2.12,56.94,18.8s14.46,50.94,13.35,60.14l-21.2-26.22-1.68-11.16-3.34,5s-3.68-3.75-8.29-8.32l4.19-12.6-8.3,8.55c-2.94-2.88-5.93-5.76-8.38-8,.57-2.5,1.3-5.79,1.3-5.79s-2.41,1.72-4.22,3.19l-.57-.46c-7.19-5.82-36-21.2-36-21.2A135.22,135.22,0,0,1,360.71,228.63Z" style="fill:#407BFF"></path><path d="M360.71,228.63c.83,0,42.44-2.12,56.94,18.8s14.46,50.94,13.35,60.14l-21.2-26.22-1.68-11.16-3.34,5s-3.68-3.75-8.29-8.32l4.19-12.6-8.3,8.55c-2.94-2.88-5.93-5.76-8.38-8,.57-2.5,1.3-5.79,1.3-5.79s-2.41,1.72-4.22,3.19l-.57-.46c-7.19-5.82-36-21.2-36-21.2A135.22,135.22,0,0,1,360.71,228.63Z" style="opacity:0.1"></path><path d="M348.36,227.38s.73.08,2.07-8.26-1-28.28-12.66-36.63l.79,4.51Z" style="opacity:0.30000000000000004"></path><path d="M319.74,185.5l-18.31,6.31-9.6-7.35,5.12-6.1L288,181.54l-15.65-12a71.73,71.73,0,0,1,29.46-4.27,48.09,48.09,0,0,1,43.79,35,73.08,73.08,0,0,1,2.52,29.46l0-.14C338.6,220.24,328,212.1,317.36,204l-5.86-4.48Z" style="fill:#407BFF"></path><g style="opacity:0.1"><path d="M319.74,185.5l-18.31,6.31-9.6-7.35,5.12-6.1L288,181.54l-15.65-12a71.73,71.73,0,0,1,29.46-4.27,48.09,48.09,0,0,1,43.79,35,73.08,73.08,0,0,1,2.52,29.46l0-.14C338.6,220.24,328,212.1,317.36,204l-5.86-4.48Z" style="fill:#fff"></path></g><path d="M346.05,227.51s.2-7.13-9.14-14.69-16.57-6.55-16.57-6.55Z" style="opacity:0.30000000000000004"></path><path d="M294.72,202.19a60.12,60.12,0,0,1,52.9,27.89l-.71,2.36a100.4,100.4,0,0,0-27.92-7l-.56-2.82-1.7,2.61c-1.6-.13-3.21-.21-4.82-.26l-3.18-8.38-1.28,8.34c-.49,0-1,0-1.47,0-3.25,0-12.56.93-12.56.93q-2.79.45-5.57,1l-4.38-6.79-.92,7.75-5.08,1-4-2.88-.52,3.76c-9.39,1.85-18.77,3.77-28.27,5.3A60.15,60.15,0,0,1,294.72,202.19Z" style="fill:#407BFF"></path><path d="M364.13,241.71s-3.5-5.64-7.75-8.8-7.77-3.15-7.77-3.15Z" style="opacity:0.2"></path><g style="opacity:0.1"><path d="M294.72,202.19a60.12,60.12,0,0,1,52.9,27.89l-.71,2.36a100.4,100.4,0,0,0-27.92-7l-.56-2.82-1.7,2.61c-1.6-.13-3.21-.21-4.82-.26l-3.18-8.38-1.28,8.34c-.49,0-1,0-1.47,0-3.25,0-12.56.93-12.56.93q-2.79.45-5.57,1l-4.38-6.79-.92,7.75-5.08,1-4-2.88-.52,3.76c-9.39,1.85-18.77,3.77-28.27,5.3A60.15,60.15,0,0,1,294.72,202.19Z"></path></g><path d="M347.51,229s-2.22-2.69-8.5-3.14c-8.26-.59-12.46.58-12.46.58L340.36,229Z" style="opacity:0.30000000000000004"></path><path d="M347.48,229.15c19.72-14.46,36-23.65,61.32-19.55a105.8,105.8,0,0,1,21.28,5.84,106.19,106.19,0,0,0-21.31-5.6,63.27,63.27,0,0,0-42.42,7.83A190.75,190.75,0,0,0,348.07,230l-.59-.81Z" style="fill:#263238"></path><path d="M353.54,267.73l10.51-.55-11.71-6.62-.45-2.69,2.9-6.53-3.7,1.79c-1.17-7-3.44-16.56-4.62-23.57h1.7c18.6,10.71,35.12,32.1,39.76,53.06a77.85,77.85,0,0,1,.08,32.56l-12.16-2.95L386,322.92a76.93,76.93,0,0,1-10.36,21c-7.45-12.63-11.54-26.92-15.56-41a111.08,111.08,0,0,1-2.14-12.07l5.91-7.85c.59-.29-7.82-.5-7.82-.5Q354.79,275.13,353.54,267.73Z" style="fill:#407BFF"></path><path d="M347.67,229.22c22.75,24.94,28.79,43.28,29.16,76.85-.25-14-1.8-28.24-6.57-41.46a85.28,85.28,0,0,0-10-18.45,164.53,164.53,0,0,0-13.34-16.27l.74-.67Z" style="fill:#263238"></path><path d="M306.9,243.06V253c-14.56,9.24-28.95,19-45.15,24.49,1.49-12.49,8.17-23.81,17.5-32.37l6.15,2.1s-.13-3.35-.35-6.83a64.59,64.59,0,0,1,9.2-5.52C311,226.66,329.58,226.35,348,229l.11.78c-13.2,3.21-22.83,11.82-34.46,19Z" style="fill:#407BFF"></path><g style="opacity:0.1"><path d="M306.9,243.06V253c-14.56,9.24-28.95,19-45.15,24.49,1.49-12.49,8.17-23.81,17.5-32.37l6.15,2.1s-.13-3.35-.35-6.83a64.59,64.59,0,0,1,9.2-5.52C311,226.66,329.58,226.35,348,229l.11.78c-13.2,3.21-22.83,11.82-34.46,19Z" style="fill:#fff"></path></g><path d="M346.26,229.06c-1-20.77-9.15-43.62-28.11-54.36a37.86,37.86,0,0,0-20.43-5,38,38,0,0,1,20.55,4.84c19.25,10.61,27.7,33.57,29,54.52l-1,.05Z" style="fill:#263238"></path><path d="M316.44,308.62l14.49,4.68,1-4.48L317.73,304C317.3,305.53,316.87,307.07,316.44,308.62Z" style="opacity:0.1"></path><path d="M325.4,279.47c-.5,1.48-1,3-1.5,4.51L337,288.21l1.18-4.41Z" style="opacity:0.1"></path><path d="M333.48,257q-.84,2.18-1.68,4.45l11.65,3.77c.45-1.5.9-3,1.33-4.38Z" style="opacity:0.1"></path><path d="M310.31,333.89l16.05,3.69q.3-1.93.63-3.87l-15.81-3.86C310.88,331.19,310.6,332.54,310.31,333.89Z" style="opacity:0.1"></path><path d="M323.42,362.82a1.09,1.09,0,0,1,0-.18c.1-1.47.22-2.95.35-4.43l-17.46-1.59c-.23,1.6-.44,3.21-.64,4.82Z" style="opacity:0.1"></path><path d="M329.16,422.09l-29.29,1.14c-.1.85-.2,1.67-.29,2.47,0,1.5,0,2.92,0,4.25l31.39-1.7C330.38,426.37,329.76,424.31,329.16,422.09Z" style="opacity:0.1"></path><path d="M324,394.91c-.19-1.73-.34-3.51-.49-5.31l-20.39.14c-.16,1.91-.32,3.78-.47,5.58Z" style="opacity:0.1"></path></g><g id="freepik--tree-1--inject-269"><path d="M73.38,269.44l1.21,5.61c1,.12,2,.26,2.94.44l2.09-2.84.51,3.35c8.68,1.89,17.14,5.28,26,5.73l-1.62-5.22c-6.2-8.1-16.06-13.43-23.34-17a40.89,40.89,0,0,0-16.67-4.41l-2.13,5.25a15,15,0,0,1-2.34-5c-.82.1-1.64.23-2.46.4-6.81,1.46-12.79,5.45-18.38,9.6q-6.76,5-13.15,10.52a46.34,46.34,0,0,0,16.68,1.71l3.5-5.56,1.57,5.14c2.8-.31,5.59-.7,8.35-1.1a91.24,91.24,0,0,1,13.48-1.28Z" style="fill:#407BFF"></path><g style="opacity:0.30000000000000004"><path d="M73.38,269.44l1.21,5.61c1,.12,2,.26,2.94.44l2.09-2.84.51,3.35c8.68,1.89,17.14,5.28,26,5.73l-1.62-5.22c-6.2-8.1-16.06-13.43-23.34-17a40.89,40.89,0,0,0-16.67-4.41l-2.13,5.25a15,15,0,0,1-2.34-5c-.82.1-1.64.23-2.46.4-6.81,1.46-12.79,5.45-18.38,9.6q-6.76,5-13.15,10.52a46.34,46.34,0,0,0,16.68,1.71l3.5-5.56,1.57,5.14c2.8-.31,5.59-.7,8.35-1.1a91.24,91.24,0,0,1,13.48-1.28Z"></path></g><path d="M137.58,393.52c-2.37-32.61-12.7-64.33-20.42-85.2-5.81-15.68-11-26.6-11-26.6l-5.48,5.69s19.58,53.53,22.55,96.06c2.47,35.32-9.64,59.59-9.64,59.59l29.21,0S139.94,426.14,137.58,393.52Z" style="fill:#263238"></path><path d="M102.06,245s6.87-4,10.86-6.25c.53-2.18,1-4.35,1.58-6.52h-6.87l7.81-3.9,4.5-18.66a42.72,42.72,0,0,0-17.41,68.75l.34,2L111.41,245Z" style="fill:#407BFF"></path><g style="opacity:0.4"><path d="M102.06,245s6.87-4,10.86-6.25c.53-2.18,1-4.35,1.58-6.52h-6.87l7.81-3.9,4.5-18.66a42.72,42.72,0,0,0-17.41,68.75l.34,2L111.41,245Z"></path></g><polygon points="104.89 292.09 106.15 284.85 112.82 290.37 107.24 281.45 103.29 282.64 101.53 286.77 104.89 292.09" style="opacity:0.30000000000000004"></polygon><path d="M94.23,279.52c-.63,0-31.8-1.58-42.66,14.09s-10.84,38.16-10,45.06L57.45,319l1.25-8.36,2.51,3.76s2.76-2.8,6.21-6.23l-3.14-9.44,6.22,6.41c2.2-2.16,4.44-4.32,6.27-6l-1-4.33s1.81,1.28,3.17,2.39l.42-.35c5.39-4.36,27-15.88,27-15.88A101.85,101.85,0,0,0,94.23,279.52Z" style="fill:#407BFF"></path><path d="M94.23,279.52c-.63,0-31.8-1.58-42.66,14.09s-10.84,38.16-10,45.06L57.45,319l1.25-8.36,2.51,3.76s2.76-2.8,6.21-6.23l-3.14-9.44,6.22,6.41c2.2-2.16,4.44-4.32,6.27-6l-1-4.33s1.81,1.28,3.17,2.39l.42-.35c5.39-4.36,27-15.88,27-15.88A101.85,101.85,0,0,0,94.23,279.52Z" style="opacity:0.4"></path><path d="M103.48,278.58s-.55.06-1.56-6.18.78-21.19,9.49-27.45l-.59,3.39Z" style="opacity:0.30000000000000004"></path><path d="M124.92,247.21l13.72,4.72,7.19-5.5L142,241.85l6.69,2.39,11.72-9a53.6,53.6,0,0,0-22.07-3.19,36,36,0,0,0-32.81,26.22,54.82,54.82,0,0,0-1.89,22.07l0-.11c7.12-7,15.09-13.12,23-19.2l4.39-3.36Z" style="fill:#407BFF"></path><g style="opacity:0.30000000000000004"><path d="M124.92,247.21l13.72,4.72,7.19-5.5L142,241.85l6.69,2.39,11.72-9a53.6,53.6,0,0,0-22.07-3.19,36,36,0,0,0-32.81,26.22,54.82,54.82,0,0,0-1.89,22.07l0-.11c7.12-7,15.09-13.12,23-19.2l4.39-3.36Z"></path></g><path d="M105.21,278.68s-.15-5.34,6.85-11,12.41-4.9,12.41-4.9Z" style="opacity:0.30000000000000004"></path><path d="M143.67,259.71A45.06,45.06,0,0,0,104,280.61l.53,1.77a74.91,74.91,0,0,1,20.92-5.25l.42-2.11,1.28,2c1.2-.1,2.4-.16,3.61-.2l2.38-6.28,1,6.25,1.1,0c2.44,0,9.41.7,9.41.7,1.4.22,2.79.46,4.18.71l3.28-5.09.68,5.81,3.81.72,3-2.15.39,2.81c7,1.39,14.06,2.83,21.18,4A45,45,0,0,0,143.67,259.71Z" style="fill:#407BFF"></path><path d="M91.67,289.32a27.83,27.83,0,0,1,5.8-6.59,10.66,10.66,0,0,1,5.82-2.36Z" style="opacity:0.2"></path><g style="opacity:0.4"><path d="M143.67,259.71A45.06,45.06,0,0,0,104,280.61l.53,1.77a74.91,74.91,0,0,1,20.92-5.25l.42-2.11,1.28,2c1.2-.1,2.4-.16,3.61-.2l2.38-6.28,1,6.25,1.1,0c2.44,0,9.41.7,9.41.7,1.4.22,2.79.46,4.18.71l3.28-5.09.68,5.81,3.81.72,3-2.15.39,2.81c7,1.39,14.06,2.83,21.18,4A45,45,0,0,0,143.67,259.71Z"></path></g><path d="M104.12,279.82s1.66-2,6.36-2.35c6.19-.44,9.34.44,9.34.44l-10.35,1.91Z" style="opacity:0.30000000000000004"></path><path d="M103.62,280.62c-14.43-10.92-26.63-18-45.39-15.14a79.61,79.61,0,0,0-16,4.16,79.33,79.33,0,0,1,15.94-4.41,47.84,47.84,0,0,1,32.13,5.51,142.11,142.11,0,0,1,13.89,9.07l-.59.81Z" style="fill:#263238"></path><path d="M99.6,308.82l-7.88-.42,8.78-5c.11-.67.22-1.34.34-2l-2.18-4.9,2.77,1.35c.88-5.26,2.58-12.41,3.46-17.66h-1.27c-13.94,8-26.31,24-29.78,39.75a58.33,58.33,0,0,0-.07,24.4l9.11-2.21-7.59,8a57.33,57.33,0,0,0,7.76,15.77c5.58-9.47,8.65-20.17,11.66-30.74a84.24,84.24,0,0,0,1.6-9l-4.43-5.88c-.44-.22,5.86-.37,5.86-.37Z" style="fill:#407BFF"></path><g style="opacity:0.30000000000000004"><path d="M99.6,308.82l-7.88-.42,8.78-5c.11-.67.22-1.34.34-2l-2.18-4.9,2.77,1.35c.88-5.26,2.58-12.41,3.46-17.66h-1.27c-13.94,8-26.31,24-29.78,39.75a58.33,58.33,0,0,0-.07,24.4l9.11-2.21-7.59,8a57.33,57.33,0,0,0,7.76,15.77c5.58-9.47,8.65-20.17,11.66-30.74a84.24,84.24,0,0,0,1.6-9l-4.43-5.88c-.44-.22,5.86-.37,5.86-.37Z"></path></g><path d="M104.64,280.55c-17.15,18.23-21.9,32.12-22.49,57,0-15.75,2.43-32.21,11.86-45.26a124.42,124.42,0,0,1,9.89-12.4l.74.67Z" style="fill:#263238"></path><path d="M134.55,290.33v7.42c10.9,6.93,21.68,14.23,33.82,18.35-1.12-9.36-6.12-17.84-13.11-24.25l-4.61,1.57s.09-2.51.26-5.11a46.43,46.43,0,0,0-6.89-4.14c-12.54-6.13-26.47-6.35-40.29-4.39l-.09.59c9.89,2.4,17.11,8.85,25.82,14.2Z" style="fill:#407BFF"></path><g style="opacity:0.30000000000000004"><path d="M134.55,290.33v7.42c10.9,6.93,21.68,14.23,33.82,18.35-1.12-9.36-6.12-17.84-13.11-24.25l-4.61,1.57s.09-2.51.26-5.11a46.43,46.43,0,0,0-6.89-4.14c-12.54-6.13-26.47-6.35-40.29-4.39l-.09.59c9.89,2.4,17.11,8.85,25.82,14.2Z"></path></g><path d="M104.18,279.8c1-15.72,7.37-32.94,21.83-40.87a28.47,28.47,0,0,1,15.41-3.6,28.33,28.33,0,0,0-15.29,3.82c-9.4,5.23-15.35,15-18.34,25.06a63.89,63.89,0,0,0-2.61,15.64l-1-.05Z" style="fill:#263238"></path><path d="M127.39,339.45,116.54,343c-.25-1.13-.49-2.24-.75-3.36l10.64-3.6C126.75,337.14,127.08,338.29,127.39,339.45Z" style="opacity:0.1"></path><path d="M120.68,317.61c.38,1.11.75,2.24,1.13,3.38l-9.8,3.17c-.29-1.11-.59-2.22-.88-3.31Z" style="opacity:0.1"></path><path d="M114.63,300.81l1.26,3.33L107.16,307c-.34-1.12-.68-2.22-1-3.28Z" style="opacity:0.1"></path><path d="M132,358.38l-12,2.77c-.15-1-.31-1.94-.47-2.9l11.85-2.89C131.56,356.36,131.77,357.37,132,358.38Z" style="opacity:0.1"></path><path d="M122.17,380.06a.62.62,0,0,1,0-.13q-.12-1.65-.27-3.33L135,375.41c.17,1.2.32,2.41.47,3.61Z" style="opacity:0.1"></path><path d="M117.87,424.46l21.94.86c.07.63.14,1.25.22,1.85,0,1.12,0,2.19,0,3.18l-23.51-1.27C117,427.67,117.41,426.13,117.87,424.46Z" style="opacity:0.1"></path><path d="M121.7,404.1c.14-1.3.26-2.63.36-4l15.28.11c.12,1.43.24,2.83.36,4.18Z" style="opacity:0.1"></path></g><g id="freepik--tree-2--inject-269"><path d="M222.49,360c-3.88-53.36-42.05-119.35-55.35-143.25s-25-41.17-25-41.17l-9,9.3S194.09,274,199,343.58c4,57.78-16.84,99.8-16.84,99.8h42.46S226.36,413.37,222.49,360Z" style="fill:#263238"></path><path d="M137.19,121.25S148.43,114.75,155,111q1.29-5.33,2.57-10.65H146.29L159.07,94q3.69-15.27,7.37-30.53a71.14,71.14,0,0,0-44.21,48.65A71.18,71.18,0,0,0,138,175.91l.55,3.28,14-57.94Z" style="fill:#407BFF"></path><g style="opacity:0.2"><path d="M137.19,121.25S148.43,114.75,155,111q1.29-5.33,2.57-10.65H146.29L159.07,94q3.69-15.27,7.37-30.53a71.14,71.14,0,0,0-44.21,48.65A71.18,71.18,0,0,0,138,175.91l.55,3.28,14-57.94Z"></path></g><polygon points="141.82 198.36 143.88 186.5 154.78 195.54 145.66 180.96 139.2 182.9 136.32 189.66 141.82 198.36" style="opacity:0.30000000000000004"></polygon><path d="M124.38,177.8c-1-.05-52-2.6-69.79,23s-17.73,62.43-16.36,73.71l26-32.14,2.05-13.67,4.1,6.15s4.51-4.59,10.16-10.19l-5.14-15.44,10.17,10.48c3.61-3.54,7.28-7.06,10.27-9.81-.69-3.06-1.59-7.09-1.59-7.09s3,2.1,5.18,3.91l.69-.57c8.81-7.13,44.1-26,44.1-26A165.49,165.49,0,0,0,124.38,177.8Z" style="fill:#407BFF"></path><path d="M124.38,177.8c-1-.05-52-2.6-69.79,23s-17.73,62.43-16.36,73.71l26-32.14,2.05-13.67,4.1,6.15s4.51-4.59,10.16-10.19l-5.14-15.44,10.17,10.48c3.61-3.54,7.28-7.06,10.27-9.81-.69-3.06-1.59-7.09-1.59-7.09s3,2.1,5.18,3.91l.69-.57c8.81-7.13,44.1-26,44.1-26A165.49,165.49,0,0,0,124.38,177.8Z" style="opacity:0.2"></path><path d="M90.27,161.31l2,9.17c1.61.19,3.21.43,4.81.72l3.42-4.65.84,5.48c14.19,3.1,28,8.65,42.56,9.38l-2.65-8.54c-10.14-13.25-26.27-22-38.19-27.82a67,67,0,0,0-27.26-7.23l-3.5,8.59a24.54,24.54,0,0,1-3.81-8.26c-1.35.17-2.7.38-4,.66-11.14,2.4-20.91,8.91-30.06,15.71q-11.07,8.21-21.52,17.2c8.82,2.8,18,3.31,27.3,2.81l5.72-9.1,2.58,8.4c4.57-.49,9.13-1.14,13.65-1.79,7.31-1.06,14.67-2.13,22.05-2.09Z" style="fill:#407BFF"></path><path d="M139.51,176.26s-.89.1-2.54-10.12,1.27-34.66,15.52-44.89l-1,5.53Z" style="opacity:0.30000000000000004"></path><path d="M174.58,124.94,197,132.67l11.77-9-6.27-7.48,10.94,3.91,19.19-14.68c-11.56-4.07-23.9-6.22-36.11-5.23s-24.29,5.22-33.84,12.9-16.19,18.4-19.84,30-4.35,24-3.09,36.11l0-.18c11.66-11.49,24.69-21.47,37.69-31.41l7.18-5.5Z" style="fill:#407BFF"></path><path d="M142.34,176.42s-.24-8.73,11.21-18,20.3-8,20.3-8Z" style="opacity:0.30000000000000004"></path><path d="M205.25,145.39c-25.6-1.21-51.37,12.38-64.84,34.18l.88,2.9a122.86,122.86,0,0,1,34.21-8.59l.69-3.45,2.08,3.2q3-.23,5.92-.32L188.08,163l1.57,10.23,1.81,0c4,.05,15.38,1.15,15.38,1.15,2.29.37,4.56.76,6.84,1.16l5.36-8.32,1.13,9.5c2.07.39,4.15.78,6.22,1.19l4.9-3.53.63,4.61c11.52,2.27,23,4.62,34.65,6.49C255.23,162.57,230.85,146.6,205.25,145.39Z" style="fill:#407BFF"></path><path d="M120.19,193.82s4.28-6.91,9.49-10.78,9.52-3.85,9.52-3.85Z" style="opacity:0.2"></path><g style="opacity:0.2"><path d="M205.25,145.39c-25.6-1.21-51.37,12.38-64.84,34.18l.88,2.9a122.86,122.86,0,0,1,34.21-8.59l.69-3.45,2.08,3.2q3-.23,5.92-.32L188.08,163l1.57,10.23,1.81,0c4,.05,15.38,1.15,15.38,1.15,2.29.37,4.56.76,6.84,1.16l5.36-8.32,1.13,9.5c2.07.39,4.15.78,6.22,1.19l4.9-3.53.63,4.61c11.52,2.27,23,4.62,34.65,6.49C255.23,162.57,230.85,146.6,205.25,145.39Z"></path></g><path d="M140.55,178.29s2.72-3.3,10.41-3.85c10.13-.72,15.29.71,15.29.71l-16.93,3.14Z" style="opacity:0.30000000000000004"></path><path d="M139.93,179.34c-24-17.94-43.38-29.24-74.46-24.6a129.93,129.93,0,0,0-26.12,6.89,129.45,129.45,0,0,1,26.08-7.13c18.18-3,36.43-.17,52.43,9.14,7.94,4.37,15.31,9.65,22.66,14.89l-.59.81Z" style="fill:#263238"></path><path d="M133.16,225.72,120.27,225l14.36-8.11c.19-1.1.37-2.2.56-3.3l-3.56-8,4.53,2.2c1.44-8.6,4.22-20.3,5.66-28.89h-2.08c-22.8,13.12-43.05,39.34-48.72,65a95.15,95.15,0,0,0-.11,39.9l14.9-3.6L93.39,293.36a94.13,94.13,0,0,0,12.69,25.79c9.14-15.48,14.15-33,19.08-50.28,1.38-4.83,2.62-14.79,2.62-14.79l-7.25-9.62c-.72-.36,9.59-.62,9.59-.62Q131.64,234.78,133.16,225.72Z" style="fill:#407BFF"></path><path d="M141.18,179.27c-28.11,30.17-35.65,52.44-36.57,93.43.13-17.2,1.83-34.67,7.52-51a106,106,0,0,1,12.08-22.9,202.05,202.05,0,0,1,16.23-20.2l.74.67Z" style="fill:#263238"></path><path d="M190.33,195.48v12.13c17.83,11.34,35.47,23.28,55.33,30-1.83-15.31-10-29.18-21.45-39.67l-7.54,2.58s.16-4.11.44-8.37a77.57,77.57,0,0,0-11.29-6.77c-20.51-10-43.3-10.39-65.91-7.18l-.14,1c16.19,3.93,28,14.48,42.25,23.22Z" style="fill:#407BFF"></path><path d="M141,178.26c1.55-25.65,11.87-53.79,35.43-66.8a46.61,46.61,0,0,1,25.18-5.95,46.48,46.48,0,0,0-25.06,6.17c-15.42,8.52-25.23,24.47-30.18,41A105.43,105.43,0,0,0,142,178.31l-1-.05Z" style="fill:#263238"></path><path d="M158.69,202.06l0-.06-2.15-3.62v0l-10.56,6.75,0,.1c.63,1,1.27,2.13,1.93,3.24l.11.19Z" style="opacity:0.1"></path><path d="M160.2,230.35l1.93,3.7,10.92-6.62-2.12-3.87,0-.06Z" style="opacity:0.1"></path><path d="M186.78,253.16q-1-2-2-4l-11.33,7.87c.58,1.28,1.17,2.57,1.75,3.86Z" style="opacity:0.1"></path><path d="M199.72,280.47c-.62-1.42-1.24-2.82-1.87-4.22l-13.77,6.22c.52,1.36,1,2.72,1.52,4.09Z" style="opacity:0.1"></path><path d="M193,310.05c.41,1.51.79,3,1.16,4.53l16.9-5.17q-.81-2.36-1.65-4.7Z" style="opacity:0.1"></path><path d="M198.7,340.49c.1,1,.18,2.06.26,3.09,0,.84.09,1.67.14,2.51l21.28-2.21c-.35-1.95-.75-3.91-1.17-5.87Z" style="opacity:0.1"></path><path d="M225,418.07l-33.23-1.73c-.72,2.64-1.45,5.11-2.16,7.4L225,426.29C225,423.81,225,421.06,225,418.07Z" style="opacity:0.1"></path><path d="M198.69,376.79c-.19,2.18-.39,4.34-.63,6.44l25.89.67c-.11-2.23-.24-4.53-.37-6.87Z" style="opacity:0.1"></path><path d="M222.49,360c-3.88-53.36-42.05-119.35-55.35-143.25s-25-41.17-25-41.17l-9,9.3S194.09,274,199,343.58c4,57.78-16.84,99.8-16.84,99.8h42.46S226.36,413.37,222.49,360Z" style="fill:#fff;opacity:0.1"></path></g></svg>
