<svg xmlns="http://www.w3.org/2000/svg" viewBox="0 0 500 500"><g id="freepik--background-complete--inject-402"><rect y="382.4" width="500" height="0.25" style="fill:#ebebeb"></rect><rect x="52.46" y="391.92" width="33.12" height="0.25" style="fill:#ebebeb"></rect><rect x="171.14" y="392.05" width="53.86" height="0.25" style="fill:#ebebeb"></rect><rect x="105.77" y="397.08" width="19.19" height="0.25" style="fill:#ebebeb"></rect><rect x="426.77" y="396.96" width="19.23" height="0.25" style="fill:#ebebeb"></rect><rect x="387.57" y="396.96" width="30.29" height="0.25" style="fill:#ebebeb"></rect><rect x="328.33" y="395.31" width="42.56" height="0.25" style="fill:#ebebeb"></rect><path d="M237,337.8H43.91a5.71,5.71,0,0,1-5.7-5.71V60.66A5.71,5.71,0,0,1,43.91,55H237a5.71,5.71,0,0,1,5.71,5.71V332.09A5.71,5.71,0,0,1,237,337.8ZM43.91,55.2a5.46,5.46,0,0,0-5.45,5.46V332.09a5.46,5.46,0,0,0,5.45,5.46H237a5.47,5.47,0,0,0,5.46-5.46V60.66A5.47,5.47,0,0,0,237,55.2Z" style="fill:#ebebeb"></path><path d="M453.31,337.8H260.21a5.72,5.72,0,0,1-5.71-5.71V60.66A5.72,5.72,0,0,1,260.21,55h193.1A5.71,5.71,0,0,1,459,60.66V332.09A5.71,5.71,0,0,1,453.31,337.8ZM260.21,55.2a5.47,5.47,0,0,0-5.46,5.46V332.09a5.47,5.47,0,0,0,5.46,5.46h193.1a5.47,5.47,0,0,0,5.46-5.46V60.66a5.47,5.47,0,0,0-5.46-5.46Z" style="fill:#ebebeb"></path><path d="M149.37,231.7c-13.89-.15-53.61-16.52-52.39-7s-34.74,2.59-17.6,23.52,25.55,10.1,36.41,18.14,55.25,15.82,50.86-2S193.22,232.19,149.37,231.7Z" style="fill:#e6e6e6"></path><path d="M44.7,198.75c14.13,1.48,53.77-15.81,53-3.09s35.48,7.73,19,33.92-25.53,10.55-36.2,20.1S25,264.33,28.66,240.74.09,194.09,44.7,198.75Z" style="fill:#f5f5f5"></path><polygon points="84.77 207.49 98.87 207.49 100.08 233.95 104.68 278.38 111.35 313.89 109.86 334.94 113.8 382.4 85.47 382.4 92.72 315.56 88.65 279.36 84.54 245.71 84.77 207.49" style="fill:#ebebeb"></polygon><polygon points="90.95 257.68 76.83 233.34 67.78 210.56 79.54 230.65 93.78 251.47 90.95 257.68" style="fill:#ebebeb"></polygon><polygon points="93.77 373.89 79.25 382.4 87.13 382.4 93.77 373.89" style="fill:#ebebeb"></polygon><path d="M98.13,200.74c12-4.87,34.51-36.76,40.45-25.6s32.13-8.81,32.58,20.61-14.81,20-18.36,32.78S116.35,265,107.05,243.4,60.34,216.1,98.13,200.74Z" style="fill:#e6e6e6"></path><path d="M76.69,158c-9.57,9.05-49.88,19.72-41.31,28S13.86,211.43,42.54,220s25.59-7.28,39.52-6.8,50.43-21.48,32.92-35.6S106.92,129.42,76.69,158Z" style="fill:#e0e0e0"></path><polygon points="107.12 312.01 126.63 277.26 129.82 259.83 122.2 275.62 107.91 297.24 107.12 312.01" style="fill:#ebebeb"></polygon><path d="M238,163.62c10.74,9.34,53.08,19.48,45.2,28.56s24.7,26.46-3.69,36.51-26.93-7-41.11-6-53.81-21.34-37.43-36.92S204.05,134.13,238,163.62Z" style="fill:#e6e6e6"></path><path d="M327.11,155.85c-14,4.68-58.05-3.89-54.39,8.82s-34.21,15.83-11.63,38.67,28.24,4.93,41.21,12.19,59.53,2.34,50.54-20.76S371.27,141.06,327.11,155.85Z" style="fill:#ebebeb"></path><polygon points="265.81 157.43 247.68 157.43 246.13 191.46 240.21 248.61 242.43 294.88 233.55 321.35 228.48 382.4 264.92 382.4 263.14 296.14 260.82 249.87 266.11 206.59 265.81 157.43" style="fill:#f5f5f5"></polygon><polygon points="257.86 221.98 276.02 190.68 287.67 161.37 272.55 187.21 254.22 214 257.86 221.98" style="fill:#f5f5f5"></polygon><polygon points="261.79 366.1 272.92 382.4 262.77 382.4 261.79 366.1" style="fill:#f5f5f5"></polygon><path d="M221.64,139.51c-9.34,3.48-38.77-2.89-36.32,6.55s-22.85,11.75-7.77,28.69,18.86,3.66,27.52,9.05,39.75,1.74,33.75-15.4S251.12,128.53,221.64,139.51Z" style="fill:#e6e6e6"></path><path d="M253.42,114.46c16,5.61,68.94-3,63.21,11.23s38.62,18.63,9.44,43.77-33.87,4.87-50,12.74-70.5,1.2-57.33-24.57S203,96.77,253.42,114.46Z" style="fill:#e0e0e0"></path><polygon points="242.07 232.82 217.55 205.98 207.97 185.3 222.54 202.51 247.29 224.83 242.07 232.82" style="fill:#f5f5f5"></polygon><path d="M105,68.48a13.92,13.92,0,0,0-6.07,1.68c3.44-4.51,2.29-8-3-8.14s-12.73,3.07-17.92,7.4c.7-2.26-.59-3.81-3.7-3.88-4.36-.09-10.79,2.78-14.8,6.54l47,.9C108.45,70.5,107.87,68.55,105,68.48Z" style="fill:#f0f0f0"></path><path d="M425.59,208.19a9.56,9.56,0,0,0-4.29,1.19c2.43-3.19,1.62-5.68-2.16-5.76s-9,2.17-12.66,5.23c.49-1.6-.42-2.69-2.62-2.74-3.09-.07-7.63,2-10.47,4.62l33.26.64C428.06,209.61,427.65,208.23,425.59,208.19Z" style="fill:#f0f0f0"></path><path d="M195.93,94.52a9.72,9.72,0,0,0-2.55.36c1.29-3-.17-5.18-4.17-5.27-3.67-.08-8.55,1.6-12.79,4.17-.32-1.12-1.5-1.83-3.49-1.87a19.11,19.11,0,0,0-8.61,2.49,3.23,3.23,0,0,0-1.87-.52,14.19,14.19,0,0,0-7.16,2.44l42.94.82C198.77,95.63,198,94.57,195.93,94.52Z" style="fill:#f5f5f5"></path><polygon points="412.63 323.14 410.29 323.14 311.35 323.14 309 323.14 311.01 338.93 313.35 338.93 412.29 338.93 414.64 338.93 412.63 323.14" style="fill:#f5f5f5"></polygon><polygon points="415.51 345.74 413.16 345.74 314.22 345.74 311.87 345.74 312.74 352.55 315.08 352.55 414.03 352.55 416.37 352.55 415.51 345.74" style="fill:#f5f5f5"></polygon><polygon points="425.08 357.04 413.98 357.04 323.79 357.04 312.69 357.04 313.01 359.78 324.12 359.78 414.3 359.78 425.4 359.78 425.08 357.04" style="fill:#f5f5f5"></polygon><polygon points="335.24 382.4 333.84 382.4 327.96 359.78 330.43 359.78 335.24 382.4" style="fill:#e6e6e6"></polygon><polygon points="429.14 382.4 427.75 382.4 421.87 359.78 424.33 359.78 429.14 382.4" style="fill:#e6e6e6"></polygon><polygon points="408.63 321.68 407.24 321.68 411.83 359.78 407.02 382.4 408.42 382.4 414.3 359.78 408.63 321.68" style="fill:#e6e6e6"></polygon><polygon points="315.04 321.68 313.65 321.68 317.93 359.78 313.12 382.4 314.51 382.4 320.39 359.78 315.04 321.68" style="fill:#e6e6e6"></polygon></g><g id="freepik--Shadow--inject-402"><ellipse id="freepik--path--inject-402" cx="250" cy="416.24" rx="193.89" ry="11.32" style="fill:#f5f5f5"></ellipse></g><g id="freepik--trash-can--inject-402"><rect x="118.26" y="354.97" width="25.07" height="54.86" rx="2.7" style="fill:#407BFF"></rect><rect x="118.26" y="354.97" width="25.07" height="54.86" rx="2.7" style="fill:#fff;opacity:0.6000000000000001"></rect><path d="M140.63,349.32H121a2.7,2.7,0,0,0-2.7,2.7h25.07A2.7,2.7,0,0,0,140.63,349.32Z" style="fill:#407BFF"></path><path d="M140.63,349.32H121a2.7,2.7,0,0,0-2.7,2.7h25.07A2.7,2.7,0,0,0,140.63,349.32Z" style="fill:#fff;opacity:0.6000000000000001"></path><rect x="129.82" y="352.02" width="1.95" height="2.95" style="fill:#407BFF"></rect><rect x="137.02" y="352.02" width="1.95" height="2.95" style="fill:#407BFF"></rect><rect x="122.63" y="352.02" width="1.95" height="2.95" style="fill:#407BFF"></rect></g><g id="freepik--Bench--inject-402"><polygon points="304.4 329.33 302.55 329.33 295.31 376.21 298.58 376.21 304.4 329.33" style="fill:#263238"></polygon><polygon points="180.31 329.33 178.46 329.33 171.22 376.21 174.49 376.21 180.31 329.33" style="fill:#263238"></polygon><polygon points="310.56 331.27 307.9 352.2 173.6 352.2 176.26 331.27 310.56 331.27" style="fill:#407BFF"></polygon><polygon points="310.56 331.27 307.9 352.2 173.6 352.2 176.26 331.27 310.56 331.27" style="opacity:0.2"></polygon><polygon points="307.45 331.27 304.79 352.2 170.49 352.2 173.15 331.27 307.45 331.27" style="fill:#407BFF"></polygon><polygon points="172.45 361.23 306.75 361.23 305.6 370.26 171.31 370.26 172.45 361.23" style="fill:#407BFF"></polygon><polygon points="172.45 361.23 306.75 361.23 305.6 370.26 171.31 370.26 172.45 361.23" style="opacity:0.2"></polygon><polygon points="169.34 361.23 303.64 361.23 302.49 370.26 168.19 370.26 169.34 361.23" style="fill:#407BFF"></polygon><polygon points="171.37 376.21 305.67 376.21 305.24 379.85 170.94 379.85 171.37 376.21" style="fill:#407BFF"></polygon><polygon points="171.37 376.21 305.67 376.21 305.24 379.85 170.94 379.85 171.37 376.21" style="opacity:0.2"></polygon><polygon points="156.65 376.21 290.94 376.21 290.52 379.85 156.22 379.85 156.65 376.21" style="fill:#407BFF"></polygon><polygon points="282.29 409.83 284.14 409.83 291.93 379.85 288.67 379.85 282.29 409.83" style="fill:#263238"></polygon><polygon points="311.62 409.83 309.77 409.83 301.97 379.85 305.24 379.85 311.62 409.83" style="fill:#263238"></polygon><polygon points="151.26 409.83 153.11 409.83 160.91 379.85 157.64 379.85 151.26 409.83" style="fill:#263238"></polygon><polygon points="180.59 409.83 178.74 409.83 170.94 379.85 174.21 379.85 180.59 409.83" style="fill:#263238"></polygon></g><g id="freepik--Tree--inject-402"><path d="M438.1,111.07c-15.44,5.17-64.1-4.3-60.05,9.74s-37.78,17.48-12.84,42.69,31.18,5.44,45.49,13.46,65.72,2.58,55.8-22.92S486.84,94.74,438.1,111.07Z" style="fill:#407BFF"></path><path d="M438.1,111.07c-15.44,5.17-64.1-4.3-60.05,9.74s-37.78,17.48-12.84,42.69,31.18,5.44,45.49,13.46,65.72,2.58,55.8-22.92S486.84,94.74,438.1,111.07Z" style="fill:#fff;opacity:0.30000000000000004"></path><polygon points="370.42 112.81 350.4 112.81 348.69 150.39 342.15 213.47 344.6 282.59 334.8 343.13 329.2 410.52 369.43 410.52 367.47 283.98 364.91 214.87 370.75 167.09 370.42 112.81" style="fill:#407BFF"></polygon><polygon points="361.64 184.08 381.69 149.52 394.55 117.16 377.85 145.69 357.62 175.26 361.64 184.08" style="fill:#407BFF"></polygon><polygon points="365.98 392.53 378.26 410.52 367.06 410.52 365.98 392.53" style="fill:#407BFF"></polygon><path d="M303.69,90.81C283.52,98.32,220,84.57,225.26,105s-49.33,25.36-16.77,62,40.73,7.9,59.42,19.54,85.83,3.74,72.87-33.27S367.35,67.11,303.69,90.81Z" style="fill:#407BFF"></path><path d="M303.69,90.81C283.52,98.32,220,84.57,225.26,105s-49.33,25.36-16.77,62,40.73,7.9,59.42,19.54,85.83,3.74,72.87-33.27S367.35,67.11,303.69,90.81Z" style="fill:#fff;opacity:0.4"></path><path d="M328.06,40.8c23.19,8.13,100-4.33,91.71,16.29s56,27,13.7,63.51-49.15,7.07-72.52,18.48-102.29,1.74-83.19-35.64S254.84,15.12,328.06,40.8Z" style="fill:#407BFF"></path><path d="M328.06,40.8c23.19,8.13,100-4.33,91.71,16.29s56,27,13.7,63.51-49.15,7.07-72.52,18.48-102.29,1.74-83.19-35.64S254.84,15.12,328.06,40.8Z" style="fill:#fff;opacity:0.5"></path><polygon points="344.21 236.26 317.14 206.63 297.04 169.35 322.64 202.81 349.98 227.45 344.21 236.26" style="fill:#407BFF"></polygon></g><g id="freepik--Character--inject-402"><path d="M206.12,166.91c-.72,2.2-17.76,4.9-8.94,19s13.92,4.57,11.13,20.42,17.33,5.34,27.61,8.64c18.47,5.94,25.85-20.89,11.38-22.43s-17.67-2.32-16-13.68S211.14,151.65,206.12,166.91Z" style="fill:#263238"></path><path d="M201.43,212.15c0,2.39-.15,4.54-.34,6.79s-.54,4.44-.91,6.65a71.54,71.54,0,0,1-3.44,13l-.3.8c-.11.28-.16.45-.4,1a6.7,6.7,0,0,1-2,2.53,7,7,0,0,1-2.74,1.2,9.64,9.64,0,0,1-2.39.18,21.39,21.39,0,0,1-7.23-1.95,58.4,58.4,0,0,1-11.51-6.94l2-3.15c1.86.89,3.81,1.78,5.73,2.58a53.71,53.71,0,0,0,5.77,2.12,17.78,17.78,0,0,0,5.3.93c.71,0,1.11-.28,1-.27s-.1.07-.09,0l.37-1.24a84.54,84.54,0,0,0,2.61-12c.3-2,.51-4.11.7-6.17s.31-4.18.38-6.09Z" style="fill:#b55b52"></path><path d="M195.66,203.51c-3,1-4.2,13.63-4.2,13.63l8.78,5.08s7.1-13.18,4.52-16.34S200,202.06,195.66,203.51Z" style="fill:#407BFF"></path><path d="M195.66,203.51c-3,1-4.2,13.63-4.2,13.63l8.78,5.08s7.1-13.18,4.52-16.34S200,202.06,195.66,203.51Z" style="fill:#fff;opacity:0.5"></path><polygon points="196.13 206.28 194.72 219.03 199.65 221.88 196.13 206.28" style="opacity:0.2"></polygon><path d="M173.78,233.22,168.39,226l-2,7.22s3.38,3.33,6.31,2.41Z" style="fill:#b55b52"></path><path d="M171.53,225.11h0a1.77,1.77,0,0,0-1.32,1.51l-.44,3.52,2.33,1.1Z" style="fill:#b55b52"></path><polygon points="163.4 223.7 162.03 229.16 166.36 233.22 168.39 226 163.4 223.7" style="fill:#b55b52"></polygon><polygon points="223.11 412.52 215.73 412.52 214.31 395.43 221.69 395.43 223.11 412.52" style="fill:#b55b52"></polygon><polygon points="282.33 381.6 276.14 385.61 264.85 372.56 271.04 368.54 282.33 381.6" style="fill:#b55b52"></polygon><path d="M274.68,384.84l6.22-5.49a.58.58,0,0,1,.77,0l5.05,4.29a1.18,1.18,0,0,1,0,1.77c-2.2,1.88-3.36,2.67-6.09,5.09-1.68,1.48-4,3.83-6.31,5.88s-4.47-.14-3.69-1.2c3.51-4.76,3.06-6.65,3.44-9.17A2,2,0,0,1,274.68,384.84Z" style="fill:#263238"></path><path d="M215,411.67h8.3a.59.59,0,0,1,.59.5l.94,6.56a1.19,1.19,0,0,1-1.18,1.32c-2.89-.05-4.29-.22-7.94-.22-2.24,0-8.68.23-11.78.23s-3.27-3.06-2-3.34c5.79-1.25,9.87-3,11.82-4.6A1.94,1.94,0,0,1,215,411.67Z" style="fill:#263238"></path><g style="opacity:0.2"><polygon points="214.31 395.43 215.04 404.24 222.43 404.24 221.7 395.43 214.31 395.43"></polygon><polygon points="271.05 368.55 264.85 372.56 270.67 379.29 276.87 375.27 271.05 368.55"></polygon></g><path d="M195.66,203.51s-3.42,1.49,6.75,44.18l29.9-2.18c-1.39-12.13-1.95-19.63,2.05-45a88,88,0,0,0-12.82-.75,94,94,0,0,0-13.57,1C202.17,201.67,195.66,203.51,195.66,203.51Z" style="fill:#407BFF"></path><path d="M195.66,203.51s-3.42,1.49,6.75,44.18l29.9-2.18c-1.39-12.13-1.95-19.63,2.05-45a88,88,0,0,0-12.82-.75,94,94,0,0,0-13.57,1C202.17,201.67,195.66,203.51,195.66,203.51Z" style="fill:#fff;opacity:0.5"></path><path d="M219.09,184.54c-.54,4.43-.82,12.5,2.45,15.19,0,0-.87,4.52-9,5.11-8.92.65-4.58-4.12-4.58-4.12,4.78-1.52,4.39-5.12,3.3-8.46Z" style="fill:#b55b52"></path><path d="M215.9,187.69l-4.63,4.57a14.82,14.82,0,0,1,.6,2.38c1.84-.41,4.25-2.64,4.3-4.6A6.54,6.54,0,0,0,215.9,187.69Z" style="opacity:0.2"></path><path d="M204.46,198.85a.27.27,0,0,1-.27-.21.28.28,0,0,1,.21-.33c8.29-1.85,4.82-18,4.78-18.16a.27.27,0,0,1,.21-.32.26.26,0,0,1,.32.21c.16.68,3.62,16.83-5.19,18.81Z" style="fill:#407BFF"></path><path d="M224.08,177.17c-1.67,7.13-2.23,10.18-6.5,13.26-6.43,4.63-14.82,1-15.31-6.47-.44-6.74,2.37-17.27,9.91-18.94A10,10,0,0,1,224.08,177.17Z" style="fill:#b55b52"></path><path d="M206.91,166.31c-2.4,3.33,21,15.76,18.72,7.91S213.18,157.59,206.91,166.31Z" style="fill:#263238"></path><path d="M218.8,174.33c-.57,3.47,4,7.58,4,7.58s5.88-4.34,2.18-6.65S218.8,174.33,218.8,174.33Z" style="fill:#263238"></path><path d="M202.41,247.69s-1.69,57.13.43,79.55c2.2,23.32,10.62,75.3,10.62,75.3h10s-1.37-51.85-2.15-74.85c-.86-25.07,3-81.59,3-81.59Z" style="fill:#263238"></path><polygon points="224.31 402.9 212.59 402.9 211.74 399.16 224.85 398.7 224.31 402.9" style="fill:#263238"></polygon><path d="M216.33,260.86c-6.27,15.31,1.56,41.83,4.89,51.67.23-15.15,1.14-33.73,1.91-47.37C221.46,257.59,219.22,253.8,216.33,260.86Z" style="opacity:0.2"></path><path d="M210.3,247.11s11.06,58.47,17.55,77c7.71,22,40.4,54.69,40.4,54.69l8.44-5.48s-23.76-37.6-29.26-49.1c-11.75-24.55-6-62.82-15.12-78.74Z" style="fill:#263238"></path><polygon points="277.95 373.16 267.48 379.95 264.22 377.38 276.19 368.84 277.95 373.16" style="fill:#263238"></polygon><path d="M211.79,177.12c-.1.58-.5,1-.88.94s-.61-.59-.51-1.18.49-1,.87-.94S211.89,176.53,211.79,177.12Z" style="fill:#263238"></path><path d="M205.15,176c-.1.59-.49,1-.87,1s-.62-.6-.52-1.18.5-1,.88-.95S205.25,175.4,205.15,176Z" style="fill:#263238"></path><path d="M204.8,174.86l-1.34-.64S204,175.44,204.8,174.86Z" style="fill:#263238"></path><path d="M207.49,177.39a16,16,0,0,1-2.73,3.39,2.57,2.57,0,0,0,2,.75Z" style="fill:#a02724"></path><path d="M209.59,184.37a5.41,5.41,0,0,1-.87-.08.17.17,0,1,1,.05-.34,4.74,4.74,0,0,0,4.11-1.17.17.17,0,0,1,.25.23A4.85,4.85,0,0,1,209.59,184.37Z" style="fill:#263238"></path><path d="M224.91,184.11a5.39,5.39,0,0,1-3.26,2.48c-1.82.46-2.68-1.18-2.14-2.87.48-1.53,2-3.61,3.82-3.32A2.41,2.41,0,0,1,224.91,184.11Z" style="fill:#b55b52"></path><rect x="163.49" y="222.06" width="6.75" height="14.2" rx="0.4" transform="translate(49.28 -28.78) rotate(11.55)" style="fill:#407BFF"></rect><rect x="164.91" y="222.97" width="5.06" height="6.75" rx="0.61" transform="translate(48.73 -28.95) rotate(11.55)" style="fill:#fff"></rect><path d="M222.86,184.33a1.11,1.11,0,1,1-.32-1.68A1.22,1.22,0,0,1,222.86,184.33Z" style="fill:#407BFF"></path><path d="M170.7,223h-.07a.27.27,0,0,1-.19-.33c.06-.25.14-.78.24-1.44.51-3.33,1.56-10.27,4.79-11.47,1.27-.47,2.72,0,4.32,1.36a3.69,3.69,0,0,0,2.72,1.07c2.17-.17,4.26-2.63,6.69-5.47,3.79-4.44,8.51-10,15.57-8.31,11.58,2.73,16.46-13.74,16.51-13.91a.27.27,0,1,1,.52.16c-.05.17-5.09,17.12-17.15,14.28-6.74-1.59-11.15,3.58-15,8.14-2.5,2.93-4.66,5.46-7.05,5.65a4.22,4.22,0,0,1-3.12-1.19c-1.44-1.24-2.71-1.67-3.78-1.27-2.93,1.09-4,8.06-4.44,11-.11.71-.18,1.21-.26,1.49A.27.27,0,0,1,170.7,223Z" style="fill:#407BFF"></path><path d="M214.68,176.22a.35.35,0,0,1-.33-.25,4.16,4.16,0,0,0-2.47-2.21.35.35,0,0,1-.22-.44.34.34,0,0,1,.44-.22,4.77,4.77,0,0,1,2.92,2.67.34.34,0,0,1-.23.43A.22.22,0,0,1,214.68,176.22Z" style="fill:#263238"></path><path d="M203.68,172.58a.36.36,0,0,1-.3-.18.35.35,0,0,1,.13-.47,3.5,3.5,0,0,1,3.19-.22.35.35,0,0,1-.32.63h0a2.77,2.77,0,0,0-2.52.19A.31.31,0,0,1,203.68,172.58Z" style="fill:#263238"></path><path d="M238.51,209.17c.36,1.75.82,3.75,1.35,5.6s1.09,3.75,1.77,5.55a39.31,39.31,0,0,0,5.13,9.93l.71.89a9.47,9.47,0,0,0,.83.74,26,26,0,0,0,2.22,1.59c1.63,1,3.35,2,5.12,3s3.56,1.93,5.37,2.86l5.45,2.8-1.32,3.5a112.79,112.79,0,0,1-11.94-4c-2-.8-3.92-1.64-5.87-2.66a30.19,30.19,0,0,1-3-1.75,14.14,14.14,0,0,1-1.57-1.21c-.63-.59-.93-1-1.35-1.41a33.82,33.82,0,0,1-3.92-5.62,46.29,46.29,0,0,1-2.86-6,62.39,62.39,0,0,1-2.12-6.17,59.07,59.07,0,0,1-1.48-6.42Z" style="fill:#b55b52"></path><path d="M234.36,200.48c3.06.69,7.41,10.75,7.41,10.75l-11,9.15s-4.86-8.3-3.88-12.26C227.88,204,230.87,199.69,234.36,200.48Z" style="fill:#407BFF"></path><path d="M234.36,200.48c3.06.69,7.41,10.75,7.41,10.75l-11,9.15s-4.86-8.3-3.88-12.26C227.88,204,230.87,199.69,234.36,200.48Z" style="fill:#fff;opacity:0.5"></path><path d="M272.42,388.12h-.09a1,1,0,0,1-.83-.51.61.61,0,0,1-.06-.6c.38-.86,3-1.26,3.32-1.3a.16.16,0,0,1,.17.08.17.17,0,0,1,0,.19C274.38,386.77,273.34,388.06,272.42,388.12Zm2-2c-1.05.19-2.43.57-2.63,1a.23.23,0,0,0,0,.26.69.69,0,0,0,.55.35C272.84,387.78,273.6,387.18,274.39,386.14Z" style="fill:#407BFF"></path><path d="M274.55,386.1c-.91.07-2.62-.25-3-.91a.61.61,0,0,1,.12-.75.93.93,0,0,1,.71-.32c1.07,0,2.49,1.59,2.55,1.66a.17.17,0,0,1,0,.17.2.2,0,0,1-.13.12Zm-2.23-1.62a.56.56,0,0,0-.4.19c-.15.17-.12.27-.08.35.26.44,1.68.79,2.58.74-.5-.5-1.41-1.29-2.05-1.29Z" style="fill:#407BFF"></path><path d="M212.24,413a2.78,2.78,0,0,1-1.79-.46.93.93,0,0,1-.31-.85.53.53,0,0,1,.29-.46c.91-.5,3.85,1,4.18,1.18a.16.16,0,0,1,.09.18.16.16,0,0,1-.14.14A12,12,0,0,1,212.24,413Zm-1.31-1.53a.75.75,0,0,0-.33.06.23.23,0,0,0-.12.19.64.64,0,0,0,.2.56c.45.41,1.67.48,3.3.21A9.38,9.38,0,0,0,210.93,411.43Z" style="fill:#407BFF"></path><path d="M214.53,412.7l-.07,0c-.88-.4-2.62-2-2.49-2.82,0-.2.18-.45.66-.5a1.31,1.31,0,0,1,1,.3,4.86,4.86,0,0,1,1.1,2.85.17.17,0,0,1-.07.16A.17.17,0,0,1,214.53,412.7Zm-1.76-3h-.1c-.32,0-.34.16-.35.2-.08.5,1.1,1.76,2,2.3a4.16,4.16,0,0,0-.94-2.28A1,1,0,0,0,212.77,409.71Z" style="fill:#407BFF"></path><path d="M211.44,176l-1.34-.65S210.63,176.57,211.44,176Z" style="fill:#263238"></path><path d="M232.63,243.73l1,2.62c.12.2-.11.43-.46.45L202.36,249c-.27,0-.51-.1-.54-.26l-.46-2.66c0-.19.19-.36.49-.38l30.27-2.2A.54.54,0,0,1,232.63,243.73Z" style="fill:#fff"></path><path d="M228.81,247.41l.81-.06c.16,0,.28-.1.26-.2l-.63-3.45c0-.11-.17-.18-.33-.17l-.81.06c-.16,0-.28.11-.26.21l.63,3.45C228.5,247.35,228.65,247.42,228.81,247.41Z" style="fill:#263238"></path><path d="M204.66,249.16l.81,0c.16,0,.28-.11.26-.21l-.64-3.45c0-.1-.16-.17-.32-.16l-.81.06c-.17,0-.28.1-.26.2l.63,3.45C204.35,249.1,204.49,249.18,204.66,249.16Z" style="fill:#263238"></path><path d="M216.73,248.29l.81-.06c.16,0,.28-.11.26-.21l-.63-3.45c0-.1-.17-.17-.33-.16l-.81.06c-.16,0-.28.1-.26.2l.63,3.45C216.42,248.23,216.57,248.3,216.73,248.29Z" style="fill:#263238"></path><path d="M264.61,241.93l7-3.85-1.47,7.36s-4.52,1.43-6.72-.71Z" style="fill:#b55b52"></path><polygon points="277.72 239.06 276.16 245.16 270.13 245.44 271.6 238.08 277.72 239.06" style="fill:#b55b52"></polygon></g><g id="freepik--Birds--inject-402"><path d="M95.19,116.94c4-3.41,14.66-6.53,17.22-6.1a17.19,17.19,0,0,1,5,1.89s-11.14,5.2-19.54,7.13a46,46,0,0,0-5.17,7.25s-4.74-5.35-5.31-9.65C90.47,116.29,95.19,116.94,95.19,116.94Z" style="fill:#407BFF"></path><path d="M108.42,87.33c-.83-2.36-3.84,2.39-5.63,9.57s.58,18.21.58,18.21l6.87-2.82C108.74,111.23,111.29,95.53,108.42,87.33Z" style="fill:#407BFF"></path><path d="M102.81,93.83c-1.18-1.82-4,2-5.21,7.73s2.68,14.28,2.68,14.28l7.35-2.47C105.84,112.59,106.92,100.16,102.81,93.83Z" style="fill:#407BFF"></path><path d="M97.64,99.27c-1.74-1.24-4.77,2.28-5.48,7s5.31,10.85,5.31,10.85l6.74-2.42C103.81,112.35,103.68,103.59,97.64,99.27Z" style="fill:#407BFF"></path><path d="M126.67,126.07c1.18,1.51-4.12,1-10.4-1.35s-12.73-8.61-12.73-8.61l6.33-2.4C109.7,115,122.58,120.79,126.67,126.07Z" style="fill:#407BFF"></path><path d="M118.48,126.11c.57,1.46-4,1.23-8.82-.74s-8.59-7.94-8.59-7.94l6.39-2.81C106.9,115.93,116.51,121,118.48,126.11Z" style="fill:#407BFF"></path><path d="M111.33,126.4c-.2,1.49-4.63,1.52-8.47-.25s-4.47-7.8-4.47-7.8l6-2.51C105.8,117.13,112,121.19,111.33,126.4Z" style="fill:#407BFF"></path><path d="M194.78,42.92c-.23-1.37-2.47,1-4.52,4.84-.08-.22-.16-.44-.26-.65-.51-1-2.51.77-4.07,3.75-.09-.08-.17-.17-.26-.24-1-.81-3.63,1.46-4.76,4.51s2.26,7,2.26,7l4.38-1.35v.06l3.13-1.09.08,0h0l2-.69C191.82,58.39,195.69,48.24,194.78,42.92Z" style="fill:#407BFF"></path><path d="M194.78,42.92c-.23-1.37-2.47,1-4.52,4.84-.08-.22-.16-.44-.26-.65-.51-1-2.51.77-4.07,3.75-.09-.08-.17-.17-.26-.24-1-.81-3.63,1.46-4.76,4.51s2.26,7,2.26,7l4.38-1.35v.06l3.13-1.09.08,0h0l2-.69C191.82,58.39,195.69,48.24,194.78,42.92Z" style="opacity:0.2"></path><path d="M179.21,63c3.56-2.85,12.66-5.53,14.75-5.2a12.92,12.92,0,0,1,4,1.51s-9.64,4.4-16.75,6.07c-2.15,2-7.46,4.75-7.46,4.75a30.87,30.87,0,0,1-1-6.62A16.31,16.31,0,0,1,179.21,63Z" style="fill:#407BFF"></path><path d="M183.4,40c-1.39-1.78-2.74,1.89-2.31,7.39s5.63,13.84,5.63,13.84L192,59C190.41,58.2,188.26,46.21,183.4,40Z" style="fill:#407BFF"></path><path d="M180.24,45.09c-1.56-1.36-3,1.62-2.45,6s6.39,10.81,6.39,10.81l5.84-2C188.22,59.3,185.68,49.82,180.24,45.09Z" style="fill:#407BFF"></path><path d="M177.18,49.34c-1.89-.91-3.6,1.83-2.91,5.43S182,62.92,182,62.92l5.32-2C186.34,59.16,183.76,52.5,177.18,49.34Z" style="fill:#407BFF"></path></g></svg>