<svg xmlns="http://www.w3.org/2000/svg" viewBox="0 0 500 500"><g id="freepik--background-complete--inject-73"><g><g><g><path d="M443.92,309.997h-180.746c-3.232,0-5.862-2.63-5.862-5.862V40.861c0-3.232,2.63-5.862,5.862-5.862h180.746c3.232,0,5.862,2.629,5.862,5.862V304.134c0,3.233-2.63,5.862-5.862,5.862ZM263.174,35.249c-3.095,0-5.612,2.518-5.612,5.612V304.134c0,3.095,2.518,5.612,5.612,5.612h180.746c3.095,0,5.612-2.517,5.612-5.612V40.861c0-3.094-2.518-5.612-5.612-5.612h-180.746Z" style="fill:#e0e0e0;"></path><path d="M235.493,309.997H54.746c-3.232,0-5.862-2.63-5.862-5.862V40.861c0-3.232,2.629-5.862,5.862-5.862H235.493c3.232,0,5.862,2.629,5.862,5.862V304.134c0,3.233-2.63,5.862-5.862,5.862ZM54.746,35.249c-3.094,0-5.612,2.518-5.612,5.612V304.134c0,3.095,2.518,5.612,5.612,5.612H235.493c3.095,0,5.612-2.517,5.612-5.612V40.861c0-3.094-2.518-5.612-5.612-5.612H54.746Z" style="fill:#e0e0e0;"></path></g><rect x="0" y="343.001" width="500" height=".25" style="fill:#e0e0e0;"></rect></g><rect x="51.672" y="357.266" width="16.06" height=".25" style="fill:#e0e0e0;"></rect><rect x="170.352" y="354.556" width="53.53" height=".25" style="fill:#e0e0e0;"></rect><rect x="68.732" y="366.556" width="36.25" height=".25" style="fill:#e0e0e0;"></rect><rect x="378.352" y="354.426" width="43.19" height=".25" style="fill:#e0e0e0;"></rect><rect x="430.452" y="354.426" width="6.33" height=".25" style="fill:#e0e0e0;"></rect><rect x="316.212" y="360.656" width="53.89" height=".25" style="fill:#e0e0e0;"></rect></g><path d="M181.9,294.302l2.762,.134c-4.913-4.925-12.451-6.55-15.51-2.852,1.311-3.299-2.824-7.167-8.396-8.256,.405,.575,.8,1.13,1.184,1.662,.553-.036,1.108,.023,1.637,.172-.434,.077-.86,.186-1.274,.326,1.011,1.44,2.1,2.832,3.25,4.184-3.474-1.836-9.204-1.444-14.017,1.78,3.947,1.079,8.044,1.608,12.152,1.593-1.434,.407-2.865,1.083-4.143,1.976,.126,.812,.446,1.59,.939,2.28-.866-.202-1.597-.724-2.01-1.437-1.828,1.514-3.029,3.541-3.408,5.748,2.845,.132,5.404-.857,7.519-2.275-4.338,6.689-6.271,15.101-7.101,22.174-2.778-2.58-5.605-5.107-8.488-7.569-9.05-7.731-19.313-15.101-30.509-18.448,.195-3.503,.75-7.529,2.117-10.87-.337,1.218-.382,2.574,.242,3.801,.419-.26,.791-.59,1.099-.975-.145-.029-.287-.071-.424-.127,.22-.033,.435-.089,.643-.167,.258-.378,.467-.786,.623-1.216-.116-.045-.229-.099-.336-.162,.134,.002,.269-.007,.401-.028,.33-1.018,.379-2.115,.156-3.042,1.134,2.272,2.649,4.336,4.493,6.093,.403-3.169-.89-5.94-2.744-7.022,1.178,.167,2.364,.28,3.554,.335-.043-.254-.105-.503-.184-.748,.239,.222,.432,.488,.571,.783l1.291,.07c-2.297-2.563-5.82-3.408-7.25-1.484,.613-1.716-1.32-3.729-3.925-4.296,.189,.299,.374,.588,.553,.865,.258-.019,.518,.012,.765,.09-.203,.04-.402,.097-.596,.169,.473,.749,.982,1.474,1.519,2.177-1.624-.955-4.302-.751-6.552,.926,1.845,.561,3.76,.837,5.68,.829-.67,.212-1.339,.563-1.937,1.028,.059,.422,.209,.827,.439,1.186-.405-.105-.746-.377-.94-.748-.854,.788-1.416,1.843-1.593,2.991,1.329,.069,2.526-.446,3.515-1.184-1.784,3.063-2.695,6.818-3.153,10.183-2.245-.569-4.525-.97-6.84-1.176,.006-7.936,.777-19.108,4.364-27.878-.667,2.405-.754,5.085,.479,7.508,.828-.514,1.562-1.165,2.171-1.925-.286-.057-.566-.141-.837-.251,.434-.065,.859-.175,1.27-.33,.51-.746,.923-1.553,1.231-2.403-.229-.089-.452-.196-.665-.32,.265,.004,.53-.014,.793-.054,.652-2.011,.749-4.177,.308-6.009,2.239,4.487,5.233,8.565,8.874,12.035,.796-6.259-1.759-11.733-5.419-13.87,2.327,.33,4.67,.553,7.02,.661-.085-.501-.207-.994-.364-1.477,.471,.438,.854,.963,1.127,1.546l2.55,.138c-4.536-5.062-11.496-6.732-14.32-2.932,1.21-3.39-2.608-7.366-7.752-8.486,.374,.591,.738,1.162,1.093,1.708,.51-.037,1.023,.023,1.512,.177-.401,.08-.794,.192-1.177,.335,.933,1.48,1.939,2.911,3.001,4.3-3.207-1.887-8.498-1.484-12.941,1.829,3.644,1.109,7.427,1.653,11.22,1.637-1.324,.419-2.646,1.113-3.825,2.031,.116,.835,.412,1.634,.866,2.344-.8-.208-1.474-.744-1.856-1.477-1.687,1.556-2.796,3.639-3.146,5.908,2.626,.136,4.989-.881,6.942-2.338-4.905,8.421-6.481,19.497-6.932,27.445-.181,.004-.362,.002-.543,.009-9.176,.331-17.783,3.922-25.785,8.61-.022-6.405,.562-15.638,3.511-22.849-.536,1.935-.607,4.091,.385,6.04,.666-.413,1.257-.937,1.747-1.549-.23-.046-.456-.114-.673-.202,.349-.052,.691-.141,1.022-.265,.41-.6,.743-1.249,.99-1.933-.185-.072-.363-.158-.535-.257,.213,.004,.427-.011,.638-.043,.525-1.618,.603-3.36,.248-4.834,1.801,3.61,4.21,6.89,7.139,9.682,.64-5.035-1.415-9.439-4.36-11.158,1.872,.266,3.757,.445,5.647,.531-.069-.403-.167-.8-.293-1.188,.379,.353,.687,.775,.907,1.244l2.052,.111c-3.649-4.072-9.248-5.416-11.52-2.358,.974-2.727-2.098-5.926-6.236-6.826,.301,.475,.594,.935,.879,1.374,.411-.03,.823,.019,1.216,.143-.322,.064-.639,.154-.947,.269,.751,1.191,1.56,2.342,2.414,3.459-2.58-1.518-6.836-1.194-10.411,1.472,2.932,.892,5.975,1.329,9.026,1.317-1.065,.337-2.128,.895-3.077,1.633,.094,.671,.332,1.315,.697,1.885-.643-.167-1.186-.599-1.493-1.188-1.357,1.252-2.25,2.928-2.531,4.753,2.113,.109,4.013-.709,5.585-1.881-4.56,7.827-5.544,18.508-5.687,24.861-1.552,.988-3.083,2.004-4.586,3.036-1.535,1.054-3.049,2.137-4.558,3.227-.422-7.502-1.905-17.979-6.543-25.94,1.843,1.374,4.072,2.334,6.55,2.206-.33-2.141-1.376-4.106-2.968-5.574-.36,.691-.997,1.198-1.751,1.394,.429-.669,.708-1.424,.818-2.211-1.113-.866-2.36-1.521-3.609-1.916,3.579,.014,7.148-.499,10.586-1.545-4.193-3.126-9.184-3.506-12.21-1.726,1.002-1.311,1.951-2.661,2.831-4.057-.361-.135-.732-.241-1.11-.316,.461-.145,.944-.202,1.426-.167,.334-.516,.678-1.055,1.031-1.612-4.853,1.057-8.456,4.808-7.314,8.006-2.664-3.586-9.231-2.01-13.51,2.766l2.406-.13c.258-.55,.619-1.045,1.064-1.459-.149,.456-.263,.921-.344,1.394,2.217-.102,4.427-.312,6.623-.623-3.454,2.017-5.864,7.181-5.113,13.086,3.435-3.274,6.259-7.121,8.372-11.355-.416,1.728-.325,3.772,.291,5.669,.247,.038,.498,.056,.748,.051-.201,.117-.411,.218-.627,.302,.291,.802,.681,1.563,1.161,2.267,.387,.146,.789,.25,1.198,.311-.255,.104-.52,.183-.79,.237,.574,.717,1.267,1.332,2.048,1.816,1.163-2.286,1.081-4.814,.452-7.083,3.871,9.464,4.267,21.893,4.082,29.325-11.582,8.755-22.377,18.55-32.173,29.265l148.933,.363c-5.339-6.192-10.963-12.139-16.832-17.832,.044-7.684,.928-18.264,4.726-26.606-.722,2.34-.817,4.947,.519,7.305,.897-.5,1.692-1.133,2.352-1.873-.31-.056-.614-.137-.906-.244,.47-.063,.931-.171,1.376-.321,.552-.726,1-1.511,1.333-2.338-.249-.087-.489-.191-.72-.311,.287,.005,.574-.013,.858-.053,.707-1.957,.812-4.064,.334-5.846,2.426,4.366,5.668,8.333,9.611,11.71,.862-6.09-1.905-11.416-5.87-13.495,2.521,.322,5.058,.538,7.603,.643-.092-.487-.224-.967-.395-1.437,.511,.426,.925,.937,1.221,1.504Zm-61.509-12.942l-.002,.004h-.001l.003-.004Zm-4.822-21.909l-.003,.008h-.002l.006-.008Zm-32.284,14.762l-.003,.006h-.002l.005-.006Zm-30.761,4.255l-.003-.007,.006,.008h-.002Zm115.877,14.325h-.003l.006-.008-.004,.008Z" style="fill:#f0f0f0;"></path><path d="M462.422,265.981l4.352,.211c-7.742-7.76-19.619-10.321-24.439-4.494,2.066-5.198-4.451-11.293-13.23-13.009,.638,.906,1.26,1.781,1.865,2.619,.871-.056,1.746,.036,2.58,.272-.684,.122-1.355,.294-2.008,.513,1.593,2.269,3.309,4.463,5.121,6.593-5.474-2.892-14.502-2.275-22.086,2.805,6.22,1.7,12.675,2.534,19.149,2.51-2.259,.642-4.515,1.706-6.528,3.113,.199,1.279,.703,2.505,1.479,3.593-1.365-.318-2.516-1.141-3.168-2.264-2.88,2.386-4.773,5.579-5.369,9.058,4.482,.208,8.514-1.351,11.848-3.584-6.835,10.54-9.881,23.795-11.188,34.938-4.378-4.065-8.832-8.047-13.374-11.927-14.26-12.181-30.431-23.794-48.072-29.068,.307-5.519,1.183-11.862,3.336-17.127-.532,1.919-.602,4.057,.382,5.989,.66-.41,1.246-.929,1.732-1.536-.229-.046-.452-.113-.668-.2,.346-.052,.686-.14,1.013-.263,.407-.595,.736-1.239,.982-1.917-.183-.071-.36-.157-.53-.255,.211,.004,.423-.011,.632-.043,.52-1.604,.598-3.332,.246-4.793,1.786,3.58,4.174,6.833,7.079,9.601,.635-4.993-1.403-9.36-4.323-11.065,1.856,.264,3.725,.441,5.6,.527-.068-.399-.165-.793-.291-1.178,.376,.35,.681,.768,.9,1.233l2.035,.11c-3.619-4.038-9.171-5.37-11.423-2.339,.966-2.705-2.08-5.876-6.184-6.77,.298,.471,.589,.927,.872,1.363,.407-.029,.816,.019,1.206,.141-.32,.064-.633,.153-.939,.267,.745,1.181,1.547,2.322,2.394,3.43-2.559-1.505-6.779-1.184-10.324,1.459,2.907,.885,5.925,1.319,8.951,1.306-1.056,.334-2.111,.888-3.051,1.62,.093,.666,.329,1.303,.691,1.87-.638-.166-1.176-.594-1.481-1.178-1.346,1.242-2.231,2.903-2.51,4.713,2.095,.109,3.98-.703,5.538-1.865-2.811,4.826-4.247,10.743-4.969,16.046-3.537-.896-7.131-1.529-10.778-1.853,.01-12.504,1.225-30.107,6.877-43.926-1.05,3.79-1.188,8.012,.754,11.83,1.305-.809,2.462-1.835,3.421-3.033-.451-.09-.893-.222-1.319-.396,.683-.102,1.354-.276,2.001-.52,.803-1.175,1.454-2.447,1.939-3.786-.362-.141-.712-.309-1.047-.504,.418,.007,.836-.021,1.249-.085,1.028-3.169,1.181-6.582,.486-9.468,3.529,7.07,8.246,13.496,13.982,18.964,1.254-9.862-2.771-18.487-8.539-21.855,3.667,.521,7.358,.871,11.061,1.041-.134-.789-.326-1.567-.574-2.327,.743,.691,1.346,1.517,1.777,2.436l4.019,.217c-7.148-7.976-18.114-10.608-22.564-4.619,1.907-5.342-4.109-11.607-12.215-13.371,.59,.931,1.164,1.831,1.722,2.692,.804-.058,1.612,.037,2.382,.279-.631,.126-1.251,.302-1.854,.528,1.471,2.332,3.056,4.587,4.728,6.776-5.054-2.972-13.389-2.338-20.392,2.883,5.743,1.747,11.703,2.604,17.68,2.58-2.086,.66-4.169,1.753-6.027,3.199,.184,1.315,.649,2.575,1.365,3.693-1.26-.327-2.323-1.173-2.925-2.327-2.659,2.452-4.406,5.734-4.957,9.309,4.138,.214,7.861-1.388,10.939-3.684-7.729,13.269-10.212,30.721-10.923,43.245-.285,.006-.57,.004-.856,.014-14.459,.522-28.021,6.179-40.63,13.567-.034-10.092,.885-24.64,5.532-36.003-.845,3.049-.956,6.445,.607,9.517,1.049-.651,1.98-1.476,2.752-2.44-.363-.072-.718-.179-1.061-.318,.55-.082,1.09-.222,1.61-.418,.646-.946,1.17-1.969,1.56-3.046-.291-.113-.573-.249-.843-.406,.336,.006,.672-.017,1.005-.068,.827-2.549,.95-5.294,.391-7.617,2.839,5.688,6.633,10.857,11.248,15.255,1.009-7.934-2.229-14.872-6.869-17.581,2.95,.419,5.919,.7,8.898,.837-.108-.635-.263-1.26-.462-1.872,.597,.556,1.083,1.221,1.429,1.96l3.233,.175c-5.75-6.416-14.572-8.533-18.151-3.716,1.534-4.297-3.306-9.337-9.826-10.756,.474,.749,.936,1.473,1.385,2.166,.647-.047,1.297,.03,1.916,.225-.508,.101-1.007,.243-1.491,.424,1.183,1.876,2.458,3.69,3.804,5.451-4.066-2.391-10.771-1.881-16.404,2.319,4.62,1.406,9.414,2.095,14.222,2.075-1.678,.531-3.353,1.41-4.848,2.574,.148,1.058,.522,2.071,1.098,2.971-1.014-.263-1.869-.943-2.353-1.872-2.139,1.973-3.545,4.613-3.988,7.489,3.329,.172,6.324-1.117,8.8-2.964-7.184,12.333-8.736,29.163-8.961,39.173-2.445,1.558-4.857,3.157-7.226,4.783-2.418,1.66-4.804,3.368-7.182,5.085-.665-11.821-3.002-28.329-10.31-40.873,2.904,2.166,6.416,3.678,10.32,3.476-.519-3.373-2.168-6.47-4.677-8.783-.568,1.089-1.57,1.887-2.759,2.196,.676-1.055,1.115-2.244,1.288-3.484-1.753-1.364-3.719-2.396-5.687-3.019,5.639,.023,11.262-.786,16.68-2.434-6.606-4.926-14.47-5.524-19.239-2.72,1.578-2.065,3.074-4.193,4.461-6.393-.569-.213-1.154-.379-1.749-.498,.726-.229,1.488-.318,2.247-.263,.527-.813,1.069-1.662,1.625-2.54-7.647,1.665-13.324,7.575-11.524,12.615-4.198-5.65-14.544-3.167-21.288,4.358l3.791-.205c.406-.866,.975-1.647,1.676-2.298-.234,.718-.415,1.452-.542,2.196,3.494-.161,6.976-.491,10.435-.982-5.442,3.178-9.239,11.315-8.057,20.62,5.413-5.159,9.863-11.221,13.192-17.892-.656,2.724-.511,5.943,.458,8.933,.39,.06,.784,.087,1.179,.081-.317,.184-.647,.343-.988,.476,.458,1.263,1.072,2.463,1.83,3.572,.61,.23,1.243,.394,1.888,.49-.402,.164-.818,.289-1.244,.373,.905,1.13,1.997,2.098,3.228,2.862,1.833-3.602,1.703-7.586,.712-11.161,6.099,14.912,6.723,34.497,6.431,46.207-18.249,13.794-35.258,29.23-50.695,46.113l234.671,.572c-8.413-9.757-17.274-19.127-26.521-28.097,.069-12.107,1.462-28.778,7.447-41.923-1.138,3.687-1.287,7.796,.817,11.51,1.413-.787,2.666-1.785,3.705-2.951-.488-.087-.967-.216-1.428-.385,.74-.099,1.467-.269,2.168-.506,.87-1.144,1.575-2.381,2.101-3.683-.392-.137-.771-.301-1.134-.491,.453,.007,.905-.021,1.353-.083,1.113-3.083,1.279-6.404,.526-9.212,3.822,6.879,8.931,13.131,15.144,18.451,1.358-9.596-3.001-17.988-9.249-21.265,3.972,.507,7.969,.847,11.98,1.013-.145-.767-.353-1.524-.622-2.264,.805,.672,1.458,1.477,1.924,2.37Zm-96.919-20.393l-.003,.006h-.002l.005-.006Zm-7.598-34.522l-.005,.012h-.004l.009-.012Zm-50.87,23.26l-.004,.01h-.003l.007-.01Zm-48.47,6.704l-.005-.012,.009,.012h-.004Zm182.586,22.572h-.004l.01-.012-.006,.012Z" style="fill:#f0f0f0;"></path><path d="M410.455,169.194c-1.853-1.4-4.556-1.558-6.56-.385-2.66-5.375-10.072-7.747-15.358-4.915-1.379-5.792-7.086-10.244-13.039-10.172-5.953,.072-11.551,4.66-12.791,10.483-.197,.926-.327,1.939-.989,2.615-1.075,1.098-2.871,.73-4.403,.61-4.821-.376-9.673,3.009-10.984,7.664l66.398-.242c.582-2.248-.419-4.259-2.272-5.659Z" style="fill:#f0f0f0;"></path><path d="M337.169,99.86c-1.853-1.4-4.556-1.558-6.56-.385-2.66-5.375-10.072-7.747-15.358-4.915-1.379-5.792-7.086-10.244-13.039-10.173-5.953,.072-11.551,4.66-12.791,10.483-.197,.926-.327,1.939-.989,2.615-1.075,1.098-2.871,.73-4.403,.61-4.821-.376-9.673,3.009-10.984,7.664l66.398-.242c.582-2.248-.419-4.259-2.272-5.659Z" style="fill:#f0f0f0;"></path><path d="M170.152,219.976c-2.205-1.666-5.422-1.855-7.807-.458-3.165-6.396-11.986-9.219-18.277-5.849-1.641-6.892-8.432-12.19-15.517-12.105-7.085,.085-13.746,5.545-15.221,12.475-.234,1.101-.389,2.308-1.177,3.113-1.28,1.307-3.416,.868-5.24,.726-5.737-.448-11.511,3.581-13.071,9.12l79.013-.288c.692-2.675-.499-5.068-2.704-6.734Z" style="fill:#e6e6e6;"></path><path d="M237.752,168.795c-2.876-2.173-7.073-2.419-10.183-.597-4.129-8.343-15.634-12.025-23.84-7.63-2.141-8.99-10.999-15.901-20.24-15.79-9.241,.111-17.93,7.233-19.854,16.272-.306,1.437-.508,3.01-1.535,4.06-1.669,1.705-4.456,1.133-6.835,.947-7.484-.584-15.015,4.67-17.05,11.896l103.064-.375c.903-3.49-.651-6.61-3.527-8.783Z" style="fill:#f0f0f0;"></path><path d="M163.115,83.042c-2.876-2.173-7.073-2.419-10.183-.597-4.129-8.343-15.634-12.025-23.84-7.63-2.141-8.99-10.999-15.901-20.24-15.79-9.241,.111-17.93,7.233-19.854,16.272-.306,1.437-.508,3.01-1.535,4.06-1.669,1.705-4.456,1.133-6.835,.947-7.484-.584-15.015,4.671-17.05,11.896l103.064-.375c.903-3.49-.651-6.61-3.527-8.783Z" style="fill:#f0f0f0;"></path></g><g id="freepik--Shadow--inject-73"><path d="M421.841,438.813c0,5.13-76.936,9.289-171.841,9.289s-171.842-4.159-171.842-9.289,76.936-9.289,171.842-9.289,171.841,4.159,171.841,9.289Z" style="fill:#f5f5f5;"></path><path d="M262.027,42.44c-.14,0-.274-.079-.339-.214l-6.493-13.676c-.089-.187-.009-.411,.178-.5,.188-.088,.411-.008,.5,.178l6.493,13.676c.089,.187,.009,.411-.178,.5-.052,.024-.107,.036-.161,.036Z" style="fill:#263238;"></path></g><g id="freepik--Reflection--inject-73"><g><g style="opacity:.3;"><path d="M160.104,438.605c4.925,8.335,17.828,12.272,33.97,12.272,12.998,0,60.028-4.507,62.401,.167-13.455,1.808-49.308,6.334-62.763,8.142-3.017,.405-6.579,1.139-7.423,3.186-.718,1.739,1.119,3.588,3.472,4.37,2.353,.782,5.074,.761,7.683,.724,10.449-.148,20.898-.296,31.348-.443,4.161-.059,9.695,.681,10.029,3.556,.358,3.075-5.639,4.275-10.09,4.217-4.451-.058-10.385,.509-10.988,3.566,.341,1.593,21.507,.731,31.669-1.567,3.955-.894,8.18-2.323,9.607-5.031,1.578-2.994-1.106-6.42-4.96-8.159-3.854-1.739-8.588-2.193-13.15-2.605,11.083-4.134,24.213-4.477,36.799-4.424,12.586,.053,25.537,.368,37.337-2.667s22.308-10.408,22.212-19.129l-177.152,3.824Z" style="fill:#407BFF;"></path></g><ellipse cx="203.012" cy="476.987" rx="7.171" ry="2.048" style="fill:#407BFF; opacity:.3;"></ellipse></g></g><g id="freepik--Boat--inject-73"><g><g><path d="M110.914,393.955s9.696-10.003,21.742-10.971c12.046-.968,63.464-3.872,63.464-3.872l12.086-20.808,95.156,.803,35.552,31.299-228,3.549Z" style="fill:#263238;"></path><path d="M110.914,393.955s9.696-10.003,21.742-10.971c12.046-.968,63.464-3.872,63.464-3.872l12.086-20.808,95.156,.803,35.552,31.299-228,3.549Z" style="fill:#fff; opacity:.6;"></path><polygon points="314.536 378.427 300.135 362.772 242.979 362.26 236.826 378.785 314.536 378.427" style="fill:#407BFF;"></polygon><polygon points="314.536 378.427 300.135 362.772 242.979 362.26 236.826 378.662 314.536 378.427" style="fill:#fff; opacity:.4;"></polygon><polygon points="242.253 364.21 299.147 364.21 311.881 378.439 314.743 378.662 300.135 362.772 242.979 362.26 242.253 364.21" style="opacity:.3;"></polygon><polygon points="301.836 367.213 275.903 378.544 286.935 378.544 304.742 370.461 301.836 367.213" style="fill:#fff; opacity:.4;"></polygon><polygon points="288.432 364.21 250.102 378.785 241.579 378.785 279.952 364.21 288.432 364.21" style="fill:#fff; opacity:.4;"></polygon></g><polygon points="115.41 388.198 114.66 388.198 114.66 368.862 103.263 368.862 103.263 388.198 102.513 388.198 102.513 368.112 115.41 368.112 115.41 388.198" style="fill:#263238;"></polygon><path d="M166.667,368.119v20.476c0,.483,.75,.483,.75,0v-20.476c0-.483-.75-.483-.75,0h0Z" style="fill:#263238;"></path><path d="M217.856,368.119v20.476c0,.483,.75,.483,.75,0v-20.476c0-.483-.75-.483-.75,0h0Z" style="fill:#263238;"></path><path d="M269.044,368.119v20.476c0,.483,.75,.483,.75,0v-20.476c0-.483-.75-.483-.75,0h0Z" style="fill:#263238;"></path><path d="M321.663,365.891v20.476c0,.483,.75,.483,.75,0v-20.476c0-.483-.75-.483-.75,0h0Z" style="fill:#263238;"></path><path d="M372.93,362.426v20.476c0,.483,.75,.483,.75,0v-20.476c0-.483-.75-.483-.75,0h0Z" style="fill:#263238;"></path><path d="M401.518,360.501v20.476c0,.483,.75,.483,.75,0v-20.476c0-.483-.75-.483-.75,0h0Z" style="fill:#263238;"></path><g><rect x="252.233" y="23.178" width="6.231" height="365.416" style="fill:#263238;"></rect><rect x="119.105" y="335.135" width="10.55" height=".75" transform="translate(-232.591 310.83) rotate(-65.704)" style="fill:#263238;"></rect><path d="M245.506,40.059c-.053,0-.108-.011-.159-.036-.188-.088-.268-.312-.18-.499l6.728-14.275c.088-.187,.313-.268,.499-.18,.188,.088,.268,.312,.179,.499l-6.727,14.275c-.064,.136-.199,.215-.34,.215Z" style="fill:#263238;"></path><polygon points="258.647 364.585 253.028 364.585 236.311 344.292 236.89 343.815 253.382 363.835 258.28 363.835 272.019 346.084 272.612 346.543 258.647 364.585" style="fill:#263238;"></polygon><rect x="252.233" y="23.178" width="6.231" height="365.416" style="fill:#fff; opacity:.4;"></rect><g><rect x="117.675" y="338.874" width="134.559" height="5.28" style="fill:#263238;"></rect><rect x="246.458" y="328.016" width=".75" height="13.543" transform="translate(-169.079 329.612) rotate(-52.886)" style="fill:#263238;"></rect><rect x="241.481" y="340.533" width=".75" height="34.378" transform="translate(-167.377 219.925) rotate(-37.328)" style="fill:#263238;"></rect><polygon points="122.211 330.702 243.962 330.702 245.506 38.056 122.211 330.702" style="fill:#407BFF;"></polygon><polygon points="122.211 330.702 243.962 330.702 245.506 38.056 122.211 330.702" style="fill:#fff; opacity:.4;"></polygon><rect x="117.675" y="338.874" width="134.559" height="5.28" style="fill:#fff; opacity:.4;"></rect><path d="M122.211,330.702s149.992-113.728,85.973-93.756c-46.336,14.456,38.65-181.795,38.65-181.795l-2.871,275.55H122.211Z" style="fill:#407BFF; opacity:.3;"></path></g></g><path d="M195.583,374.289c-14.823,0-27.386-3.475-28.56-3.81-33.777,6.208-51.958-1.57-52.139-1.649l.303-.686c.178,.078,18.207,7.771,51.788,1.581l.088-.016,.086,.025c.282,.083,28.367,8.242,50.959,.417l.102-.035,.104,.024c.295,.065,29.799,6.669,50.992-.045l.086-.027,.089,.015c.323,.055,32.47,5.306,52.43-1.949l.083-.03,.088,.011c.421,.048,42.138,4.77,50.985-2.513l.136-.112,.174,.033c.157,.031,15.799,2.952,28.347-3.432l.34,.668c-12.062,6.138-26.891,3.833-28.656,3.531-9.233,7.233-48.632,2.886-51.323,2.579-19.628,7.088-50.728,2.274-52.636,1.969-20.738,6.53-49.226,.488-51.195,.057-7.365,2.533-15.298,3.394-22.669,3.394Z" style="fill:#407BFF;"></path><path d="M195.583,382.061c-14.823,0-27.386-3.475-28.56-3.81-33.777,6.208-51.958-1.569-52.139-1.649l.303-.686c.178,.078,18.207,7.771,51.788,1.581l.088-.016,.086,.025c.282,.084,28.367,8.241,50.959,.417l.102-.035,.104,.024c.295,.066,29.799,6.669,50.992-.045l.086-.027,.089,.015c.323,.055,32.47,5.306,52.43-1.949l.083-.03,.088,.011c.421,.048,42.138,4.771,50.985-2.513l.136-.112,.174,.033c.157,.031,15.799,2.952,28.347-3.432l.34,.668c-12.062,6.138-26.891,3.834-28.656,3.531-9.233,7.233-48.632,2.886-51.323,2.579-19.628,7.089-50.728,2.275-52.636,1.969-20.738,6.53-49.226,.488-51.195,.057-7.365,2.533-15.298,3.394-22.669,3.394Z" style="fill:#407BFF;"></path><polygon points="385.049 382.99 378.123 364.889 378.59 364.711 385.516 382.812 385.049 382.99" style="fill:#263238;"></polygon><path d="M272.316,346.313s72.755,1.47,107.295,19.107c0,0-25.722-226.349-117.584-323.356,0,0,30.866,210.916,10.289,304.248Z" style="fill:#407BFF;"></path><path d="M272.316,346.313s72.755,1.47,107.295,19.107c0,0-25.722-226.349-117.584-323.356,0,0,30.866,210.916,10.289,304.248Z" style="fill:#fff; opacity:.4;"></path><path d="M98.017,387.997s11.494,27.459,19.796,37.357c8.302,9.898,35.122,12.772,44.062,13.091,8.94,.319,173.374,.639,180.079,0s25.224-4.151,36.718-23.308c11.494-19.157,27.778-35.122,27.778-35.122-.307,0-188.841,13.159-308.434,7.982Z" style="fill:#407BFF;"></path><path d="M102.888,398.927l2.505,5.252s244.062-4.09,288.088-9.76l3.835-4.539s-150.146,9.048-294.428,9.046Z" style="fill:#fff;"></path><path d="M98.017,387.997s1.973,4.711,4.871,10.93h0s230.546,.36,294.428-9.046c5.279-6.083,9.135-9.866,9.135-9.866-.307,0-188.841,13.159-308.434,7.982Z" style="fill:#fff; opacity:.4;"></path><g><circle cx="194.513" cy="416.459" r="10.655" transform="translate(-255.596 509.599) rotate(-76.655)" style="opacity:.3;"></circle><circle cx="194.513" cy="416.402" r="8.033" transform="translate(-143.916 105.449) rotate(-22.384)" style="fill:#407BFF;"></circle><circle cx="194.513" cy="416.402" r="8.033" transform="translate(-143.916 105.449) rotate(-22.384)" style="fill:#fff; opacity:.4;"></circle><path d="M199.743,410.309l-12.413,9.684s1.282,2.199,2.484,2.917l12.13-9.561s-.952-2.159-2.201-3.04Z" style="fill:#fff;"></path></g><g><circle cx="252.233" cy="416.61" r="10.655" transform="translate(-223.758 313.566) rotate(-46.592)" style="opacity:.3;"></circle><circle cx="252.233" cy="416.553" r="8.033" transform="translate(-220.67 300.362) rotate(-45)" style="fill:#407BFF;"></circle><circle cx="252.233" cy="416.553" r="8.033" transform="translate(-220.67 300.362) rotate(-45)" style="fill:#fff; opacity:.4;"></circle><path d="M257.463,410.46l-12.413,9.684s1.282,2.199,2.484,2.917l12.13-9.561s-.952-2.159-2.201-3.04Z" style="fill:#fff;"></path></g><g><circle cx="304.28" cy="416.402" r="10.655" transform="translate(-205.319 337.12) rotate(-45)" style="opacity:.3;"></circle><circle cx="304.28" cy="416.346" r="8.033" transform="translate(-170.674 617.215) rotate(-76.764)" style="fill:#407BFF;"></circle><circle cx="304.28" cy="416.346" r="8.033" transform="translate(-170.674 617.215) rotate(-76.764)" style="fill:#fff; opacity:.4;"></circle><path d="M309.51,410.252l-12.413,9.684s1.282,2.199,2.484,2.917l12.13-9.562s-.952-2.159-2.201-3.04Z" style="fill:#fff;"></path></g><path d="M262.835,47.808s14.978,85.057,36.339,185.871c10.978,51.809,39.37,98.302,80.437,131.742h0c-26.776-12.443-64.613-17.413-107.295-19.107,0,0,5.283-28.87,6.079-49.079,.482-12.245,1.18-35.805,.878-57.228-.196-13.934-1.384-27.068-1.379-35.24,.014-22.311-15.058-156.958-15.058-156.958Z" style="fill:#407BFF; opacity:.3;"></path><g><path d="M142.566,380.322v8.299c0,.483,.75,.483,.75,0v-8.299c0-.483-.75-.483-.75,0h0Z" style="fill:#263238;"></path><rect x="141.675" y="388.474" width="2.813" height="1.834" style="fill:#263238;"></rect><circle cx="143.082" cy="397.487" r="7.533" style="fill:#407BFF;"></circle><circle cx="143.082" cy="397.487" r="7.533" style="opacity:.3;"></circle><path d="M137.813,393.384s-2.824,4.724-.197,8.181c2.842,3.741,7.133,2.367,7.133,2.367,0,0-4.373-.899-5.451-3.613-1.485-3.738,.841-6.105,.841-6.105l-2.326-.83Z" style="fill:#fff; opacity:.2;"></path><path d="M137.813,392.104s5.271,2.881,10.536,0c0,0-1.961-2.319-5.268-2.151-3.307,.168-4.916,1.782-5.269,2.151Z" style="fill:#263238;"></path></g><g><path d="M240.632,380.322v8.299c0,.483,.75,.483,.75,0v-8.299c0-.483-.75-.483-.75,0h0Z" style="fill:#263238;"></path><rect x="239.741" y="388.474" width="2.813" height="1.834" style="fill:#263238;"></rect><circle cx="241.147" cy="397.487" r="7.533" style="fill:#407BFF;"></circle><circle cx="241.147" cy="397.487" r="7.533" style="opacity:.3;"></circle><path d="M235.879,393.384s-2.824,4.724-.197,8.181c2.842,3.741,7.133,2.367,7.133,2.367,0,0-4.373-.899-5.451-3.613-1.485-3.738,.841-6.105,.841-6.105l-2.326-.83Z" style="fill:#fff; opacity:.2;"></path><path d="M235.879,392.104s5.271,2.881,10.537,0c0,0-1.961-2.319-5.268-2.151-3.306,.168-4.916,1.782-5.269,2.151Z" style="fill:#263238;"></path></g><g><path d="M347.532,377.818v10.802c0,.483,.75,.483,.75,0v-10.802c0-.483-.75-.483-.75,0h0Z" style="fill:#263238;"></path><rect x="346.641" y="388.474" width="2.813" height="1.834" style="fill:#263238;"></rect><circle cx="348.048" cy="397.487" r="7.533" style="fill:#407BFF;"></circle><circle cx="348.048" cy="397.487" r="7.533" style="opacity:.3;"></circle><path d="M342.779,393.384s-2.824,4.724-.197,8.181c2.842,3.741,7.133,2.367,7.133,2.367,0,0-4.373-.899-5.451-3.613-1.485-3.738,.841-6.105,.841-6.105l-2.326-.83Z" style="fill:#fff; opacity:.2;"></path><path d="M342.779,392.104s5.271,2.881,10.536,0c0,0-1.961-2.319-5.268-2.151-3.307,.168-4.916,1.782-5.269,2.151Z" style="fill:#263238;"></path></g><path d="M149.451,330.702s51.184-1.176,62.795-8.522c11.611-7.346,32.321-49.524,32.321-49.524l-.605,58.046h-94.511" style="fill:#407BFF; opacity:.3;"></path><path d="M135.549,434.485l228.241-3.736s-9.872,7.475-21.836,7.696c-11.964,.221-183.755,.369-183.755,.369,0,0-20.373-3.672-22.649-4.328Z" style="opacity:.3;"></path></g></g><g id="freepik--Sun--inject-73"><g id="freepik--freepik--Sun--inject-5--inject-73"><g><path d="M432.669,83.331c0,2.604-3.766,4.672-4.408,7.07s1.541,6.155,.288,8.322c-1.252,2.167-5.57,2.126-7.358,3.906-1.788,1.78-1.706,6.089-3.906,7.358-2.2,1.269-5.842-.948-8.322-.288-2.48,.659-4.474,4.408-7.07,4.408s-4.672-3.766-7.07-4.408c-2.398-.643-6.147,1.549-8.322,.288-2.175-1.261-2.118-5.57-3.906-7.358s-6.081-1.697-7.358-3.906c-1.277-2.208,.947-5.867,.288-8.339-.659-2.472-4.408-4.466-4.408-7.07s3.766-4.664,4.408-7.062c.643-2.398-1.541-6.155-.288-8.322,1.252-2.167,5.57-2.126,7.358-3.914,1.788-1.788,1.706-6.081,3.906-7.358,2.2-1.277,5.842,.956,8.322,.288,2.48-.667,4.474-4.4,7.07-4.4s4.672,3.766,7.07,4.4c2.398,.634,6.147-1.541,8.322-.288,2.175,1.252,2.118,5.57,3.906,7.358,1.788,1.788,6.081,1.706,7.358,3.914,1.277,2.208-.947,5.842-.288,8.322,.659,2.48,4.408,4.482,4.408,7.078Z" style="fill:#407BFF;"></path><path d="M432.669,83.331c0,2.604-3.766,4.672-4.408,7.07s1.541,6.155,.288,8.322c-1.252,2.167-5.57,2.126-7.358,3.906-1.788,1.78-1.706,6.089-3.906,7.358-2.2,1.269-5.842-.948-8.322-.288-2.48,.659-4.474,4.408-7.07,4.408s-4.672-3.766-7.07-4.408c-2.398-.643-6.147,1.549-8.322,.288-2.175-1.261-2.118-5.57-3.906-7.358s-6.081-1.697-7.358-3.906c-1.277-2.208,.947-5.867,.288-8.339-.659-2.472-4.408-4.466-4.408-7.07s3.766-4.664,4.408-7.062c.643-2.398-1.541-6.155-.288-8.322,1.252-2.167,5.57-2.126,7.358-3.914,1.788-1.788,1.706-6.081,3.906-7.358,2.2-1.277,5.842,.956,8.322,.288,2.48-.667,4.474-4.4,7.07-4.4s4.672,3.766,7.07,4.4c2.398,.634,6.147-1.541,8.322-.288,2.175,1.252,2.118,5.57,3.906,7.358,1.788,1.788,6.081,1.706,7.358,3.914,1.277,2.208-.947,5.842-.288,8.322,.659,2.48,4.408,4.482,4.408,7.078Z" style="fill:#fff;"></path></g><path d="M393.476,63.009c11.221-4.648,24.086,.681,28.734,11.902s-.681,24.086-11.902,28.734c-11.221,4.648-24.086-.681-28.734-11.902-4.648-11.221,.681-24.086,11.902-28.734Z" style="fill:#407BFF;"></path></g></g><g id="freepik--Birds--inject-73"><g><g><path d="M135.288,120.105s.482-6.825,1.756-7.89c1.274-1.066,9.067-3.655,9.067-3.655,0,0-3.083,10.521-4.956,11.734-1.873,1.214-5.866-.189-5.866-.189Z" style="fill:#407BFF;"></path><path d="M146.11,108.56h0c-.096,.324-3.115,10.548-4.956,11.734-1.235,.541-2.562,.653-3.843,.324-.682-.121-1.357-.292-2.023-.513,0,0,.492-6.838,1.756-7.89,1.263-1.052,8.35-3.426,9.024-3.642h0l.043-.014Z" style="fill:#fff; opacity:.6;"></path><path d="M131.317,116.005c1.766,0,5.791,2.428,7.119,2.549,1.327,.121,7.921-5.597,9.334-6.542,1.413-.944,13.841-3.048,13.841-3.048,0,0-8.243,10.628-13.841,10.939,0,0,4.143,1.457,5.352,1.066,3.835-.996,4.574-1.397,8.489-1.352l-4.496,3.065,6.733,1.039c-3.116,.698-6.293,.848-9.442,.445-2.406,1.111-4.88,1.972-7.397,2.576-3.503,1.132-7.225,.172-10.094-2.603-2.419-2.468-10.394-5.26-10.394-5.26l2.719-1.214c.396-.994,1.194-1.632,2.077-1.659Z" style="fill:#407BFF;"></path><path d="M131.317,116.005c1.766,0,5.791,2.428,7.119,2.549,1.327,.121,7.921-5.597,9.334-6.542,1.413-.944,13.841-3.048,13.841-3.048,0,0-8.243,10.628-13.841,10.939,0,0,4.143,1.457,5.352,1.066,3.835-.996,4.574-1.397,8.489-1.352l-4.496,3.065,6.733,1.039c-3.116,.698-6.293,.848-9.442,.445-2.406,1.111-4.88,1.972-7.397,2.576-3.503,1.132-7.225,.172-10.094-2.603-2.419-2.468-10.394-5.26-10.394-5.26l2.719-1.214c.396-.994,1.194-1.632,2.077-1.659Z" style="fill:#fff; opacity:.8;"></path><polygon points="129.186 117.705 129.957 118.406 129.497 120.105 126.521 118.878 129.186 117.705" style="fill:#263238;"></polygon><path d="M132.54,118.453c0,.451-.29,.816-.647,.816s-.647-.365-.647-.816,.29-.816,.647-.816,.647,.365,.647,.816Z" style="fill:#263238;"></path></g><g><path d="M89.037,157.754c1.285-1.078,6.578,6.545,9.079,7.498-1.78,.818-3.709,.851-5.503,.094-2.757-1.296-4.931-6.467-3.575-7.591Z" style="fill:#407BFF;"></path><path d="M98.116,165.252c-1.78,.81-3.706,.849-5.503,.109-2.757-1.296-4.931-6.482-3.575-7.607,.304-.265,.83,0,1.496,.484,2.138,1.671,5.678,6.279,7.583,7.013Z" style="fill:#fff; opacity:.6;"></path><path d="M84.866,156.286c1.297-.391,4.534,.812,5.527,.672,.993-.141,7.011-.687,7.011-.687,1.662-.254,2.852-.323,4.191-.634,2.709-1.489,5.393-2.127,8.276-2.818l-5.293,3.874,5.036-.39c-2.217,1.133-4.541,1.847-6.905,2.124-1.649,1.302-3.372,2.43-5.153,3.374-2.45,1.544-5.297,1.486-7.711-.156-2.056-1.468-8.237-2.171-8.237-2.171l1.87-1.453c.176-.887,.716-1.561,1.39-1.734Z" style="fill:#407BFF;"></path><path d="M84.866,156.286c1.297-.391,4.534,.812,5.527,.672,.993-.141,7.011-.687,7.011-.687,1.662-.254,2.852-.323,4.191-.634,2.709-1.489,5.393-2.127,8.276-2.818l-5.293,3.874,5.036-.39c-2.217,1.133-4.541,1.847-6.905,2.124-1.649,1.302-3.372,2.43-5.153,3.374-2.45,1.544-5.297,1.486-7.711-.156-2.056-1.468-8.237-2.171-8.237-2.171l1.87-1.453c.176-.887,.716-1.561,1.39-1.734Z" style="fill:#fff; opacity:.8;"></path><polygon points="83.44 158.02 84.083 158.41 83.931 159.816 81.571 159.472 83.44 158.02" style="fill:#263238;"></polygon><path d="M91.853,157.02c2.337-1.656,15.82,5.545,21.359,5.873-3.712,1.55-7.605,2.17-11.485,1.828-6.228-.64-12.362-5.967-9.873-7.7Z" style="fill:#407BFF;"></path><ellipse cx="85.205" cy="158.203" rx=".514" ry=".648" style="fill:#263238;"></ellipse></g><path d="M91.853,157.02c2.337-1.656,15.82,5.545,21.359,5.873-3.712,1.55-7.605,2.17-11.485,1.828-6.228-.64-12.362-5.967-9.873-7.7Z" style="fill:#fff; opacity:.8;"></path></g></g></svg>
